<svg width="32" height="32" viewBox="0 0 32 32" fill="none" xmlns="http://www.w3.org/2000/svg">
<rect width="32" height="32" fill="white"/>
<path fill-rule="evenodd" clip-rule="evenodd" d="M15.2237 6.75619C14.5379 7.41622 14.1151 8.24274 14.0214 9.10669C13.9309 9.94087 14.2472 10.858 14.85 11.5096C15.0301 11.7044 15.3305 11.9749 15.3666 11.9749C15.3717 11.9749 15.3067 11.8934 15.2222 11.7937C14.5554 11.0069 14.2334 10.0134 14.3251 9.02599C14.3925 8.30017 14.6686 7.59857 15.1545 6.91862C15.2257 6.81897 15.3122 6.70649 15.3469 6.66869C15.4575 6.54787 15.3914 6.59484 15.2237 6.75619ZM15.9184 6.62494C15.9316 6.64557 16.0106 6.75244 16.094 6.86244C16.3935 7.25742 16.673 7.80234 16.8122 8.26244C17.0911 9.18419 17.0143 10.1439 16.5947 10.9833C16.4498 11.273 16.2725 11.5499 16.1036 11.7499C15.9079 11.9818 15.9007 11.994 16.0005 11.925C16.1675 11.8095 16.5415 11.4112 16.7048 11.1749C17.0952 10.61 17.2777 10.0408 17.2769 9.39042C17.2762 8.84042 17.1839 8.46739 16.9109 7.91244C16.7104 7.50487 16.4858 7.19017 16.1537 6.85169C16.0111 6.70637 15.9053 6.60432 15.9184 6.62494ZM18.5506 9.75619C18.5507 9.75962 18.5849 9.89182 18.6267 10.0499C18.7776 10.6217 18.8718 11.1137 18.9401 11.6869C18.9871 12.0813 18.9938 13.1266 18.9521 13.5624C18.8955 14.1541 18.7203 15.2026 18.6503 15.3687C18.6372 15.3996 18.6356 15.4249 18.6467 15.4249C18.6727 15.4249 18.8725 15.0223 18.9821 14.7493C19.4949 13.4711 19.4587 11.8163 18.8874 10.4209C18.7379 10.0559 18.5487 9.68244 18.5506 9.75619ZM12.6464 10.1187C12.3689 10.7924 12.1648 11.5471 12.0582 12.293C11.9976 12.7178 11.9978 13.7874 12.0587 14.1499C12.153 14.7115 12.2663 15.0883 12.4795 15.5499C12.7141 16.0579 13.2073 16.6772 13.6702 17.0451C14.1866 17.4556 14.625 17.662 15.1911 17.761C16.0367 17.9089 16.9296 17.5941 17.6258 16.9027C17.909 16.6214 18.0106 16.4742 17.7977 16.6536C17.5196 16.888 17.0957 17.1356 16.763 17.258C16.2198 17.4578 15.6506 17.4851 15.1359 17.3363C14.8775 17.2615 14.4504 17.0448 14.2071 16.8649C13.8412 16.5943 13.3216 16.0107 13.07 15.5874C12.7804 15.1003 12.5926 14.5202 12.4727 13.7417C12.4272 13.4467 12.418 13.2788 12.4175 12.7374C12.4171 12.3778 12.4302 11.9813 12.4468 11.8499C12.4632 11.7193 12.4887 11.5168 12.5033 11.3999C12.5522 11.008 12.706 10.1689 12.7885 9.84369C12.8227 9.70879 12.786 9.77984 12.6464 10.1187ZM13.269 10.7124C13.2087 11.2357 13.2299 11.7993 13.3286 12.2999C13.6488 13.9232 14.8615 15.2234 16.4318 15.6269C16.7825 15.717 17.0672 15.7492 17.488 15.7463C17.8272 15.7439 17.8652 15.7401 17.738 15.7209C17.3938 15.669 17.0003 15.5894 16.813 15.5339C14.886 14.9621 13.6415 13.5202 13.3744 11.5499C13.3586 11.4331 13.3323 11.1631 13.3159 10.9499C13.289 10.5981 13.2847 10.5763 13.269 10.7124ZM17.777 11.9019C17.7717 12.2039 17.459 12.9613 17.1947 13.3123C17.0529 13.5006 16.7574 13.8085 16.5755 13.9575C16.4848 14.0317 16.4761 14.045 16.5309 14.0257C17.0752 13.8342 17.5898 13.2514 17.7567 12.6374C17.8129 12.4307 17.842 11.9658 17.8045 11.8749C17.7797 11.8151 17.7786 11.8162 17.777 11.9019ZM6.85046 16.9368C6.33013 16.9979 5.94423 17.0895 5.42393 17.2751C5.16743 17.3666 4.50976 17.6693 4.52991 17.6866C4.53433 17.6904 4.70671 17.6509 4.91296 17.5989C5.88623 17.3536 6.63931 17.2499 7.44818 17.2499C7.80113 17.2499 8.33573 17.2798 8.57546 17.3129C8.62358 17.3196 8.74891 17.3358 8.85398 17.349C9.17013 17.3887 9.74681 17.4939 10.163 17.5877L10.238 17.6046L10.1625 17.5561C9.81053 17.3303 9.06401 17.0701 8.50046 16.9768C7.99646 16.8934 7.35291 16.8778 6.85046 16.9368ZM22.8755 16.985C22.4469 17.0264 22.3754 17.0382 22.0253 17.1254C21.3211 17.3006 20.7801 17.5749 20.2326 18.0343C19.5524 18.6051 19.106 19.2862 18.9522 19.9874C18.9189 20.1391 18.8777 20.5407 18.8882 20.6113C18.8924 20.6394 18.9028 20.7481 18.9113 20.8528C18.9492 21.3157 19.1539 21.8136 19.4924 22.2661C19.626 22.4448 20.0568 22.8749 20.102 22.8749C20.1152 22.8749 20.0775 22.8153 20.0181 22.7425C19.7749 22.4438 19.5554 22.072 19.4376 21.7592C19.2911 21.3698 19.2643 21.2168 19.2656 20.7749C19.2666 20.4002 19.2729 20.3418 19.3345 20.1374C19.4779 19.6617 19.7386 19.2232 20.113 18.8279C20.4697 18.4513 20.9059 18.121 21.321 17.9131C22.0192 17.5636 22.7333 17.408 23.7505 17.3837C24.4059 17.368 24.9051 17.4029 25.6255 17.5147C25.9957 17.5721 26.7591 17.7211 26.888 17.761C26.9155 17.7695 26.9098 17.7626 26.8755 17.7455C26.1541 17.3883 24.9949 17.0729 24.0968 16.9894C23.7451 16.9568 23.1889 16.9548 22.8755 16.985ZM18.9255 17.3889C18.6749 17.5718 18.4029 17.841 18.208 18.099C18.0061 18.3663 17.7711 18.8418 17.6894 19.1485C17.6548 19.2784 17.6122 19.3976 17.5947 19.4134C17.5469 19.4567 17.1659 19.6103 16.9255 19.6833C16.4279 19.8342 16.2296 19.8618 15.6505 19.8606C15.1909 19.8597 15.0749 19.8514 14.8505 19.8034C14.5114 19.731 14.2916 19.6675 14.0125 19.5613L13.787 19.4755L13.7542 19.3346C13.6628 18.9414 13.4767 18.5188 13.2468 18.1822C13.0887 17.9507 12.6749 17.5299 12.459 17.3811C12.3116 17.2794 12.317 17.287 12.5866 17.5562C12.9906 17.9595 13.2376 18.3507 13.3971 18.8392C13.4751 19.0782 13.5187 19.2999 13.4877 19.2999C13.451 19.2999 13.143 19.0663 12.9856 18.919C12.5963 18.5549 12.3054 18.077 12.1749 17.5874C12.1167 17.3692 12.1073 17.4852 12.162 17.7455C12.3037 18.4189 12.6808 18.9889 13.263 19.4095C13.6076 19.6584 13.5755 19.5956 13.5755 20.0206C13.5755 21.2484 13.1332 22.5274 12.3479 23.5708L12.2224 23.7374L12.389 23.5624C13.2797 22.6267 13.8255 21.2923 13.8255 20.0505V19.7547L14.0442 19.8416C14.507 20.0254 14.9079 20.1163 15.3836 20.1452C16.0531 20.1859 16.6664 20.0839 17.2897 19.8282C17.4281 19.7714 17.549 19.7249 17.5584 19.7249C17.5678 19.7249 17.5755 19.8706 17.5755 20.0487C17.5755 20.4275 17.6275 20.8613 17.7152 21.2124C17.8992 21.9496 18.3024 22.7424 18.783 23.3124C19.0417 23.6192 19.1862 23.7559 19.0208 23.5374C18.7305 23.1537 18.424 22.6134 18.2551 22.1874C17.9256 21.3565 17.793 20.616 17.8198 19.7568L17.8255 19.5762L18.0453 19.4149C18.569 19.0305 18.9742 18.4791 19.1483 17.9139C19.1956 17.7604 19.2777 17.4085 19.2741 17.3749C19.2733 17.3681 19.2412 17.4524 19.2028 17.5624C19.0291 18.0589 18.7757 18.4711 18.4304 18.8186C18.2104 19.04 17.9392 19.247 17.9089 19.2168C17.8844 19.1923 17.9417 18.9661 18.0339 18.7232C18.2362 18.1901 18.5748 17.7194 19.0259 17.3442C19.1862 17.2108 19.1431 17.23 18.9255 17.3889ZM24.6866 18.2369C22.6757 18.5114 21.1675 20.0232 20.9522 21.9802C20.9232 22.2433 20.9156 22.7931 20.9413 22.7675C20.9499 22.7588 20.9729 22.6416 20.9924 22.5071C21.0724 21.9526 21.2787 21.3072 21.5299 20.8249C21.7998 20.307 22.0496 19.975 22.4793 19.5633C23.3143 18.7631 24.4163 18.3367 25.8005 18.2782L26.188 18.2618L25.9613 18.2309C25.6794 18.1924 24.9882 18.1957 24.6866 18.2369ZM11.4152 18.4124C11.8577 18.9556 12.0812 19.4177 12.1891 20.0124C12.3064 20.6589 12.1362 21.3449 11.7054 21.9624C11.5712 22.1548 11.1346 22.6141 10.9005 22.8092C10.705 22.9721 10.3045 23.2262 10.067 23.3381C9.69046 23.5154 9.17423 23.6718 8.71296 23.7481C7.98693 23.8683 6.89821 23.8536 5.93796 23.7108C5.67408 23.6715 4.77286 23.4926 4.62711 23.4506C4.43763 23.3959 4.54376 23.4507 4.90606 23.5947C6.02463 24.0392 6.95451 24.2335 7.97546 24.2362C8.62471 24.2379 9.00963 24.1942 9.53796 24.0588C10.8487 23.7229 12.0265 22.6925 12.4342 21.5249C12.6469 20.9156 12.6301 20.2329 12.3881 19.6502C12.2041 19.2073 11.9265 18.8121 11.5943 18.5203C11.3342 18.2917 11.3002 18.2712 11.4152 18.4124ZM6.65438 18.4361C6.66341 18.4457 6.75341 18.4705 6.85438 18.4912C7.55311 18.6342 8.26661 19.0722 8.71241 19.6318C8.76473 19.6975 8.81256 19.7462 8.81871 19.74C8.84133 19.7174 8.67448 19.4061 8.55533 19.2487C8.30466 18.9176 7.97978 18.6852 7.55166 18.5307C7.33691 18.4532 7.27911 18.4433 6.97546 18.4315C6.78983 18.4244 6.64536 18.4264 6.65438 18.4361ZM10.5195 18.4749C10.5094 18.5093 10.4837 18.6499 10.4624 18.7874C10.2026 20.4686 9.19041 21.8391 7.73066 22.4863C7.10143 22.7653 6.33681 22.9225 5.58048 22.9284C5.41138 22.9298 5.27638 22.9341 5.28048 22.938C5.32006 22.976 5.91411 23.0187 6.25541 23.0081C7.75766 22.9613 9.01238 22.3002 9.82001 21.1298C10.2124 20.5612 10.4582 19.8801 10.526 19.1735C10.5557 18.8645 10.551 18.3681 10.5195 18.4749ZM3.88208 18.9757C3.25388 19.0418 2.50633 19.3544 2.01413 19.757C1.54666 20.1393 1.32618 20.3826 1.66718 20.1398C2.24461 19.7288 2.83411 19.4569 3.41296 19.3348C4.04521 19.2014 4.85031 19.2665 5.43341 19.4981C5.90881 19.687 6.17281 19.8456 6.67456 20.2437L6.76118 20.3124L6.70061 20.2263C6.60538 20.0908 6.27891 19.7679 6.10046 19.6327C5.60953 19.2607 5.06163 19.0401 4.47018 18.9762C4.20493 18.9475 4.15106 18.9475 3.88208 18.9757ZM26.8234 18.9987C26.0642 19.1373 25.3453 19.553 24.8537 20.1375C24.7694 20.2377 24.7006 20.3293 24.7008 20.3411C24.7011 20.3528 24.7095 20.3505 24.7196 20.336C24.7606 20.2769 25.0824 20.0221 25.2787 19.8934C25.6566 19.6454 26.0852 19.461 26.5195 19.3594C26.8908 19.2726 27.4721 19.2517 27.8726 19.3107C28.539 19.4089 29.2328 19.7215 29.938 20.2413C30.0512 20.3247 30.0441 20.3139 29.863 20.127C29.3572 19.6051 28.6513 19.2048 27.938 19.0355C27.7397 18.9884 27.0113 18.9644 26.8234 18.9987ZM1.42538 20.8876C1.48813 20.9711 1.75553 21.2336 1.88796 21.3417C2.07441 21.494 2.48018 21.764 2.65593 21.8527C2.81496 21.933 3.21378 22.0932 3.29333 22.1087C3.31788 22.1135 3.35483 22.1239 3.37546 22.1317C3.43276 22.1536 3.64291 22.1951 3.84276 22.224C4.58736 22.3316 5.47393 22.0634 6.13988 21.529C6.39778 21.3221 6.76806 20.9342 6.73716 20.9033C6.72923 20.8954 6.71491 20.8998 6.70536 20.9132C6.62081 21.0312 6.09808 21.3915 5.78146 21.5499C5.20238 21.8398 4.43071 21.9894 3.84238 21.9258C3.51388 21.8904 3.14666 21.8068 2.85028 21.7001C2.43008 21.5488 1.85681 21.2232 1.51296 20.9406C1.44421 20.8841 1.40481 20.8603 1.42538 20.8876ZM24.7737 20.9749C25.3517 21.7389 26.3566 22.2494 27.2832 22.2498C28.097 22.2502 28.9654 21.893 29.6822 21.2629C29.8887 21.0815 30.0255 20.9402 30.0255 20.9083C30.0255 20.8989 30.0001 20.9143 29.9692 20.9425C29.7871 21.1084 29.2917 21.4134 28.9503 21.5698C27.958 22.0246 27.0248 22.0661 26.0222 21.7002C25.6658 21.5701 25.1048 21.2349 24.8258 20.9852L24.6886 20.8624L24.7737 20.9749ZM22.6632 21.5021C22.758 21.8083 23.1052 22.2256 23.4467 22.4441C23.8456 22.6993 24.217 22.7956 24.7255 22.7758L24.863 22.7704L24.6505 22.7216C23.8682 22.5418 23.3128 22.2105 22.7948 21.6146C22.6991 21.5045 22.6513 21.4636 22.6632 21.5021ZM26.613 23.591C26.2167 23.7031 25.5465 23.8363 25.0988 23.8918C24.5975 23.954 23.4188 23.9537 22.8898 23.8912C22.4988 23.8451 21.8077 23.7302 21.4567 23.6531C21.3433 23.6281 21.2505 23.6115 21.2505 23.6161C21.2505 23.6323 21.7533 23.8766 21.932 23.9471C22.27 24.0806 22.8434 24.2228 23.2482 24.2736C23.5129 24.3068 24.3212 24.3078 24.6011 24.2754C25.1382 24.2131 25.8194 24.0377 26.2755 23.8445C26.6579 23.6824 27.0358 23.4858 26.9317 23.503C26.9214 23.5048 26.778 23.5443 26.613 23.591Z" fill="#297230"/>
</svg>
