<svg width="3401" height="374" viewBox="0 0 3401 374" fill="none" xmlns="http://www.w3.org/2000/svg">
<g clip-path="url(#clip0_3413_2864)">
<path fill-rule="evenodd" clip-rule="evenodd" d="M3237.5 -0.163114C3237.31 0.0218859 3233.64 0.589887 3229.33 1.09789C3225.02 1.60589 3219.25 2.47989 3216.5 3.04089C3213.75 3.60089 3209.03 4.54389 3206 5.13489C3202.98 5.72589 3199.6 6.56089 3198.5 6.99089C3197.4 7.41989 3194.48 8.35189 3192 9.05989C3189.53 9.76789 3187.07 10.7199 3186.55 11.1739C3186.03 11.6279 3184.57 11.9999 3183.3 11.9999C3182.04 11.9999 3181 12.4499 3181 12.9999C3181 13.5499 3180.32 13.9999 3179.49 13.9999C3178.65 13.9999 3177.19 14.3969 3176.24 14.8829C3175.28 15.3689 3173.15 16.3679 3171.5 17.1029C3164.42 20.2559 3153.44 29.5739 3147.46 37.4999C3144.24 41.7679 3141 47.8069 3141 49.5299C3141 50.3389 3140.55 50.9999 3140 50.9999C3139.45 50.9999 3139 52.3499 3139 53.9999C3139 55.6499 3138.6 56.9999 3138.1 56.9999C3136.66 56.9999 3135.79 65.4999 3135.79 79.4999C3135.79 93.4999 3136.66 102 3138.1 102C3138.6 102 3139 103.35 3139 105C3139 106.65 3139.45 108 3140 108C3140.55 108 3141 108.585 3141 109.301C3141 111.14 3143.35 115.983 3144.25 115.992C3144.66 115.996 3145 116.499 3145 117.108C3145 118.944 3154.74 130.596 3159.85 134.876C3169.07 142.594 3192.7 156.406 3204.75 161.12C3209.58 163.009 3212.57 164.27 3214.24 165.117C3215.19 165.603 3216.85 166 3217.93 166C3219 166 3220.16 166.45 3220.5 167C3220.84 167.55 3222.22 168 3223.56 168C3224.9 168 3226 168.45 3226 169C3226 169.55 3227.32 170 3228.94 170C3230.56 170 3232.16 170.45 3232.5 171C3232.84 171.55 3234 172 3235.07 172C3236.15 172 3237.81 172.395 3238.76 172.877C3240.45 173.726 3242.48 174.354 3252 176.962C3254.48 177.64 3257.28 178.601 3258.24 179.097C3259.19 179.594 3260.66 180 3261.5 180C3262.34 180 3263.81 180.429 3264.76 180.953C3265.72 181.477 3269.43 182.896 3273 184.106C3280.23 186.552 3296.8 194.411 3304.5 199.039C3307.25 200.692 3310.16 202.344 3310.96 202.709C3311.76 203.073 3313.11 203.938 3313.96 204.63C3314.81 205.322 3318.43 208.041 3322 210.672C3325.58 213.303 3331 217.94 3334.06 220.978C3339.57 226.457 3348 237.921 3348 239.945C3348 240.525 3348.45 241 3349 241C3349.55 241 3350 241.9 3350 243C3350 244.1 3350.35 245 3350.78 245C3351.21 245 3352.15 247.137 3352.87 249.75C3353.58 252.363 3354.54 255.4 3355 256.5C3357.6 262.702 3358.3 287.309 3356.18 298C3355.58 301.025 3354.79 304.968 3354.43 306.762C3354.07 308.556 3353.37 310.271 3352.89 310.571C3352.4 310.872 3352 312.216 3352 313.559C3352 314.902 3351.55 316 3351 316C3350.45 316 3350 316.585 3350 317.301C3350 319.14 3347.65 323.983 3346.75 323.992C3346.34 323.996 3346 324.445 3346 324.989C3346 328.654 3325.04 348 3321.07 348C3320.48 348 3320 348.45 3320 349C3320 349.55 3319.1 350 3318 350C3316.9 350 3316 350.45 3316 351C3316 351.55 3315.32 352 3314.49 352C3313.65 352 3312.08 352.45 3310.99 353C3309.89 353.55 3308.11 354.45 3307.01 355C3305.92 355.55 3303.92 356 3302.57 356C3301.22 356 3299.87 356.4 3299.57 356.89C3299.27 357.379 3297.33 358.066 3295.26 358.416C3293.19 358.767 3289.03 359.521 3286 360.093C3272.43 362.657 3229.87 363.212 3228.4 360.844C3228.12 360.38 3225.91 360 3223.5 360C3221.09 360 3218.84 359.55 3218.5 359C3218.16 358.45 3216.59 358 3215 358C3213.42 358 3211.84 357.55 3211.5 357C3211.16 356.45 3210 356 3208.93 356C3207.85 356 3206.19 355.599 3205.24 355.109C3204.28 354.62 3201.25 353.213 3198.5 351.983C3195.75 350.753 3192.38 349.242 3191 348.625C3189.63 348.008 3188.28 347.277 3188 347C3187.73 346.723 3186.34 345.899 3184.92 345.168C3176.94 341.066 3160.9 327.202 3153.89 318.341C3148.16 311.091 3140.68 297.848 3136.76 288C3136.21 286.625 3135.37 284.719 3134.88 283.764C3134.4 282.809 3134 281.148 3134 280.073C3134 278.998 3133.55 277.84 3133 277.5C3132.45 277.16 3132 275.424 3132 273.641C3132 271.858 3131.58 269.972 3131.08 269.45C3130.08 268.43 3129.41 263.975 3128 249C3127.25 241.035 3127.8 225.667 3129.24 214.5C3129.45 212.929 3128.84 212.436 3126.42 212.199C3123.45 211.91 3123.3 212.087 3122.21 217.199C3119.79 228.474 3117.01 255.358 3115.38 283.177C3114.51 298.077 3116.62 312.881 3120.05 316C3120.35 316.275 3121.66 318.075 3122.96 320C3126.7 325.55 3141.91 340 3144.01 340C3144.56 340 3145 340.45 3145 341C3145 341.55 3145.68 342 3146.5 342C3147.33 342 3148 342.398 3148 342.883C3148 343.369 3148.79 344.024 3149.75 344.339C3150.71 344.654 3153.75 346.272 3156.5 347.936C3163.03 351.887 3179.2 359.762 3182.46 360.58C3183.87 360.933 3185.27 361.622 3185.57 362.111C3185.87 362.6 3187 363 3188.07 363C3189.15 363 3190.81 363.406 3191.76 363.903C3192.72 364.399 3195.53 365.329 3198 365.97C3200.48 366.611 3203.88 367.555 3205.57 368.068C3207.26 368.58 3210.21 369 3212.12 369C3214.03 369 3216.03 369.41 3216.55 369.912C3217.54 370.861 3221.68 371.372 3241 372.931C3257.87 374.292 3257.31 374.283 3272.79 373.454C3280.65 373.033 3287.31 372.309 3287.6 371.844C3287.88 371.38 3290.32 371 3293 371C3295.69 371 3298.16 370.55 3298.5 370C3298.84 369.45 3300.64 369 3302.5 369C3304.36 369 3306.16 368.55 3306.5 368C3306.84 367.45 3308.42 367 3310 367C3311.59 367 3313.16 366.55 3313.5 366C3313.84 365.45 3315 365 3316.07 365C3317.15 365 3318.81 364.603 3319.76 364.117C3320.72 363.631 3322.63 362.78 3324 362.227C3335.19 357.721 3356.8 345.321 3357.83 342.808C3358.02 342.364 3358.64 342 3359.22 342C3360.8 342 3377.53 325.367 3382.82 318.542C3387.8 312.116 3396 296.778 3396 293.89C3396 292.916 3396.45 291.84 3397 291.5C3397.55 291.16 3398 289.649 3398 288.141C3398 286.633 3398.41 284.972 3398.91 284.45C3401.27 281.976 3402.2 250.922 3400.22 240.5C3398.05 229.087 3397.77 227.973 3396.89 227.429C3396.4 227.128 3396 226.002 3396 224.927C3396 223.852 3395.6 222.191 3395.11 221.236C3394.62 220.281 3393.16 217.25 3391.86 214.5C3390.56 211.75 3389.16 209.35 3388.75 209.167C3388.34 208.983 3388 208.389 3388 207.847C3388 205.985 3381.62 197.495 3375.06 190.635C3368.75 184.031 3362.38 179.118 3352.94 173.576C3348.65 171.055 3325.83 159.778 3321.25 157.916C3320.01 157.412 3317.76 156.497 3316.25 155.883C3314.74 155.269 3312.72 154.369 3311.76 153.883C3310.81 153.397 3309.15 153 3308.07 153C3307 153 3305.84 152.55 3305.5 152C3305.16 151.45 3303.81 151 3302.5 151C3301.19 151 3299.84 150.55 3299.5 150C3299.16 149.45 3297.59 149 3296 149C3294.42 149 3292.84 148.55 3292.5 148C3292.16 147.45 3290.81 147 3289.5 147C3288.19 147 3286.84 146.55 3286.5 146C3286.16 145.45 3284.59 145 3283 145C3281.42 145 3279.84 144.55 3279.5 144C3279.16 143.45 3277.59 143 3276 143C3274.42 143 3272.84 142.55 3272.5 142C3272.16 141.45 3270.56 141 3268.94 141C3267.32 141 3266 140.55 3266 140C3266 139.45 3265.04 139 3263.87 139C3261.63 139 3244.76 133.629 3241.76 131.965C3240.81 131.434 3239.46 130.998 3238.76 130.995C3236.74 130.986 3216.43 120.365 3209.71 115.801C3203.07 111.295 3198.69 107.239 3195.35 102.5C3191.68 97.2949 3189 92.0099 3189 89.9699C3189 88.8859 3188.61 87.9999 3188.13 87.9999C3185.24 87.9999 3185.21 60.6079 3188.1 57.5499C3188.6 57.0279 3189 55.8359 3189 54.9019C3189 51.8829 3194.81 42.0599 3199.21 37.6229C3205.63 31.1619 3219.07 22.9999 3223.29 22.9999C3224.01 22.9999 3225.03 22.6009 3225.55 22.1129C3226.47 21.2549 3237.95 18.2749 3241 18.1029C3241.83 18.0559 3245.88 17.5219 3250 16.9159C3262.13 15.1339 3286.47 16.6409 3299 19.9499C3300.93 20.4579 3304.75 21.4219 3307.5 22.0919C3310.25 22.7619 3312.95 23.5969 3313.5 23.9469C3314.05 24.2969 3316.3 25.1589 3318.5 25.8619C3322.43 27.1209 3335.02 32.9609 3336 33.9809C3336.28 34.2679 3337.74 35.1409 3339.25 35.9209C3340.76 36.6999 3342 37.7119 3342 38.1689C3342 38.6259 3342.56 38.9999 3343.23 38.9999C3343.91 38.9999 3346.88 41.5689 3349.82 44.7089C3358.85 54.3309 3362.69 64.1289 3362.87 78.0209C3362.97 86.0599 3362.52 89.1479 3360.14 96.7869C3359.16 99.9329 3359.24 100.099 3362.06 100.662C3363.68 100.985 3365 101.644 3365 102.125C3365 102.606 3365.39 103 3365.87 103C3366.35 103 3367.06 100.863 3367.44 98.2499C3367.83 95.6369 3368.56 90.7999 3369.06 87.4999C3370.51 78.0509 3371.91 66.3949 3372.97 54.9999C3373.51 49.2249 3374.32 42.4749 3374.77 39.9999C3375.22 37.5249 3375.34 32.5749 3375.04 28.9999C3374.53 22.8079 3374.37 22.4849 3371.75 22.1839C3370.24 22.0099 3369 21.4469 3369 20.9339C3369 20.4199 3368.13 19.9999 3367.06 19.9999C3365.99 19.9999 3364.84 19.5499 3364.5 18.9999C3364.16 18.4499 3362.81 17.9999 3361.5 17.9999C3360.19 17.9999 3358.84 17.5499 3358.5 16.9999C3358.16 16.4499 3356.81 15.9999 3355.5 15.9999C3354.19 15.9999 3352.84 15.5499 3352.5 14.9999C3352.16 14.4499 3350.81 13.9999 3349.5 13.9999C3348.19 13.9999 3346.84 13.5499 3346.5 12.9999C3346.16 12.4499 3344.81 11.9999 3343.5 11.9999C3342.19 11.9999 3340.87 11.5999 3340.57 11.1099C3340.27 10.6209 3338.55 9.97889 3336.76 9.68289C3334.97 9.38689 3331.48 8.63689 3329 8.01789C3307.88 2.72689 3285.97 0.144891 3259.17 -0.214109C3247.43 -0.371109 3237.68 -0.348114 3237.5 -0.163114ZM2194.5 1.57289C2192.85 1.78989 2187.68 2.44489 2183 3.02689C2178.33 3.60989 2172.7 4.47989 2170.5 4.96189C2168.3 5.44289 2163.8 6.37089 2160.5 7.02289C2157.2 7.67589 2153.6 8.56088 2152.5 8.99088C2151.4 9.41988 2148.48 10.3249 2146 10.9999C2141.37 12.2629 2137.8 13.5699 2134.76 15.1169C2133.81 15.6029 2132.36 15.9999 2131.54 15.9999C2130.73 15.9999 2128.46 16.8999 2126.5 17.9999C2124.54 19.0999 2122.28 19.9999 2121.47 19.9999C2120.66 19.9999 2120 20.4499 2120 20.9999C2120 21.5499 2119.1 21.9999 2118 21.9999C2116.9 21.9999 2116 22.4499 2116 22.9999C2116 23.5499 2115.1 23.9999 2114 23.9999C2112.9 23.9999 2112 24.3659 2112 24.8129C2112 25.2609 2110.43 26.2449 2108.5 26.9999C2106.58 27.7549 2105 28.7389 2105 29.1869C2105 29.6339 2104.33 29.9999 2103.5 29.9999C2102.68 29.9999 2102 30.4499 2102 30.9999C2102 31.5499 2101.44 32.0019 2100.75 32.0039C2096.98 32.0179 2068.84 57.4049 2061.34 67.5709C2060.15 69.1819 2057.56 72.6409 2055.59 75.2589C2053.61 77.8759 2052 80.1919 2052 80.4059C2052 80.6199 2050.28 83.6539 2048.19 87.1479C2044.11 93.9389 2041.91 98.5009 2035.94 112.5C2035.48 113.6 2034.55 116.525 2033.88 119C2033.21 121.475 2032.29 123.928 2031.83 124.45C2031.37 124.973 2031 126.795 2031 128.5C2031 130.205 2030.6 132.027 2030.1 132.55C2029.61 133.072 2028.93 135.525 2028.58 138C2028.24 140.475 2027.45 145.65 2026.81 149.5C2026.13 153.6 2025.66 167.684 2025.68 183.5C2025.7 210.454 2026.42 222.655 2028.11 224.45C2028.6 224.972 2029 227.308 2029 229.641C2029 231.974 2029.45 234.16 2030 234.5C2030.55 234.84 2031 236.64 2031 238.5C2031 240.36 2031.45 242.16 2032 242.5C2032.55 242.84 2033 244.126 2033 245.359C2033 246.592 2033.36 248.027 2033.8 248.55C2034.23 249.072 2035.17 251.3 2035.88 253.5C2038.89 262.85 2048.29 281.738 2054.29 290.5C2063.25 303.576 2073.69 315.317 2088.56 329.069C2096.13 336.07 2113.18 347.025 2126.5 353.442C2141.21 360.53 2140.91 360.405 2149.5 363.064C2153.35 364.256 2157.28 365.629 2158.24 366.115C2159.19 366.602 2161.24 367 2162.79 367C2164.33 367 2166.03 367.404 2166.55 367.898C2167.07 368.391 2169.53 369.077 2172 369.422C2174.48 369.767 2179.43 370.503 2183 371.058C2191.49 372.375 2213.49 373.977 2223 373.97C2237.21 373.959 2267.26 371.456 2270.5 370.014C2271.6 369.524 2274.3 368.854 2276.5 368.524C2278.7 368.193 2282.19 367.668 2284.26 367.356C2286.32 367.044 2288.26 366.386 2288.57 365.894C2288.87 365.402 2290.19 365 2291.5 365C2292.81 365 2294.16 364.55 2294.5 364C2294.84 363.45 2296 363 2297.07 363C2298.15 363 2299.81 362.606 2300.76 362.124C2304.06 360.46 2317.51 354.803 2319.5 354.24C2320.6 353.93 2321.73 353.411 2322 353.088C2322.28 352.764 2323.57 351.895 2324.89 351.156C2326.2 350.417 2328.84 348.932 2330.76 347.857C2332.67 346.781 2337.61 343.561 2341.74 340.701C2345.86 337.84 2350.05 335.07 2351.05 334.545C2354.22 332.864 2375.48 310.735 2380.38 304C2382.98 300.425 2385.76 296.707 2386.56 295.739C2387.35 294.77 2388 293.532 2388 292.989C2388 292.445 2388.4 292 2388.88 292C2389.37 292 2390.02 291.212 2390.34 290.25C2390.65 289.287 2392.12 286.475 2393.6 284C2398.42 275.914 2399.55 273.622 2403.41 264C2409.65 248.431 2411 244.396 2411 241.238C2411 240.072 2411.45 238.84 2412 238.5C2412.55 238.16 2413 236.199 2413 234.141C2413 232.083 2413.41 229.972 2413.91 229.45C2414.88 228.429 2415.37 224.727 2417.18 204.5C2418.6 188.589 2418.59 179.11 2417.14 163.5C2415.31 143.88 2414.86 140.547 2413.91 139.55C2413.41 139.027 2413 136.89 2413 134.8C2413 132.71 2412.55 131 2412 131C2411.45 131 2411 129.452 2411 127.559C2411 125.666 2410.55 123.84 2410 123.5C2409.45 123.16 2409 121.81 2409 120.5C2409 119.19 2408.55 117.84 2408 117.5C2407.45 117.16 2407 116.247 2407 115.471C2407 114.011 2403.42 105.492 2399.87 98.4999C2396.8 92.4579 2393.56 86.5609 2393 85.9999C2392.72 85.7249 2391.86 84.2619 2391.08 82.7499C2390.3 81.2379 2389.29 79.9999 2388.83 79.9999C2388.37 79.9999 2388 79.5019 2388 78.8939C2388 78.2859 2386.99 76.5659 2385.75 75.0729C2384.51 73.5789 2382.4 70.8139 2381.05 68.9279C2373.14 57.8599 2345.41 34.1129 2333 27.7929C2330.53 26.5319 2328.35 25.1619 2328.17 24.7499C2327.98 24.3379 2326.97 23.9999 2325.92 23.9999C2324.86 23.9999 2324 23.5499 2324 22.9999C2324 22.4499 2323.1 21.9999 2322 21.9999C2320.9 21.9999 2320 21.5499 2320 20.9999C2320 20.4499 2319.34 19.9999 2318.53 19.9999C2317.72 19.9999 2315.46 19.0999 2313.5 17.9999C2311.54 16.8999 2309.27 15.9999 2308.46 15.9999C2307.64 15.9999 2306.19 15.6029 2305.24 15.1169C2302.36 13.6509 2298.65 12.2049 2296 11.5159C2294.63 11.1579 2291.93 10.4149 2290 9.86588C2282.32 7.67288 2272.04 5.48489 2259.5 3.37289C2250.97 1.93689 2202.04 0.581886 2194.5 1.57289ZM1.129 4.32389C12.74 16.3739 16.431 20.6629 20.644 26.9999C29.565 40.4199 34.795 53.4089 37.458 68.7599C38.836 76.6969 39.018 91.1469 38.887 181.813C38.805 238.987 39.091 286.338 39.523 287.037C39.987 287.788 39.906 288.06 39.326 287.702C38.707 287.319 38.514 289.155 38.804 292.655C39.667 303.056 36.074 327.8 31.857 340.5C29.602 347.29 25.874 355.334 24.75 355.833C24.337 356.017 24 356.632 24 357.201C24 358.697 17.015 365.421 13.5 367.309C10.689 368.818 12.616 368.921 44 368.937C75.052 368.953 77.269 368.84 74.332 367.392C62.445 361.53 52.895 337.08 50.279 305.815C49.851 300.692 49.5 245.425 49.5 183C49.5 63.0659 49.433 64.7789 53.813 72.4579C54.741 74.0839 56.288 76.3069 57.25 77.3959C58.212 78.4859 59 79.7739 59 80.2579C59 80.7429 60.35 83.1019 62 85.4999C63.65 87.8979 65 90.0999 65 90.3929C65 90.6849 69.725 98.4149 75.5 107.571C81.275 116.726 86 124.417 86 124.663C86 124.909 87.8 127.76 90 131C92.2 134.24 94 137.327 94 137.862C94 138.396 94.337 138.983 94.75 139.167C95.689 139.584 98.936 144.91 99.678 147.25C99.984 148.212 100.631 149 101.117 149C101.602 149 102 149.481 102 150.07C102 150.658 103.35 153.102 105 155.5C106.65 157.898 108 160.101 108 160.396C108 160.69 110.424 164.659 113.387 169.216C120.117 179.566 123.92 185.986 124.661 188.25C124.976 189.212 125.631 190 126.117 190C126.602 190 127 190.59 127 191.311C127 192.033 127.788 193.514 128.75 194.604C130.971 197.118 133.958 201.978 134.678 204.25C134.984 205.212 135.631 206 136.117 206C136.602 206 137 206.481 137 207.07C137 207.658 138.35 210.102 140 212.5C141.65 214.898 143 217.148 143 217.5C143 217.852 144.35 220.102 146 222.5C147.65 224.898 149 227.342 149 227.93C149 228.519 149.45 229 150 229C150.55 229 151 229.408 151 229.906C151 230.404 155.725 238.332 161.5 247.524C167.275 256.715 172 264.595 172 265.034C172 265.474 172.337 265.983 172.75 266.167C173.689 266.584 176.936 271.91 177.678 274.25C177.984 275.213 178.631 276 179.117 276C179.602 276 180 276.481 180 277.07C180 277.658 181.35 280.102 183 282.5C184.65 284.898 186 287.342 186 287.93C186 288.519 186.398 289 186.883 289C187.369 289 188.016 289.788 188.322 290.75C188.926 292.656 192.135 298.196 193.1 299C193.43 299.275 193.88 299.974 194.1 300.554C194.32 301.134 197.875 307.095 201.999 313.8C209.47 325.945 209.505 325.983 211.227 323.746C212.178 322.511 212.966 321.131 212.978 320.68C212.99 320.229 214.35 317.898 216 315.5C217.65 313.102 219 310.874 219 310.55C219 310.226 220.226 308.057 221.724 305.73C223.223 303.404 224.987 300.505 225.645 299.288C228.616 293.796 230.539 290.461 231 290C231.486 289.514 231.955 288.714 236.211 281.113C237.324 279.126 239.081 276.306 240.117 274.846C241.153 273.386 242 271.88 242 271.5C242 271.12 242.831 269.614 243.847 268.154C244.863 266.694 247.038 263.025 248.679 260C252.86 252.296 254.422 249.578 255 249C255.275 248.725 256.105 247.426 256.844 246.113C260.759 239.159 262.109 236.833 266.484 229.5C271.42 221.227 273.498 217.66 277.117 211.25C278.281 209.188 279.985 206.375 280.903 205C281.821 203.625 283.23 201.15 284.034 199.5C284.839 197.85 285.723 196.275 285.998 196C286.274 195.725 287.063 194.488 287.75 193.25C288.438 192.012 289.563 189.988 290.25 188.75C290.938 187.512 291.725 186.275 292 186C292.646 185.354 294.634 181.858 298.241 175.023C299.831 172.01 301.504 169.085 301.96 168.523C302.415 167.96 303.675 165.925 304.76 164C305.845 162.075 309.089 156.68 311.968 152.011C314.847 147.342 318.054 141.942 319.094 140.011C320.134 138.08 322.359 134.25 324.037 131.5C325.715 128.75 327.346 125.713 327.661 124.75C327.976 123.788 328.547 123 328.93 123C329.313 123 330.245 121.425 331 119.5C331.755 117.575 332.739 116 333.187 116C333.634 116 334 115.325 334 114.5C334 113.675 334.344 113 334.764 113C335.184 113 336.304 111.312 337.252 109.25C338.2 107.188 340.341 103.25 342.01 100.5C343.68 97.7499 345.336 94.8249 345.691 93.9999C346.046 93.1749 347.611 90.6189 349.168 88.3199C350.726 86.0209 352 83.8499 352 83.4949C352 83.1399 354.025 79.7199 356.5 75.8939C358.975 72.0679 361 68.6839 361 68.3729C361 68.0629 361.847 66.6139 362.883 65.1539C363.919 63.6939 365.719 60.8129 366.883 58.7499C368.047 56.6869 369.9 53.4249 371 51.4999C372.1 49.5749 373.9 46.4249 375 44.4999C377.206 40.6399 380.087 35.5619 382.156 31.8869C382.895 30.5739 383.726 29.2749 384.002 28.9999C384.277 28.7249 385.177 27.1499 386 25.4999C386.823 23.8499 387.772 22.2749 388.109 21.9999C388.446 21.7249 389.47 20.0369 390.386 18.2499C391.302 16.4629 392.722 14.9999 393.542 14.9999C394.857 14.9999 394.985 32.4449 394.633 163.75C394.246 307.9 393.957 322.13 391.097 337.5C388.41 351.944 384.563 359.789 378.153 363.899C375.594 365.54 372.375 367.331 371 367.878C369.295 368.557 385.517 368.868 422 368.858C451.425 368.849 474.825 368.619 474 368.346C469.37 366.814 463.515 363.212 461.003 360.351C457.282 356.112 453 346.644 453 342.653C453 341.414 452.591 339.972 452.092 339.45C451.593 338.927 450.911 336.025 450.578 333C450.244 329.975 449.452 322.775 448.817 317C447.201 302.288 447.216 84.8009 448.835 65.9999C449.474 58.5749 450.26 49.3499 450.58 45.4999C450.9 41.6499 451.575 38.0729 452.081 37.5499C452.586 37.0279 453 34.9169 453 32.8589C453 30.8009 453.45 28.8399 454 28.4999C454.55 28.1599 455 26.5589 455 24.9409C455 23.3229 455.45 21.9999 456 21.9999C456.55 21.9999 457 21.0789 457 19.9519C457 17.7339 466.08 8.01989 468.202 7.96789C468.916 7.95089 470.22 7.38789 471.099 6.71789C472.362 5.75589 462.926 5.54589 426.212 5.72089C400.644 5.84189 379.647 6.06689 379.553 6.22089C378.371 8.13589 370.257 22.0029 369.443 23.4999C367.216 27.5929 365.485 30.5149 365 30.9999C364.533 31.4669 363.194 33.7449 360.594 38.4999C359.992 39.5999 359.275 40.7249 359 40.9999C358.725 41.2749 357.895 42.5739 357.156 43.8869C355.087 47.5619 352.206 52.6399 350 56.4999C348.9 58.4249 347.047 61.6879 345.883 63.7499C344.719 65.8129 342.919 68.6939 341.883 70.1539C340.847 71.6139 340 73.1199 340 73.4999C340 73.8799 339.15 75.3859 338.111 76.8459C336.014 79.7939 324.869 98.6359 317.844 111.113C317.105 112.426 316.274 113.725 315.998 114C315.723 114.275 314.823 115.85 314 117.5C313.177 119.15 312.277 120.725 312.002 121C311.726 121.275 310.938 122.512 310.25 123.75C309.563 124.988 308.438 127.012 307.75 128.25C307.063 129.488 306.275 130.725 306 131C305.514 131.486 305.045 132.286 300.789 139.887C299.676 141.874 297.919 144.694 296.883 146.154C295.847 147.614 295 149.059 295 149.365C295 149.67 292.075 154.698 288.5 160.538C284.925 166.377 282 171.376 282 171.647C282 171.918 280.65 174.102 279 176.5C277.35 178.898 276 181.148 276 181.5C276 181.852 274.749 184.021 273.219 186.32C271.69 188.619 269.778 191.85 268.971 193.5C268.164 195.15 267.277 196.725 267.002 197C266.726 197.275 265.895 198.574 265.156 199.887C264.417 201.2 262.996 203.726 261.999 205.501C261.002 207.276 255.42 216.708 249.593 226.461C243.767 236.214 239 244.6 239 245.097C239 245.594 238.602 246 238.117 246C237.631 246 236.984 246.788 236.678 247.75C236.134 249.467 232.986 255.015 231.998 256C231.723 256.275 230.823 257.85 230 259.5C229.177 261.15 228.277 262.725 228.002 263C227.726 263.275 227.002 264.4 226.393 265.5C224.822 268.338 222.551 268.464 221.202 265.789C220.568 264.53 218.677 261.25 217.001 258.5C215.326 255.75 213.66 252.825 213.3 252C212.94 251.175 212.388 250.275 212.073 250C211.758 249.725 210.566 247.7 209.425 245.5C206.736 240.318 204.628 236.628 203.998 236C203.723 235.725 202.823 234.15 202 232.5C201.177 230.85 200.277 229.275 200.002 229C199.073 228.074 195.953 222.529 194.234 218.75C193.296 216.688 192.184 215 191.764 215C191.344 215 191 214.605 191 214.121C191 213.638 187.175 206.885 182.5 199.116C177.825 191.346 174 184.723 174 184.399C174 184.074 173.153 182.614 172.117 181.154C171.081 179.694 169.324 176.874 168.211 174.887C163.955 167.286 163.486 166.486 163 166C162.725 165.725 161.566 163.7 160.425 161.5C157.736 156.318 155.628 152.628 154.998 152C154.723 151.725 153.836 150.15 153.029 148.5C152.222 146.85 150.31 143.619 148.781 141.32C147.251 139.021 146 136.901 146 136.609C146 136.317 143.466 131.898 140.37 126.789C137.273 121.68 133.786 115.7 132.62 113.5C131.454 111.3 130.275 109.275 130 109C129.725 108.725 128.895 107.426 128.156 106.113C127.417 104.8 125.997 102.274 125 100.5C124.003 98.7259 122.583 96.1999 121.844 94.8869C121.105 93.5739 120.275 92.2749 120 91.9999C119.725 91.7249 118.566 89.6999 117.425 87.4999C114.741 82.3279 112.629 78.6289 112 77.9999C111.011 77.0109 107.865 71.4629 107.322 69.7499C107.016 68.7869 106.369 67.9999 105.883 67.9999C105.398 67.9999 105 67.5869 105 67.0829C105 66.5779 102.91 62.6409 100.356 58.3329C96.093 51.1439 94.698 48.7309 90.844 41.8869C90.105 40.5739 89.274 39.2749 88.998 38.9999C88.723 38.7249 87.839 37.1499 87.034 35.4999C86.23 33.8499 84.821 31.3749 83.903 29.9999C82.985 28.6249 81.281 25.8129 80.117 23.7499C78.953 21.6879 77.026 18.3129 75.837 16.2499C74.647 14.1879 73.043 11.2709 72.273 9.76988C71.503 8.26788 70.564 6.86188 70.187 6.64488C69.809 6.42688 58.925 5.96289 46 5.61189C20.6 4.92289 5.88 4.17989 2.129 3.39689C0.0990019 2.97189 -0.0449982 3.10589 1.129 4.32389ZM545 6.18289C545 6.55789 546.013 7.17289 547.25 7.54889C551.2 8.74789 555.878 12.9309 557.566 16.7739C561.271 25.2019 561.231 25.0359 563.123 39.9999C565.065 55.3559 565.593 86.2209 565.571 183C565.543 301.884 564.962 322.813 561.16 342C559.219 351.795 553.656 362.512 548.618 366.161L544.7 369L591.6 368.977C634.543 368.956 638.236 368.824 635.375 367.413C631.358 365.431 625.815 360.203 624.336 357C616.726 340.522 615.551 318.541 615.595 193.5C615.629 97.3479 616.294 68.3299 618.966 46.4999C619.505 42.0999 620.226 36.2499 620.57 33.4999C620.913 30.7499 621.6 28.0719 622.097 27.5499C622.594 27.0269 623 25.5589 623 24.2859C623 23.0139 623.397 21.1909 623.883 20.2359C624.369 19.2809 625.309 17.3309 625.971 15.9019C627.514 12.5729 631.434 7.99989 632.744 7.99989C633.3 7.99989 634.222 7.43789 634.793 6.74989C635.62 5.75289 626.634 5.49989 590.415 5.49989C565.437 5.49989 545 5.80689 545 6.18289ZM708.208 6.74989C708.778 7.43789 709.865 7.99989 710.622 7.99989C711.38 7.99989 712 8.44989 712 8.99989C712 9.54989 712.523 9.99989 713.162 9.99989C713.8 9.99989 715.765 11.6199 717.526 13.5999C722.388 19.0649 725.116 28.8979 727.901 50.9999C728.949 59.3169 728.7 311.614 727.634 321.5C724.613 349.514 721.315 359.434 713.341 364.5C710.743 366.15 707.916 367.806 707.059 368.18C706.202 368.554 727.1 368.859 753.5 368.859C779.9 368.859 800.798 368.554 799.941 368.18C796.04 366.479 789.003 361.378 789.002 360.25C789.001 359.563 788.55 359 788 359C787.45 359 787 358.127 787 357.059C787 355.991 786.55 354.84 786 354.5C785.45 354.16 785 352.649 785 351.141C785 349.633 784.623 347.973 784.163 347.45C783.038 346.173 780.933 332.271 780.461 322.999C780.251 318.874 779.841 312.575 779.548 309C779.256 305.425 778.826 293.799 778.594 283.165C778.062 258.845 777.585 259.669 791.815 260.298C803.585 260.818 805.71 261.297 814 265.293C827.95 272.019 840.004 283.36 851.977 301.027C856.39 307.537 860 313.344 860 313.932C860 314.519 860.45 315 861 315C861.55 315 862 315.475 862 316.055C862 316.635 863.8 319.76 866 323C868.2 326.24 870 329.365 870 329.945C870 330.525 870.45 331 871 331C871.55 331 872 331.475 872 332.055C872 333.433 879.559 344.549 883.455 348.9C886.479 352.277 899.753 361.299 905.5 363.884C907.15 364.626 909.281 365.631 910.236 366.117C911.191 366.603 913.014 367 914.286 367C915.559 367 917.135 367.535 917.79 368.19C919.395 369.795 954.671 369.729 956.283 368.117C956.897 367.503 958.858 367 960.641 367C962.424 367 964.16 366.55 964.5 366C964.84 365.45 965.907 365 966.871 365C969.092 365 975.909 361.729 983 357.26C992.387 351.344 1003.19 338.74 1001.39 335.815C1001.07 335.296 998.035 337.52 994.651 340.755C989.041 346.121 983.376 349.514 974.078 353.075C972.196 353.795 966.99 354.411 962.509 354.443C955.743 354.49 953.525 354.078 949.431 352.012C943.172 348.853 924 330.003 924 327.009C924 326.454 923.55 326 923 326C922.45 326 922 325.325 922 324.5C922 323.675 921.55 323 921 323C920.45 323 920 322.325 920 321.5C920 320.675 919.55 320 919 320C918.45 320 918 319.325 918 318.5C918 317.675 917.55 317 917 317C916.45 317 916 316.325 916 315.5C916 314.675 915.55 314 915 314C914.45 314 914 313.555 914 313.011C914 310.892 902.286 296.323 893.003 286.897C879.58 273.267 866.673 266.843 840.116 260.573C836.606 259.744 833.523 258.856 833.266 258.6C832.005 257.339 834.528 256.184 839.734 255.639C842.905 255.307 848.2 254.56 851.5 253.979C854.8 253.397 859.3 252.668 861.5 252.358C863.7 252.049 865.928 251.391 866.45 250.898C866.973 250.404 868.633 250 870.141 250C871.649 250 873.16 249.55 873.5 249C873.84 248.45 875.415 248 877 248C878.585 248 880.16 247.55 880.5 247C880.84 246.45 882.19 246 883.5 246C884.81 246 886.16 245.55 886.5 245C886.84 244.45 887.998 244 889.073 244C890.148 244 891.809 243.587 892.764 243.082C893.719 242.578 898.786 240.16 904.025 237.709C921.241 229.656 931.794 222.457 944.373 210.182C952.444 202.307 959.626 193.014 962.096 187.25C962.862 185.462 963.828 184 964.244 184C964.66 184 965 183.339 965 182.53C965 181.722 965.9 179.458 967 177.5C968.1 175.542 969 173.079 969 172.029C969 170.978 969.45 169.84 970 169.5C970.55 169.16 971 167.81 971 166.5C971 165.19 971.4 163.871 971.89 163.568C972.379 163.266 973.031 161.552 973.34 159.759C973.648 157.967 974.48 153.575 975.189 150C976.82 141.766 976.769 107.609 975.113 99.9999C974.455 96.9749 973.661 93.0329 973.348 91.2409C973.035 89.4479 972.379 87.7339 971.89 87.4319C971.4 87.1289 971 85.7839 971 84.4409C971 83.0979 970.55 81.9999 970 81.9999C969.45 81.9999 968.992 81.2129 968.982 80.2499C968.963 78.4609 961.709 64.6029 959.952 62.9999C959.65 62.7249 958.324 60.9249 957.005 58.9999C952.705 52.7259 941.807 42.1159 934.411 37.0029C930.43 34.2519 926.722 31.9999 926.17 31.9999C925.618 31.9999 925.017 31.6469 924.833 31.2159C924.368 30.1199 912.137 23.9999 910.414 23.9999C909.636 23.9999 909 23.5499 909 22.9999C909 22.4499 908.127 21.9999 907.059 21.9999C905.991 21.9999 904.84 21.5499 904.5 20.9999C904.16 20.4499 903.002 19.9999 901.927 19.9999C900.852 19.9999 899.079 19.5499 897.986 18.9999C896.894 18.4499 895.106 17.5499 894.014 16.9999C892.921 16.4499 890.923 15.9999 889.573 15.9999C888.223 15.9999 886.872 15.6019 886.571 15.1149C886.271 14.6289 884.781 13.9739 883.262 13.6599C881.743 13.3459 878.25 12.5989 875.5 11.9989C866.583 10.0539 860.645 9.01389 853 8.05689C848.875 7.54089 844.15 6.84389 842.5 6.50789C840.85 6.17289 809.726 5.80789 773.335 5.69889C720.499 5.53989 707.379 5.75189 708.208 6.74989ZM1408.67 6.74989C1409.61 7.43789 1410.86 7.99989 1411.45 7.99989C1412.04 7.99989 1414.33 9.75388 1416.54 11.8979C1420.32 15.5699 1421.93 18.0929 1424.25 23.9999C1424.79 25.3749 1425.63 27.2809 1426.12 28.2359C1426.6 29.1909 1427 31.2389 1427 32.7859C1427 34.3339 1427.41 36.0279 1427.92 36.5499C1428.42 37.0719 1429.08 40.1999 1429.39 43.4999C1429.69 46.7999 1430.5 55.3499 1431.17 62.4999C1432.87 80.5019 1432.88 282.409 1431.17 306.5C1429.36 332.153 1428.91 336.414 1427.92 337.45C1427.41 337.973 1427 339.858 1427 341.641C1427 343.424 1426.55 345.16 1426 345.5C1425.45 345.84 1425 346.949 1425 347.965C1425 350.092 1421.21 357.744 1419 360.086C1416.75 362.469 1408.77 367.689 1406.49 368.263C1405.4 368.541 1429.23 368.82 1459.45 368.884L1514.39 369L1509.39 366.507C1502.46 363.053 1499.65 359.879 1494.21 349.387C1489.6 340.484 1486.67 328.216 1484.92 310.5C1484.38 305 1483.69 280.638 1483.39 256.363L1482.84 212.226L1485.02 210.7C1486.87 209.403 1492.94 209.156 1525.59 209.047C1562.36 208.924 1573.28 209.558 1578.24 212.108C1579.19 212.598 1580.56 213 1581.27 213C1585.35 213 1597 228.593 1597 234.043C1597 235.054 1597.45 236.16 1598 236.5C1598.55 236.84 1599 241.141 1599 246.059C1599 254.929 1599.02 255 1601.5 255H1604V203V151H1601.43C1599.19 151 1598.97 151.289 1599.68 153.25C1601.2 157.416 1600.16 170.718 1597.79 177.5C1595.73 183.404 1594.5 186 1593.76 186C1593.34 186 1593 186.454 1593 187.009C1593 190.466 1583.33 197.056 1576 198.594C1569.75 199.905 1485.93 200.184 1484.38 198.898C1483.23 197.943 1483 183.379 1483 110.397V23.0379L1485.75 22.2689C1489.43 21.2389 1565.48 21.3529 1580 22.4109C1586.32 22.8709 1592.26 23.6419 1593.18 24.1239C1594.11 24.6059 1596.67 24.9999 1598.88 24.9999C1601.08 24.9999 1603.16 25.4499 1603.5 25.9999C1603.84 26.5499 1605.41 26.9999 1607 26.9999C1608.59 26.9999 1610.16 27.4499 1610.5 27.9999C1610.84 28.5499 1612.19 28.9999 1613.5 28.9999C1614.81 28.9999 1616.16 29.4499 1616.5 29.9999C1616.84 30.5499 1617.95 30.9999 1618.96 30.9999C1619.98 30.9999 1622.54 31.8469 1624.66 32.8819C1626.77 33.9169 1630.75 35.8229 1633.5 37.1179C1636.25 38.4129 1638.72 39.7039 1639 39.9869C1639.28 40.2689 1640.4 40.9919 1641.5 41.5939C1645.48 43.7709 1648.38 45.5229 1649.93 46.6849C1658.11 52.8379 1661.05 54.9999 1661.26 55.0009C1661.39 55.0009 1661.37 43.9799 1661.22 30.5079L1660.93 6.01489L1533.95 5.75789C1432.17 5.55089 1407.3 5.74789 1408.67 6.74989ZM1151.53 7.24989C1148.74 15.8079 1142.71 32.8409 1141.59 35.3159C1140.79 37.0669 1138.74 42.7749 1137.04 47.9999C1135.33 53.2249 1133.5 58.2809 1132.96 59.2359C1132.43 60.1909 1132 61.8519 1132 62.9269C1132 64.0019 1131.55 65.1599 1131 65.4999C1130.45 65.8399 1130 66.9979 1130 68.0729C1130 69.1479 1129.55 70.9209 1129 72.0139C1128.45 73.1059 1127.55 74.8939 1127 75.9859C1126.45 77.0789 1126 78.8519 1126 79.9269C1126 81.0019 1125.55 82.1599 1125 82.4999C1124.45 82.8399 1124 84.1899 1124 85.4999C1124 86.8099 1123.55 88.1599 1123 88.4999C1122.45 88.8399 1122 90.1899 1122 91.4999C1122 92.8099 1121.55 94.1599 1121 94.4999C1120.45 94.8399 1120 95.9979 1120 97.0729C1120 98.1479 1119.55 99.9209 1119 101.014C1118.45 102.106 1117.55 103.894 1117 104.986C1116.45 106.079 1116 107.879 1116 108.986C1116 110.094 1115.55 111 1115 111C1114.45 111 1114 112.098 1114 113.441C1114 114.784 1113.55 116.16 1113 116.5C1112.45 116.84 1112 117.998 1112 119.073C1112 120.148 1111.57 121.809 1111.04 122.764C1110.5 123.719 1108.68 128.775 1106.98 134C1105.28 139.225 1103.5 144.4 1103.03 145.5C1102.55 146.6 1100.97 150.875 1099.52 155C1098.06 159.125 1096.45 163.281 1095.94 164.236C1095.42 165.191 1095 166.852 1095 167.927C1095 169.002 1094.55 170.16 1094 170.5C1093.45 170.84 1093 172.216 1093 173.559C1093 174.902 1092.55 176 1092 176C1091.45 176 1091 177.098 1091 178.441C1091 179.784 1090.55 181.16 1090 181.5C1089.45 181.84 1089 183.19 1089 184.5C1089 185.81 1088.55 187.16 1088 187.5C1087.45 187.84 1087 189.19 1087 190.5C1087 191.81 1086.55 193.16 1086 193.5C1085.45 193.84 1085 195.216 1085 196.559C1085 197.902 1084.55 199 1084 199C1083.45 199 1083 200.098 1083 201.441C1083 202.784 1082.55 204.16 1082 204.5C1081.45 204.84 1081 206.19 1081 207.5C1081 208.81 1080.55 210.16 1080 210.5C1079.45 210.84 1079 211.998 1079 213.073C1079 214.961 1078.64 215.934 1076.16 220.736C1075.52 221.966 1075 223.852 1075 224.927C1075 226.002 1074.55 227.16 1074 227.5C1073.45 227.84 1073 229.19 1073 230.5C1073 231.81 1072.55 233.16 1072 233.5C1071.45 233.84 1071 234.998 1071 236.073C1071 237.148 1070.57 238.809 1070.05 239.764C1069.52 240.719 1068.14 244.425 1066.98 248C1065.82 251.575 1064.45 255.4 1063.94 256.5C1063.42 257.6 1061.62 262.55 1059.92 267.5C1058.23 272.45 1056.25 277.85 1055.54 279.5C1054.82 281.15 1053.26 285.425 1052.06 289C1050.86 292.575 1049.4 296.625 1048.81 298C1048.22 299.375 1047.4 301.4 1047 302.5C1046.6 303.6 1045.7 305.85 1045 307.5C1044.3 309.15 1043.41 311.4 1043.01 312.5C1042.61 313.6 1041.32 316.455 1040.14 318.845C1038.96 321.234 1038 323.821 1038 324.595C1038 325.368 1037.55 326 1037 326C1036.45 326 1036 326.9 1036 328C1036 329.1 1035.55 330 1035 330C1034.45 330 1034 330.681 1034 331.514C1034 332.902 1032.19 336.806 1031 338C1030.39 338.612 1028.1 342.573 1026.29 346.158C1023.92 350.848 1011.84 363.048 1006.59 366.061L1001.5 368.981L1029.5 368.957C1056.33 368.934 1057.42 368.86 1055.5 367.171C1052.74 364.742 1051 361.465 1051 358.714C1051 357.441 1050.51 355.915 1049.92 355.323C1048.69 354.089 1049.24 340.63 1050.87 332C1052.89 321.32 1053.24 319.97 1054.11 319.429C1054.6 319.128 1055 317.81 1055 316.5C1055 315.19 1055.45 313.84 1056 313.5C1056.55 313.16 1057 311.81 1057 310.5C1057 309.19 1057.45 307.84 1058 307.5C1058.55 307.16 1059 305.585 1059 304C1059 302.415 1059.45 300.84 1060 300.5C1060.55 300.16 1061 298.81 1061 297.5C1061 296.19 1061.45 294.84 1062 294.5C1062.55 294.16 1063 292.81 1063 291.5C1063 290.19 1063.45 288.84 1064 288.5C1064.55 288.16 1065 287.078 1065 286.095C1065 280.126 1070.82 274.801 1084.75 268.042C1089.56 265.706 1094.28 263.391 1095.24 262.898C1096.19 262.404 1097.66 262 1098.5 262C1099.34 262 1100.81 261.594 1101.76 261.097C1102.72 260.601 1105.3 259.735 1107.5 259.172C1119.58 256.083 1122.94 255.792 1138.55 256.489C1165.27 257.681 1186.01 257.565 1193 256.185C1196.58 255.478 1200.97 254.648 1202.76 254.34C1204.55 254.031 1206.27 253.379 1206.57 252.89C1206.87 252.4 1208.19 252 1209.5 252C1210.81 252 1212.16 251.55 1212.5 251C1212.84 250.45 1214 250 1215.07 250C1216.15 250 1218.03 249.48 1219.26 248.844C1223.96 246.418 1225.02 246 1226.49 246C1227.32 246 1228 245.55 1228 245C1228 244.45 1228.81 244 1229.8 244C1230.79 244 1232.03 243.601 1232.55 243.112C1233.07 242.624 1234.48 241.929 1235.68 241.567C1238.08 240.843 1238.72 241.899 1242.97 253.5C1244.17 256.8 1245.57 260.281 1246.08 261.236C1246.59 262.191 1247 263.885 1247 265C1247 266.115 1247.45 267.921 1248 269.014C1248.55 270.106 1249.45 271.894 1250 272.986C1250.55 274.079 1251 275.66 1251 276.5C1251 277.34 1251.4 278.809 1251.88 279.764C1252.88 281.73 1254.91 286.516 1256 289.5C1256.4 290.6 1257.3 292.85 1258 294.5C1258.7 296.15 1259.6 298.4 1260 299.5C1260.4 300.6 1261.22 302.625 1261.81 304C1262.82 306.329 1266.89 318.61 1270.11 329C1272 335.129 1271.75 353.32 1269.71 358C1267.9 362.138 1264.72 366 1263.13 366C1262.51 366 1262 366.45 1262 367C1262 367.55 1261.01 368 1259.8 368C1258.59 368 1258.03 368.337 1258.55 368.75C1259.07 369.163 1282.23 369.261 1310 368.969C1337.77 368.677 1359.78 368.34 1358.9 368.219C1350.45 367.058 1338.7 352.676 1328.1 330.5C1324.21 322.363 1321.05 315.341 1320.02 312.5C1319.61 311.4 1318.32 308.545 1317.14 306.155C1315.96 303.766 1315 301.382 1315 300.857C1315 300.333 1314.1 298.041 1313 295.764C1311.9 293.487 1311 290.835 1311 289.871C1311 288.907 1310.55 287.84 1310 287.5C1309.45 287.16 1309 286.009 1309 284.941C1309 283.873 1308.55 283 1308 283C1307.45 283 1307 282.094 1307 280.986C1307 279.879 1306.6 278.191 1306.12 277.236C1305.3 275.626 1304.38 273.468 1302.1 267.75C1301.61 266.512 1300.52 263.925 1299.68 262C1297.27 256.477 1288.99 234.961 1287.37 230C1285.96 225.694 1285.58 224.679 1283.23 219C1282.67 217.625 1281.66 214.925 1281 213C1279.55 208.766 1278.07 205.099 1276.88 202.764C1276.4 201.809 1276 200.34 1276 199.5C1276 198.66 1275.6 197.191 1275.12 196.236C1274.63 195.281 1273.68 193.15 1273 191.5C1272.32 189.85 1271.37 187.719 1270.88 186.764C1270.4 185.809 1270 184.148 1270 183.073C1270 181.998 1269.64 180.895 1269.2 180.622C1268.76 180.35 1267.78 177.848 1267.02 175.063C1266.26 172.279 1265.27 170 1264.82 170C1264.37 170 1264 168.902 1264 167.559C1264 166.216 1263.55 164.84 1263 164.5C1262.45 164.16 1262 163.002 1262 161.927C1262 160.852 1261.6 159.191 1261.12 158.236C1260.3 156.629 1259.41 154.537 1257.1 148.75C1256.61 147.512 1255.65 144.925 1254.98 143C1254.31 141.075 1253.21 138.15 1252.53 136.5C1251.85 134.85 1250.73 131.925 1250.03 130C1249.34 128.075 1248.18 125.15 1247.45 123.5C1246.73 121.85 1245.41 118.25 1244.52 115.5C1243.63 112.75 1242.53 109.6 1242.08 108.5C1241.64 107.4 1240.8 105.375 1240.23 104C1239.67 102.625 1238.66 99.9249 1238 97.9999C1236.55 93.7659 1235.07 90.0989 1233.88 87.7639C1233.4 86.8089 1233 85.3399 1233 84.4999C1233 83.6599 1232.55 82.0789 1232 80.9859C1231.45 79.8939 1230.55 78.1059 1230 77.0139C1229.45 75.9209 1229 74.3399 1229 73.4999C1229 72.6599 1228.48 70.9659 1227.84 69.7359C1225.35 64.9219 1225 63.9579 1225 62.0139C1225 60.9059 1224.55 59.9999 1224 59.9999C1223.45 59.9999 1223 59.0939 1223 57.9859C1223 56.8789 1222.55 55.0789 1222 53.9859C1221.45 52.8939 1220.55 51.1059 1220 50.0139C1219.45 48.9209 1219 47.2109 1219 46.2139C1219 45.2159 1218.64 43.9729 1218.2 43.4499C1217.77 42.9279 1216.84 40.6999 1216.14 38.4999C1214.87 34.5029 1214.51 33.5719 1211.71 26.9999C1210.9 25.0749 1208.75 19.5629 1206.94 14.7499L1203.66 5.99989H1177.8C1157.99 5.99989 1151.84 6.29289 1151.53 7.24989ZM1719.7 9.47189C1723.29 12.5439 1724.81 15.0359 1731.16 28.2359C1731.62 29.1909 1732 31.9139 1732 34.2859C1732 36.6589 1732.41 39.0269 1732.91 39.5499C1734.88 41.5999 1735.29 66.2019 1735.39 189.5C1735.49 317.874 1735.46 319.187 1732.13 339C1730.88 346.399 1730.19 348.767 1727.81 353.641C1725.53 358.33 1718.98 365.122 1714.5 367.436C1711.78 368.845 1723.53 368.988 1842.75 368.994L1974 369V343V317H1971C1968.17 317 1968 317.229 1968 320.941C1968 323.109 1967.61 325.124 1967.13 325.42C1966.65 325.716 1966.01 327.205 1965.7 328.729C1965.4 330.253 1963.78 333.383 1962.11 335.685C1958.99 339.997 1948.27 348 1945.61 348C1944.79 348 1943.87 348.4 1943.57 348.89C1942.54 350.557 1935.51 351.242 1913 351.871C1887.63 352.58 1847.79 351.68 1835 350.109C1815.26 347.683 1809.73 345.619 1801.74 337.7C1796.4 332.403 1792 325.294 1792 321.965C1792 320.949 1791.62 319.881 1791.15 319.591C1790.68 319.3 1789.99 315.845 1789.63 311.912C1788.62 301.054 1789.01 101.329 1790.08 78.4999C1791.39 50.6539 1793.69 32.7049 1796.99 24.4999C1800.88 14.8369 1803.63 11.5029 1810.54 8.05589L1814.5 6.07989L1765.07 6.03989L1715.64 5.99989L1719.7 9.47189ZM2462.48 6.96089C2462.83 7.53289 2463.68 7.99989 2464.36 7.99989C2466.38 7.99989 2473.5 15.4269 2475.5 19.6169C2478.82 26.5819 2480.49 36.3719 2482.23 58.9999C2483.15 70.9039 2483.5 105.446 2483.5 183C2483.5 288.263 2482.91 313.393 2479.98 334C2479.47 337.575 2478.77 342.525 2478.42 345C2478.08 347.475 2477.39 349.928 2476.9 350.45C2476.4 350.973 2476 352.332 2476 353.472C2476 356.569 2470.46 362.695 2464.64 366.031L2459.5 368.981L2508 368.969C2555.74 368.956 2556.44 368.927 2552.5 367.133C2547.51 364.858 2542 360.281 2542 358.411C2542 357.635 2541.55 357 2541 357C2540.45 357 2540 356.094 2540 354.986C2540 353.879 2539.6 352.191 2539.12 351.236C2537.5 348.047 2536 340.03 2536 334.551C2536 331.569 2535.6 328.085 2535.12 326.807C2534.63 325.529 2533.91 310.642 2533.51 293.725C2532.95 269.956 2533.06 262.63 2534.01 261.484C2534.94 260.373 2537.51 260 2544.26 260C2554.62 260 2558.56 260.851 2569 265.343C2576.41 268.534 2594.36 284.385 2600.31 293C2602.02 295.475 2604.22 298.372 2605.21 299.439C2606.19 300.505 2607 301.76 2607 302.227C2607 302.694 2609.7 307.092 2613 312C2616.3 316.908 2619 321.391 2619 321.962C2619 322.533 2619.45 323 2620 323C2620.55 323 2621 323.465 2621 324.033C2621 325.92 2635.07 346.066 2639.15 350.031C2643.33 354.089 2654.31 361.562 2659.5 363.889C2661.15 364.628 2663.28 365.631 2664.24 366.117C2665.19 366.603 2667.01 367 2668.29 367C2669.56 367 2671.13 367.525 2671.77 368.166C2673.37 369.773 2708.65 369.751 2710.26 368.142C2710.89 367.514 2712.86 367 2714.64 367C2716.42 367 2718.16 366.55 2718.5 366C2718.84 365.45 2719.91 365 2720.87 365C2723.33 365 2732.35 360.515 2739.07 355.951C2745.33 351.702 2752.21 344.405 2754.2 339.908C2754.91 338.309 2755.86 337 2756.3 337C2756.75 337 2756.87 336.592 2756.56 336.094C2755.59 334.529 2752.14 336.099 2749.78 339.183C2747.43 342.233 2738.61 348.614 2733.75 350.777C2732.24 351.45 2729.89 352.518 2728.53 353.152C2727.17 353.786 2722.08 354.348 2717.21 354.402C2705.78 354.529 2701.36 352.398 2690.5 341.515C2680.97 331.969 2681.28 332.366 2670.91 316.803C2661.57 302.787 2656.39 296.295 2647.06 286.898C2639.56 279.348 2627.12 270.67 2621.1 268.792C2618.84 268.089 2617 267.173 2617 266.757C2617 266.34 2615.9 266 2614.56 266C2613.22 266 2611.84 265.55 2611.5 265C2611.16 264.45 2609.81 264 2608.49 264C2607.17 264 2605.06 263.601 2603.8 263.113C2602.53 262.625 2599.03 261.686 2596 261.027C2587.57 259.191 2586.86 258.918 2587.27 257.665C2587.63 256.596 2590.21 256.117 2604.5 254.471C2607.25 254.155 2610.4 253.5 2611.5 253.016C2612.6 252.532 2615.08 251.859 2617 251.521C2618.93 251.182 2621.97 250.652 2623.76 250.342C2625.55 250.032 2627.27 249.379 2627.57 248.89C2627.87 248.4 2629.42 248 2631 248C2632.59 248 2634.16 247.55 2634.5 247C2634.84 246.45 2636.19 246 2637.5 246C2638.81 246 2640.16 245.55 2640.5 245C2640.84 244.45 2642.22 244 2643.56 244C2644.9 244 2646 243.55 2646 243C2646 242.45 2647.1 242 2648.44 242C2649.78 242 2651.16 241.55 2651.5 241C2651.84 240.45 2652.99 240 2654.06 240C2655.13 240 2656 239.55 2656 239C2656 238.45 2656.9 238 2658 238C2659.1 238 2660 237.55 2660 237C2660 236.45 2660.86 236 2661.92 236C2662.97 236 2663.98 235.662 2664.17 235.25C2664.35 234.837 2666.53 233.418 2669 232.095C2681.32 225.511 2698.29 211.984 2705.62 202.911C2709.36 198.273 2716 188.136 2716 187.055C2716 186.475 2716.45 186 2717 186C2717.55 186 2718 185.426 2718 184.725C2718 184.023 2719.34 180.761 2720.97 177.475C2722.6 174.189 2723.95 170.739 2723.97 169.809C2723.99 168.879 2724.45 167.84 2725 167.5C2725.55 167.16 2726 165.928 2726 164.762C2726 163.596 2726.42 161.26 2726.94 159.571C2728.45 154.642 2729.84 146.28 2731.06 134.767C2732.2 124.016 2731.26 108.258 2728.92 98.7499C2726.92 90.5919 2725.73 86.3909 2724.75 83.9999C2724.19 82.6249 2723.29 80.3749 2722.75 78.9999C2718.62 68.4989 2710.14 56.3009 2700.77 47.3779C2689.89 37.0189 2674.05 27.1639 2658 20.7639C2656.63 20.2149 2654.72 19.3689 2653.76 18.8829C2652.81 18.3969 2651.15 17.9999 2650.07 17.9999C2649 17.9999 2647.84 17.5499 2647.5 16.9999C2647.16 16.4499 2645.81 15.9999 2644.5 15.9999C2643.19 15.9999 2641.84 15.5499 2641.5 14.9999C2641.16 14.4499 2639.36 13.9999 2637.5 13.9999C2635.64 13.9999 2633.87 13.5979 2633.57 13.1059C2633.26 12.6139 2631.32 11.9619 2629.26 11.6559C2627.19 11.3509 2623.03 10.6269 2620 10.0459C2616.98 9.46589 2611.58 8.48689 2608 7.86989C2599.18 6.34789 2461.57 5.48889 2462.48 6.96089ZM2796.77 8.00389C2798.58 9.10189 2800.31 9.99989 2800.62 9.99989C2801.86 9.99989 2807.61 16.7069 2809.62 20.4999C2814.04 28.8299 2817.16 46.1339 2818.98 72.4999C2820.36 92.4319 2820.34 270.061 2818.96 293C2817.13 323.376 2814.97 338.34 2810.66 350.5C2809.02 355.134 2804.65 362 2803.34 362C2802.7 362 2802.02 362.364 2801.83 362.81C2801.65 363.255 2799.05 364.83 2796.05 366.31L2790.61 369H2929.8H3069V342C3069 323.586 3068.66 315 3067.94 315C3067.35 315 3062.39 319.383 3056.91 324.741C3045.7 335.694 3035.19 343.323 3024.05 348.602C3019.9 350.568 3015.72 352.587 3014.76 353.088C3013.81 353.59 3012.15 354 3011.07 354C3010 354 3008.84 354.45 3008.5 355C3008.16 355.55 3006.59 356 3005 356C3003.42 356 3001.88 356.394 3001.58 356.875C3000.52 358.594 2989.09 359.322 2962 359.397C2934.23 359.473 2913.37 358.4 2912.41 356.846C2912.12 356.381 2910.59 356 2909 356C2907.42 356 2905.84 355.55 2905.5 355C2905.16 354.45 2903.98 354 2902.89 354C2900.51 354 2890.57 347.383 2886.9 343.355C2883.55 339.683 2878.84 332.521 2876.65 327.784C2874.42 322.945 2870.93 311.996 2871.17 310.594C2871.28 309.992 2871 287.563 2870.56 260.752C2869.92 222.343 2870.02 211.685 2871 210.502C2872.06 209.221 2877.19 209 2905.88 209C2939.29 209 2939.55 209.016 2946.44 211.513C2955.5 214.8 2961.48 218.724 2968.26 225.832C2973.97 231.818 2980.46 243.26 2981.8 249.687C2982.22 251.703 2983.11 253.536 2983.78 253.76C2984.73 254.077 2985 242.741 2985 202.583C2985 167.815 2984.66 151 2983.97 151C2983.4 151 2982.79 151.563 2982.61 152.25C2980.14 161.691 2974.38 172.117 2967.72 179.217C2963.18 184.055 2952 192 2949.72 192C2948.96 192 2948.03 192.308 2947.65 192.685C2946.48 193.857 2939.63 195.969 2936.95 195.985C2935.55 195.993 2933.94 196.457 2933.39 197.015C2932.73 197.669 2921.55 197.936 2901.94 197.765L2871.5 197.5L2871.26 110.5C2871.13 62.6499 2871.36 22.9709 2871.78 22.3249C2872.19 21.6789 2875.73 20.9539 2879.64 20.7129C2883.55 20.4719 2887.15 20.0229 2887.65 19.7139C2888.15 19.4049 2894.35 18.8809 2901.42 18.5489C2908.49 18.2179 2914.65 17.7149 2915.11 17.4329C2916.7 16.4489 2976.57 16.8699 2986 17.9309C3007.49 20.3499 3019.72 25.0239 3031.83 35.4549C3034.82 38.0289 3043 48.6889 3043 50.0109C3043 50.5549 3043.34 50.9999 3043.76 50.9999C3044.17 50.9999 3045.09 52.3089 3045.8 53.9099C3046.51 55.5099 3047.74 57.0709 3048.54 57.3779C3049.8 57.8589 3050 54.2929 3050 31.9689V5.99989L2921.75 6.00389L2793.5 6.00689L2796.77 8.00389ZM2208 11.5959C2197.01 12.5569 2177.53 17.3919 2165.5 22.1449C2161.1 23.8839 2157.07 25.6869 2156.55 26.1529C2156.03 26.6189 2154.79 26.9999 2153.8 26.9999C2152.81 26.9999 2152 27.3399 2152 27.7559C2152 28.1719 2150.65 29.1089 2149 29.8399C2142.64 32.6529 2131.2 40.9849 2124.46 47.7079C2113.11 59.0349 2104.32 73.3139 2098.12 90.4999C2096.45 95.1379 2093.4 106.696 2090.95 117.75C2090.43 120.088 2089.52 124.137 2088.94 126.75C2081.05 162.124 2081.93 218.74 2090.94 254.75C2091.52 257.087 2092.42 260.688 2092.93 262.75C2098.7 285.911 2108.07 306.062 2118.61 317.962C2119.85 319.358 2121.68 321.425 2122.68 322.556C2123.68 323.687 2127.65 327.194 2131.5 330.349C2141.11 338.223 2140.81 338 2141.84 338C2142.34 338 2143.29 338.649 2143.95 339.443C2144.61 340.236 2149.5 342.976 2154.83 345.532C2160.15 348.087 2165.28 350.588 2166.24 351.089C2167.19 351.59 2168.85 352 2169.93 352C2171 352 2172.16 352.45 2172.5 353C2172.84 353.55 2174.42 354 2176 354C2177.59 354 2179.16 354.45 2179.5 355C2179.84 355.55 2181.58 356 2183.36 356C2185.14 356 2187.03 356.404 2187.55 356.898C2188.54 357.836 2191.31 358.303 2207 360.184C2221.13 361.878 2243.29 361.239 2248.5 358.988C2249.6 358.513 2252.19 357.871 2254.25 357.562C2262.64 356.304 2265.04 355.737 2265.57 354.89C2265.87 354.4 2267.19 354 2268.5 354C2269.81 354 2271.16 353.55 2271.5 353C2271.84 352.45 2273 352 2274.07 352C2275.15 352 2276.81 351.596 2277.76 351.102C2278.72 350.609 2283.55 348.25 2288.5 345.862C2293.45 343.473 2297.65 341.177 2297.83 340.759C2298.02 340.342 2298.58 340 2299.1 340C2302.54 340 2325.54 320.071 2332 311.495C2336.59 305.407 2345 289.275 2345 286.57C2345 285.771 2345.45 284.84 2346 284.5C2346.55 284.16 2347 282.81 2347 281.5C2347 280.19 2347.4 278.872 2347.89 278.571C2348.37 278.271 2349.03 276.781 2349.34 275.262C2349.65 273.743 2350.4 270.25 2351 267.5C2353.78 254.764 2355.49 245.141 2357.23 232.5C2358.85 220.697 2358.8 165.919 2357.16 152.5C2356.03 143.216 2355.52 139.698 2353.1 124.25C2351.4 113.419 2349.04 101.256 2347.12 93.4999C2344.86 84.3319 2344.23 82.2799 2342.56 78.4849C2341.6 76.2929 2340.06 72.8179 2339.15 70.7609C2338.24 68.7049 2337.16 67.0179 2336.75 67.0109C2336.34 67.0049 2336 66.5189 2336 65.9299C2336 64.9529 2330.42 56.1759 2329.05 54.9999C2328.73 54.7249 2327.25 53.0159 2325.76 51.2029C2312.77 35.3959 2283.53 20.1489 2254.5 14.0459C2244.7 11.9849 2219.02 10.6319 2208 11.5959ZM786 15.4579L779.5 16.5569L778.868 30.0289C778.521 37.4379 778.183 89.8759 778.118 146.559C778.022 230.672 778.244 249.951 779.325 251.429C782.814 256.201 828.217 255.221 840.5 250.109C841.6 249.652 844.3 248.735 846.5 248.072C852.239 246.344 867.599 239.481 869 238.019C869.275 237.732 870.669 236.896 872.098 236.161C873.527 235.426 875.849 233.851 877.258 232.662C878.667 231.473 881.773 228.937 884.16 227.027C891.241 221.359 897.957 214.209 902.97 207C904.308 205.075 905.65 203.275 905.952 203C906.92 202.117 910.105 196.557 910.678 194.75C910.984 193.788 911.631 193 912.117 193C912.602 193 913 192.1 913 191C913 189.9 913.45 189 914 189C914.55 189 915 188.319 915 187.486C915 186.654 915.52 184.966 916.156 183.736C918.645 178.922 919 177.958 919 176.014C919 174.906 919.45 174 920 174C920.55 174 921 172.677 921 171.059C921 169.441 921.402 167.869 921.894 167.565C922.386 167.261 923.075 165.097 923.424 162.756C923.774 160.415 924.542 155.35 925.132 151.5C926.974 139.467 926.165 110.883 923.916 108.55C923.412 108.028 923 105.89 923 103.8C923 101.71 922.55 99.9999 922 99.9999C921.45 99.9999 921 98.6769 921 97.0589C921 95.4409 920.55 93.8399 920 93.4999C919.45 93.1599 919 92.0019 919 90.9269C919 89.8519 918.597 88.1909 918.105 87.2359C917.613 86.2809 915.702 82.3499 913.859 78.4999C912.017 74.6499 910.169 71.3499 909.754 71.1669C909.339 70.9829 909 70.3889 909 69.8469C909 68.9419 904.794 62.4269 901.045 57.5239C899.023 54.8789 885.096 40.9599 882.404 38.8929C866.088 26.3659 845.835 17.8339 826 15.1309C816.518 13.8389 794.513 14.0189 786 15.4579ZM2540.43 15.4669C2537.1 16.1209 2533.83 16.9839 2533.18 17.3869C2531.41 18.4819 2531.48 248.907 2533.25 251.318C2535.1 253.836 2549.86 255.372 2565.3 254.655C2577.94 254.068 2600.08 249.84 2600.83 247.867C2601.02 247.39 2602.04 247 2603.1 247C2604.16 247 2605.81 246.597 2606.76 246.105C2607.72 245.613 2611.65 243.702 2615.5 241.859C2619.35 240.017 2622.65 238.169 2622.83 237.754C2623.02 237.339 2623.61 237 2624.15 237C2627.39 237 2643.8 223.024 2653.07 212.376C2656.72 208.186 2664 197.31 2664 196.055C2664 195.475 2664.45 195 2665 195C2665.55 195 2666 194.1 2666 193C2666 191.9 2666.45 191 2667 191C2667.55 191 2668 190.1 2668 189C2668 187.9 2668.45 187 2669 187C2669.55 187 2670 186.175 2670 185.167C2670 184.158 2670.31 183.028 2670.68 182.656C2671.74 181.592 2675.95 168.729 2675.97 166.45C2675.99 165.322 2676.38 163.972 2676.85 163.45C2680.17 159.72 2681.75 125.723 2679.19 113C2677.83 106.209 2674.49 94.2869 2672.75 89.9999C2672.19 88.6249 2671.4 86.5999 2670.99 85.4999C2669.42 81.2769 2663.47 69.4839 2662.75 69.1669C2662.34 68.9829 2662 68.1959 2662 67.4169C2662 66.6369 2661.55 65.9999 2661 65.9999C2660.45 65.9999 2660 65.3249 2660 64.4999C2660 63.6749 2659.55 62.9999 2659 62.9999C2658.45 62.9999 2658 62.5459 2658 61.9909C2658 59.1009 2638.69 40.1859 2629.5 34.0779C2623.57 30.1349 2614.88 25.5299 2606.5 21.8859C2601.61 19.7579 2590.17 16.7739 2582.19 15.5419C2571.54 13.8979 2548.66 13.8569 2540.43 15.4669ZM1155.35 31.0209C1155.01 32.6819 1154.35 34.2839 1153.87 34.5799C1153.39 34.8759 1153 35.9979 1153 37.0729C1153 38.1479 1152.6 39.8089 1152.12 40.7639C1151.63 41.7189 1150.68 43.8499 1150 45.4999C1149.32 47.1499 1148.37 49.2809 1147.88 50.2359C1147.4 51.1909 1147 52.8519 1147 53.9269C1147 55.0019 1146.55 56.1599 1146 56.4999C1145.45 56.8399 1145 58.1899 1145 59.4999C1145 60.8099 1144.55 62.1599 1144 62.4999C1143.45 62.8399 1143 63.9979 1143 65.0729C1143 66.9609 1142.64 67.9339 1140.16 72.7359C1139.52 73.9659 1139 75.8519 1139 76.9269C1139 78.0019 1138.55 79.1599 1138 79.4999C1137.45 79.8399 1137 81.1899 1137 82.4999C1137 83.8099 1136.55 85.1599 1136 85.4999C1135.45 85.8399 1135 86.9979 1135 88.0729C1135 89.1479 1134.57 90.8089 1134.05 91.7639C1133.52 92.7189 1132.14 96.4249 1130.98 99.9999C1129.82 103.575 1128.49 107.4 1128.03 108.5C1126.51 112.116 1123.84 119.364 1120.85 128C1119.23 132.675 1117.51 137.4 1117.02 138.5C1116.53 139.6 1115.18 143.425 1114.02 147C1112.86 150.575 1111.48 154.281 1110.95 155.236C1110.43 156.191 1110 157.852 1110 158.927C1110 160.002 1109.55 161.16 1109 161.5C1108.45 161.84 1108 163.19 1108 164.5C1108 165.81 1107.55 167.16 1107 167.5C1106.45 167.84 1106 168.998 1106 170.073C1106 171.148 1105.55 172.921 1105 174.014C1104.45 175.106 1103.55 176.894 1103 177.986C1102.45 179.079 1102 180.852 1102 181.927C1102 183.002 1101.55 184.16 1101 184.5C1100.45 184.84 1100 186.216 1100 187.559C1100 188.902 1099.55 190 1099 190C1098.45 190 1098 191.098 1098 192.441C1098 193.784 1097.55 195.16 1097 195.5C1096.45 195.84 1096 197.19 1096 198.5C1096 199.81 1095.55 201.16 1095 201.5C1094.45 201.84 1094 202.998 1094 204.073C1094 205.148 1093.55 206.921 1093 208.014C1092.45 209.106 1091.55 210.894 1091 211.986C1090.45 213.079 1090 214.852 1090 215.927C1090 217.002 1089.55 218.16 1089 218.5C1088.45 218.84 1088 220.126 1088 221.359C1088 222.592 1087.64 224.028 1087.19 224.55C1086.75 225.073 1085.36 228.65 1084.1 232.5C1082.85 236.35 1081.42 240.4 1080.94 241.5C1078.39 247.279 1076 254.304 1076 256.037C1076 258.517 1077.56 258.512 1082.73 256.018C1088.89 253.041 1100.63 249.431 1108.5 248.092C1112.35 247.437 1117.42 246.474 1119.76 245.951C1125.4 244.695 1138.62 244.737 1143.01 246.025C1147.55 247.357 1185.07 247.335 1186.4 245.999C1186.95 245.45 1189.12 245 1191.21 245C1193.31 245 1195.81 244.594 1196.76 244.097C1197.72 243.601 1200.53 242.657 1203 242C1205.47 241.343 1208.28 240.399 1209.24 239.903C1210.19 239.406 1211.88 239 1212.99 239C1214.09 239 1215 238.55 1215 238C1215 237.45 1215.87 237 1216.94 237C1218.01 237 1219.16 236.55 1219.5 236C1219.84 235.45 1221.22 235 1222.56 235C1223.9 235 1225 234.55 1225 234C1225 233.45 1225.59 233 1226.3 233C1227.02 233 1228.81 232.437 1230.29 231.75C1234.07 229.996 1233.89 227.826 1229.06 216.5C1228.59 215.4 1227.66 212.925 1227 211C1226.34 209.075 1225.33 206.375 1224.77 205C1224.2 203.625 1223.29 201.375 1222.75 200C1222.21 198.625 1221.37 196.719 1220.88 195.764C1220.4 194.809 1220 193.34 1220 192.5C1220 191.66 1219.6 190.191 1219.12 189.236C1217.63 186.306 1216.19 182.685 1214.86 178.5C1214.16 176.3 1213.23 174.072 1212.8 173.55C1212.36 173.027 1212 171.565 1212 170.3C1212 169.035 1211.55 168 1211 168C1210.45 168 1210 167.094 1210 165.986C1210 164.042 1209.65 163.078 1207.16 158.264C1206.52 157.034 1206 155.34 1206 154.5C1206 153.66 1205.6 152.191 1205.12 151.236C1204.63 150.281 1203.68 148.15 1203 146.5C1202.32 144.85 1201.37 142.719 1200.88 141.764C1200.4 140.809 1200 139.34 1200 138.5C1200 137.66 1199.55 136.079 1199 134.986C1198.45 133.894 1197.55 132.106 1197 131.014C1196.45 129.921 1196 128.34 1196 127.5C1196 126.66 1195.6 125.191 1195.12 124.236C1194.3 122.638 1193.55 120.85 1191.1 114.75C1190.6 113.512 1188.09 106.875 1185.52 99.9999C1180.56 86.7209 1179.3 83.5399 1177.88 80.7639C1177.4 79.8089 1177 78.3399 1177 77.4999C1177 76.6599 1176.6 75.1909 1176.12 74.2359C1175.63 73.2809 1174.68 71.1499 1174 69.4999C1173.32 67.8499 1172.37 65.7189 1171.88 64.7639C1171.4 63.8089 1171 62.1479 1171 61.0729C1171 59.9979 1170.55 58.8399 1170 58.4999C1169.45 58.1599 1169 56.7839 1169 55.4409C1169 54.0979 1168.63 52.9999 1168.18 52.9999C1167.73 52.9999 1166.74 50.7209 1165.98 47.9369C1165.22 45.1519 1164.24 42.6499 1163.8 42.3779C1163.36 42.1049 1163 41.0929 1163 40.1279C1163 37.6509 1158.2 27.9999 1156.97 27.9999C1156.41 27.9999 1155.68 29.3589 1155.35 31.0209Z" fill="#297230"/>
</g>
<defs>
<clipPath id="clip0_3413_2864">
<rect width="3401" height="374" fill="white"/>
</clipPath>
</defs>
</svg>
