<?xml version="1.0" standalone="no"?>
<!DOCTYPE svg PUBLIC "-//W3C//DTD SVG 1.1//EN" "http://www.w3.org/Graphics/SVG/1.1/DTD/svg11.dtd" >
<svg xmlns="http://www.w3.org/2000/svg" xmlns:xlink="http://www.w3.org/1999/xlink" version="1.1">
<metadata>
Created by FontForge 20201107 at Thu Mar 22 14:11:50 2018
 By 
Copyright (c) 2018 by Zetafonts. All rights reserved.
</metadata>
<defs>
<font id="Bimbo-Regular" horiz-adv-x="717" >
  <font-face 
    font-family="Bimbo"
    font-weight="400"
    font-stretch="normal"
    units-per-em="1200"
    panose-1="0 0 5 6 0 0 0 2 0 2"
    ascent="960"
    descent="-240"
    x-height="275"
    cap-height="432"
    bbox="-322.286 -1249 1568 1533"
    underline-thickness="100"
    underline-position="-200"
    unicode-range="U+000D-FB06"
  />
<missing-glyph horiz-adv-x="1484" 
d="M839 798q-28 5 -58.5 11t-62.5 6q-99 0 -183 -36.5t-144.5 -98.5t-95 -143t-34.5 -171q0 -91 35 -173t96.5 -144t145 -98.5t180.5 -36.5q94 0 178 35.5t146 96.5t98.5 143.5t36.5 176.5q0 82 -27 153t-73 126.5t-107.5 94.5t-130.5 58zM864 -134q-35 -5 -71 -11.5
t-75 -6.5q-116 0 -215 42t-172 113t-114.5 165t-41.5 198q0 73 20 140.5t56 125t86 104.5t110.5 80t129 51t141.5 18q117 0 216.5 -43t172 -114.5t113.5 -165.5t41 -196q0 -94 -31 -174.5t-84.5 -145t-126 -110.5t-155.5 -70zM1170 366q0 -78 -27.5 -149t-79.5 -132h-627
l606 586q128 -152 128 -305zM383 662q76 64 161.5 100t173.5 36q89 0 173.5 -36.5t156.5 -99.5h-665zM393 61q-61 67 -94 144t-33 161q0 78 28 148t79 130h625zM1055 68q-76 -61 -162.5 -97.5t-174.5 -36.5t-173 36.5t-161 97.5h671z" />
    <glyph glyph-name=".notdef" horiz-adv-x="1484" 
d="M839 798q-28 5 -58.5 11t-62.5 6q-99 0 -183 -36.5t-144.5 -98.5t-95 -143t-34.5 -171q0 -91 35 -173t96.5 -144t145 -98.5t180.5 -36.5q94 0 178 35.5t146 96.5t98.5 143.5t36.5 176.5q0 82 -27 153t-73 126.5t-107.5 94.5t-130.5 58zM864 -134q-35 -5 -71 -11.5
t-75 -6.5q-116 0 -215 42t-172 113t-114.5 165t-41.5 198q0 73 20 140.5t56 125t86 104.5t110.5 80t129 51t141.5 18q117 0 216.5 -43t172 -114.5t113.5 -165.5t41 -196q0 -94 -31 -174.5t-84.5 -145t-126 -110.5t-155.5 -70zM1170 366q0 -78 -27.5 -149t-79.5 -132h-627
l606 586q128 -152 128 -305zM383 662q76 64 161.5 100t173.5 36q89 0 173.5 -36.5t156.5 -99.5h-665zM393 61q-61 67 -94 144t-33 161q0 78 28 148t79 130h625zM1055 68q-76 -61 -162.5 -97.5t-174.5 -36.5t-173 36.5t-161 97.5h671z" />
    <glyph glyph-name=".null" horiz-adv-x="0" 
 />
    <glyph glyph-name=".null" horiz-adv-x="0" 
 />
    <glyph glyph-name="nonmarkingreturn" unicode="&#xd;" horiz-adv-x="553" 
 />
    <glyph glyph-name="space" unicode=" " horiz-adv-x="553" 
 />
    <glyph glyph-name="exclam" unicode="!" horiz-adv-x="382" 
d="M170 969q2 10 9 15.5t21 5.5q26 0 34 -10.5t9 -29.5q-2 -81 -5.5 -148t-8 -126.5t-9 -116t-8.5 -116.5q-2 -33 -3.5 -74t-5.5 -82t-12 -77t-21 -59q-4 -7 -10 -7q-15 0 -28 11t-13 32q1 24 1.5 47.5t2.5 47.5q6 103 11 180.5t9 137t7 106t6 88.5t6.5 83.5t7.5 91.5z
M87 -5q1 15 8.5 27t19 19.5t26 11t29.5 1.5q20 -2 31.5 -15t11.5 -31q0 -26 -13.5 -44t-57.5 -18q-23 0 -39 11.5t-16 37.5z" />
    <glyph glyph-name="quotedbl" unicode="&#x22;" horiz-adv-x="339" 
d="M88 802q17 2 26 -6t7 -20q-3 -33 -11 -64t-18.5 -57.5t-23.5 -47.5t-26 -36q-9 -5 -20 -2.5t-16 14.5q-2 8 -2.5 16t1.5 17q1 8 3 18t6 26l9 34q9 40 24 67t41 41zM242 795q17 3 26.5 -5t7.5 -20q-3 -33 -11 -64t-19 -57.5t-24 -48t-26 -36.5q-12 -4 -25.5 2t-14.5 26
q2 14 5 28t8 34l13 51q8 35 22.5 58.5t37.5 31.5z" />
    <glyph glyph-name="numbersign" unicode="#" horiz-adv-x="691" 
d="M467 730q-18 -67 -35 -131t-25 -127q28 0 57.5 -0.5t59.5 -0.5q12 43 21 77t16.5 60.5t13.5 46.5t12 36q9 20 31 20q11 0 20 -5.5t9 -14.5q0 -22 -3.5 -49.5t-9.5 -57t-13 -59t-14 -55.5q23 0 42 0.5t36 0.5q26 0 41.5 -5t15.5 -24q0 -20 -24.5 -28t-62.5 -9l-70 -2
q-5 -28 -11 -56t-11 -52h2h11t27.5 -0.5t53.5 -0.5q10 0 15 -9t5 -18q0 -20 -13.5 -27t-51.5 -10h-60q-7 -33 -17 -73t-20.5 -78.5t-20.5 -71.5t-16 -51q-3 -8 -11 -12t-17 -4q-12 0 -22.5 5.5t-10.5 13.5v2q4 27 10.5 60.5t13.5 69.5t14.5 72t14.5 67h-118
q-17 -46 -32.5 -90.5t-29.5 -80t-26 -58t-21 -23.5h-2q-9 0 -20.5 10t-11.5 18v2q5 22 10.5 44t12.5 48t16.5 57.5t21.5 72.5h-132q-7 0 -17 8.5t-10 31.5q0 10 11.5 16t30 8.5t42 3t47.5 0.5h48l25 107h-112q-7 0 -17 8.5t-10 31.5q0 10 11.5 16t30 8.5t42 3t47.5 0.5h23
q9 41 18.5 75.5t19.5 66.5t21 62.5t24 63.5q3 8 12.5 14.5t20.5 4.5q16 -2 19.5 -11t1.5 -19zM391 405l-26 -108q29 0 60 -0.5t61 -1.5l22 108z" />
    <glyph glyph-name="dollar" unicode="$" horiz-adv-x="777" 
d="M316 1004q0 14 11 22t23 8q17 0 26.5 -25.5t14 -60.5t6 -72.5t1.5 -61.5q12 2 24.5 3t24.5 1q43 0 78.5 -14t55.5 -46q2 -6 2 -8q0 -11 -10.5 -20t-21.5 -9q-6 0 -10 3q-42 25 -85 25q-30 0 -58 -12q0 -46 -1 -86.5t-1 -82.5q53 -1 93 -18t67 -45.5t41 -66t14 -79.5
q0 -37 -15 -82t-42.5 -88t-67 -78.5t-87.5 -53.5q0 -17 1.5 -40.5t3.5 -50t3.5 -53.5t1.5 -51q0 -11 -0.5 -21t-3 -18t-8.5 -13t-18 -5q-9 0 -20 3t-13 14q-5 21 -8 49t-5 59t-4 61t-4 54q-36 0 -71 15t-67.5 41.5t-59.5 61t-46 73.5q-1 2 -1 6q0 8 7.5 17t17.5 9q7 0 13 -6
q28 -27 48.5 -52t42 -44.5t48.5 -31.5t67 -13q-2 46 -3.5 88t-3 86t-2.5 93t-1 109q-27 0 -51 7t-42.5 20.5t-29.5 32t-11 42.5q0 39 10.5 68t29 51t43 38.5t52.5 30.5v55.5t0.5 49t0.5 51v61.5zM394 497q0 -60 1 -147t6 -210q30 13 54 39.5t40.5 57.5t25.5 62.5t9 53.5
q0 19 -6 43.5t-21.5 46.5t-42 37.5t-66.5 16.5zM243 618q0 -15 6.5 -24.5t17 -14.5t23 -7.5t25.5 -3.5v28.5t0.5 29t0.5 35v45.5q-33 -14 -53 -35t-20 -53z" />
    <glyph glyph-name="percent" unicode="%" horiz-adv-x="817" 
d="M384 227q4 23 17 51.5t35.5 54t55 42.5t74.5 17q34 0 59 -12.5t40.5 -33.5t23 -48t7.5 -56q0 -28 -7 -65t-27 -70.5t-55.5 -56.5t-92.5 -23q-60 0 -97 40t-37 113q0 10 1 21.5t3 25.5zM494 286q-14 -17 -24.5 -45.5t-10.5 -60.5q0 -38 14 -65.5t46 -27.5q25 0 44 14
t31 37t18 52.5t6 60.5q0 29 -11.5 53t-39.5 24q-21 0 -41 -14t-32 -28zM45 750q6 33 20.5 63.5t37.5 54.5t52.5 38.5t65.5 14.5q37 0 63 -13.5t42.5 -35.5t24 -49.5t7.5 -55.5q0 -33 -8.5 -71t-29.5 -70.5t-56.5 -54t-90.5 -21.5q-21 0 -44.5 7t-43 24.5t-32 46t-12.5 71.5
q0 11 1 24t3 27zM140 794q-9 -17 -14.5 -41t-5.5 -49q0 -18 3.5 -34.5t11 -30t19 -21.5t28.5 -8q27 0 45.5 15.5t30 39.5t16.5 52.5t5 54.5q0 13 -2.5 27.5t-8 26t-15.5 19t-25 7.5q-25 0 -50.5 -18.5t-37.5 -39.5zM540 826q5 9 12 21t16 22.5t19.5 18t22.5 7.5t21 -8t9 -22
q0 -1 -1.5 -5t-10.5 -24t-29 -61t-57.5 -116t-94.5 -190t-141 -282q-21 -41 -37 -74t-30 -56.5t-28.5 -36t-31.5 -12.5q-19 0 -26.5 11.5t-7.5 23.5t8 30.5t25 48.5z" />
    <glyph glyph-name="ampersand" unicode="&#x26;" horiz-adv-x="976" 
d="M794 426q11 8 24 5q21 -3 20 -31q-3 -24 -10 -53t-17 -60.5t-23 -63.5t-28 -63l28 -26q8 -8 16.5 -15t16.5 -14q10 -8 25 -18.5t29 -22t24 -22t10 -17.5q0 -10 -9 -16.5t-25 -6.5q-13 0 -25 3q-35 20 -65.5 42t-58.5 45q-27 -52 -61 -97t-77 -80t-95 -57t-114 -28
q-29 -3 -58 0q-54 3 -99.5 18.5t-79 43t-52 67t-18.5 91.5q0 27 3.5 52.5t9.5 47.5q15 54 33 96t40.5 81t50 79.5t62.5 91.5q15 22 29.5 45t27.5 47q-21 33 -40 62t-34.5 58.5t-27 61.5t-17.5 71q-2 14 -2.5 27t0.5 27q1 25 8.5 49t22 43t37 32t53.5 17q33 3 60 -4
q22 -5 38 -18t26.5 -31.5t16.5 -41t8 -45.5q3 -30 0 -57q-5 -70 -22.5 -134t-40.5 -116q7 -11 14 -21.5t15 -21.5q63 -95 123.5 -178.5t134.5 -155.5q25 62 49.5 118.5t43.5 93.5zM284 -96q46 -9 84 -8q51 2 94.5 22.5t80.5 53.5t67.5 76.5t55.5 91.5q-81 79 -151 172.5
t-143 209.5q-12 -26 -25 -48t-27 -42.5t-29.5 -42t-31.5 -45.5q-17 -26 -34 -57.5t-31 -67t-23.5 -72.5t-11.5 -74q-1 -18 0 -36t6 -35q7 -42 39 -65t80 -33zM273 887q0 -63 28 -120t67 -113q11 29 20 57t18 67q4 25 6.5 51.5t1.5 49.5q-2 47 -19 72t-52 25q-31 0 -50 -24
t-20 -65z" />
    <glyph glyph-name="quotesingle" unicode="'" horiz-adv-x="210" 
d="M115 798q17 2 26 -6t7 -20q-3 -33 -11 -64t-18.5 -57.5t-23.5 -47.5t-26 -36q-13 -5 -26 1t-15 26q2 14 5 28t8 34l9 34q9 40 24 67t41 41z" />
    <glyph glyph-name="parenleft" unicode="(" horiz-adv-x="479" 
d="M403 1164q8 12 25 12q10 0 18 -4t13.5 -9.5t8 -10.5t2.5 -7q0 -4 -1 -6q-126 -193 -188.5 -396.5t-62.5 -416.5q0 -95 11 -190t36.5 -188.5t66.5 -185.5t101 -181q12 -18 21.5 -31t20 -26t22 -26.5t28.5 -32.5q1 -1 4 -4.5t6.5 -8t6.5 -8.5t3 -5q0 -10 -13.5 -18.5
t-27.5 -8.5q-10 0 -22 7t-24 18q-87 79 -148 184.5t-99.5 222t-56 235.5t-17.5 226q0 109 17 221t50.5 221.5t83.5 215t115 201.5z" />
    <glyph glyph-name="parenright" unicode=")" horiz-adv-x="402" 
d="M68 -571q-8 -12 -25 -12q-11 0 -18.5 4t-13 9t-8 10.5t-2.5 7.5q0 4 1 6q126 193 188.5 396.5t62.5 416.5q0 110 -15 221t-51 220t-95 215t-146 205q-1 1 -4 4.5t-6.5 8t-6.5 8.5t-3 5q0 10 13.5 18.5t27.5 8.5q10 0 21.5 -7t24.5 -18q87 -79 148 -184.5t99.5 -222
t56 -236t17.5 -225.5q0 -110 -17 -221.5t-50.5 -221t-83.5 -215t-115 -201.5z" />
    <glyph glyph-name="asterisk" unicode="*" horiz-adv-x="575" 
d="M138 166q-2 -1 -5 -1q-11 0 -17.5 11.5t-6.5 21.5q0 7 9 15t22.5 16.5t30 17t32.5 15.5q-39 32 -57 48.5t-18 27.5q0 6 6.5 16t13.5 10q20 0 43.5 -16t48.5 -31q1 15 3 36t6.5 40t14 32t25.5 13q26 0 31.5 -13.5t5.5 -23.5q0 -23 -3 -49.5t-5 -45.5q41 13 72.5 21t57.5 8
q7 0 12 -9.5t5 -14.5q0 -11 -14.5 -21t-34.5 -19t-41 -16.5t-34 -11.5q19 -14 38 -28.5t34 -27.5t24.5 -22.5t9.5 -13.5q0 -9 -7.5 -17.5t-14.5 -8.5q-26 0 -55.5 17t-60.5 38l-5 -30t-8 -34.5t-11.5 -28.5t-15.5 -12q-6 0 -13 1t-13 4.5t-10.5 9.5t-4.5 16q0 6 1 18.5
t2.5 26.5t2.5 27.5t2 22.5q-27 -11 -53 -20.5t-45 -14.5z" />
    <glyph glyph-name="plus" unicode="+" horiz-adv-x="627" 
d="M156 224q-30 2 -48 9.5t-18 33.5q0 9 10.5 16t33.5 7q28 0 62.5 -0.5t72.5 -1.5q0 92 7.5 130t31.5 38q14 0 21.5 -6t7.5 -39q0 -26 -0.5 -57.5t-0.5 -66.5h135q10 0 15 -9t5 -18q0 -37 -77 -37h-79q-1 -39 -1 -78v-76q0 -10 -9 -15t-18 -5q-37 0 -37 77v96h-46.5
t-31 0.5t-21 1t-15.5 0.5z" />
    <glyph glyph-name="comma" unicode="," horiz-adv-x="249" 
d="M93 88q-2 17 11.5 28t36.5 6q15 -6 23.5 -17t12.5 -24t4 -26.5t-1 -25.5q-1 -15 -7.5 -36.5t-16 -42.5t-20.5 -39t-21 -25q-14 -6 -26.5 0t-10.5 22q4 22 11 47t10 48q3 25 2 45q-1 11 -3 20.5t-5 19.5z" />
    <glyph glyph-name="hyphen" unicode="-" horiz-adv-x="561" 
d="M94 254q-5 11 0.5 21t20.5 11q12 1 25 1h27h61.5t94.5 -1h42t42 -3t31 -10t11 -21q-3 -22 -25.5 -26t-54.5 -4t-72.5 -0.5t-80 1.5t-73 9t-49.5 22z" />
    <glyph glyph-name="period" unicode="." horiz-adv-x="239" 
d="M60 69q5 22 24.5 31.5t43.5 10.5q15 1 25 -4t16 -13t8.5 -17.5t1.5 -18.5q-1 -12 -3.5 -21.5t-9 -16.5t-18.5 -11t-32 -5q-32 -5 -47.5 14t-8.5 51z" />
    <glyph glyph-name="slash" unicode="/" horiz-adv-x="605" 
d="M330 769q6 18 14 45.5t19 53.5t25.5 44.5t32.5 18.5q14 0 23.5 -6.5t9.5 -20.5q-26 -90 -59 -202.5t-80 -262.5t-110 -345.5t-147 -450.5q-4 -11 -6.5 -18.5t-7.5 -12t-14.5 -6.5t-26.5 -2q-10 0 -18 6.5t-5 15.5q12 43 38 129.5t68.5 225t102.5 333.5t141 455z" />
    <glyph glyph-name="zero" unicode="0" horiz-adv-x="954" 
d="M98 442q0 89 13.5 175.5t51.5 154.5t106 111t176 45q107 2 185.5 -43t129.5 -119.5t75.5 -169.5t24.5 -193q0 -92 -23 -185t-78 -171q-50 -69 -125.5 -111t-169.5 -43q-71 -1 -131.5 23.5t-103.5 69.5q-42 45 -68 102t-40 117.5t-18.5 121.5t-4.5 115zM180 442
q0 -51 4 -106.5t15.5 -109t32.5 -102t54.5 -84t81 -55t113.5 -16.5q79 6 135.5 47t92.5 103t52.5 137t16.5 149q0 49 -7 101t-23 101.5t-40.5 94t-58.5 79.5q-46 47 -100 67.5t-120 12.5q-84 -9 -133 -47.5t-75 -96t-33.5 -129t-7.5 -146.5z" />
    <glyph glyph-name="one" unicode="1" horiz-adv-x="545" 
d="M172 -4q-25 2 -32.5 15.5t-1.5 24.5q23 20 66 26t89 7q-8 185 -17 368.5t-22 369.5q-17 -27 -42 -63t-55 -70t-63.5 -60.5t-67.5 -33.5q-22 1 -30.5 14.5t-2.5 24.5q8 13 25.5 24t40.5 22q28 21 55 59.5t54.5 81.5t55 83t56.5 64q17 4 30 -3.5t15 -24.5
q14 -215 25 -427.5t20 -426.5l51 2q26 1 43.5 -8.5t27.5 -17.5q6 -11 -2.5 -24.5t-30.5 -15.5q-71 -1 -141.5 -4.5t-145.5 -6.5z" />
    <glyph glyph-name="two" unicode="2" horiz-adv-x="437" 
d="M40 774q-19 -5 -32.5 3.5t-9.5 25.5q9 26 27.5 55t46.5 55t66.5 45t88.5 25q48 8 80.5 -14.5t48.5 -62.5q15 -32 17 -79t-5.5 -99.5t-22.5 -106t-34 -97.5q-27 -68 -49.5 -126.5t-44.5 -113t-45.5 -108.5t-52.5 -114q54 8 105.5 17t105.5 17q20 1 30.5 -13t5.5 -26
q-22 -17 -57 -27.5t-76.5 -17.5t-86 -12t-85.5 -10q-23 1 -36 8.5t-12 25.5q10 27 26.5 62t35.5 74.5t38 81.5t35 81l32 78q15 37 31 78t30.5 83t27 82.5t20.5 78.5q5 22 8.5 49t2 52t-9.5 45.5t-25 30.5q-30 17 -60 6t-59 -35t-55.5 -52t-50.5 -45z" />
    <glyph glyph-name="three" unicode="3" horiz-adv-x="654" 
d="M60 910q-5 11 2.5 22.5t21.5 16.5q11 1 21.5 1t21.5 -2q36 -3 68 -14.5t56.5 -29.5t39.5 -42t18 -52q2 -10 0 -20.5t-6 -21.5q-6 -18 -16.5 -36.5t-24 -36.5t-28.5 -35t-29 -32q56 -12 114 -42t105 -68q22 -19 43.5 -40.5t38 -45.5t27 -49t12.5 -50q5 -56 -17.5 -108.5
t-65.5 -93.5t-103.5 -67.5t-130.5 -30.5q-23 -1 -49.5 0t-52 5.5t-48 12t-36.5 19.5q-5 8 1 19.5t20 16.5q14 1 27.5 1.5t27.5 -0.5q29 -2 57.5 -6.5t54.5 -2.5q49 3 97.5 26.5t83.5 59.5t49.5 82t-4.5 95q-11 31 -43 67t-74 67t-89 52t-87 23q-12 1 -22.5 1t-21.5 1
q-23 1 -33 12t-8 23q12 20 33 37.5t43 35.5t41.5 38t27.5 45q10 22 5 39t-19 30.5t-34 24t-41.5 19.5t-41.5 17t-32 17z" />
    <glyph glyph-name="four" unicode="4" horiz-adv-x="546" 
d="M317 567q17 5 28.5 0.5t13.5 -21.5q-1 -20 -2.5 -37t-3 -34.5t-3 -36.5t-1.5 -42q26 1 53 1.5t53 0.5q24 -2 29 -15t0 -25q-11 -10 -26.5 -15.5t-33.5 -8t-38 -3t-39 -0.5q-1 -30 -1.5 -60.5t-1.5 -61.5l-3 -125q-2 -65 -1.5 -131t6.5 -144q1 -17 -12.5 -28t-33.5 -4
q-20 11 -29 36.5t-10 51.5q-2 61 0 132q0 74 2 152t4 177q-51 0 -98.5 1.5t-91.5 6.5q-31 10 -28 34l31 206q6 35 12.5 72.5t15.5 72t21.5 64t29.5 50.5q16 6 31 -1.5t14 -23.5q-3 -25 -8 -48.5t-11 -48.5q-9 -33 -17 -73.5t-14 -84t-11 -85.5t-9 -78q34 -1 67 -0.5t67 -0.5
l2 49q1 20 2.5 39.5t6 36.5t13.5 30.5t25 22.5z" />
    <glyph glyph-name="five" unicode="5" horiz-adv-x="612" 
d="M246 1012q48 -8 36 -49q-11 -12 -28.5 -17.5t-38.5 -7t-44 -1t-44 0.5q-1 -42 -2 -80.5t-1 -80.5q60 7 108 1t98 -32q52 -26 85.5 -69t53 -97.5t27 -117t7.5 -128.5q0 -55 -8 -106.5t-26.5 -97.5t-48.5 -86t-74 -71q-74 -57 -180 -57q-12 0 -29 2.5t-32 8.5t-25 15.5
t-9 23.5t18 22q22 4 48 3q12 0 22.5 -1.5t20 -2.5t19.5 -1t21 2q70 15 111.5 56.5t62.5 96t26.5 116.5t4.5 118q-1 33 -4.5 67t-12 67t-21.5 63.5t-33 56.5q-23 30 -50 47t-59 24.5t-71.5 6.5t-88.5 -6q-26 1 -33.5 11.5t-8.5 39.5v7v45q0 50 2 94t1 94q1 22 38 25
q36 2 77 0t85 -5z" />
    <glyph glyph-name="six" unicode="6" horiz-adv-x="668" 
d="M354 997q9 2 18 0.5t16 -6.5t10.5 -13t-0.5 -19q-24 -69 -46.5 -142.5t-41.5 -149.5t-34 -153t-24 -153q48 -16 94.5 -40t82.5 -62q44 -46 58.5 -108.5t-9.5 -125.5q-10 -29 -26.5 -49.5t-37 -32t-43 -14t-45.5 3.5q-37 10 -67.5 38t-51.5 69t-32.5 93t-9.5 109
q0 19 0.5 32.5t0.5 25t1 23t3 26.5q6 69 23 159.5t42 182t55.5 173t63.5 133.5zM376 196q-11 19 -27 35t-34 28t-36.5 20t-34.5 13q-1 -2 -1 -7q-5 -44 -1.5 -94.5t20.5 -95.5q9 -23 20.5 -42.5t25 -33t27.5 -20t27 -3.5q29 8 44 61q10 37 1.5 75t-31.5 64z" />
    <glyph glyph-name="seven" unicode="7" horiz-adv-x="581" 
d="M97 384q-5 13 4 22.5t22 9.5q9 -5 20.5 -8.5t23.5 -6.5t29.5 -4.5t29.5 -2.5q12 67 25 130.5t27 127.5t30 129.5t35 136.5q-34 0 -70.5 2t-70.5 8.5t-62.5 18.5t-46.5 31q-4 13 6 24.5t24 15.5q12 -2 24 -3.5t24 -3.5q34 -5 63 -13.5t68 -9.5q13 0 33.5 -1t40.5 -4
t36 -8.5t19 -15.5q2 -11 -0.5 -21.5t-5.5 -21.5q-39 -126 -66 -256t-52 -267q36 3 70.5 13.5t63.5 18.5q20 1 28.5 -8t3.5 -22q-29 -24 -74.5 -43.5t-106.5 -26.5q-10 -53 -14.5 -114.5t-7.5 -122.5t-6 -118t-9 -100q-5 -12 -19 -15.5t-22 3.5q-14 9 -24.5 24.5t-9.5 38.5
q3 185 27 366q2 11 3 19.5t3 19.5q-16 2 -33.5 5.5t-34 10.5t-29.5 17t-19 25z" />
    <glyph glyph-name="eight" unicode="8" horiz-adv-x="588" 
d="M224 465q-28 47 -54.5 93t-47.5 91t-33.5 90.5t-12.5 90.5q0 36 16 64t41.5 47t57 29t62.5 10q34 0 66 -14.5t57.5 -40t41 -59.5t15.5 -73q0 -38 -10.5 -78t-28 -81t-39.5 -83.5t-45 -84.5q40 -69 68 -146t28 -165q0 -26 -10 -65.5t-31.5 -77t-55.5 -64.5t-83 -27
q-41 0 -68.5 16t-43.5 41t-22.5 56.5t-6.5 63.5q0 52 12.5 99t32 92t44.5 88.5t50 87.5zM248 910q-47 3 -71.5 -27t-24.5 -75q0 -34 11.5 -69t28.5 -69.5t37 -66.5t37 -60q10 19 19.5 38t18.5 39q17 36 32.5 80t15.5 86q0 52 -28 86.5t-76 37.5zM257 374q-16 -30 -32 -62.5
t-29 -67t-21.5 -70.5t-8.5 -73q-1 -51 14.5 -83t41.5 -33q27 -1 46 17t31 44.5t18 57.5t6 55v20t-1 21q-4 39 -16.5 80t-28.5 76z" />
    <glyph glyph-name="nine" unicode="9" horiz-adv-x="529" 
d="M402 1003q2 11 12 16t22 5q24 0 32.5 -6t8.5 -22v-8q-38 -141 -66 -254.5t-48.5 -207.5t-35 -173t-25.5 -150t-20 -139t-18 -140q-2 -15 -5 -30t-8.5 -27.5t-14 -20.5t-20.5 -8q-17 0 -28 9.5t-11 23.5q7 63 16 129.5t22.5 150.5t34 193t49.5 257q-29 -20 -61 -20
q-30 0 -56.5 16t-46 41.5t-30.5 57.5t-11 65q0 34 13 67.5t35.5 59.5t53.5 42t67 16q34 0 60.5 -24.5t40.5 -57.5q9 35 18 69.5t20 69.5zM174 760q0 -22 5 -43t15 -37t23.5 -26t30.5 -10q18 0 33.5 11t26.5 29.5t17.5 42.5t6.5 50q0 21 -4 40t-12 33.5t-19 23t-25 8.5
q-16 0 -33 -9t-31 -25t-23.5 -37t-10.5 -45v-6z" />
    <glyph glyph-name="colon" unicode=":" horiz-adv-x="286" 
d="M58 350q0 29 19.5 45.5t49.5 16.5q15 0 25 -4.5t16 -12t8.5 -16.5t2.5 -17q0 -29 -14.5 -44t-58.5 -15q-21 0 -34.5 13.5t-13.5 33.5zM57 -1q0 29 20.5 45.5t50.5 16.5t40.5 -17t10.5 -33q0 -30 -15 -44.5t-60 -14.5q-22 0 -34.5 13t-12.5 34z" />
    <glyph glyph-name="semicolon" unicode=";" horiz-adv-x="285" 
d="M80 86q0 14 9 23t24 9q19 0 29.5 -9t15.5 -21t6 -25t1 -22q0 -17 -6.5 -44t-17 -53t-23.5 -45t-27 -19q-10 0 -17.5 6.5t-6.5 18.5q1 17 5 33t8.5 32t8 32.5t3.5 34.5q0 11 -6 24t-6 25zM53 360q3 23 21.5 34.5t41.5 11.5q15 0 25 -5t15.5 -12.5t7.5 -16t2 -16.5
q0 -25 -15 -38.5t-54 -13.5q-20 0 -32.5 13t-12.5 33q0 6 1 10z" />
    <glyph glyph-name="less" unicode="&#x3c;" horiz-adv-x="697" 
d="M527 462q3 1 9 1q13 0 20.5 -8.5t7.5 -18.5q0 -8 -5.5 -15t-13.5 -13t-17.5 -10.5t-17.5 -7.5q-78 -34 -153.5 -69.5t-160.5 -74.5q40 -18 89.5 -39t98.5 -42t93.5 -41.5t74.5 -36.5q9 -9 9 -21q0 -13 -10.5 -21.5t-21.5 -8.5q-30 8 -50.5 16t-44.5 19.5t-58 28t-91 42.5
q-26 12 -58 25t-60.5 26t-47.5 25t-19 23q0 13 22 29t51 31.5t59 29t45 21.5q54 27 119 57t131 53z" />
    <glyph glyph-name="equal" unicode="=" horiz-adv-x="590" 
d="M114 308q-3 4 -3 10q0 16 14.5 19.5t34.5 3.5q27 0 72.5 -1t119.5 -1h40t38.5 -3t29 -9.5t11.5 -19.5q0 -14 -14.5 -21t-37 -9.5t-51 -2t-55.5 0.5q-29 0 -59.5 1t-58 4.5t-49 10t-32.5 17.5zM114 163q-2 6 -2 9q0 21 45 21q27 0 68.5 -0.5t101.5 -0.5q21 0 46 0.5t47 -2
t36.5 -8.5t14.5 -19q0 -11 -9 -18t-24 -11t-34.5 -5t-39.5 -1h-68.5t-73.5 3t-65.5 10t-42.5 22z" />
    <glyph glyph-name="greater" unicode="&#x3e;" horiz-adv-x="668" 
d="M457 242q-38 14 -94.5 36.5t-114 46.5t-106.5 46t-72 35q-4 2 -3 8t4.5 12.5t9.5 11.5t13 5q5 0 7 -1q59 -22 116 -42t112.5 -42t110 -46t108.5 -53q5 -2 5.5 -7.5t-1.5 -12t-6 -12.5t-8 -9q-26 -17 -59 -35.5t-67 -37t-66 -35t-57 -29t-39.5 -20t-13.5 -6.5
q-16 -8 -34 -12.5t-32 -4.5q-8 0 -12.5 6.5t-4.5 15.5q0 5 1.5 11t7.5 10q23 14 59.5 33t78 40.5t83 44t74.5 43.5z" />
    <glyph glyph-name="question" unicode="?" horiz-adv-x="642" 
d="M172 683q2 -3 2 -6v-5q0 -15 -10 -24.5t-25 -9.5t-27 15.5t-19.5 37t-11.5 44.5t-4 38q0 30 11.5 59t34 51.5t55.5 36t77 13.5q49 0 84 -16t58 -41.5t34 -58.5t11 -67q0 -46 -10.5 -91t-28.5 -87q-25 -57 -62 -115t-71.5 -116.5t-59.5 -117.5t-27 -117q-1 -17 -12.5 -27
t-29.5 -10q-14 0 -27 8.5t-13 26.5q0 46 9 82.5t24.5 69.5t36.5 66.5t45 73.5q22 38 47.5 79t47.5 83.5t36 86t14 86.5q0 58 -30 94t-81 36q-19 0 -37 -7t-31.5 -19.5t-22 -29.5t-8.5 -37t6.5 -41t14.5 -44zM90 -77q0 29 22 45.5t51 16.5q24 0 35 -15.5t11 -29.5
q0 -12 -2 -22.5t-8.5 -18.5t-18 -13t-30.5 -5q-12 0 -22.5 1t-19 5.5t-13.5 12.5t-5 23z" />
    <glyph glyph-name="at" unicode="@" horiz-adv-x="997" 
d="M552 313q2 8 8.5 11.5t14.5 3.5q9 -1 16.5 -5t7.5 -11q0 -28 -2.5 -61.5t-2.5 -67.5q0 -29 15.5 -38t38.5 -9q27 0 50.5 12t41.5 32t28 47t10 56q0 53 -26 99.5t-67.5 81.5t-93 55.5t-102.5 20.5q-62 0 -117 -23.5t-96.5 -64t-65.5 -93.5t-24 -112q0 -65 27.5 -125
t74 -107t107.5 -75t127 -28q19 0 42 2.5t46.5 7t45.5 9.5t40 11q11 3 21.5 -6.5t10.5 -21.5q0 -14 -23 -26.5t-55.5 -21.5t-67 -14t-57.5 -5q-84 0 -160 33t-134 88.5t-92 129t-34 153.5q0 60 28 124t78.5 116t121.5 85.5t157 33.5q64 0 129 -25.5t117 -68t84.5 -99
t32.5 -118.5q0 -48 -15 -88t-42 -69.5t-65 -46t-84 -16.5q-20 0 -38.5 1.5t-33.5 21.5q-9 -10 -18 -20.5t-22.5 -19t-32.5 -14t-47 -5.5q-57 0 -92 40.5t-35 107.5q0 23 8 47.5t23.5 44.5t39.5 32.5t57 12.5q61 0 92 -42q0 6 1 13t3 14zM396 185q0 -35 18 -61t48 -26
q16 0 30 8t23.5 21.5t15 30t5.5 33.5q0 34 -18.5 57.5t-55.5 23.5q-21 0 -34 -8.5t-20 -21t-9.5 -28t-2.5 -29.5z" />
    <glyph glyph-name="A" unicode="A" horiz-adv-x="605" 
d="M211 82q-18 0 -39 6.5t-42 19t-40 31.5t-32 45q-14 -26 -27.5 -43t-30.5 -17q-19 0 -27.5 12t-8.5 23q0 6 6 18t14.5 25.5t18.5 27.5t18 25q-7 31 -7 74q0 37 9 77t29 73.5t53.5 55t83.5 21.5q54 0 91 -28.5t59.5 -70.5t32.5 -91t10 -90q0 -23 -3.5 -41.5t-10.5 -34.5
q11 -26 26.5 -43.5t31.5 -28t31.5 -15t27.5 -4.5q27 0 43 13.5t27.5 29t22 29t26.5 13.5q15 0 25.5 -10t10.5 -26q0 -6 -10 -25.5t-29.5 -40.5t-48.5 -37t-67 -16q-28 0 -53 8.5t-45.5 22t-36.5 30.5t-26 33q-42 -51 -113 -51zM191 486q-30 -1 -50.5 -16t-32.5 -37.5
t-17.5 -50t-5.5 -53.5q0 -32 10.5 -63.5t28 -57t40 -41t47.5 -15.5q22 0 40.5 11.5t32 29.5t20.5 40t7 43q0 28 -6.5 64.5t-20.5 68.5t-37 54.5t-56 22.5z" />
    <glyph glyph-name="B" unicode="B" horiz-adv-x="530" 
d="M384 897q0 -104 -26.5 -203.5t-72.5 -193.5t-108 -182t-133 -169q6 -24 15.5 -50t24 -48t36 -36.5t52.5 -14.5t53.5 25.5t38 60.5t24.5 73t12 64q2 14 19 20.5t31 6.5q9 0 19.5 -11.5t25.5 -25t35 -24.5t48 -11q7 0 12 2.5t10.5 5.5t12 5.5t16.5 2.5q11 0 23 -8t12 -28
q0 -6 -3.5 -14.5t-13 -16.5t-26.5 -13.5t-43 -5.5q-32 0 -63.5 13t-58.5 28q-8 -37 -20.5 -75.5t-33.5 -70t-53 -52t-79 -20.5q-62 0 -103 35t-66 88.5t-35 117.5t-10 123v16t1 16l3 69t7 105.5t14 128t24 136.5t37 130.5t53 111t71.5 77t93.5 28.5q40 0 64 -21t37.5 -52.5
t18 -70t4.5 -72.5zM259 1043q-35 0 -63 -25t-51 -66.5t-40.5 -96.5t-30.5 -115t-22 -122t-14 -117t-7.5 -100.5t-2.5 -72.5q0 -24 1 -46.5t3 -43.5q60 78 111.5 155.5t89 158t59 166t21.5 179.5q0 25 -2.5 51t-8.5 47t-16.5 34.5t-26.5 13.5z" />
    <glyph glyph-name="C" unicode="C" horiz-adv-x="517" 
d="M488 179q4 5 11 10t18 5q13 0 24 -10t11 -24t-7 -24q-21 -28 -47 -54.5t-58 -46.5t-69.5 -32.5t-80.5 -12.5q-46 0 -83.5 17t-65 46.5t-45.5 68t-26 81.5q-8 -10 -18 -30t-23 -34q-14 -15 -30 -15q-21 0 -28 12.5t-7 22.5q0 7 11 26.5t26.5 42.5t32.5 45.5t28 36.5
q8 39 22.5 75t36.5 63.5t53.5 44t74.5 16.5q26 0 50 -8.5t45 -23.5t38 -34.5t29 -41.5q6 -12 6 -23q0 -16 -9 -24t-22 -8q-18 0 -27 12q-22 30 -48 55t-61 25q-28 0 -50.5 -14.5t-38 -37.5t-23.5 -51.5t-8 -55.5q0 -46 10 -86t30 -69.5t50 -46.5t70 -17q35 0 64.5 10.5
t54 28t44.5 38.5t35 42z" />
    <glyph glyph-name="D" unicode="D" horiz-adv-x="551" 
d="M349 814q0 -67 -9 -146t-20 -154.5t-20 -139.5t-9 -101q0 -31 7 -63.5t21 -58.5t34.5 -43t47.5 -17q39 0 67.5 26t52.5 61q6 9 13.5 12.5t15.5 3.5q14 0 25 -9.5t11 -26.5q0 -10 -4 -17q-17 -25 -36 -47t-41.5 -38t-48 -25.5t-55.5 -9.5q-26 0 -50.5 10t-44.5 27
t-33 39.5t-17 46.5q-7 -23 -16 -44t-22 -37t-32 -25.5t-46 -9.5q-45 0 -78 23t-54.5 56t-31.5 70.5t-10 66.5q0 34 10 67.5t29 59.5t47.5 42.5t64.5 16.5q17 0 33.5 -5.5t30.5 -14t26 -19t20 -19.5q4 41 12.5 85t17 95t15 111.5t6.5 134.5q0 46 -3 96.5t-7.5 102t-10 102
t-11.5 97.5q0 2 -0.5 3t-0.5 3q0 14 15.5 22.5t32.5 8.5q13 0 22.5 -24.5t16 -63t10 -86t5 -94t2 -87t0.5 -64.5zM217 236q0 22 -5.5 44t-17.5 40t-31 29t-46 11q-20 0 -34.5 -10t-25 -26.5t-15.5 -37t-5 -42.5q0 -27 6 -53t18.5 -46.5t32 -33.5t46.5 -13q22 0 37 13
t24 33.5t12.5 44.5t3.5 47z" />
    <glyph glyph-name="E" unicode="E" horiz-adv-x="538" 
d="M137 541q52 0 87 -32t35 -86q0 -45 -17 -87t-45 -78.5t-65 -67t-76 -53.5q29 -58 75.5 -82.5t104.5 -24.5q40 0 77.5 14t72 36t66 49.5t60.5 54.5q12 10 26 10q13 0 24 -9t11 -27q0 -15 -11 -26q-75 -85 -153 -128.5t-173 -43.5q-57 0 -107.5 21.5t-88.5 59.5t-60.5 89
t-22.5 110q0 54 7.5 107.5t27.5 96.5t55 70t90 27zM137 471q-29 0 -50 -20t-34.5 -50.5t-20.5 -67t-7 -69.5t6 -58q28 18 56 40t50.5 49t36.5 59t14 69q0 24 -14 36t-37 12z" />
    <glyph glyph-name="F" unicode="F" horiz-adv-x="556" 
d="M370 863q0 -53 -14 -113.5t-38 -125t-56.5 -130.5t-69 -128.5t-76 -120.5t-76.5 -106q1 -21 1 -40v-38q0 -61 -0.5 -114t-3.5 -115q64 56 131 102.5t132 88t124.5 81t107.5 81.5q10 9 24 9q13 0 24 -9t11 -27q0 -8 -3 -14.5t-12 -14.5q-58 -47 -127 -92.5t-140 -93.5
t-141 -98.5t-130 -106.5q0 -74 -1 -147t-12 -131t-37.5 -94t-78.5 -36q-27 0 -49 12.5t-38.5 32t-25.5 44t-9 49.5q0 43 13.5 84t37 80t55.5 75.5t70 69.5q2 72 3.5 129t1.5 116q0 54 -1.5 107.5t-3 110t-3 117t-1.5 127.5q0 55 2.5 120.5t11 130.5t24.5 126t43 108t66.5 75
t95.5 28q50 0 82.5 -21.5t51.5 -53.5t26.5 -68.5t7.5 -65.5zM202 1002q-37 0 -64.5 -23t-46.5 -62.5t-30.5 -91.5t-18 -109.5t-9 -117t-2.5 -114.5q0 -93 2 -152.5t2 -79.5q42 56 88.5 131.5t85.5 158.5t64.5 166.5t25.5 154.5q0 27 -5.5 52t-17.5 44.5t-30.5 31t-43.5 11.5
zM-91 -600q19 0 30 26t16.5 68t7.5 94l4 104q-18 -18 -37.5 -46t-35 -59t-26 -62.5t-10.5 -56.5q0 -27 15.5 -47.5t35.5 -20.5z" />
    <glyph glyph-name="G" unicode="G" horiz-adv-x="568" 
d="M235 346q-3 12 -8.5 27t-11.5 30.5t-12.5 29.5t-10.5 22q-3 6 -3 12q0 9 5 17t14 12q13 5 21 5q14 0 19 -7q31 -37 55 -99t40.5 -134t26 -147t12.5 -139q23 29 43 53.5t39 48t37.5 48t37.5 54.5q3 5 10.5 10t18.5 5q16 0 25.5 -10.5t9.5 -25.5q0 -11 -5 -19
q-24 -35 -52 -71l-56 -72t-54.5 -70.5t-48.5 -66.5q3 -64 6.5 -132t6.5 -144t5 -163.5t2 -190.5q0 -35 -5 -72t-18.5 -67t-38 -49t-64.5 -19q-63 0 -103.5 25.5t-64.5 65t-33.5 87t-9.5 92.5q0 77 20 153.5t53 151.5t76.5 148t91.5 144q-3 54 -4 104.5t-4 103.5
q-23 -55 -61.5 -86t-79.5 -31q-39 0 -74.5 18t-63 47.5t-43.5 68t-16 80.5q0 43 17.5 79.5t44.5 63t59.5 41.5t62.5 15q25 0 46.5 -11t39.5 -36zM337 -771q0 134 -5 270.5t-12 270.5q-31 -49 -62.5 -106t-57.5 -118.5t-42.5 -126t-16.5 -127.5q0 -30 5 -65t20 -65t43 -50
t74 -20q13 0 23.5 12t17 31t10 43.5t3.5 50.5zM268 232q-4 16 -15 32.5t-27 29.5t-36 21t-41 8q-26 0 -46.5 -10.5t-35.5 -28t-23 -41t-8 -49.5q0 -25 9 -50.5t25.5 -46.5t39.5 -34t52 -13q25 0 45.5 12t35 32t22.5 45.5t8 53.5q0 10 -1.5 21t-3.5 18z" />
    <glyph glyph-name="H" unicode="H" horiz-adv-x="573" 
d="M101 393q-33 -54 -46 -110t-13 -110q0 -35 4 -82t4 -101q0 -31 -36 -31q-34 0 -34 26q-3 92 -2 173t4 159t7.5 156.5t8.5 166.5t7.5 188t5.5 221q0 14 10 19.5t23 5.5q26 0 31.5 -12.5t5.5 -31.5q0 -87 -2 -164.5t-5 -149.5t-6.5 -140.5t-6.5 -136.5q34 54 77 77.5
t85 23.5q47 0 77 -16.5t48.5 -43t28 -61t15.5 -70t11.5 -70t15.5 -61t27.5 -43t47.5 -16.5q13 0 23.5 5.5t20 12.5t17.5 12.5t17 5.5q15 0 25.5 -10.5t10.5 -26.5q0 -18 -13 -31t-31.5 -21.5t-38 -12.5t-32.5 -4q-45 0 -74 16.5t-46 43t-26 61t-15 70t-11.5 70t-16.5 61
t-30 43t-51 16.5q-16 0 -33.5 -6t-33.5 -16.5t-30.5 -24.5t-24.5 -30z" />
    <glyph glyph-name="I" unicode="I" horiz-adv-x="429" 
d="M-3 523q4 14 15.5 26.5t38.5 12.5q14 0 23 -5t14.5 -12.5t8 -16.5t2.5 -16q0 -24 -16 -37.5t-51 -13.5q-18 0 -27.5 13t-9.5 31v9t2 9zM54 186q-2 -9 -6.5 -20t-11.5 -20t-16 -15.5t-20 -6.5q-18 0 -27 11.5t-9 22.5q0 9 4 17q13 20 26 44.5t13 48.5q0 12 1 23t4.5 20
t12 14.5t23.5 5.5q14 0 20 -8.5t7 -10.5q3 -5 6 -17q8 -24 22 -61t36 -72t53.5 -60.5t74.5 -25.5q18 0 37.5 10t37.5 25.5t33 33t23 32.5q5 8 13.5 12.5t17.5 4.5q11 0 23 -8t12 -27q0 -12 -8 -24q-17 -25 -38 -48t-45 -41t-51 -29t-55 -11q-39 0 -75 15.5t-64.5 41
t-47.5 58t-26 65.5z" />
    <glyph glyph-name="J" unicode="J" horiz-adv-x="258" 
d="M-61 498q4 21 21.5 29.5t37.5 8.5q12 0 20.5 -5t13.5 -12.5t7 -16.5t2 -16q0 -24 -15 -38.5t-48 -14.5q-20 0 -30.5 14.5t-10.5 34.5q0 6 2 16zM-41 322q5 9 13 12t19 3q34 0 34 -31q0 -7 -0.5 -13.5t-0.5 -13.5q0 -56 11.5 -111.5t20.5 -111.5q55 30 98 57t76 68
q4 5 12 9t17 4q8 0 21 -7.5t13 -29.5q0 -11 -5 -18q-22 -30 -47.5 -51t-53 -38.5t-56 -33t-55.5 -33.5l17.5 -87.5t14.5 -84t9.5 -83.5t3.5 -88q0 -20 -3 -70t-11.5 -113.5t-25 -132t-44 -125t-66.5 -93t-94 -36.5q-34 0 -62 21t-49.5 55t-37.5 78t-26.5 90t-15.5 90.5
t-5 80.5q0 99 25.5 177.5t68 143t99 117.5t119.5 100q-5 24 -11.5 55t-12.5 65t-10.5 68t-4.5 63v26t5 22zM11 -52q-57 -44 -104.5 -94t-82 -107t-53.5 -122.5t-19 -138.5q0 -23 3 -57.5t9.5 -73t16.5 -77t23.5 -69t31.5 -50t41 -19.5q22 0 41.5 18.5t36 44t28 53t17.5 45.5
q24 80 37 166t13 173q0 59 -9.5 137t-29.5 171z" />
    <glyph glyph-name="K" unicode="K" horiz-adv-x="577" 
d="M-34 1142q0 12 12 19t24 7q8 0 17 -3.5t10 -14.5q12 -139 16.5 -276t4.5 -278q0 -81 -1 -162t-2 -164q30 36 68.5 74.5t80.5 74t86.5 66t87.5 50.5q6 2 9 2q11 0 21 -8.5t10 -22.5q0 -15 -10 -26t-30 -25q-41 -30 -81.5 -59.5t-80 -61t-76 -68t-69.5 -80.5
q22 -5 43.5 -20.5t43.5 -36.5t44 -44t44.5 -42.5t45 -32t45.5 -12.5q25 0 55.5 19t60.5 46.5t57 59t45 56.5q5 8 13.5 11.5t16.5 3.5q17 0 26 -11.5t9 -24.5q0 -10 -6 -19q-23 -33 -55.5 -70t-69 -68.5t-76 -52.5t-76.5 -21q-45 0 -82 22.5t-70.5 53t-66.5 62.5t-71 52
q-2 -34 -3 -68.5t-1 -69.5q0 -72 2.5 -145t2.5 -145q0 -13 -13 -20.5t-28 -7.5q-10 0 -19 4.5t-10 15.5q-2 19 -3 48.5t-1.5 64.5t-1 73t-0.5 74v83.5t2 61.5q4 72 6 130t3.5 107t2 90t0.5 79q0 35 -0.5 69t-0.5 69t-0.5 74t-0.5 84q0 93 -5 182.5t-5 171.5z" />
    <glyph glyph-name="L" unicode="L" horiz-adv-x="392" 
d="M175 643q0 -89 -9 -160.5t-27 -132t-46 -114t-66 -107.5q6 -29 16 -68.5t25 -75.5t35 -61.5t46 -25.5q20 0 40 15.5t39 40t37 55.5t34.5 62.5t32.5 60t31 48.5q5 8 13 11t16 3q11 0 23 -8.5t12 -27.5q0 -10 -7 -21q-29 -44 -56 -97.5t-58.5 -100.5t-69.5 -79t-87 -32
q-55 0 -93 44.5t-63 114.5t-40 156t-23 169.5t-11 154.5t-6 111q-1 8 -1.5 20t-0.5 26q0 29 2 67t8 77.5t16 77.5t26 68t37.5 48t51.5 18q42 0 66.5 -27.5t37 -74t16 -107.5t3.5 -128zM52 910q-16 0 -27.5 -18.5t-19 -48.5t-11.5 -67t-6.5 -74t-3 -70t-0.5 -54
q0 -44 1.5 -90t5 -90t8.5 -85t12 -75q29 46 47.5 92.5t28.5 98.5t13.5 113t3.5 136q0 40 -2.5 81.5t-8.5 75t-16 54.5t-25 21z" />
    <glyph glyph-name="M" unicode="M" horiz-adv-x="1016" 
d="M28 137q-10 -13 -28 -13q-17 0 -26 12t-9 22q0 12 9 26q22 31 51.5 69t62.5 70t68.5 54t68.5 22q28 0 48.5 -19t32.5 -51t15 -74t-3 -88q13 22 30.5 56t37.5 65.5t43.5 54.5t48.5 23q15 0 27 -15t20.5 -37t14 -48t8.5 -48.5t4.5 -37.5t1.5 -16q21 39 46.5 88.5t53.5 94
t58 75t61 30.5q7 0 17.5 -4t16.5 -21q7 -20 15 -53t16 -70t16.5 -74.5t17 -67.5t16.5 -49t17 -19q15 0 36.5 25.5t46.5 60.5q9 14 28 14q16 0 25 -11t9 -23q0 -14 -7 -25q-33 -50 -67.5 -82t-80.5 -32q-29 0 -48.5 24t-33 59.5t-22.5 77.5t-15.5 77.5t-12.5 59.5t-14 24
q-10 0 -23.5 -16.5t-27.5 -40t-27 -49t-22 -43.5t-24.5 -52.5t-34 -68t-37.5 -58.5t-36 -25q-12 0 -17 4t-6.5 11t-0.5 16t1 18q0 20 0.5 37t0.5 38q0 14 -2 35.5t-6.5 42t-10.5 35t-15 14.5q-12 0 -26.5 -15.5t-29.5 -40t-30.5 -55.5t-30.5 -62.5t-28.5 -61t-24.5 -49.5
q-5 -10 -16.5 -18t-29.5 -8q-14 0 -25.5 10t-11.5 27q0 6 1 10q8 23 16 58t13.5 74t9 77.5t2.5 70t-7.5 51t-18.5 19.5q-19 0 -45.5 -20.5t-54 -50t-53 -62.5t-43.5 -58z" />
    <glyph glyph-name="N" unicode="N" horiz-adv-x="739" 
d="M29 139q-11 -15 -29 -15q-11 0 -23.5 8t-12.5 26q0 8 6 19q18 28 41.5 65t51 71t59.5 57.5t68 23.5q22 0 38 -6.5t27.5 -19t20 -29.5t16.5 -38q25 39 56 63t75 24q34 0 60.5 -16.5t47 -41.5t37.5 -54.5t33 -54.5t31.5 -41.5t34.5 -16.5q9 0 15 1t11 3.5t10.5 7t13.5 12.5
q5 5 12.5 6t9.5 1q14 0 24.5 -9.5t10.5 -26.5q0 -13 -10.5 -25t-26 -21t-34.5 -14t-36 -5q-34 0 -59.5 16.5t-45 41.5t-36 54.5t-32 54.5t-32.5 41.5t-39 16.5q-11 0 -25 -9.5t-28 -24t-26.5 -32t-20.5 -34.5v-25.5t0.5 -27t0.5 -25v-17.5q0 -23 -6.5 -31t-29.5 -8
q-8 0 -15.5 2t-12.5 9q-7 8 -11 28.5t-7.5 46t-7.5 53t-9.5 50t-14 37t-20.5 14.5q-18 0 -41.5 -22.5t-46 -53t-42 -61.5t-31.5 -48z" />
    <glyph glyph-name="O" unicode="O" horiz-adv-x="554" 
d="M-29 154q0 52 12.5 95.5t35 74t54 47.5t70.5 17q40 0 74.5 -14.5t61.5 -40.5t45 -63.5t25 -82.5q5 -4 17 -8.5t26 -8t28 -6t23 -2.5q18 0 37.5 3t51.5 22q11 7 22 7q13 0 20 -5t10.5 -11t4 -12t0.5 -8q0 -16 -14.5 -28t-36.5 -20.5t-47.5 -13t-47.5 -4.5q-20 0 -38.5 4
t-43.5 12q0 -45 -14.5 -90.5t-40.5 -82.5t-63 -60t-83 -23q-54 0 -90.5 32.5t-58 79.5t-31 99t-9.5 91zM143 318q-29 0 -48.5 -16t-31 -40t-16.5 -53t-5 -55q0 -9 0.5 -17t1.5 -16q16 14 39.5 29.5t50.5 28t55 21t53 8.5q10 0 16 -1t15 -3q-6 22 -18 43t-28.5 36.5t-37.5 25
t-46 9.5zM160 -78q34 0 59.5 21.5t42 53t23.5 67t4 64.5q-8 3 -20 6.5t-22 3.5q-23 0 -50 -10t-53 -24.5t-48.5 -31.5t-35.5 -31q14 -62 39 -90.5t61 -28.5z" />
    <glyph glyph-name="P" unicode="P" horiz-adv-x="557" 
d="M87 241q1 1 -4 -10t-13 -27.5t-19 -35t-23 -31.5q-6 -8 -13.5 -10.5t-14.5 -2.5q-11 0 -23.5 8.5t-12.5 25.5q0 11 5 19q12 18 28.5 45t31.5 54t25 50.5t10 36.5q0 10 -1 22t-1 23q0 20 6.5 36t33.5 16q15 0 22 -4.5t10 -10.5t3.5 -13.5t2.5 -13.5q13 3 25 5t23 2
q33 0 58.5 -12t46 -31.5t37 -44t31.5 -49.5q8 -14 19.5 -37t26.5 -44.5t33 -37t39 -15.5q12 0 25.5 5.5t26.5 23.5q9 11 26 11q11 0 23 -8.5t12 -28.5q0 -11 -5 -18q-20 -28 -45.5 -41.5t-62.5 -13.5q-43 0 -72.5 21.5t-51.5 53.5t-41.5 69t-41.5 67t-51.5 48t-72.5 13
q7 -50 10.5 -104t7.5 -106q7 -104 15.5 -220t18 -254.5t19 -305t18.5 -370.5q2 -37 2 -72v-76q0 -18 -1 -35.5t-5 -31t-11 -22t-19 -8.5q-15 0 -21 6t-7 18q-9 140 -18 312t-19 362t-22.5 391.5t-28.5 400.5z" />
    <glyph glyph-name="Q" unicode="Q" horiz-adv-x="462" 
d="M-28 139q0 45 15 87t42 75t65.5 52.5t86.5 19.5q63 0 103.5 -31.5t40.5 -106.5v-23q4 -6 12.5 -13t19.5 -12.5t22 -9.5t19 -4t19.5 2.5t21.5 10.5q11 8 23 8q11 0 23 -8t12 -28q0 -19 -17 -30q-10 -6 -22 -11t-23.5 -8t-21 -4.5t-15.5 -1.5q-32 0 -53.5 9.5t-36.5 23.5
q-2 -13 -6.5 -22l-9.5 -19q3 -110 26.5 -216.5t52 -215.5t53.5 -221.5t31 -232.5q2 -30 -4.5 -49t-35.5 -19q-14 0 -25 7t-11 22q0 11 1.5 19.5t1.5 19.5q0 111 -24 213.5t-53.5 203t-53.5 200.5t-24 205q-27 -25 -52.5 -34.5t-53.5 -9.5q-34 0 -61.5 12t-47 33t-30 48.5
t-10.5 58.5zM181 303q-27 0 -52 -12.5t-44 -34.5t-30.5 -52t-11.5 -65q0 -40 21 -61t57 -21q34 0 59 16t41.5 41.5t24.5 57t8 63.5q0 38 -20.5 53t-52.5 15z" />
    <glyph glyph-name="R" unicode="R" horiz-adv-x="550" 
d="M54 311q4 -19 8 -35t4 -43q0 -11 -4.5 -29.5t-12.5 -36.5t-20.5 -30.5t-28.5 -12.5q-13 0 -24 9t-11 25q0 10 5 19q23 36 23 77q0 20 -5 42.5t-14 50.5q-4 11 -11 19.5t-13.5 15.5t-11.5 13.5t-5 12.5q0 9 12.5 23t27.5 14q8 0 14 -3q21 -15 35.5 -29t28 -24.5t28.5 -16
t35 -2.5t43.5 5t41.5 2q15 0 29.5 -11t14.5 -25q0 -12 -7.5 -25.5t-12.5 -24.5q-17 -32 -24 -63t-7 -63q0 -29 6.5 -56.5t20 -50t34 -36t48.5 -13.5q35 0 64 13t55 35.5t50.5 54t50.5 67.5q6 8 13.5 11.5t14.5 3.5q16 0 26 -10.5t10 -26.5q0 -5 -1 -9.5t-4 -9.5
q-36 -54 -68 -91.5t-65 -61.5t-68 -35t-77 -11q-43 0 -76.5 18.5t-56.5 49.5t-35 70t-12 80q0 37 6.5 78t18.5 70q-8 -2 -19 -3.5t-19 -1.5q-17 0 -30 1.5t-25 9.5z" />
    <glyph glyph-name="S" unicode="S" horiz-adv-x="845" 
d="M823 187q5 4 11 5.5t11 1.5q15 0 25 -9.5t10 -26.5q0 -16 -14 -28q-10 -9 -24 -15t-29.5 -10t-30.5 -6t-26 -2q-35 0 -61 11t-50 25t-49 28.5t-58 22.5q-5 -32 -14.5 -61.5t-25.5 -52.5t-41 -36.5t-61 -13.5q-28 0 -51.5 10t-40.5 27t-26.5 40t-9.5 49q0 67 54 96.5
t146 28.5q-1 28 -12.5 59t-29.5 61.5t-39.5 59t-41.5 50t-36.5 34.5t-23.5 13q-9 -5 -18.5 -25.5t-21.5 -48t-26.5 -59.5t-31.5 -60q-42 -69 -85.5 -123.5t-73.5 -94.5q-6 -8 -13 -10.5t-14 -2.5q-17 0 -26.5 11t-9.5 24q0 11 6 20q39 51 73.5 96t64 89t52.5 91t38 103
q7 28 17 42.5t19.5 21t18.5 7t14 0.5q24 0 53.5 -17.5t60 -46t59 -66.5t51 -79t36 -82.5t13.5 -77.5q41 -12 71 -28t54 -30t45 -24t45 -10q14 0 34 4t33 15zM396 90q20 0 32.5 10t20 25.5t11 34.5t5.5 37q-33 5 -56.5 2t-39 -11.5t-23 -19.5t-7.5 -22q0 -24 17.5 -40
t39.5 -16z" />
    <glyph glyph-name="T" unicode="T" horiz-adv-x="487" 
d="M-218 636q-5 5 -6 11t-1 11q0 19 18 23.5t36 4.5q11 0 22 -0.5t23 -1.5q0 69 6.5 137t6.5 137q0 14 7.5 18.5t23.5 4.5t27 -6.5t11 -24.5q0 -24 -1.5 -60t-3.5 -74.5t-4 -75t-2 -60.5q19 -1 37.5 -1.5t37.5 -0.5q63 0 126 6.5t128 6.5q18 0 25.5 -11.5t7.5 -22.5
q0 -3 -0.5 -10t-4 -14.5t-11 -13t-20.5 -5.5q-61 0 -125 0.5t-134 0.5q-17 0 -33.5 0.5t-31.5 1.5q-3 -41 -3 -84q0 -48 4 -98.5t15.5 -99t31.5 -91.5t51.5 -75t76 -51t104.5 -19q41 0 74 6t61.5 17.5t53 27.5t48.5 36q4 4 11 6t12 2q15 0 25 -9.5t10 -26.5q0 -5 -2.5 -12
t-7.5 -12q-52 -52 -127 -78.5t-158 -26.5q-76 0 -132 23t-95 62t-64 90.5t-39 107.5t-19 113t-5 108v35v23t0.5 15t0.5 11q-29 2 -54 4t-38 15z" />
    <glyph glyph-name="U" unicode="U" 
d="M-38 510q2 14 12 17.5t18 3.5q13 0 25 -6.5t12 -16.5q0 -36 -1.5 -71t-1.5 -68q0 -57 6 -111.5t22 -96.5t44.5 -68t74.5 -26q52 0 84 32.5t51.5 81.5t29 105t15.5 104q5 35 13.5 47t27.5 12q14 0 23 -6t13 -29q4 -26 10 -59t14.5 -68t20.5 -68.5t27.5 -59.5t35.5 -42
t45 -16q16 0 29.5 7t26 18.5t25.5 26.5t27 30q6 7 13 9t13 2q18 0 26.5 -11.5t8.5 -24.5q0 -9 -4 -16q-5 -9 -17.5 -27t-33 -36.5t-49 -32.5t-65.5 -14q-50 0 -83 21.5t-53.5 55.5t-31 74.5t-14.5 79.5q-6 -47 -22.5 -94.5t-44.5 -85.5t-68 -62t-93 -24q-67 0 -109.5 32.5
t-67 85t-33.5 117.5t-9 131q0 39 2 76.5t6 70.5z" />
    <glyph glyph-name="V" unicode="V" horiz-adv-x="847" 
d="M30 140q-7 -9 -15 -12.5t-15 -3.5q-15 0 -25.5 10t-10.5 26q0 8 4 15q27 43 45 76t35 55.5t36.5 34t49.5 11.5q29 0 50 -15t34.5 -39.5t19.5 -55t6 -61.5q0 -19 -3 -41.5t-6.5 -47t-6.5 -50t-3 -49.5q0 -23 9 -48.5t25 -46.5t38.5 -34.5t50.5 -13.5q37 0 61 20.5t38.5 52
t20 69t5.5 72.5q0 41 -5 79t-11.5 69t-11.5 52t-5 29q0 12 6.5 22.5t29.5 10.5q33 0 63.5 -11.5t57.5 -28t52 -36.5t48.5 -36.5t46 -28t44.5 -11.5q18 0 31.5 10t27.5 10t24.5 -10.5t10.5 -24.5q0 -16 -10 -26.5t-24.5 -17t-30.5 -9t-29 -2.5q-49 0 -84.5 20.5t-64 45
t-52.5 45t-49 20.5q-7 0 -10 -1q7 -27 11.5 -74.5t4.5 -95.5q0 -50 -10 -100.5t-32.5 -91.5t-60.5 -66.5t-93 -25.5q-39 0 -74 17t-62 46t-42.5 67.5t-15.5 82.5q0 22 3 44.5t6.5 45.5t6.5 47.5t3 50.5q0 48 -9.5 74.5t-29.5 26.5q-13 0 -26 -15.5t-26 -37.5t-26 -46.5
t-26 -42.5z" />
    <glyph glyph-name="W" unicode="W" horiz-adv-x="841" 
d="M70 158q-9 0 -17 -5.5t-16.5 -11.5t-17.5 -11.5t-19 -5.5q-16 0 -26 10t-10 24q0 13 11 25.5t27 22.5t34.5 16t33.5 6q49 0 72.5 -30.5t33.5 -74t11.5 -90t7.5 -79.5q4 -25 9.5 -48.5t13.5 -41.5t21 -28.5t32 -10.5q22 0 40.5 19t33.5 50.5t27.5 71.5t22.5 82.5
t17.5 83.5t13.5 75q4 21 13.5 28t24.5 7q17 0 26 -12.5t7 -28.5q-1 -6 -3 -17.5t-5 -26t-5.5 -29.5t-3.5 -27q6 -33 16 -75t24.5 -79.5t31.5 -63t37 -25.5q25 0 36.5 17t15.5 48.5t5 77.5t7 103q3 25 20.5 38t42 20t53 12t52.5 15q13 5 20 5q15 0 25 -10t10 -26
q0 -14 -8.5 -23t-24 -15t-37 -10.5t-47.5 -8.5q-16 -3 -24.5 -17.5t-13 -34.5t-5.5 -42t-1 -40q0 -39 -5.5 -72t-20 -56.5t-39 -37t-61.5 -13.5q-32 0 -57 16.5t-42.5 42.5t-28 58.5t-14.5 64.5q-8 -32 -21.5 -69.5t-34.5 -69.5t-50.5 -54t-69.5 -22q-43 0 -70.5 20t-44 50
t-23.5 65t-9 65q-2 24 -4.5 59t-8 67t-15.5 54.5t-26 22.5z" />
    <glyph glyph-name="X" unicode="X" horiz-adv-x="417" 
d="M27 136q-9 -12 -27 -12q-10 0 -23 7.5t-13 26.5q0 18 13.5 35t33.5 33t42.5 30t40.5 26q-5 13 -9.5 23t-11.5 21t-16.5 23.5t-25.5 29.5q-17 19 -31.5 30t-14.5 25q0 7 4.5 13t11 11t13 8t11.5 3q14 0 31.5 -13.5t35.5 -34.5t34.5 -45.5t28.5 -46.5q15 21 26.5 42
t19 43.5t11.5 48.5t4 58q0 21 27 21q20 0 32 -12.5t12 -30.5q0 -81 -26.5 -135.5t-66.5 -95.5q12 -17 23.5 -34t25 -31t31 -22.5t42.5 -8.5q12 0 26 3.5t28 7.5t26 7.5t20 3.5q14 0 24.5 -10t10.5 -26t-12 -26.5t-31.5 -17t-43.5 -9.5t-49 -3q-39 0 -64.5 11t-44 28.5
t-34.5 39.5t-36 44q-18 -14 -32.5 -23.5t-27 -18.5t-24.5 -20t-25 -27z" />
    <glyph glyph-name="Y" unicode="Y" horiz-adv-x="509" 
d="M23 288q11 5 23 -3t10 -19q-3 -12 -7.5 -29.5t-4.5 -37.5q0 -19 1.5 -37t7 -32.5t15.5 -23t27 -8.5q20 0 36.5 17t31 42t28 55t28 55t30 42t34.5 17q41 0 37 -31q-10 -67 -16.5 -114t-11.5 -82.5t-9 -65t-8.5 -62.5t-10.5 -74t-14 -100q12 20 31 52.5t41 71t46 79.5
t46 77t39.5 63.5t27.5 39.5q8 9 21 12t27 -5q9 -5 12 -12.5t3 -14.5t-1.5 -12.5t-2.5 -6.5q-20 -27 -45 -66t-52.5 -83.5t-56 -90.5t-54.5 -87.5t-48 -76t-37 -54.5q-17 -107 -33.5 -198.5t-39.5 -159.5t-55.5 -106.5t-81.5 -38.5q-13 0 -30 8t-32 22t-25.5 33t-10.5 42
q0 45 23 100t57 112.5t74 113t74 101.5q6 41 10.5 73.5t9 63.5t9 62.5t10 70.5t12 88t15.5 115q-9 -37 -19.5 -68t-29 -53t-47.5 -32.5t-75 -5.5q-24 3 -41.5 18.5t-29 37.5t-17 47.5t-5.5 48.5q0 42 15 70t39 40zM157 -411q-65 -91 -106 -169.5t-41 -134.5q0 -17 7 -25.5
t18 -8.5q20 0 39 31t35 80t28.5 109t19.5 118z" />
    <glyph glyph-name="Z" unicode="Z" horiz-adv-x="707" 
d="M258 225q-6 -3 -15.5 -8.5l-19 -11t-19.5 -10t-17 -4.5q-4 0 -8.5 4.5t-8 11t-6 13t-2.5 9.5q0 6 7 13.5t18.5 15.5t25.5 16t28 15q-1 4 -3 15.5t-5.5 24.5t-9.5 23t-15 10q-1 0 -5.5 -5.5t-11 -12l-13.5 -13.5l-11 -11q-27 -24 -60 -41.5t-62 -25.5q4 -11 4.5 -20
t0.5 -24q0 -20 -5.5 -38.5t-13.5 -29.5q-13 -17 -31 -17q-10 0 -23 7t-13 27q0 14 8 26t8 29q0 20 -11 37.5t-11 30.5q0 8 3.5 17t14.5 11q49 6 91.5 28.5t74.5 55.5q13 13 22.5 26t18.5 23t20 16t27 6q21 0 34 -16.5t21 -39.5t12.5 -48t9.5 -42q17 8 33.5 17.5t35.5 9.5
q4 0 9 -4.5t9 -10.5t6.5 -12t2.5 -10q0 -6 -7 -14.5t-18 -16.5t-24 -16.5t-26 -14.5q2 -22 5 -44t3 -44q31 6 60 6q28 0 53.5 -6t48.5 -12.5t43.5 -12.5t37.5 -6q26 0 43.5 7t29 16t18 18t10.5 14q7 8 15 10t12 2q20 0 27.5 -13.5t7.5 -22.5q0 -6 -2 -12.5t-6 -10.5
q-31 -37 -70.5 -57.5t-84.5 -20.5q-26 0 -49.5 6t-45 12.5t-43.5 12.5t-45 6q-13 0 -28 -3t-28 -8q-2 -29 -10.5 -66t-25 -70t-42.5 -55.5t-64 -22.5q-19 0 -38.5 9.5t-35 25.5t-25 36.5t-9.5 43.5q0 29 16 55t40.5 46.5t55.5 35t61 21.5q0 21 -1.5 43.5t-3.5 39.5zM198 -61
q21 0 33.5 14t19.5 34t9.5 42t2.5 38q-17 -4 -35 -11.5t-33 -18t-24.5 -24t-9.5 -29.5q0 -20 11 -32.5t26 -12.5z" />
    <glyph glyph-name="bracketleft" unicode="[" horiz-adv-x="506" 
d="M533 1092q3 -6 3 -13q0 -12 -7.5 -18.5t-19.5 -9.5t-27 -3.5t-31 -0.5q-24 0 -43.5 0.5t-37.5 0.5t-35.5 0.5t-37.5 0.5q-19 0 -29 -6q-15 -26 -18 -61.5t-3 -68.5q0 -55 4 -112t9.5 -114t11 -112.5t7.5 -107.5q0 -108 -12.5 -212t-22.5 -213q-8 -88 -12 -169t-4 -162
q0 -43 2 -85.5t2 -87.5q0 -8 -0.5 -18t-0.5 -21q0 -15 1.5 -29t5.5 -23q9 -6 22 -7.5t25 -1.5q43 0 84 6.5t84 12.5q17 0 25.5 -9t8.5 -20q0 -19 -28 -31t-67 -19t-81 -9.5t-71 -2.5q-31 0 -49.5 11.5t-28 32t-12.5 49.5t-3 64q0 136 3.5 279.5t19.5 284.5q8 73 14 127.5
t9.5 98t5 80t1.5 72.5q0 53 -4.5 106.5t-10.5 107t-10.5 108.5t-4.5 111q0 25 1 57t8.5 62.5t24.5 55.5t49 36q5 5 10.5 6t12.5 1q6 0 12 -0.5t11 -0.5q26 0 54.5 1.5t57.5 1.5q39 0 72 -5t50 -21z" />
    <glyph glyph-name="backslash" unicode="\" horiz-adv-x="605" 
d="M91.04 769q-5.99902 18 -13.998 45.5t-18.998 53.5q-10.998 26 -25.4961 44.5q-14.499 18.5 -32.4961 18.5q-13.999 0 -23.4971 -6.5q-9.49902 -6.5 -9.49902 -20.5q25.9971 -90 58.9922 -202.5q32.9961 -112.5 79.9902 -262.5q46.9951 -150 109.987 -345.5
t146.981 -450.5q4 -11 6.49902 -18.5q2.5 -7.5 7.5 -12q4.99902 -4.5 14.498 -6.5q9.49805 -2 26.4961 -2q9.99902 0 17.998 6.5t5 15.5q-11.999 43 -37.9961 129.5q-25.9961 86.5 -68.4912 225t-102.487 333.5q-59.9932 195 -140.983 455z" />
    <glyph glyph-name="bracketright" unicode="]" horiz-adv-x="511" 
d="M14 -539q-2 4 -2 8q0 10 9.5 20t26.5 11q45 -7 88 -13.5t87 -6.5q33 0 39.5 12t6.5 36q0 17 -0.5 33.5t-0.5 25.5q3 96 3 188q0 75 -3 151t-11 157q-9 98 -21.5 190.5t-16.5 185.5q0 55 5.5 114.5t11.5 121t11.5 123.5t5.5 122q0 11 -0.5 34t-3 46.5t-7.5 43t-14 23.5
q-19 0 -42 -0.5t-47 -0.5q-32 0 -62.5 1.5t-55.5 6.5t-40 14.5t-15 24.5q0 11 10 18.5t25 7.5q47 0 101.5 -0.5t101.5 -0.5q46 0 71.5 -20t37.5 -51t14 -67t2 -69q0 -61 -4.5 -120.5t-10.5 -118.5t-10.5 -117t-4.5 -116q0 -36 3 -73t8 -79.5t10.5 -93t11.5 -113.5
q9 -98 13 -177t5.5 -146t1 -124t-0.5 -111q0 -35 -3 -63.5t-13 -48.5t-28 -31t-49 -11l-15 0.5t-39 2t-53 5t-56 9.5t-49 14.5t-32 21.5z" />
    <glyph glyph-name="asciicircum" unicode="^" horiz-adv-x="679" 
d="M87 275q-6 -2 -8 -2q-9 0 -17.5 7.5t-8.5 20.5q0 2 2 10q30 73 66 142t66 133q8 16 19 43.5t23.5 53.5t27 45.5t29.5 21.5q11 0 27 -21.5t33.5 -53t34.5 -66.5t29 -62q27 -59 44.5 -93t27.5 -56.5t14 -39.5t4 -42q0 -12 -5 -21t-22 -9q-5 0 -9.5 2t-8.5 7
q-14 33 -34.5 79.5t-44 97.5t-48 101t-45.5 90q-15 -46 -33.5 -88t-38 -82.5t-39.5 -80t-39 -78.5q-10 -20 -20.5 -34.5t-25.5 -24.5z" />
    <glyph glyph-name="underscore" unicode="_" horiz-adv-x="760" 
d="M45 -75q-12 0 -18.5 7.5t-9.5 17t-3.5 17.5t-0.5 9q0 23 45 23q46 0 116 -1t148 -1.5t156 -1.5t141 -1h39t39 -3t29.5 -9.5t11.5 -19.5q0 -12 -9.5 -19.5t-25.5 -11.5t-37.5 -5.5t-45.5 -1.5h-156.5t-155 0.5t-143.5 0.5h-120z" />
    <glyph glyph-name="grave" unicode="`" horiz-adv-x="390" 
d="M268 605q-33 -1 -77.5 8.5t-84 26.5t-67 38.5t-27.5 44.5q0 6 8.5 16.5t16.5 10.5q10 0 30 -12l45 -27t51.5 -28.5t50.5 -16.5q13 -2 37.5 -1.5t44.5 -4.5q11 -3 15 -12t4 -16q0 -16 -14.5 -21t-32.5 -6z" />
    <glyph glyph-name="a" unicode="a" horiz-adv-x="555" 
d="M221 239q0 33 -4 65t-15 57t-31 40t-53 15q-25 0 -44.5 -13.5t-33 -33t-20.5 -43t-7 -42.5q0 -30 12 -62t31.5 -58.5t44.5 -43t51 -16.5q29 0 49 32.5t20 102.5zM271 246q9 -36 9 -68q0 -64 -33 -104t-95 -40q-39 0 -76.5 22.5t-67 58.5t-48 81.5t-18.5 91.5
q0 36 14 71.5t37.5 63.5t55.5 45t68 17t65 -14.5t52 -38.5t42 -54.5t36 -62.5q10 -21 24 -57t30.5 -71t35 -60.5t38.5 -25.5q21 0 36 14.5t27.5 32t24.5 32t27 14.5q17 0 26 -11t9 -25q0 -12 -9 -24q-13 -18 -29 -36.5t-34.5 -33.5t-38 -24t-39.5 -9q-32 0 -58.5 21
t-48.5 52.5t-37.5 69.5t-24.5 72z" />
    <glyph glyph-name="b" unicode="b" horiz-adv-x="528" 
d="M218 564q-14 -114 -59.5 -219t-117.5 -185q6 -18 21 -51.5t37 -66.5t50.5 -58t61.5 -25q44 0 58.5 18.5t14.5 45.5q0 23 -5 50t-5 50q0 16 8.5 27.5t25.5 11.5q19 0 36.5 -5t32 -10.5t25.5 -10.5t18 -5q46 0 79 48q5 8 13 11.5t16 3.5q14 0 24.5 -10t10.5 -26
q0 -23 -16.5 -41t-39.5 -30.5t-47.5 -19t-39.5 -6.5q-20 0 -35 5.5t-32 13.5q2 -10 2 -20v-20q0 -32 -7 -59t-23.5 -47.5t-44 -32t-68.5 -11.5q-48 0 -89.5 28t-75.5 74.5t-60 106.5t-43.5 124t-26.5 126.5t-9 114.5q0 61 3.5 124.5t20 115.5t51 85.5t95.5 33.5
q41 0 68.5 -19.5t44 -50t23.5 -68t7 -73.5q0 -26 -3 -48zM-21 464q4 -60 11.5 -115.5t21.5 -109.5q26 32 50.5 75t44 92.5t31.5 102.5t12 105q0 20 -5 44t-14 45t-22.5 35.5t-30.5 14.5q-24 0 -41 -14.5t-28.5 -38.5t-18 -55t-9.5 -63t-3.5 -63t1.5 -55z" />
    <glyph glyph-name="c" unicode="c" horiz-adv-x="470" 
d="M314 346q0 -14 -2 -29.5t-7.5 -28.5t-15.5 -22t-26 -9q-11 0 -20 7t-9 22q0 14 4.5 29t4.5 31q0 18 -4.5 35.5t-14 31t-24 21.5t-34.5 8q-28 0 -52.5 -14.5t-43 -40t-29 -59.5t-10.5 -73q0 -40 15 -73.5t41.5 -58t62 -38.5t76.5 -14q43 0 74.5 8.5t56 23.5t45 36t43.5 45
q5 6 11.5 8t12.5 2q20 0 28 -12t8 -24t-4 -17q-46 -67 -116 -103.5t-159 -36.5q-48 0 -95.5 16.5t-85.5 48.5t-61.5 79.5t-23.5 109.5q0 39 11 84.5t36 83.5t64 63.5t95 25.5q33 0 60 -13t46.5 -35.5t30.5 -52.5t11 -65z" />
    <glyph glyph-name="d" unicode="d" horiz-adv-x="547" 
d="M350 437q0 -23 -0.5 -47.5t-1.5 -53t-1.5 -63.5t-0.5 -80q0 -12 3 -29t10.5 -32.5t20.5 -26t33 -10.5q21 0 37 6.5t28 18t20.5 26t16.5 29.5q5 9 13.5 14t18.5 5q20 0 27.5 -12.5t7.5 -22.5q0 -12 -7 -22q-12 -18 -24.5 -38t-30 -36.5t-43 -27t-64.5 -10.5q-29 0 -50.5 9
t-36.5 24t-24.5 33t-13.5 36q-23 -48 -65.5 -75t-103.5 -27q-33 0 -59.5 11t-45.5 31.5t-29.5 48t-10.5 60.5q0 38 17 83.5t47 85t70.5 66t86.5 26.5q21 0 45.5 -12t33.5 -29q3 46 3 92q0 72 -4 138.5t-8.5 129.5t-8.5 124.5t-4 125.5q0 16 1.5 32t5.5 29.5t11.5 22
t20.5 8.5q12 0 24 -6.5t12 -17.5q0 -16 -0.5 -31.5t-0.5 -32.5q0 -73 3.5 -148.5t8 -150t8.5 -144t4 -130.5zM119 95q31 0 59.5 13.5t50 36.5t34 52.5t12.5 62.5q0 49 -21 78t-59 29q-26 0 -52.5 -17t-48.5 -44t-35.5 -61.5t-13.5 -68.5q0 -42 21 -61.5t53 -19.5z" />
    <glyph glyph-name="e" unicode="e" horiz-adv-x="382" 
d="M80 501q22 0 42.5 -10t36 -27t24.5 -38.5t9 -45.5q0 -30 -11 -63t-30.5 -66t-45 -63.5t-54.5 -54.5q25 -23 58 -31t75 -8q24 0 48.5 5.5t47 16t41.5 26.5t32 37q7 11 15.5 13t13.5 2q11 0 23 -8t12 -28q0 -14 -11 -26q-19 -22 -41 -41.5t-48.5 -34.5t-59.5 -23.5
t-73 -8.5q-76 0 -128.5 23.5t-85 62.5t-47 88.5t-14.5 101.5q0 41 13.5 77.5t36.5 64t54 43.5t67 16zM81 431q-26 0 -44.5 -11.5t-31.5 -30t-19 -42t-6 -47.5q0 -33 6.5 -64.5t21.5 -53.5q14 14 33.5 37.5t37 51t30 56t12.5 53.5q0 20 -8.5 35.5t-31.5 15.5z" />
    <glyph glyph-name="f" unicode="f" horiz-adv-x="453" 
d="M40 128q4 -31 13.5 -87t21 -120.5t22.5 -128t19 -109.5q40 66 83 137t83.5 137.5t77 124t63.5 96.5q12 16 30 16q17 0 26 -12t9 -24q0 -6 -2.5 -11.5t-5.5 -10.5q-41 -60 -85 -130t-88.5 -142.5t-87 -144t-80.5 -134.5q2 -11 8 -39.5t13 -72t12 -100t5 -122.5
q0 -76 -28.5 -123t-87.5 -47q-45 0 -70.5 18.5t-39 47t-17 63.5t-3.5 68q0 40 11 84t28.5 87.5t39.5 85t44 76.5q-20 120 -36.5 221t-31.5 188t-28.5 161.5t-26.5 140.5q-6 30 -12.5 82t-12.5 107t-9.5 102.5t-3.5 68.5q0 54 8.5 107.5t27.5 95.5t48 68t70 26
q32 0 54.5 -16.5t37.5 -44t23 -63t12.5 -72.5t5.5 -72.5t1 -63.5q0 -71 -6.5 -139.5t-22 -133.5t-43 -127t-69.5 -119zM-36 682q0 -52 6 -112.5t14.5 -121.5t18 -118.5t15.5 -102.5q22 28 39 78t29 109t18.5 120.5t6.5 112.5q0 33 -2 78t-8.5 86t-19 69.5t-34.5 28.5
q-18 0 -31.5 -16t-23 -40t-15 -52.5t-8.5 -53.5t-4 -43.5t-1 -21.5zM62 -848q14 0 23 11.5t13.5 27.5t6 32.5t1.5 27.5q0 32 -2 68t-6 71.5t-8.5 68t-10.5 57.5q-16 -26 -30 -56.5t-24.5 -62t-16.5 -62.5t-6 -57q0 -70 12.5 -98t47.5 -28z" />
    <glyph glyph-name="g" unicode="g" horiz-adv-x="569" 
d="M271 -573q21 0 35.5 10.5t23.5 29t13 43.5t4 55q0 37 -4.5 76.5t-10.5 75.5t-13 66t-12 47q-24 -14 -44.5 -44.5t-36 -69.5t-24 -82.5t-8.5 -82.5q0 -54 17 -89t60 -35zM-38 162q2 39 16.5 80t42 75.5t68.5 56.5t97 22q41 0 69 -15.5t45.5 -39.5t25 -53.5t7.5 -57.5
q0 -17 -4.5 -40t-12.5 -42q5 -20 10.5 -44t11 -49t10.5 -49.5t9 -43.5q38 34 63 60.5t44.5 51.5t37 50t39.5 57q5 8 12.5 10.5t14.5 2.5q14 0 25 -10.5t11 -26.5q0 -9 -4 -16q-30 -44 -54.5 -77.5t-49.5 -62t-53.5 -56t-65.5 -58.5q5 -21 13.5 -56t16 -77t13 -88.5
t5.5 -91.5t-7 -86t-24 -71.5t-46 -49t-73 -18.5t-75.5 15.5t-51.5 42t-29 62t-9 76.5q0 49 12.5 102.5t35.5 103.5t55 92.5t70 69.5q-8 42 -17 80.5t-20 85.5q-17 -16 -40 -28t-47 -20.5t-48 -13t-43 -4.5q-31 0 -51.5 10t-33 26.5t-17.5 39t-5 47.5v12.5t1 13.5zM186 334
q-24 0 -50.5 -15t-48.5 -39t-36.5 -53.5t-14.5 -58.5q0 -35 11 -61.5t40 -26.5q30 0 60 11.5t54 30.5t39 44.5t15 54.5q0 15 -2.5 35t-10 37t-21 29t-35.5 12z" />
    <glyph glyph-name="h" unicode="h" horiz-adv-x="704" 
d="M-22 -92q-7 115 -11.5 201.5t-7.5 151.5t-4 111t-1 81q0 32 1 72.5t5.5 82t12.5 81t22.5 70.5t35.5 49.5t51 18.5q29 0 49.5 -15t34.5 -39t21.5 -54t11.5 -60t5 -57t1 -44q0 -52 -10 -99.5t-26 -90t-35 -78.5t-37 -65t-33 -50.5t-22 -33.5q0 -51 0.5 -88t4.5 -67
q17 5 30.5 22.5t26 41t26.5 49.5t32.5 47.5t44 36t60.5 14.5q36 0 59 -13.5t39 -33t27.5 -43t24.5 -43t30.5 -33t44.5 -13.5q25 0 50 16.5t49 41t45 52.5t38 51q11 15 30 15q14 0 24.5 -10.5t10.5 -25.5q0 -13 -7 -21q-29 -42 -57 -76.5t-57.5 -59.5t-60.5 -39t-66 -14
q-40 0 -67 13.5t-46 33t-31.5 43t-24.5 43t-24.5 33t-30.5 13.5q-22 0 -38.5 -17.5t-32.5 -44.5t-32.5 -57.5t-38 -57.5t-49.5 -44.5t-66 -17.5q-30 0 -32 20zM26 335q0 -18 0.5 -45.5t2.5 -43.5q21 34 39.5 74t33 81t23 81.5t8.5 75.5q0 18 -3 51.5t-9 66.5t-15.5 57
t-23.5 24q-13 0 -22 -24.5t-15 -63.5t-10 -87t-6 -95t-2.5 -87.5t-0.5 -64.5z" />
    <glyph glyph-name="i" unicode="i" horiz-adv-x="291" 
d="M-62 625q6 18 21.5 29t37.5 11q24 0 35 -17t11 -30q0 -23 -16 -38.5t-48 -15.5q-20 0 -31 13.5t-11 35.5q0 8 1 12zM-61 329q0 11 5 19q10 17 33 17q11 0 21 -9t13 -27q5 -31 11 -74.5t18 -84t34.5 -69t60.5 -28.5q21 0 40 11t35 27t29 34.5t23 32.5q7 10 15 13t15 3
q14 0 24.5 -10t10.5 -26q0 -11 -6 -20q-16 -24 -34.5 -48.5t-41 -43.5t-49.5 -31t-61 -12q-54 0 -89.5 27.5t-57.5 73t-33.5 104.5t-15.5 121z" />
    <glyph glyph-name="j" unicode="j" horiz-adv-x="263" 
d="M-5 69q-8 49 -18 102.5t-10 107.5q0 26 4 42.5t28 16.5q16 0 29 -8t13 -23q0 -7 -0.5 -14t-0.5 -15q0 -39 6.5 -83t13.5 -87.5t12.5 -81.5t2.5 -65q43 60 82 110t77 109q3 5 11 9.5t17 4.5q16 0 26 -10.5t10 -24.5q0 -5 -2 -10.5t-4 -9.5q-24 -35 -50.5 -69.5t-53.5 -68
t-52.5 -66.5t-47.5 -65q3 -57 5.5 -120t4 -135t2.5 -156.5t1 -185.5q0 -34 -6 -74t-20 -74t-38.5 -57t-61.5 -23q-63 0 -103.5 27.5t-64 69t-32.5 91t-9 94.5q0 67 18.5 138.5t51 144t77 145.5t97.5 145q-2 39 -5.5 84t-9.5 85zM-54 582q5 18 21 29t38 11q24 0 35 -17
t11 -30q0 -24 -16.5 -39t-48.5 -15q-20 0 -31 12.5t-11 32.5q0 4 0.5 7.5t1.5 8.5zM31 -726q0 129 -1.5 256.5t-5.5 270.5q-30 -49 -62.5 -107.5t-60 -120.5t-45.5 -125.5t-18 -121.5q0 -30 4.5 -67t19 -69t41.5 -54t73 -22q15 0 25.5 15.5t17 39t9.5 51.5t3 54z" />
    <glyph glyph-name="k" unicode="k" horiz-adv-x="581" 
d="M344 -81q-43 0 -92.5 25.5t-92 61.5t-70.5 75t-28 67q0 11 9.5 23.5t28.5 18.5q28 9 56 21.5t50.5 28t36.5 34t14 39.5q0 24 -18 24q-24 0 -55 -21.5t-60 -49t-52 -53t-31 -33.5q1 -32 12.5 -79.5t19.5 -101.5q2 -13 -7 -21t-26 -8q-15 0 -25.5 9t-14.5 24
q-27 103 -36.5 227.5t-9.5 267.5q0 37 1 86.5t7 101.5t17.5 102t32.5 89.5t53 63.5t79 24q45 0 75.5 -16.5t49 -45t26 -66.5t7.5 -81q0 -64 -10 -117.5t-28.5 -101.5t-45 -93t-59.5 -93q9 8 23 17t29.5 16.5t32.5 12.5t32 5q25 0 38.5 -23.5t13.5 -65.5q0 -36 -16 -65
t-43 -50t-61.5 -35.5t-70.5 -22.5q10 -20 31.5 -46.5t50 -49.5t61 -39t65.5 -16q36 0 65.5 20.5t55 50.5t47 63t42.5 59q6 7 13.5 9.5t13.5 2.5q19 0 27 -12t8 -24q0 -13 -6 -20q-23 -32 -47 -70t-55 -71t-71 -55.5t-93 -22.5zM24 499q0 -63 2.5 -122.5t7.5 -118.5
q23 40 47 79.5t46.5 80.5t42.5 84.5t35 91.5q8 25 16.5 69.5t8.5 92.5q0 27 -4.5 52t-14.5 44t-27 30.5t-42 11.5q-29 0 -49.5 -22t-33.5 -56.5t-20 -78.5t-10.5 -87.5t-4 -83.5t-0.5 -67z" />
    <glyph glyph-name="l" unicode="l" horiz-adv-x="527" 
d="M233 -143q-54 0 -97.5 27t-77.5 73.5t-59.5 108t-43.5 130.5t-30 141t-19 139.5t-9.5 126.5t-2.5 102q0 28 1 70t5 88t13.5 92t26 83t42.5 60t64 23q42 0 68.5 -31.5t42 -82.5t21.5 -114t6 -126q0 -99 -10.5 -185.5t-29 -161t-44 -138.5t-56.5 -118q9 -37 25.5 -78.5
t39.5 -77t53.5 -58.5t66.5 -23q48 0 88 28t73.5 67.5t60 82.5t46.5 73q5 7 12.5 11.5t18.5 4.5q15 0 24.5 -11t9.5 -25q0 -11 -13 -38t-36.5 -60t-55 -69t-68 -66t-76.5 -49t-80 -19zM46 1051q-16 0 -28.5 -17.5t-21.5 -46t-15 -65t-9.5 -75.5t-5 -77t-1.5 -69
q0 -110 10.5 -219.5t36.5 -227.5q29 72 48.5 129t31 114t16.5 121t5 149q0 45 -4 95t-12.5 92t-21 69.5t-29.5 27.5z" />
    <glyph glyph-name="m" unicode="m" horiz-adv-x="1385" 
d="M226 400q-20 0 -46 -26.5t-53 -66t-52.5 -85t-44.5 -82.5q-3 -5 -11 -10.5t-19 -5.5q-16 0 -26 10.5t-10 23.5q0 6 11 31t30 60t44.5 73.5t55.5 71.5t62 54.5t65 21.5q18 0 33 -10.5t26 -28t17 -40t6 -47.5q0 -14 -2.5 -36.5t-6 -46t-7.5 -43t-6 -27.5q6 17 17 44t25 58
t31.5 62.5t37.5 57t41.5 41.5t44.5 16q42 0 72.5 -32t54.5 -80t42.5 -105t36.5 -107q9 25 18.5 60t21 74t26 77t33.5 68t44 49t57 19q43 0 75.5 -26.5t59.5 -66.5t52 -86t54 -86t64 -66.5t83 -26.5q19 0 37 9.5t35 33.5q12 16 29 16q14 0 25 -9.5t11 -24.5q0 -10 -6 -20
q-21 -35 -56 -55t-75 -20q-59 0 -104 26.5t-79 66.5t-60.5 86t-49.5 86t-45.5 66.5t-48.5 26.5q-18 0 -34.5 -22.5t-31 -58.5t-28 -81.5t-26 -92t-24 -89t-21.5 -73.5q-4 -11 -10 -18.5t-20 -7.5q-8 0 -15 2.5t-12 11.5q-7 11 -19 46t-26.5 80t-31.5 94.5t-35.5 90.5t-37 68
t-35.5 27q-12 0 -29.5 -27.5t-38 -68.5t-44 -89t-47.5 -89t-48.5 -68.5t-47.5 -27.5q-16 0 -26.5 6t-10.5 21q0 7 1.5 13t1.5 12q0 5 6.5 36t15 72.5t15 86t6.5 76.5q0 20 -4.5 33.5t-12.5 13.5z" />
    <glyph glyph-name="n" unicode="n" horiz-adv-x="940" 
d="M506 258q-19 0 -39 -13t-38.5 -31t-34 -37t-24.5 -31q-5 -15 -5.5 -36.5t-3.5 -41t-11 -33.5t-28 -14q-16 0 -26 9.5t-10 24.5t1.5 28.5t4 26.5t4 27t1.5 31q0 23 -4 49.5t-12 49t-22 37.5t-33 15q-34 0 -59.5 -18t-48 -45.5t-45 -60.5t-49.5 -62q-9 -9 -23 -9
q-11 0 -24 8t-13 25q0 12 8 25q63 98 127 152.5t137 54.5q61 0 86 -37t33 -106q10 18 22.5 33t30.5 26t42 17t56 6q43 0 75 -18t56 -45.5t42.5 -59.5t36.5 -59.5t37 -45.5t44 -18q29 0 56.5 26.5t56.5 69.5q10 16 30 16t27.5 -13t7.5 -23t-3 -14q-13 -24 -29.5 -47.5
t-38 -42t-48 -30t-57.5 -11.5q-40 0 -69 18t-51 45.5t-40.5 59t-38 59t-42 45.5t-52.5 18z" />
    <glyph glyph-name="o" unicode="o" horiz-adv-x="529" 
d="M-31 162q0 34 14 70t39.5 65.5t62 48.5t80.5 19q15 0 32.5 -0.5t31.5 -4.5t23.5 -13t9.5 -25q22 -10 40 -23.5t31.5 -33t21 -45.5t7.5 -61q0 -4 5 -6.5t12.5 -3.5t15 -1.5t13.5 -0.5q34 0 55 8.5t41 28.5q5 5 12.5 7.5t12.5 2.5q17 0 26 -11.5t9 -24.5q0 -6 -3 -11.5
t-5 -10.5q-10 -20 -28 -32t-38.5 -18t-42 -7.5t-39.5 -1.5t-34 2t-24 6q-14 -64 -58 -99.5t-120 -35.5q-55 0 -93.5 20t-63 51t-35.5 68.5t-11 72.5zM94 240q0 11 2.5 23t7.5 22q-15 -8 -27 -21.5t-20.5 -31t-12.5 -36t-4 -35.5q0 -33 12 -59t31.5 -44t42.5 -28t46 -10
q43 0 70.5 19t35.5 61q-21 5 -52.5 15t-61 26.5t-50 41t-20.5 57.5zM217 290q-6 0 -15.5 -1.5t-17.5 -5t-14 -11.5t-6 -21q0 -16 11 -29t29 -23t40.5 -18t45.5 -14v8q0 39 -22 70t-51 45z" />
    <glyph glyph-name="p" unicode="p" horiz-adv-x="827" 
d="M26 135q-11 -12 -25.5 -11.5t-24.5 9.5q-11 8 -12 21t6 24q25 38 42.5 70t32 61.5t26.5 58.5t25 62q8 10 17 14.5t17.5 6.5t14.5 1.5t9 -1.5q12 -3 16 -15q2 -7 4.5 -17.5t4.5 -22.5t4 -23.5t4 -18.5q18 16 39 36.5t43.5 39t46 31t46.5 12.5q36 0 63.5 -23t50.5 -59
t42.5 -79.5t39.5 -84t43 -73t52 -46.5q24 -11 47.5 -5t43 19.5t34.5 30.5t22 28q10 14 26 13.5t26 -9.5q9 -9 10.5 -22t-6.5 -26q-26 -39 -62.5 -69.5t-74.5 -36.5q-52 -12 -93.5 8.5t-74 58t-57.5 84.5t-43 87q-8 18 -18 40t-22.5 41t-29.5 31.5t-40 9.5q-18 -2 -40 -19
t-43 -39.5t-38.5 -44.5t-26.5 -33q0 -123 -0.5 -227.5t-1.5 -196t-2.5 -173t-2.5 -159.5t-1.5 -155.5t-0.5 -159.5q0 -13 -13.5 -22.5t-27.5 -11.5q-11 -2 -25 1t-14 18q0 139 1 276t2 275t1 279t-1 288q0 -8 -9.5 -29t-23 -45.5t-27 -46.5t-21.5 -31z" />
    <glyph glyph-name="q" unicode="q" horiz-adv-x="601" 
d="M310 385q5 4 16 4q7 0 15.5 -1.5t16 -5t12.5 -10.5t5 -18q0 -29 -1.5 -57.5t-1.5 -57.5q0 -23 12 -45.5t29.5 -40t37.5 -28.5t36 -11q15 0 30 12.5t29.5 27.5t28.5 27.5t26 12.5q15 0 25 -10t10 -24q0 -7 -2 -12.5t-4 -9.5q-12 -17 -26.5 -34t-30 -30.5t-32 -22
t-32.5 -8.5q-18 0 -38 5t-38.5 14t-34.5 21t-26 25q3 -111 6 -216.5t6 -213t5 -219.5t2 -236q0 -18 -13 -27.5t-28 -9.5q-13 0 -23.5 7t-12.5 22q-4 112 -5.5 216t-3 208.5t-3 213.5t-4.5 232q-20 -26 -50.5 -40.5t-62.5 -14.5q-40 0 -79.5 9t-71 29t-51.5 51.5t-20 76.5
q0 42 12.5 82t35.5 71.5t56.5 51t75.5 19.5q18 0 39.5 -3.5t42.5 -12t40 -22t33 -33.5q2 7 4 19t8 17zM170 352q-27 0 -51 -12t-42 -32.5t-28.5 -47t-10.5 -56.5q0 -28 12 -48t31 -33t43.5 -19t48.5 -6q58 0 93 32t35 96q0 29 -11.5 52t-30.5 39.5t-42 25.5t-47 9z" />
    <glyph glyph-name="r" unicode="r" horiz-adv-x="534" 
d="M89 450q1 -18 1.5 -35.5t0.5 -39.5q0 -57 -10.5 -117t-49.5 -117q-11 -17 -31 -17q-15 0 -25.5 10t-10.5 24q0 10 7 21q30 45 40.5 96.5t10.5 104.5q0 34 -5 63.5t-5 64.5q0 7 4 13t22 6q5 0 10 -0.5t13 -1.5q5 0 18.5 -3t30.5 -6.5t35 -6t33 -2.5q21 0 41.5 6.5
t38.5 14.5t32.5 14.5t22.5 6.5q13 0 25 -6.5t12 -20.5q0 -57 -8.5 -107t-8.5 -103q0 -33 3.5 -68.5t13 -64.5t26 -47.5t41.5 -18.5q12 0 24.5 6t24 16t21.5 21.5t18 23.5q5 8 13.5 11t15.5 3q14 0 24.5 -9.5t10.5 -26.5q0 -5 -2 -11t-7 -14q-9 -14 -25.5 -29.5t-36 -29
t-40.5 -22.5t-41 -9q-43 0 -72.5 23t-48 58t-26.5 76.5t-8 79.5q0 48 3 90t8 91q-20 -12 -43 -20t-52 -8q-20 0 -43 5t-46 12z" />
    <glyph glyph-name="s" unicode="s" horiz-adv-x="527" 
d="M230 414q-14 -10 -39.5 -44.5t-54 -76.5t-56.5 -84.5t-48 -67.5q-8 -11 -16.5 -14t-14.5 -3q-14 0 -25.5 9.5t-11.5 24.5q0 11 7 21q41 54 78 110t69.5 101.5t60 74t50.5 28.5q31 0 62 -30t55.5 -75.5t40 -99.5t15.5 -102v-15t-2 -14h26t28 3t26 8.5t22 15.5q11 10 24 10
q14 0 24.5 -9.5t10.5 -26.5t-10 -29t-25.5 -20t-34.5 -13t-38 -7t-33.5 1t-28.5 2q-6 -33 -22.5 -65.5t-40.5 -59t-55 -42.5t-66 -16q-13 0 -33 4t-38.5 14.5t-32 29.5t-13.5 48q0 36 18 64t50 48t76 31t95 11q1 5 1.5 11.5t0.5 12.5q0 39 -11.5 80t-27 74.5t-33 55
t-29.5 21.5zM207 -21q45 0 73.5 31.5t36.5 75.5q-23 0 -50 -3.5t-50.5 -12.5t-39.5 -24.5t-16 -40.5q0 -9 14 -17.5t32 -8.5z" />
    <glyph glyph-name="t" unicode="t" horiz-adv-x="369" 
d="M-126 484q-35 2 -46 10.5t-11 24.5q0 14 9 21.5t44 7.5h39q-2 16 -3 40t-1.5 49t-1 49t-0.5 41q0 14 7.5 22.5t23.5 8.5q5 0 18.5 -3.5t15.5 -14.5q5 -34 8 -81.5t6 -111.5q54 0 114 -0.5t117 -0.5q11 0 16 -9t5 -18q0 -36 -80 -36q-56 0 -95.5 -0.5t-71.5 -0.5
q4 -77 17.5 -151.5t38.5 -134t62 -96t89 -36.5q31 0 54 12.5t40 30.5t29 37.5t22 33.5q7 10 14.5 13t15.5 3q17 0 26 -12.5t9 -23.5q0 -15 -16.5 -42.5t-45 -54.5t-67 -47t-81.5 -20q-74 0 -124 41.5t-82 109.5t-49 156t-25 181z" />
    <glyph glyph-name="u" unicode="u" horiz-adv-x="593" 
d="M24 288q25 0 25 -18q0 -21 -3.5 -50.5t-3.5 -59.5q0 -61 15.5 -89t37.5 -28q17 0 34.5 15t32.5 36t26 43t15 37q9 26 16 38t25 12q17 0 26 -8t10 -22q1 -12 9.5 -42t22 -61.5t31 -56t36.5 -24.5q26 0 50.5 15t46.5 37.5t41.5 48.5t34.5 49l6 10t6 9q11 15 28 15
q15 0 25.5 -10t10.5 -25q0 -12 -6 -21q-19 -28 -42.5 -62.5t-53 -64.5t-66 -50.5t-81.5 -20.5q-32 0 -57.5 16.5t-43.5 42.5t-28 58t-12 62q-3 -36 -17 -63t-34 -45.5t-44 -28t-48 -9.5q-28 0 -51 14.5t-39.5 38t-25.5 53t-9 59.5q0 28 1 55t6 48t16 34t31 13z" />
    <glyph glyph-name="v" unicode="v" horiz-adv-x="685" 
d="M100 229q-8 -1 -17 -12.5t-19 -27t-19.5 -31t-18.5 -24.5q-6 -6 -13 -8t-13 -2q-15 0 -25.5 10t-10.5 24q0 2 0.5 5.5t2.5 8.5q6 13 19.5 34.5t32 41.5t41.5 34.5t49 14.5q22 0 36 -8t22 -23t11.5 -35.5t3.5 -45.5q0 -35 -4 -57.5t-9 -40.5t-9 -33.5t-4 -34.5
q0 -15 4 -33.5t13 -34t23.5 -26.5t34.5 -11q33 0 57.5 15t41.5 39t27.5 53t17.5 56q-58 22 -83.5 67.5t-25.5 100.5q0 22 7 43.5t20 38.5t31.5 27.5t40.5 10.5q31 0 52 -13t33.5 -33.5t17.5 -45.5t5 -50q0 -22 -4.5 -52t-8.5 -49q13 -7 30.5 -11.5t34.5 -4.5q39 0 63.5 13.5
t41.5 30t29 30.5t27 14q14 0 24 -10t10 -26q0 -11 -6 -20q-14 -21 -35.5 -39.5t-47 -32.5t-53 -22t-53.5 -8q-34 0 -53 8.5t-30 11.5q-8 -40 -25 -78t-43 -68t-61.5 -48t-81.5 -18q-36 0 -63.5 15.5t-46 40t-27.5 56t-9 64.5q0 23 4 41.5t9 37t9 39t4 47.5v14.5t-0.5 14.5
t-3 11t-7.5 4zM365 295q-14 0 -21 -13.5t-7 -36.5q0 -10 2 -24t8 -27.5t16.5 -26t26.5 -19.5q5 11 8.5 32t3.5 43q0 28 -8 50t-29 22z" />
    <glyph glyph-name="w" unicode="w" horiz-adv-x="1013" 
d="M113 255q-2 -2 -11 -15.5t-22 -31.5t-27 -37.5t-25 -33.5q-7 -8 -14.5 -10.5t-12.5 -2.5q-18 0 -27.5 11t-9.5 23q0 14 9 25q25 30 36 44t17 23t12 19t21 33q9 14 26 22.5t39 8.5q24 0 46.5 -11.5t22.5 -31.5q0 -7 -1 -10q-7 -40 -13.5 -63.5t-11 -43.5t-7.5 -44t-3 -65
q0 -21 2.5 -45.5t8.5 -45t17 -34.5t28 -14q26 0 43.5 23t30 57.5t21 75t17.5 75t19.5 57.5t26.5 23q26 0 32 -15.5t10 -55.5q3 -39 11 -83.5t23.5 -82t40.5 -62t63 -24.5q23 0 45.5 15t42.5 39t36 53t26 57q-24 14 -46.5 37t-39.5 51.5t-27 59.5t-10 60q0 69 30 99t74 30
q36 0 59.5 -14.5t37.5 -38.5t19.5 -54t5.5 -61q0 -33 -5 -65t-12 -57q20 -8 39 -12.5t37 -4.5q30 0 59.5 16.5t63.5 58.5q10 12 27 12q15 0 25 -11t10 -25q0 -11 -6 -20q-34 -52 -81.5 -76.5t-98.5 -24.5q-48 0 -94 22q-12 -38 -32 -76t-47 -69.5t-62 -51t-77 -19.5
t-76.5 19.5t-58.5 48.5t-36.5 63t-10.5 63q-5 -30 -17 -62.5t-31.5 -59t-46 -43.5t-60.5 -17q-38 0 -62.5 18.5t-39 48t-20 67t-5.5 76.5q0 27 2 50t5.5 44.5t8.5 44.5t11 51zM649 285q0 -42 18 -73.5t55 -57.5q5 23 8.5 46.5t3.5 49.5q0 17 -2.5 34t-9 30t-16.5 21t-25 8
q-32 0 -32 -58z" />
    <glyph glyph-name="x" unicode="x" horiz-adv-x="693" 
d="M31 142q-7 -12 -19.5 -16.5t-24.5 0.5q-10 4 -18.5 13.5t-3.5 27.5q2 9 13 33.5t31.5 51t51 46.5t72.5 20t66.5 -14.5t37.5 -33.5q16 11 28 18.5t29 16.5q-6 31 -1 72t22.5 77t48.5 61t77 25q40 0 66 -29.5t26 -71.5q0 -40 -17 -69t-42 -50t-53 -35t-49 -24
q12 -47 31.5 -76t42.5 -45.5t48.5 -22.5t49.5 -6q21 0 37.5 5.5t30.5 15t27.5 23t27.5 28.5q5 5 12.5 8t13.5 3q14 0 25 -9t11 -26q0 -11 -8 -23q-34 -51 -77.5 -73t-99.5 -22q-90 0 -152.5 46t-81.5 142q-11 -5 -17.5 -6.5t-16.5 -8.5q12 -16 20.5 -35.5t13.5 -40.5
t7 -41.5t2 -38.5q0 -24 -9.5 -48.5t-26.5 -44t-40.5 -31.5t-50.5 -12q-32 0 -53.5 12t-35 30.5t-19.5 41t-6 43.5q0 52 22 97.5t79 83.5q-11 14 -21.5 16t-24.5 2q-23 0 -38.5 -11.5t-27 -28t-20 -34.5t-16.5 -32zM248 58q0 34 -7 65t-21 52q-11 -8 -23 -20t-23 -28t-18 -36
t-7 -42q0 -20 10.5 -38.5t32.5 -18.5t39 16.5t17 49.5zM441 470q-22 0 -37.5 -13t-25 -32.5t-13.5 -43t-2 -45.5q15 7 32 14t32 18t25 27.5t10 43.5q0 14 -5 22.5t-16 8.5z" />
    <glyph glyph-name="y" unicode="y" horiz-adv-x="633" 
d="M604 179q3 5 10.5 10t18.5 5q12 0 24 -8t12 -22t-14.5 -36t-38 -48.5t-53 -55t-59 -55.5t-56 -51t-44.5 -40q1 -19 1.5 -34t1 -29t1 -29t0.5 -35q0 -53 -3 -122.5t-13.5 -142.5t-31.5 -144t-58 -126.5t-92 -89.5t-133 -34q-38 0 -72 12t-60.5 35t-42 56.5t-15.5 77.5
q0 62 20 122.5t54.5 118t79 112t93.5 104.5t98.5 95.5t94.5 85.5q-1 16 -2.5 30t-3 27.5t-3 28t-2.5 31.5q-3 -31 -19 -58t-40 -47.5t-55 -32t-64 -11.5q-44 0 -79 17.5t-59.5 45.5t-37.5 63t-13 70q0 29 6 56.5t17 46.5q10 19 24 22t19 3q23 0 27 -13.5t4 -31.5
q0 -23 -5.5 -47t-5.5 -46t7 -43t20.5 -37t34 -25.5t47.5 -9.5q43 0 71.5 30t46 75t25 97t7.5 95q0 13 10.5 20.5t22.5 7.5t21.5 -5t12.5 -20q6 -27 11 -67t9.5 -81.5t8.5 -78t7 -55.5q29 22 55.5 45t51 49t49.5 55t51 62zM77 -838q67 0 112.5 37t74.5 96t43.5 133t21 148
t7.5 140.5t1 111.5q-40 -36 -83 -77t-85.5 -85.5t-80.5 -92.5t-67 -97.5t-46 -100.5t-17 -102q0 -24 9 -44.5t25 -35t38 -23t47 -8.5z" />
    <glyph glyph-name="z" unicode="z" horiz-adv-x="609" 
d="M71 495q12 -38 19.5 -76t7.5 -72q0 -9 -2.5 -29.5t-8 -45t-13.5 -51t-19 -48t-25 -35.5t-30 -14q-11 0 -23.5 7.5t-12.5 26.5q0 11 7 22q30 48 43 85.5t13 81.5q0 17 -2.5 34.5t-7 37t-11 42.5t-13.5 52q-1 3 -1 9q0 11 9 19.5t23.5 14.5t33 9.5t37.5 3.5
q65 0 102.5 -11.5t57 -30t24.5 -42t5 -46.5q0 -26 -4.5 -50.5t-15.5 -57.5q-8 -23 -21.5 -58t-27 -71.5t-24 -69.5t-11.5 -51q6 7 14.5 24.5t19 40.5t23 47.5t27.5 45t31.5 34t35.5 13.5q21 0 33 -5t20 -17t15.5 -32t19.5 -50q9 -23 30.5 -35.5t55.5 -12.5q15 0 35 10t36 31
q6 8 14 13.5t19 5.5q9 0 22 -7.5t13 -27.5q0 -8 -9 -24t-26.5 -31.5t-43.5 -27.5t-60 -12q-45 0 -74 11.5t-46.5 28t-25.5 36.5t-12.5 36.5t-7 28t-8.5 11.5q-5 0 -13 -15.5t-18.5 -38t-23.5 -49.5t-28 -49.5t-32.5 -38t-35.5 -15.5q-43 0 -58.5 16t-15.5 36t8 50.5t20 65.5
t26 72.5t26 73.5t20 66.5t8 52.5q0 17 -7.5 28t-19.5 17.5t-27.5 9t-31.5 2.5q-29 0 -57 -5z" />
    <glyph glyph-name="braceleft" unicode="{" horiz-adv-x="562" 
d="M558 1089q1 -3 1 -8q0 -12 -11 -22t-28 -10q-12 0 -27 7t-31.5 15.5t-33.5 15.5t-31 7q-35 0 -66 -11t-55 -29.5t-38 -43t-14 -52.5q0 -27 6.5 -50t17 -44t22.5 -41t24 -42q25 -47 43 -94.5t18 -96.5q0 -38 -13 -69t-37 -58t-58.5 -50.5t-77.5 -46.5q38 -14 65.5 -41.5
t45.5 -63t26.5 -76t8.5 -80.5q0 -53 -11.5 -104t-25 -105t-25 -113t-11.5 -129q0 -45 15 -90.5t43.5 -83t68.5 -61t91 -23.5q39 0 66 14t46 30.5t33 30.5t29 14q11 0 26.5 -5t15.5 -18q0 -33 -25 -58t-59.5 -41.5t-70 -25t-57.5 -8.5q-77 0 -134.5 29t-95 74t-56 99
t-18.5 104q0 68 11.5 129.5t25 119t25 113.5t11.5 113q0 34 -5.5 68t-18.5 62t-35.5 47.5t-55.5 24.5q-26 5 -47.5 14t-21.5 26q0 22 16.5 38t41.5 30t54 28.5t54 34t41.5 46t16.5 65.5q0 52 -20.5 97t-45 88t-45 84.5t-20.5 86.5q0 49 22 87.5t57.5 65t80.5 40.5t91 14
q22 0 48.5 -6t51 -15.5t42.5 -21.5t23 -25z" />
    <glyph glyph-name="bar" unicode="|" horiz-adv-x="412" 
d="M157 896v22.5t3.5 24t12 19t25.5 7.5q15 0 31.5 -13t16.5 -46q0 -9 -0.5 -37t-1 -68.5t-1.5 -90t-1.5 -100.5t-1 -100t-0.5 -90v-248t-0.5 -186t-0.5 -133.5v-89.5v-94q0 -113 -37 -113q-25 0 -36.5 13.5t-11.5 48.5v149t0.5 124t0.5 112.5t0.5 115.5t0.5 132.5
t0.5 163.5t0.5 208.5v268.5z" />
    <glyph glyph-name="braceright" unicode="}" horiz-adv-x="562" 
d="M-7 1089q5 13 23 25t42.5 21.5t51 15.5t48.5 6q46 0 91 -14t80.5 -40.5t57.5 -65t22 -87.5q0 -45 -20.5 -86.5t-45 -84.5t-45 -88t-20.5 -97q0 -39 16.5 -65.5t41.5 -46t54 -34t54 -28.5t41.5 -30t16.5 -38q0 -17 -21.5 -26t-47.5 -14q-33 -5 -55.5 -24.5t-35.5 -47.5
t-18.5 -62t-5.5 -68q0 -57 11.5 -113t25 -113.5t25 -119t11.5 -129.5q0 -50 -18.5 -104t-56 -99t-95 -74t-134.5 -29q-22 0 -57.5 8.5t-70 25t-59.5 41.5t-25 58q0 13 15.5 18t26.5 5q15 0 29 -14t33 -30.5t46 -30.5t66 -14q51 0 91 23.5t68.5 61t43.5 83t15 90.5
q0 70 -11.5 129t-25 113t-25 105t-11.5 104q0 40 8.5 80.5t26.5 76t45.5 63t65.5 41.5q-43 23 -77.5 46.5t-58.5 50.5t-37 58t-13 69q0 49 18 96.5t43 94.5q12 22 24 42t22.5 41t17 44t6.5 50q0 28 -14 52.5t-38 43t-55.5 29.5t-65.5 11q-14 0 -31 -7t-33.5 -15.5
t-31.5 -15.5t-27 -7q-17 0 -28 10t-11 22q0 5 1 8z" />
    <glyph glyph-name="asciitilde" unicode="~" horiz-adv-x="686" 
d="M169 239q-5 0 -11.5 3t-6.5 10q0 12 11 23.5t26.5 20.5t33 14.5t31.5 5.5q21 0 41.5 -13.5t39.5 -30t37 -30t33 -13.5q22 0 38 12t29.5 28t25.5 31.5t26 22.5q2 1 6 1q8 0 14.5 -5.5t6.5 -10.5q0 -24 -13.5 -47t-34.5 -41t-46 -29t-48 -11q-22 0 -44.5 13t-44.5 28
t-42 28t-36 13q-7 0 -13 -3q-22 -11 -36.5 -15.5t-22.5 -4.5z" />
    <glyph glyph-name="exclamdown" unicode="&#xa1;" horiz-adv-x="408" 
d="M165 -426.882q2 -9.99902 9 -15.498t21 -5.49902q26 0 34 10.498q8 10.499 9 29.4971q-2 80.9902 -5.5 147.981q-3.5 66.9922 -8 126.484q-4.5 59.4932 -9 115.986t-8.5 116.485q-2 32.9961 -3.5 73.9912t-5.5 81.9902t-12 76.9902q-8 35.9961 -21 58.9932
q-4 6.99902 -10 6.99902q-15 0 -28 -10.999q-13 -10.998 -13 -31.9961q1 -23.9971 1.5 -47.4941t2.5 -47.4941q6 -102.987 11 -180.478t9 -136.983t7 -105.987t6 -88.4893t6.5 -83.4893q3.5 -41.4951 7.5 -91.4893zM82 546.999q1 -14.998 8.5 -26.9961
q7.5 -11.999 19 -19.498t26 -10.998q14.5 -3.5 29.5 -1.5q20 1.99902 31.5 14.998q11.5 12.998 11.5 30.9961q0 25.9971 -13.5 43.9951q-13.5 17.9971 -57.5 17.9971q-23 0 -39 -11.498q-16 -11.499 -16 -37.4961z" />
    <glyph glyph-name="cent" unicode="&#xa2;" horiz-adv-x="475" 
d="M277 259q-8 -2 -12 -2q-11 0 -20 7t-9 22q0 14 4.5 29t4.5 31q0 18 -4.5 35.5t-14 31t-24 21.5t-34.5 8q-28 0 -52.5 -14.5t-43 -40t-29 -59.5t-10.5 -73q0 -33 11.5 -63.5t31 -54.5t45 -40.5t54.5 -21.5q14 -2 27 -3t26 -1q43 0 74.5 8.5t56 23.5t45 36t43.5 45
q5 6 11.5 8t12.5 2q20 0 28 -12t8 -24t-4 -17q-46 -67 -119.5 -107.5t-162.5 -40.5q-6 0 -12 0.5t-12 0.5q-5 -35 -28 -54q-4 -5 -11.5 -5.5t-15 2t-13 8t-6.5 13.5l-2 54q-35 13 -65.5 35.5t-53.5 53.5t-36.5 69.5t-13.5 84.5q0 34 8.5 72.5t27.5 73.5t50.5 62t77.5 39
v44.5t2 36t7.5 27t17.5 17.5q8 2 17 2.5t16.5 -3t12.5 -11t5 -20.5v-16.5t0.5 -23t1 -25.5t0.5 -22q59 -6 96 -46.5t37 -105.5q0 -13 -1 -27.5t-6.5 -28t-16 -24.5t-28.5 -17z" />
    <glyph glyph-name="sterling" unicode="&#xa3;" horiz-adv-x="858" 
d="M286 270q-34 5 -49 12t-15 24q0 7 0.5 12.5t4.5 9.5t13 6t27 2h40q0 40 -6.5 74.5t-14 70.5t-13.5 77.5t-6 95.5t11.5 105.5t42.5 91.5t86.5 64.5t142.5 24.5q18 0 41.5 -2t43.5 -7.5t34 -14.5t14 -23q0 -17 -15.5 -21t-34.5 -4q-26 0 -51 2t-51 2q-97 0 -141 -53
t-44 -153q0 -37 5 -76t11 -80t11.5 -85t7.5 -90q52 -1 109 -1.5t111 -0.5q10 0 15 -9t5 -18q0 -37 -77 -37q-54 0 -93 -0.5t-71 -0.5q-8 -49 -18 -90.5t-36 -73.5q25 -20 51 -30.5t53 -10.5q22 0 45 8.5t47 19t50.5 19.5t55.5 9q15 0 38 -5t44 -15.5t36 -25.5t15 -36
q0 -16 -14 -22.5t-26 -6.5q-20 0 -33 15q-18 20 -34.5 27.5t-34.5 7.5q-22 0 -45 -9.5t-47 -21.5t-50 -21.5t-55 -9.5q-38 0 -70 14.5t-70 37.5q-23 -23 -54.5 -38t-82.5 -15q-15 0 -30 5.5t-27 16t-19.5 26.5t-7.5 36q0 22 5.5 43.5t17 38.5t29.5 27.5t44 10.5
q34 0 61.5 -15.5t49.5 -34.5q17 26 24.5 57t10.5 63h-9t-8 1zM124 81q0 -16 7.5 -23.5t25.5 -7.5q23 0 40 13t31 30q-12 14 -29 30.5t-38 16.5q-18 0 -27.5 -17t-9.5 -42z" />
    <glyph glyph-name="currency" unicode="&#xa4;" horiz-adv-x="600" 
d="M213 140q-14 -10 -30 -23.5t-27 -13.5q-7 0 -13.5 4.5t-11.5 10.5q0 2 0.5 9t3.5 17t9.5 20.5t18.5 19.5q-22 26 -23 63q-1 18 6 33.5t15 28.5q-8 6 -16.5 13.5t-16 15t-12.5 15t-5 12.5q0 13 12 18q8 5 20 4.5t22 -5.5q15 -5 27.5 -13.5t22.5 -15.5q28 19 65 19
q36 0 64 -20l9 10q8 9 17 16.5t24 12.5q9 5 17.5 6.5t14.5 -1.5q5 0 7 -6q5 -6 6 -15t-3 -17q-6 -10 -16 -22.5t-18 -20.5q13 -18 13 -43q-2 -1 -2.5 -2.5t-2.5 -2.5q4 -12 4 -20q0 -36 -17 -60q14 -15 26 -33t11 -29q0 -5 -5 -5q-4 -5 -14 -8t-27 1q-10 5 -23 13t-24 16
q-13 -9 -30.5 -14.5t-34.5 -6.5q-20 0 -34.5 4t-28.5 15zM339 254q0 12 -5.5 24t-14.5 21.5t-20.5 15.5t-22.5 6q-24 0 -43 -19.5t-21 -56.5q2 -35 21 -54.5t42 -19.5t43 17t22 52q0 5 -0.5 8t-0.5 6z" />
    <glyph glyph-name="yen" unicode="&#xa5;" horiz-adv-x="569" 
d="M213 378q-34 2 -49 10.5t-15 25.5q0 14 9 22t33 8h65l28 211q-30 -44 -64 -64.5t-66 -20.5q-25 0 -47.5 12.5t-39.5 35.5t-27 57t-10 78q0 22 6 52.5t15.5 58.5t23 48t28.5 20q8 0 14.5 -4.5t7.5 -15.5q-3 -29 -12 -70.5t-9 -83.5q0 -21 3 -43t11 -41t21 -31t33 -12
q30 0 54 29t43 70.5t34 86t27 75.5q9 23 19.5 27.5t13.5 4.5q12 0 23 -6.5t11 -18.5v-4q-19 -118 -32 -228.5t-29 -224.5q47 -1 95.5 -1h96.5q10 0 15 -9t5 -18q0 -37 -77 -37q-47 0 -81.5 -0.5t-63.5 -0.5l-10 -75q42 -1 86 -1h86q10 0 15 -9t5 -18q0 -13 -12 -20.5
t-30.5 -11.5t-42 -5.5t-46.5 -1.5q-20 0 -37.5 0.5t-31.5 0.5l-1 -3.5t-4 -22t-9 -57.5t-18 -111q-5 -34 -12 -59t-28 -25q-20 0 -27.5 11t-7.5 32q0 16 3 40l25 195q-63 0 -91.5 7.5t-28.5 30.5q0 7 0.5 12.5t4 9.5t12 6t25.5 2h40.5t45.5 -1l11 74q-9 0 -18 0.5t-17 1.5z
" />
    <glyph glyph-name="brokenbar" unicode="&#xa6;" horiz-adv-x="481" 
d="M150 805q0 19 -1.5 38.5t-1.5 42.5q0 19 2 39.5t7.5 37t15.5 27t26 10.5q11 0 21 -6.5t10 -24.5q0 -155 6.5 -305t6.5 -302q0 -21 -6 -36.5t-28 -15.5q-36 0 -45.5 26t-9.5 81v38t-0.5 67.5t-1 111.5t-1.5 171zM147 -412q0 17 -0.5 63.5t-0.5 107.5q0 105 0.5 185
t5 134.5t15.5 82.5t32 28q20 0 27 -11t7 -39q0 -20 -0.5 -41t-0.5 -41v-75t1 -90.5t2 -121t3 -166.5q0 -21 -4 -33.5t-10 -18.5t-12 -7.5l-10 -2.5q-10 -2 -15 -2q-22 0 -31 14t-9 34z" />
    <glyph glyph-name="section" unicode="&#xa7;" horiz-adv-x="662" 
d="M431 339q0 28 -14.5 49t-37 35t-49 20.5t-51.5 6.5q-18 0 -35.5 -4t-31 -11.5t-21.5 -19.5t-8 -28q0 -28 16.5 -47t41.5 -30.5t55 -16.5t56 -5q14 0 28 2.5t25.5 8t18.5 15.5t7 25zM501 347q0 -52 -22.5 -85t-72.5 -43q6 -11 19 -31t26.5 -49t24 -67.5t10.5 -85.5
q0 -53 -16 -89.5t-42 -59t-59.5 -32.5t-69.5 -10q-39 0 -71.5 12t-56.5 33.5t-37.5 50.5t-13.5 64q0 19 4.5 43t13 44t19.5 34t24 14t25 -8t12 -21q0 -21 -9.5 -43t-9.5 -48q0 -47 28 -75t70 -28q47 0 77.5 32.5t30.5 94.5q0 33 -12 71t-29 71t-36 56t-33 27q-25 3 -56 12
t-58.5 29t-46.5 53t-19 84q0 39 21.5 70.5t73.5 45.5q-10 13 -23.5 35t-26 51.5t-21.5 65.5t-9 75q0 48 13.5 85t38.5 62t59.5 37.5t75.5 12.5q43 0 76.5 -13.5t56 -36t34 -51t11.5 -59.5q0 -17 -4.5 -40t-12.5 -44t-20 -36t-28 -15q-15 0 -23.5 11t-8.5 25q0 10 3.5 21
t8 23t8 24.5t3.5 25.5q0 20 -8.5 37t-22.5 29.5t-32.5 19.5t-37.5 7q-50 0 -79.5 -36t-29.5 -94q0 -36 13 -74.5t31 -70.5t36.5 -53.5t29.5 -23.5q35 -3 67.5 -16t57.5 -34.5t40 -50.5t15 -65z" />
    <glyph glyph-name="dieresis" unicode="&#xa8;" horiz-adv-x="279" 
d="M-7 652q2 22 20.5 33t41.5 11t34 -15t11 -29q0 -24 -15 -37t-53 -13q-18 0 -29 11.5t-11 29.5q0 6 1 9zM179 656q2 21 20.5 32t41.5 11t33.5 -14t10.5 -28q0 -24 -13 -38t-53 -14q-18 0 -29.5 12t-11.5 30q0 6 1 9z" />
    <glyph glyph-name="copyright" unicode="&#xa9;" horiz-adv-x="869" 
d="M107 190q0 70 34 140.5t89 127t125.5 92t142.5 35.5q50 0 95.5 -25t80 -70t54.5 -108.5t20 -139.5q0 -66 -23 -131.5t-66 -117t-104.5 -84t-138.5 -32.5q-67 0 -123.5 24.5t-98 67t-64.5 99.5t-23 122zM181 227q-1 -7 -1 -13v-13q0 -47 16 -93t46.5 -82.5t74 -59
t99.5 -22.5q60 0 107.5 25.5t81.5 67t52 94t18 107.5q0 75 -18 127.5t-45.5 86.5t-60 49.5t-60.5 15.5q-33 0 -67.5 -12t-67.5 -32.5t-63 -48t-53.5 -60t-39 -67.5t-19.5 -70zM556 346q0 -12 -0.5 -27.5t-5 -29t-14 -22.5t-27.5 -9q-10 0 -14.5 6t-6.5 14.5t-2.5 19
t-1.5 19.5q-21 -3 -42 -11t-37.5 -21.5t-27 -32t-10.5 -41.5q0 -21 9.5 -35.5t25 -24.5t35 -14.5t39.5 -4.5q14 0 28 5t29 5q13 0 17.5 -7.5t4.5 -15.5q0 -11 -9.5 -19.5t-23.5 -14.5t-30 -9t-29 -3q-38 0 -69.5 11t-54 30t-35.5 44t-13 52q0 38 19.5 70t52 55.5t74.5 36.5
t88 13q21 0 26 -12t5 -27z" />
    <glyph glyph-name="guillemotleft" unicode="&#xab;" horiz-adv-x="816" 
d="M327 501q12 12 25.5 27.5t29 29t33 23t37.5 9.5q11 0 20 -8t9 -18q0 -6 -3 -10q-16 -25 -39.5 -52t-51.5 -55t-57.5 -56t-56.5 -54q-10 -9 -21.5 -21.5t-23 -23.5t-20 -20t-12.5 -12q7 -13 29 -34t51 -46.5t61 -53.5t58.5 -54t43.5 -48t17 -36q0 -18 -8 -24.5t-14 -6.5
q-17 0 -29 7.5t-29.5 24t-45 42.5t-74.5 64q-45 35 -84.5 70.5t-64.5 70.5q-5 8 -5 14q0 7 7 17q9 13 26.5 32.5t38.5 42.5t44 47t44 45.5t38 39t27 27.5zM467 416q12 12 38 39.5t56.5 56t60.5 50t50 21.5q6 0 12 -3.5t10.5 -8.5t6 -11.5t-2.5 -12.5q-25 -31 -51 -61
t-58 -63.5t-73 -74t-96 -93.5q6 -9 27.5 -27.5t49.5 -42t60 -50t58 -51.5t43.5 -46.5t17.5 -35.5q0 -17 -7.5 -23.5t-14.5 -6.5q-17 0 -29.5 6.5t-31 23t-49 43t-82.5 67.5q-11 8 -29 24.5t-38.5 35.5t-40 37.5t-31.5 30.5q-6 6 -3.5 11l3.5 7q12 16 30 36.5t38 42t40 42.5
t36 37z" />
    <glyph glyph-name="logicalnot" unicode="&#xac;" horiz-adv-x="865" 
d="M121 222q-12 0 -19 9.5t-7 21.5q0 15 6.5 28t19.5 13q14 0 48.5 -0.5t82 -0.5t103.5 -1t112.5 -1t109.5 -0.5t95 -0.5q16 0 27 -12t11 -32v-183q-1 -9 -14 -14t-28 -5t-27.5 5t-12.5 14v153q0 1 -22 1.5t-58 1.5t-82 1.5t-93.5 0.5t-93 0.5t-81 0.5h-57t-20.5 0z" />
    <glyph glyph-name="registered" unicode="&#xae;" horiz-adv-x="922" 
d="M471 -170q-74 0 -142.5 29t-120.5 79t-83 116t-31 140q0 77 30 156.5t85.5 144t132.5 105.5t172 41q69 0 125.5 -33t97 -89t62.5 -131.5t22 -160.5q0 -71 -20 -142t-62.5 -127.5t-109 -92t-158.5 -35.5zM507 563q-73 0 -134 -32.5t-105.5 -84.5t-69 -117t-24.5 -130
q0 -58 23 -112t62 -95.5t90.5 -66.5t108.5 -25q73 0 125.5 29t86.5 75t50 103.5t16 115.5q0 33 -3.5 71.5t-13 76t-26 72.5t-42 61.5t-61 42.5t-83.5 16zM550 283q-29 -9 -41.5 -29.5t-18 -46.5t-8 -53.5t-9.5 -49.5q-2 -5 -9.5 -9t-15.5 -4q-13 0 -22.5 7.5t-9.5 23.5
q0 35 5.5 77.5t5.5 80.5q0 9 -4.5 18t-9.5 18.5t-9.5 19t-4.5 19.5t12 22t22 12t18.5 -7.5t14.5 -19.5t9.5 -26.5t5.5 -28.5q14 26 35.5 36t66.5 10q17 0 23 -8t6 -17q0 -21 -19 -29.5t-43 -15.5z" />
    <glyph glyph-name="macron" unicode="&#xaf;" horiz-adv-x="340" 
d="M16 630q-3 3 -3 8q0 17 31 21t81 4h68t66 -3t50 -10.5t20 -22.5q0 -8 -6.5 -13t-16 -7t-20.5 -2.5t-19 -0.5q-11 0 -23.5 0.5t-30.5 1.5t-44 1.5t-64 0.5h-25.5t-26 2t-22.5 6.5t-15 13.5z" />
    <glyph glyph-name="degree" unicode="&#xb0;" horiz-adv-x="441" 
d="M-14 784q2 4 4.5 8t5.5 8q20 44 55 78.5t89 38.5q40 2 68 -13t45.5 -40t25 -55.5t6.5 -58.5q-1 -27 -10.5 -62.5t-30 -67t-54.5 -53t-83 -18.5q-43 3 -78.5 31.5t-48.5 73.5q-18 57 6 130zM50 736q-3 -29 0 -55t19 -44q19 -24 40.5 -25t40.5 13t33.5 39t20.5 53
q2 13 2.5 28.5t-1 31t-4.5 29t-9 22.5q-13 20 -38 23q-21 3 -38 -6t-30.5 -25.5t-22.5 -38t-13 -45.5z" />
    <glyph glyph-name="plusminus" unicode="&#xb1;" horiz-adv-x="626" 
d="M111 284q-30 2 -48 9.5t-18 33.5q0 9 10.5 16t33.5 7q28 0 62.5 -0.5t72.5 -1.5q0 92 7.5 130t31.5 38q14 0 21.5 -6t7.5 -39q0 -26 -0.5 -57.5t-0.5 -66.5h135q10 0 15 -9t5 -18q0 -37 -77 -37h-79q-1 -39 -1 -78v-76q0 -10 -9 -15t-18 -5q-37 0 -37 77v96h-46.5
t-31 0.5t-21 1t-15.5 0.5zM144 1q-34 0 -44 13t-10 25q0 10 2 16t10.5 9t26.5 3.5t50 0.5h42t47 -0.5t64.5 -1.5t94.5 -2q10 0 15 -9t5 -18q0 -19 -12 -28t-53 -9h-55.5t-65 0.5t-64.5 0.5h-53z" />
    <glyph glyph-name="twosuperior" unicode="&#xb2;" horiz-adv-x="275" 
d="M-68 713q-9 1 -12.5 7t-4 14t1.5 15.5t5 11.5q7 10 17.5 22.5t25 24t33 20t42.5 11.5q26 5 44.5 -9.5t25.5 -32.5q7 -15 8.5 -35.5t-1 -44t-9 -47t-14.5 -44.5q-12 -32 -21.5 -56t-18 -44.5t-17 -40t-18.5 -41.5q25 4 46.5 7.5t45.5 7.5q4 0 6 -6.5t2 -15t-1 -16.5
t-2 -11q-10 -8 -30 -13t-44 -8t-49 -5.5t-44 -4.5q-5 0 -10.5 0.5t-9 3t-4 8t4.5 15.5q4 12 12 29t17.5 35.5t18.5 38.5t17 38q12 31 20.5 52.5t14 38t9 31.5t7.5 32q5 20 5.5 42.5t-13.5 30.5q-12 7 -24.5 0t-26 -19t-27.5 -24.5t-28 -17.5z" />
    <glyph glyph-name="threesuperior" unicode="&#xb3;" horiz-adv-x="356" 
d="M-75 846q-3 2 -3.5 8.5t1 14t5 14t6.5 7.5q5 2 13.5 1.5t13.5 -2.5q32 -2 57.5 -12.5t42 -25.5t22 -34t-1.5 -38t-22.5 -35t-31.5 -33q30 -5 59.5 -21.5t54.5 -37.5q25 -20 41 -44t18 -50q3 -30 -6 -59t-31.5 -52t-59 -38t-86.5 -17q-24 -2 -53.5 2.5t-45.5 15.5
q-2 2 -2.5 9.5t0 16t2.5 15.5t6 8q8 1 15 1h14q16 -2 31.5 -5.5t29.5 -1.5q27 2 51.5 12t40.5 25.5t21 36.5t-6 45q-6 17 -21 33.5t-35 29.5t-43 21.5t-45 9.5q-6 2 -12 1.5t-12 0.5q-6 0 -9.5 5.5t-6 12t-3 13t0.5 9.5q7 10 17.5 19t21 17.5t20 17.5t14.5 20q8 18 1.5 28.5
t-20.5 17t-32 10t-32 8.5z" />
    <glyph glyph-name="acute" unicode="&#xb4;" horiz-adv-x="340" 
d="M25 614q-4 4 -4 20q0 20 7 27.5t20.5 9.5t34.5 3t50 7q20 4 41 17.5t41.5 28t40 25.5t36.5 11q4 0 7 -4t5.5 -9.5t4 -11t1.5 -7.5q0 -24 -28 -47t-67.5 -41t-82.5 -29t-72 -11q-28 0 -35 11z" />
    <glyph glyph-name="paragraph" unicode="&#xb6;" horiz-adv-x="607" 
d="M351 789q-16 0 -37.5 -3t-43 -4.5t-40.5 -0.5t-29 9l-3 -246q-45 12 -79.5 25t-57.5 37q-14 13 -20.5 32.5t-8 41t2 42.5t10.5 36q7 24 19.5 43t35 31.5t58.5 19t90 6.5q20 1 50.5 3t64.5 2.5t69 -0.5t64 -6q6 -2 10.5 -6.5t6.5 -10t1 -10t-7 -5.5zM416 -394
q0 -3 -5.5 -10t-23.5 -7q-19 0 -24.5 8t-5.5 13v1215q1 4 10 6.5t19.5 3t19.5 -1.5t10 -6v-1221zM258 -303q0 -4 -5.5 -12.5t-25.5 -8.5q-19 0 -24.5 10t-5.5 15v184v114t-0.5 115t-0.5 111.5v103.5v499q1 4 10.5 6.5t20.5 3t20.5 -1.5t10.5 -6v-1133z" />
    <glyph glyph-name="periodcentered" unicode="&#xb7;" horiz-adv-x="426" 
d="M136 263q8 26 26 36.5t47 10.5q23 -2 39.5 -18.5t15.5 -33.5q0 -14 -2 -24.5t-8.5 -18t-19.5 -12t-35 -5.5q-12 -1 -23.5 0.5t-21 7.5t-15.5 16.5t-6 28.5q0 7 3 12z" />
    <glyph glyph-name="cedilla" unicode="&#xb8;" horiz-adv-x="427" 
d="M30 -150q-1 2 -1 6q0 14 11 21.5t24 7.5q9 0 23.5 -10.5t32 -23.5t36 -23.5t36.5 -10.5q15 0 26 6t17.5 16t10 21.5t3.5 23.5q0 22 -14 40t-31.5 33.5t-31.5 28t-14 24.5q0 17 12 20t24 3q11 0 34 -12.5t46.5 -33t41 -46t17.5 -52.5q0 -26 -10.5 -51t-29.5 -44
t-45.5 -30.5t-57.5 -11.5t-57.5 9t-47 23t-35 31.5t-20.5 34.5z" />
    <glyph glyph-name="onesuperior" unicode="&#xb9;" horiz-adv-x="341" 
d="M3 384q-8 0 -12 5t-5.5 11.5t-1 13t2.5 9.5q11 10 29.5 17.5t45.5 8.5q-2 45 -4 81t-4 70.5t-4.5 71t-5.5 81.5q-8 -13 -20.5 -30.5t-27 -34t-31 -29.5t-32.5 -16q-6 0 -9.5 5t-5.5 12t-2.5 13.5t1.5 8.5q4 7 12.5 13.5t18.5 14.5q13 11 28.5 30t31 39.5t30.5 39.5t29 31
q4 1 10.5 0.5t13 -2.5t11.5 -5t5 -7q4 -52 7 -99t6 -93.5t5.5 -94t4.5 -99.5l19 1q13 1 21.5 -6t13.5 -16q1 -3 1.5 -9.5t-1 -13.5t-5.5 -12t-11 -5q-17 0 -38.5 -1t-43.5 -1.5t-43.5 -1.5t-39.5 -1z" />
    <glyph glyph-name="guillemotright" unicode="&#xbb;" horiz-adv-x="816" 
d="M484.04 501q-11.999 12 -25.4971 27.5t-28.9961 29t-32.9961 23t-37.4961 9.5q-10.998 0 -19.9971 -8t-8.99902 -18q0 -6 3 -10q15.998 -25 39.4951 -52t51.4932 -55q27.9971 -28 57.4932 -56q29.4971 -28 56.4932 -54q9.99902 -9 21.4971 -21.5
q11.499 -12.5 22.998 -23.5q11.498 -11 19.9971 -20t12.498 -12q-6.99902 -13 -28.9961 -34t-50.9941 -46.5q-28.9961 -25.5 -60.9922 -53.5t-58.4932 -54q-26.4961 -26 -43.4941 -48t-16.998 -36q0 -18 7.99902 -24.5t13.998 -6.5q16.998 0 28.9971 7.5
q11.998 7.5 29.4961 24t44.9941 42.5q27.4971 26 74.4912 64q44.9941 35 84.4893 70.5t64.4922 70.5q5 8 5 14q0 7 -6.99902 17q-8.99902 13 -26.4971 32.5t-38.4951 42.5q-20.998 23 -43.9951 47t-43.9941 45.5q-20.998 21.5 -37.9951 39q-16.998 17.5 -26.9971 27.5z
M344.057 416q-11.998 12 -37.9951 39.5t-56.4932 56t-60.4922 50t-49.9941 21.5q-5.99902 0 -11.998 -3.5q-6 -3.5 -10.499 -8.5q-4.5 -5 -5.99902 -11.5q-1.5 -6.5 2.49902 -12.5q24.9971 -31 50.9941 -61t57.9932 -63.5t72.9902 -74q40.9951 -40.5 95.9883 -93.5
q-5.99902 -9 -27.4961 -27.5t-49.4941 -42q-27.9961 -23.5 -59.9922 -50t-57.9932 -51.5t-43.4951 -46.5t-17.498 -35.5q0 -17 7.5 -23.5q7.49902 -6.5 14.498 -6.5q16.998 0 29.4961 6.5t30.9961 23t48.9941 43t82.4902 67.5q10.998 8 28.9961 24.5t38.4951 35.5
q20.498 19 39.9951 37.5q19.498 18.5 31.4961 30.5q6 6 3.5 11l-3.5 7q-11.998 16 -29.9961 36.5t-37.9951 42q-19.998 21.5 -39.9951 42.5q-19.998 21 -35.9961 37z" />
    <glyph glyph-name="onequarter" unicode="&#xbc;" horiz-adv-x="672" 
d="M511 157q8 2 22.5 2.5t19.5 -6.5q2 -14 1.5 -27t-0.5 -28q11 1 21.5 1h21.5q5 0 8 -7t3.5 -15.5t-1 -16.5t-4.5 -11q-13 -7 -24.5 -8.5t-25.5 -1.5v-12t-0.5 -13.5t-1 -23t-0.5 -41.5q-1 -29 -1 -57t3 -62q0 -7 -8.5 -11.5t-17.5 -1.5q-4 2 -11 4.5t-13.5 5.5t-12 7.5
t-5.5 10.5v66q0 16 0.5 29.5t1 28t1 31t0.5 37.5h-25t-28.5 0.5t-28 1.5t-22.5 2q-7 2 -10.5 11.5t-2.5 15.5l14 91q5 31 12 63t22 50q3 1 11.5 0.5t17 -2t15 -4t6.5 -6.5q-2 -10 -3.5 -20t-4.5 -21q-8 -29 -13.5 -61t-9.5 -62h26t25 -1l1 19q1 17 4 26t17 17zM496 844
q2 3 6.5 4t9.5 1q11 0 20.5 -3t9.5 -17q0 -2 -0.5 -3t-0.5 -3q-9 -39 -22.5 -83t-33 -99.5t-46 -124t-61 -155.5t-77.5 -196t-96 -244q-6 -14 -14 -31.5t-17.5 -33t-20.5 -26t-21 -10.5q-11 0 -19 6.5t-8 15.5q0 4 1 6q12 37 33.5 99t60.5 167q18 49 33.5 89t30 77t28.5 73
t30 76.5t34 87t40 105.5q10 27 22 58.5t25 61.5t26.5 56.5t26.5 45.5zM48 381q-8 0 -12 5t-5.5 11.5t-1 13t2.5 9.5q11 10 29.5 17.5t45.5 8.5q-2 45 -4 81t-4 70.5t-4.5 71t-5.5 81.5q-8 -13 -20.5 -30.5t-27 -34t-31 -29.5t-32.5 -16q-6 0 -9.5 5t-5.5 12t-2.5 13.5
t1.5 8.5q4 7 12.5 13.5t18.5 14.5q13 11 28.5 30t31 39.5t30.5 39.5t29 31q4 1 10.5 0.5t13 -2.5t11.5 -5t5 -7q4 -52 7 -99t6 -93.5t5.5 -94t4.5 -99.5l19 1q13 1 21.5 -6t13.5 -16q1 -3 1.5 -9.5t-1 -13.5t-5.5 -12t-11 -5q-17 0 -38.5 -1t-43.5 -1.5t-43.5 -1.5t-39.5 -1
z" />
    <glyph glyph-name="onehalf" unicode="&#xbd;" horiz-adv-x="672" 
d="M485 844q2 3 6.5 4t9.5 1q11 0 20.5 -3t9.5 -17q0 -2 -0.5 -3t-0.5 -3q-9 -39 -22.5 -83t-33 -99.5t-46 -124t-61 -155.5t-77.5 -196t-96 -244q-6 -14 -14 -31.5t-17.5 -33t-20.5 -26t-21 -10.5q-11 0 -19 6.5t-8 15.5q0 4 1 6q12 37 33.5 99t60.5 167q18 49 33.5 89
t30 77t28.5 73t30 76.5t34 87t40 105.5q10 27 22 58.5t25 61.5t26.5 56.5t26.5 45.5zM50 384q-8 0 -12 5t-5.5 11.5t-1 13t2.5 9.5q11 10 29.5 17.5t45.5 8.5q-2 45 -4 81t-4 70.5t-4.5 71t-5.5 81.5q-8 -13 -20.5 -30.5t-27 -34t-31 -29.5t-32.5 -16q-6 0 -9.5 5t-5.5 12
t-2.5 13.5t1.5 8.5q4 7 12.5 13.5t18.5 14.5q13 11 28.5 30t31 39.5t30.5 39.5t29 31q4 1 10.5 0.5t13 -2.5t11.5 -5t5 -7q4 -52 7 -99t6 -93.5t5.5 -94t4.5 -99.5l19 1q13 1 21.5 -6t13.5 -16q1 -3 1.5 -9.5t-1 -13.5t-5.5 -12t-11 -5q-17 0 -38.5 -1t-43.5 -1.5
t-43.5 -1.5t-39.5 -1zM406 147q-9 1 -12.5 7t-4 14t1.5 15.5t5 11.5q7 10 17.5 22.5t25 24t33 20t42.5 11.5q26 5 44.5 -9.5t25.5 -32.5q7 -15 8.5 -35.5t-1 -44t-9 -47t-14.5 -44.5q-12 -32 -21.5 -56t-18 -44.5t-17 -40t-18.5 -41.5q25 4 46.5 7.5t45.5 7.5q4 0 6 -6.5
t2 -15t-1 -16.5t-2 -11q-10 -8 -30 -13t-44 -8t-49 -5.5t-44 -4.5q-5 0 -10.5 0.5t-9 3t-4 8t4.5 15.5q4 12 12 29t17.5 35.5t18.5 38.5t17 38q12 31 20.5 52.5t14 38t9 31.5t7.5 32q5 20 5.5 42.5t-13.5 30.5q-12 7 -24.5 0t-26 -19t-27.5 -24.5t-28 -17.5z" />
    <glyph glyph-name="threequarters" unicode="&#xbe;" horiz-adv-x="672" 
d="M514 160q8 2 22.5 2.5t19.5 -6.5q2 -14 1.5 -27t-0.5 -28q11 1 21.5 1h21.5q5 0 8 -7t3.5 -15.5t-1 -16.5t-4.5 -11q-13 -7 -24.5 -8.5t-25.5 -1.5v-12t-0.5 -13.5t-1 -23t-0.5 -41.5q-1 -29 -1 -57t3 -62q0 -7 -8.5 -11.5t-17.5 -1.5q-4 2 -11 4.5t-13.5 5.5t-12 7.5
t-5.5 10.5v66q0 16 0.5 29.5t1 28t1 31t0.5 37.5h-25t-28.5 0.5t-28 1.5t-22.5 2q-7 2 -10.5 11.5t-2.5 15.5l14 91q5 31 12 63t22 50q3 1 11.5 0.5t17 -2t15 -4t6.5 -6.5q-2 -10 -3.5 -20t-4.5 -21q-8 -29 -13.5 -61t-9.5 -62h26t25 -1l1 19q1 17 4 26t17 17zM496 844
q2 3 6.5 4t9.5 1q11 0 20.5 -3t9.5 -17q0 -2 -0.5 -3t-0.5 -3q-9 -39 -22.5 -83t-33 -99.5t-46 -124t-61 -155.5t-77.5 -196t-96 -244q-6 -14 -14 -31.5t-17.5 -33t-20.5 -26t-21 -10.5q-11 0 -19 6.5t-8 15.5q0 4 1 6q12 37 33.5 99t60.5 167q18 49 33.5 89t30 77t28.5 73
t30 76.5t34 87t40 105.5q10 27 22 58.5t25 61.5t26.5 56.5t26.5 45.5zM33 836q-3 2 -3.5 8.5t1 14t5 14t6.5 7.5q5 2 13.5 1.5t13.5 -2.5q32 -2 57.5 -12.5t42 -25.5t22 -34t-1.5 -38t-22.5 -35t-31.5 -33q30 -5 59.5 -21.5t54.5 -37.5q25 -20 41 -44t18 -50q3 -30 -6 -59
t-31.5 -52t-59 -38t-86.5 -17q-24 -2 -53.5 2.5t-45.5 15.5q-2 2 -2.5 9.5t0 16t2.5 15.5t6 8q8 1 15 1h14q16 -2 31.5 -5.5t29.5 -1.5q27 2 51.5 12t40.5 25.5t21 36.5t-6 45q-6 17 -21 33.5t-35 29.5t-43 21.5t-45 9.5q-6 2 -12 1.5t-12 0.5q-6 0 -9.5 5.5t-6 12t-3 13
t0.5 9.5q7 10 17.5 19t21 17.5t20 17.5t14.5 20q8 18 1.5 28.5t-20.5 17t-32 10t-32 8.5z" />
    <glyph glyph-name="questiondown" unicode="&#xbf;" horiz-adv-x="465" 
d="M278.021 -191.917q-2 3 -2 6v4.99902q0 14.998 9.99805 24.4971q9.99902 9.49902 24.9971 9.49902q14.999 0 26.9971 -15.498t19.498 -36.9961q7.49902 -21.4971 11.498 -44.4941q4 -22.9971 4 -37.9951q0 -29.9971 -11.499 -58.9932t-33.9961 -51.4941
q-22.4971 -22.4971 -55.4932 -35.9951t-76.9902 -13.498q-48.9941 0 -83.9902 15.998q-34.9951 15.998 -57.9922 41.4941q-22.998 25.4971 -33.9961 58.4932q-10.999 32.9961 -10.999 66.9922q0 45.9941 10.499 90.9883q10.499 44.9951 28.4961 86.9902
q24.9971 56.9922 61.9932 114.985q36.9951 57.9932 71.4912 116.486q34.4951 58.4922 59.4922 117.485q24.9971 58.9922 26.9971 116.985q1 16.998 12.498 26.9971q11.499 9.99902 29.4971 9.99902q13.998 0 26.9961 -8.49902q12.999 -8.49902 12.999 -26.4971
q0 -45.9941 -8.99902 -82.4902q-8.99902 -36.4951 -24.4971 -69.4912t-36.4961 -66.4922q-20.9971 -33.4961 -44.9941 -73.4902q-21.9971 -37.9961 -47.4941 -78.9912t-47.4941 -83.4893q-21.9971 -42.4951 -35.9961 -85.9893q-13.998 -43.4951 -13.998 -86.4902
q0 -57.9922 29.9961 -93.9883q29.9971 -35.9951 80.9902 -35.9951q18.998 0 36.9961 6.99902q17.9971 6.99902 31.4961 19.4971q13.498 12.499 21.9971 29.4971q8.49902 16.9971 8.49902 36.9951t-6.49902 40.9951q-6.5 20.9971 -14.498 43.9941zM360.011 567.99
q0 -28.9961 -21.9971 -45.4941t-50.9941 -16.498q-23.9971 0 -34.9951 15.498q-10.999 15.498 -10.999 29.4961q0 11.999 2 22.498q2 10.498 8.49902 18.4971t17.998 12.999q11.498 4.99902 30.4961 4.99902q11.998 0 22.4971 -1t18.998 -5.49902
q8.49805 -4.5 13.498 -12.498q4.99902 -8 4.99902 -22.998z" />
    <glyph glyph-name="Agrave" unicode="&#xc0;" horiz-adv-x="605" 
d="M211 82q-18 0 -39 6.5t-42 19t-40 31.5t-32 45q-14 -26 -27.5 -43t-30.5 -17q-19 0 -27.5 12t-8.5 23q0 6 6 18t14.5 25.5t18.5 27.5t18 25q-7 31 -7 74q0 37 9 77t29 73.5t53.5 55t83.5 21.5q54 0 91 -28.5t59.5 -70.5t32.5 -91t10 -90q0 -23 -3.5 -41.5t-10.5 -34.5
q11 -26 26.5 -43.5t31.5 -28t31.5 -15t27.5 -4.5q27 0 43 13.5t27.5 29t22 29t26.5 13.5q15 0 25.5 -10t10.5 -26q0 -6 -10 -25.5t-29.5 -40.5t-48.5 -37t-67 -16q-28 0 -53 8.5t-45.5 22t-36.5 30.5t-26 33q-42 -51 -113 -51zM191 486q-30 -1 -50.5 -16t-32.5 -37.5
t-17.5 -50t-5.5 -53.5q0 -32 10.5 -63.5t28 -57t40 -41t47.5 -15.5q22 0 40.5 11.5t32 29.5t20.5 40t7 43q0 28 -6.5 64.5t-20.5 68.5t-37 54.5t-56 22.5zM287 621q-33 -1 -77.5 8.5t-84 26.5t-67 38.5t-27.5 44.5q0 6 8.5 16.5t16.5 10.5q10 0 30 -12l45 -27t51.5 -28.5
t50.5 -16.5q13 -2 37.5 -1.5t44.5 -4.5q11 -3 15 -12t4 -16q0 -16 -14.5 -21t-32.5 -6z" />
    <glyph glyph-name="Aacute" unicode="&#xc1;" horiz-adv-x="605" 
d="M211 82q-18 0 -39 6.5t-42 19t-40 31.5t-32 45q-14 -26 -27.5 -43t-30.5 -17q-19 0 -27.5 12t-8.5 23q0 6 6 18t14.5 25.5t18.5 27.5t18 25q-7 31 -7 74q0 37 9 77t29 73.5t53.5 55t83.5 21.5q54 0 91 -28.5t59.5 -70.5t32.5 -91t10 -90q0 -23 -3.5 -41.5t-10.5 -34.5
q11 -26 26.5 -43.5t31.5 -28t31.5 -15t27.5 -4.5q27 0 43 13.5t27.5 29t22 29t26.5 13.5q15 0 25.5 -10t10.5 -26q0 -6 -10 -25.5t-29.5 -40.5t-48.5 -37t-67 -16q-28 0 -53 8.5t-45.5 22t-36.5 30.5t-26 33q-42 -51 -113 -51zM191 486q-30 -1 -50.5 -16t-32.5 -37.5
t-17.5 -50t-5.5 -53.5q0 -32 10.5 -63.5t28 -57t40 -41t47.5 -15.5q22 0 40.5 11.5t32 29.5t20.5 40t7 43q0 28 -6.5 64.5t-20.5 68.5t-37 54.5t-56 22.5zM123 628q-4 4 -4 20q0 20 7 27.5t20.5 9.5t34.5 3t50 7q20 4 41 17.5t41.5 28t40 25.5t36.5 11q4 0 7 -4t5.5 -9.5
t4 -11t1.5 -7.5q0 -24 -28 -47t-67.5 -41t-82.5 -29t-72 -11q-28 0 -35 11z" />
    <glyph glyph-name="Acircumflex" unicode="&#xc2;" horiz-adv-x="605" 
d="M211 82q-18 0 -39 6.5t-42 19t-40 31.5t-32 45q-14 -26 -27.5 -43t-30.5 -17q-19 0 -27.5 12t-8.5 23q0 6 6 18t14.5 25.5t18.5 27.5t18 25q-7 31 -7 74q0 37 9 77t29 73.5t53.5 55t83.5 21.5q54 0 91 -28.5t59.5 -70.5t32.5 -91t10 -90q0 -23 -3.5 -41.5t-10.5 -34.5
q11 -26 26.5 -43.5t31.5 -28t31.5 -15t27.5 -4.5q27 0 43 13.5t27.5 29t22 29t26.5 13.5q15 0 25.5 -10t10.5 -26q0 -6 -10 -25.5t-29.5 -40.5t-48.5 -37t-67 -16q-28 0 -53 8.5t-45.5 22t-36.5 30.5t-26 33q-42 -51 -113 -51zM191 486q-30 -1 -50.5 -16t-32.5 -37.5
t-17.5 -50t-5.5 -53.5q0 -32 10.5 -63.5t28 -57t40 -41t47.5 -15.5q22 0 40.5 11.5t32 29.5t20.5 40t7 43q0 28 -6.5 64.5t-20.5 68.5t-37 54.5t-56 22.5zM415 647q1 -2 1 -7q0 -10 -9.5 -18.5t-18.5 -8.5q-4 0 -6 1q-14 9 -35 30t-44 42.5t-45.5 38t-40.5 16.5
q-20 0 -43.5 -14t-47 -33.5t-47 -41.5t-43.5 -38q-4 -2 -6 -2q-9 0 -18 8.5t-9 18.5q0 18 24.5 47.5t58.5 57.5t68 48.5t54 20.5q25 0 56.5 -16.5t60.5 -41.5t53.5 -54t36.5 -54z" />
    <glyph glyph-name="Atilde" unicode="&#xc3;" horiz-adv-x="605" 
d="M211 82q-18 0 -39 6.5t-42 19t-40 31.5t-32 45q-14 -26 -27.5 -43t-30.5 -17q-19 0 -27.5 12t-8.5 23q0 6 6 18t14.5 25.5t18.5 27.5t18 25q-7 31 -7 74q0 37 9 77t29 73.5t53.5 55t83.5 21.5q54 0 91 -28.5t59.5 -70.5t32.5 -91t10 -90q0 -23 -3.5 -41.5t-10.5 -34.5
q11 -26 26.5 -43.5t31.5 -28t31.5 -15t27.5 -4.5q27 0 43 13.5t27.5 29t22 29t26.5 13.5q15 0 25.5 -10t10.5 -26q0 -6 -10 -25.5t-29.5 -40.5t-48.5 -37t-67 -16q-28 0 -53 8.5t-45.5 22t-36.5 30.5t-26 33q-42 -51 -113 -51zM191 486q-30 -1 -50.5 -16t-32.5 -37.5
t-17.5 -50t-5.5 -53.5q0 -32 10.5 -63.5t28 -57t40 -41t47.5 -15.5q22 0 40.5 11.5t32 29.5t20.5 40t7 43q0 28 -6.5 64.5t-20.5 68.5t-37 54.5t-56 22.5zM99 727q-11 0 -20 -5t-17 -11t-16 -11t-17 -5q-17 0 -24 8.5t-7 18.5q0 16 10.5 29.5t25.5 23.5t32 16t30 6
q27 0 50.5 -11.5t45.5 -25t42 -25t38 -11.5q20 0 35 13t28.5 28.5t28 28.5t33.5 13q13 0 23 -9t8 -17q-6 -21 -22 -43.5t-38 -41t-47 -30t-50 -11.5t-48 11t-44.5 24.5t-41.5 25t-38 11.5z" />
    <glyph glyph-name="Adieresis" unicode="&#xc4;" horiz-adv-x="605" 
d="M211 82q-18 0 -39 6.5t-42 19t-40 31.5t-32 45q-14 -26 -27.5 -43t-30.5 -17q-19 0 -27.5 12t-8.5 23q0 6 6 18t14.5 25.5t18.5 27.5t18 25q-7 31 -7 74q0 37 9 77t29 73.5t53.5 55t83.5 21.5q54 0 91 -28.5t59.5 -70.5t32.5 -91t10 -90q0 -23 -3.5 -41.5t-10.5 -34.5
q11 -26 26.5 -43.5t31.5 -28t31.5 -15t27.5 -4.5q27 0 43 13.5t27.5 29t22 29t26.5 13.5q15 0 25.5 -10t10.5 -26q0 -6 -10 -25.5t-29.5 -40.5t-48.5 -37t-67 -16q-28 0 -53 8.5t-45.5 22t-36.5 30.5t-26 33q-42 -51 -113 -51zM191 486q-30 -1 -50.5 -16t-32.5 -37.5
t-17.5 -50t-5.5 -53.5q0 -32 10.5 -63.5t28 -57t40 -41t47.5 -15.5q22 0 40.5 11.5t32 29.5t20.5 40t7 43q0 28 -6.5 64.5t-20.5 68.5t-37 54.5t-56 22.5zM62 673q2 22 20.5 33t41.5 11t34 -15t11 -29q0 -24 -15 -37t-53 -13q-18 0 -29 11.5t-11 29.5q0 6 1 9zM248 677
q2 21 20.5 32t41.5 11t33.5 -14t10.5 -28q0 -24 -13 -38t-53 -14q-18 0 -29.5 12t-11.5 30q0 6 1 9z" />
    <glyph glyph-name="Aring" unicode="&#xc5;" horiz-adv-x="605" 
d="M211 82q-18 0 -39 6.5t-42 19t-40 31.5t-32 45q-14 -26 -27.5 -43t-30.5 -17q-19 0 -27.5 12t-8.5 23q0 6 6 18t14.5 25.5t18.5 27.5t18 25q-7 31 -7 74q0 37 9 77t29 73.5t53.5 55t83.5 21.5q54 0 91 -28.5t59.5 -70.5t32.5 -91t10 -90q0 -23 -3.5 -41.5t-10.5 -34.5
q11 -26 26.5 -43.5t31.5 -28t31.5 -15t27.5 -4.5q27 0 43 13.5t27.5 29t22 29t26.5 13.5q15 0 25.5 -10t10.5 -26q0 -6 -10 -25.5t-29.5 -40.5t-48.5 -37t-67 -16q-28 0 -53 8.5t-45.5 22t-36.5 30.5t-26 33q-42 -51 -113 -51zM191 486q-30 -1 -50.5 -16t-32.5 -37.5
t-17.5 -50t-5.5 -53.5q0 -32 10.5 -63.5t28 -57t40 -41t47.5 -15.5q22 0 40.5 11.5t32 29.5t20.5 40t7 43q0 28 -6.5 64.5t-20.5 68.5t-37 54.5t-56 22.5zM67 748q0 53 32.5 86t94.5 33q72 0 108 -34.5t36 -91.5q0 -29 -11 -52t-29.5 -38.5t-42.5 -23.5t-50 -8q-27 0 -52 8
t-44 23.5t-30.5 40t-11.5 57.5zM195 797q-31 0 -44 -15t-13 -34q0 -29 16.5 -45.5t49.5 -16.5q23 0 42.5 15.5t19.5 39.5t-15 40t-56 16z" />
    <glyph glyph-name="AE" unicode="&#xc6;" horiz-adv-x="896" 
d="M495 541q52 0 87 -32t35 -86q0 -45 -17 -87t-45 -78.5t-65 -67t-76 -53.5q29 -58 75.5 -82.5t104.5 -24.5q40 0 77.5 14t72 36t66 49.5t60.5 54.5q12 10 26 10q13 0 24 -9t11 -27q0 -15 -11 -26q-75 -85 -153 -128.5t-173 -43.5q-44 0 -85 13t-75.5 37t-60.5 57.5
t-41 73.5q-22 -26 -56.5 -42.5t-64.5 -16.5q-18 0 -39 6.5t-42 19t-40 31.5t-32 45q-14 -26 -27.5 -43t-30.5 -17q-19 0 -27.5 12t-8.5 23q0 6 6 18t14.5 25.5t18.5 27.5t18 25q-7 31 -7 74q0 37 9 77t29 73.5t53.5 55t83.5 21.5q59 0 98 -34t61 -83q20 45 55 73.5t92 28.5z
M191 486q-30 -1 -50.5 -16t-32.5 -37.5t-17.5 -50t-5.5 -53.5q0 -32 10.5 -63.5t28 -57t40 -41t47.5 -15.5q22 0 40.5 11.5t32 29.5t20.5 40t7 43q0 28 -6.5 64.5t-20.5 68.5t-37 54.5t-56 22.5zM495 471q-29 0 -50 -20t-34.5 -50.5t-20.5 -67t-7 -69.5t6 -58q28 18 56 40
t50.5 49t36.5 59t14 69q0 24 -14 36t-37 12z" />
    <glyph glyph-name="Ccedilla" unicode="&#xc7;" horiz-adv-x="517" 
d="M85 -132q-2 8 3 19q11 16 31 16q7 0 13 -2.5t12 -5.5q7 -7 20 -17.5t27 -20t29 -16.5t27 -7t24 5.5t20.5 16t12 24t-0.5 30.5q-1 13 -9 26t-19.5 25t-25 23t-25.5 20v-1q-13 13 -13 23q0 8 5.5 13.5t13.5 8.5t16.5 3.5t13.5 -2.5q9 -2 29.5 -14t41.5 -30t37.5 -40
t18.5 -43q1 -6 1.5 -13t-1.5 -15q-3 -21 -16.5 -43t-33 -40t-43.5 -29.5t-49 -12.5q-31 0 -57.5 9.5t-47 23.5t-35 31.5t-20.5 34.5zM488 179q4 5 11 10t18 5q13 0 24 -10t11 -24t-7 -24q-21 -28 -47 -54.5t-58 -46.5t-69.5 -32.5t-80.5 -12.5q-46 0 -83.5 17t-65 46.5
t-45.5 68t-26 81.5q-8 -10 -18 -30t-23 -34q-14 -15 -30 -15q-21 0 -28 12.5t-7 22.5q0 7 11 26.5t26.5 42.5t32.5 45.5t28 36.5q8 39 22.5 75t36.5 63.5t53.5 44t74.5 16.5q26 0 50 -8.5t45 -23.5t38 -34.5t29 -41.5q6 -12 6 -23q0 -16 -9 -24t-22 -8q-18 0 -27 12
q-22 30 -48 55t-61 25q-28 0 -50.5 -14.5t-38 -37.5t-23.5 -51.5t-8 -55.5q0 -46 10 -86t30 -69.5t50 -46.5t70 -17q35 0 64.5 10.5t54 28t44.5 38.5t35 42z" />
    <glyph glyph-name="Egrave" unicode="&#xc8;" horiz-adv-x="539" 
d="M137 541q52 0 87 -32t35 -86q0 -45 -17 -87t-45 -78.5t-65 -67t-76 -53.5q29 -58 75.5 -82.5t104.5 -24.5q40 0 77.5 14t72 36t66 49.5t60.5 54.5q12 10 26 10q13 0 24 -9t11 -27q0 -15 -11 -26q-75 -85 -153 -128.5t-173 -43.5q-57 0 -107.5 21.5t-88.5 59.5t-60.5 89
t-22.5 110q0 54 7.5 107.5t27.5 96.5t55 70t90 27zM137 471q-29 0 -50 -20t-34.5 -50.5t-20.5 -67t-7 -69.5t6 -58q28 18 56 40t50.5 49t36.5 59t14 69q0 24 -14 36t-37 12zM286 651q-33 -1 -77.5 8.5t-84 26.5t-67 38.5t-27.5 44.5q0 6 8.5 16.5t16.5 10.5q10 0 30 -12
l45 -27t51.5 -28.5t50.5 -16.5q13 -2 37.5 -1.5t44.5 -4.5q11 -3 15 -12t4 -16q0 -16 -14.5 -21t-32.5 -6z" />
    <glyph glyph-name="Eacute" unicode="&#xc9;" horiz-adv-x="539" 
d="M137 541q52 0 87 -32t35 -86q0 -45 -17 -87t-45 -78.5t-65 -67t-76 -53.5q29 -58 75.5 -82.5t104.5 -24.5q40 0 77.5 14t72 36t66 49.5t60.5 54.5q12 10 26 10q13 0 24 -9t11 -27q0 -15 -11 -26q-75 -85 -153 -128.5t-173 -43.5q-57 0 -107.5 21.5t-88.5 59.5t-60.5 89
t-22.5 110q0 54 7.5 107.5t27.5 96.5t55 70t90 27zM137 471q-29 0 -50 -20t-34.5 -50.5t-20.5 -67t-7 -69.5t6 -58q28 18 56 40t50.5 49t36.5 59t14 69q0 24 -14 36t-37 12zM104 660q-4 4 -4 20q0 20 7 27.5t20.5 9.5t34.5 3t50 7q20 4 41 17.5t41.5 28t40 25.5t36.5 11
q4 0 7 -4t5.5 -9.5t4 -11t1.5 -7.5q0 -24 -28 -47t-67.5 -41t-82.5 -29t-72 -11q-28 0 -35 11z" />
    <glyph glyph-name="Ecircumflex" unicode="&#xca;" horiz-adv-x="545" 
d="M143 541q52 0 87 -32t35 -86q0 -45 -17 -87t-45 -78.5t-65 -67t-76 -53.5q29 -58 75.5 -82.5t104.5 -24.5q40 0 77.5 14t72 36t66 49.5t60.5 54.5q12 10 26 10q13 0 24 -9t11 -27q0 -15 -11 -26q-75 -85 -153 -128.5t-173 -43.5q-57 0 -107.5 21.5t-88.5 59.5t-60.5 89
t-22.5 110q0 54 7.5 107.5t27.5 96.5t55 70t90 27zM143 471q-29 0 -50 -20t-34.5 -50.5t-20.5 -67t-7 -69.5t6 -58q28 18 56 40t50.5 49t36.5 59t14 69q0 24 -14 36t-37 12zM359 662q1 -2 1 -7q0 -10 -9.5 -18.5t-18.5 -8.5q-4 0 -6 1q-14 9 -35 30t-44 42.5t-45.5 38
t-40.5 16.5q-20 0 -43.5 -14t-47 -33.5t-47 -41.5t-43.5 -38q-4 -2 -6 -2q-9 0 -18 8.5t-9 18.5q0 18 24.5 47.5t58.5 57.5t68 48.5t54 20.5q25 0 56.5 -16.5t60.5 -41.5t53.5 -54t36.5 -54z" />
    <glyph glyph-name="Edieresis" unicode="&#xcb;" horiz-adv-x="539" 
d="M137 541q52 0 87 -32t35 -86q0 -45 -17 -87t-45 -78.5t-65 -67t-76 -53.5q29 -58 75.5 -82.5t104.5 -24.5q40 0 77.5 14t72 36t66 49.5t60.5 54.5q12 10 26 10q13 0 24 -9t11 -27q0 -15 -11 -26q-75 -85 -153 -128.5t-173 -43.5q-57 0 -107.5 21.5t-88.5 59.5t-60.5 89
t-22.5 110q0 54 7.5 107.5t27.5 96.5t55 70t90 27zM137 471q-29 0 -50 -20t-34.5 -50.5t-20.5 -67t-7 -69.5t6 -58q28 18 56 40t50.5 49t36.5 59t14 69q0 24 -14 36t-37 12zM8 672q2 22 20.5 33t41.5 11t34 -15t11 -29q0 -24 -15 -37t-53 -13q-18 0 -29 11.5t-11 29.5
q0 6 1 9zM194 676q2 21 20.5 32t41.5 11t33.5 -14t10.5 -28q0 -24 -13 -38t-53 -14q-18 0 -29.5 12t-11.5 30q0 6 1 9z" />
    <glyph glyph-name="Igrave" unicode="&#xcc;" horiz-adv-x="428" 
d="M54 186q-2 -9 -6.5 -20t-11.5 -20t-16 -15.5t-20 -6.5q-18 0 -27 11.5t-9 22.5q0 9 4 17q13 20 26 44.5t13 48.5q0 12 1 23t4.5 20t12 14.5t23.5 5.5q14 0 20 -8.5t7 -10.5q3 -5 6 -17q8 -24 22 -61t36 -72t53.5 -60.5t74.5 -25.5q18 0 37.5 10t37.5 25.5t33 33t23 32.5
q5 8 13.5 12.5t17.5 4.5q11 0 23 -8t12 -27q0 -12 -8 -24q-17 -25 -38 -48t-45 -41t-51 -29t-55 -11q-39 0 -75 15.5t-64.5 41t-47.5 58t-26 65.5zM51 472q-33 -1 -77.5 8.5t-84 26.5t-67 38.5t-27.5 44.5q0 6 8.5 16.5t16.5 10.5q10 0 30 -12l45 -27t51.5 -28.5t50.5 -16.5
q13 -2 37.5 -1.5t44.5 -4.5q11 -3 15 -12t4 -16q0 -16 -14.5 -21t-32.5 -6z" />
    <glyph glyph-name="Iacute" unicode="&#xcd;" horiz-adv-x="428" 
d="M54 186q-2 -9 -6.5 -20t-11.5 -20t-16 -15.5t-20 -6.5q-18 0 -27 11.5t-9 22.5q0 9 4 17q13 20 26 44.5t13 48.5q0 12 1 23t4.5 20t12 14.5t23.5 5.5q14 0 20 -8.5t7 -10.5q3 -5 6 -17q8 -24 22 -61t36 -72t53.5 -60.5t74.5 -25.5q18 0 37.5 10t37.5 25.5t33 33t23 32.5
q5 8 13.5 12.5t17.5 4.5q11 0 23 -8t12 -27q0 -12 -8 -24q-17 -25 -38 -48t-45 -41t-51 -29t-55 -11q-39 0 -75 15.5t-64.5 41t-47.5 58t-26 65.5zM25 511q-4 4 -4 20q0 20 7 27.5t20.5 9.5t34.5 3t50 7q20 4 41 17.5t41.5 28t40 25.5t36.5 11q4 0 7 -4t5.5 -9.5t4 -11
t1.5 -7.5q0 -24 -28 -47t-67.5 -41t-82.5 -29t-72 -11q-28 0 -35 11z" />
    <glyph glyph-name="Icircumflex" unicode="&#xce;" horiz-adv-x="428" 
d="M54 186q-2 -9 -6.5 -20t-11.5 -20t-16 -15.5t-20 -6.5q-18 0 -27 11.5t-9 22.5q0 9 4 17q13 20 26 44.5t13 48.5q0 12 1 23t4.5 20t12 14.5t23.5 5.5q14 0 20 -8.5t7 -10.5q3 -5 6 -17q8 -24 22 -61t36 -72t53.5 -60.5t74.5 -25.5q18 0 37.5 10t37.5 25.5t33 33t23 32.5
q5 8 13.5 12.5t17.5 4.5q11 0 23 -8t12 -27q0 -12 -8 -24q-17 -25 -38 -48t-45 -41t-51 -29t-55 -11q-39 0 -75 15.5t-64.5 41t-47.5 58t-26 65.5zM250 440q1 -2 1 -7q0 -10 -9.5 -18.5t-18.5 -8.5q-4 0 -6 1q-14 9 -35 30t-44 42.5t-45.5 38t-40.5 16.5q-20 0 -43.5 -14
t-47 -33.5t-47 -41.5t-43.5 -38q-4 -2 -6 -2q-9 0 -18 8.5t-9 18.5q0 18 24.5 47.5t58.5 57.5t68 48.5t54 20.5q25 0 56.5 -16.5t60.5 -41.5t53.5 -54t36.5 -54z" />
    <glyph glyph-name="Idieresis" unicode="&#xcf;" horiz-adv-x="428" 
d="M-120 532q3 22 22.5 33t42.5 11q22 0 32 -14t10 -28q0 -24 -14 -38.5t-52 -14.5q-23 0 -32 15.5t-9 35.5zM72 526q0 25 19 39t44 14q23 0 34 -15.5t11 -28.5q0 -23 -14.5 -37t-52.5 -14q-18 0 -29.5 12t-11.5 30zM54 186q-2 -9 -6.5 -20t-11.5 -20t-16 -15.5t-20 -6.5
q-18 0 -27 11.5t-9 22.5q0 9 4 17q13 20 26 44.5t13 48.5q0 12 1 23t4.5 20t12 14.5t23.5 5.5q14 0 20 -8.5t7 -10.5q3 -5 6 -17q8 -24 22 -61t36 -72t53.5 -60.5t74.5 -25.5q18 0 37.5 10t37.5 25.5t33 33t23 32.5q5 8 13.5 12.5t17.5 4.5q11 0 23 -8t12 -27q0 -12 -8 -24
q-17 -25 -38 -48t-45 -41t-51 -29t-55 -11q-39 0 -75 15.5t-64.5 41t-47.5 58t-26 65.5z" />
    <glyph glyph-name="Eth" unicode="&#xd0;" horiz-adv-x="598" 
d="M225 660q-10 -6 -21.5 -13.5t-24 -14t-25.5 -11.5t-26 -5q-11 0 -20.5 8.5t-9.5 22.5q0 7 9.5 15.5t24.5 17.5t32.5 18.5t33.5 18.5q-31 60 -66.5 116t-79.5 114q-6 7 -6 14q0 13 15 24.5t29 11.5q13 0 24 -12q45 -56 81 -109t70 -122q9 5 21.5 13t26 15.5t26 12.5
t20.5 5q18 0 25.5 -10.5t7.5 -21.5q0 -8 -10 -17t-24.5 -18.5t-31.5 -19t-32 -18.5q52 -118 81 -241.5t36 -264.5q3 -30 1.5 -57.5t-4.5 -55.5q-7 -39 -23 -72t-41 -57t-58.5 -37t-74.5 -13q-59 0 -106 32t-80 82t-51 111t-18 119q0 35 11.5 70t33.5 63.5t55 46.5t75 18
q54 0 100 -17.5t80 -62.5q-6 44 -13.5 82.5t-18 74.5t-24 71t-30.5 73zM147 370q-29 0 -51 -11.5t-36.5 -31t-21.5 -45.5t-7 -56q0 -38 12.5 -83.5t36 -85t57.5 -66t77 -26.5q39 0 63 18t37.5 46.5t18.5 64t5 71.5q0 37 -15 74t-41.5 66t-61 47t-73.5 18z" />
    <glyph glyph-name="Ntilde" unicode="&#xd1;" horiz-adv-x="739" 
d="M29 139q-11 -15 -29 -15q-11 0 -23.5 8t-12.5 26q0 8 6 19q18 28 41.5 65t51 71t59.5 57.5t68 23.5q22 0 38 -6.5t27.5 -19t20 -29.5t16.5 -38q25 39 56 63t75 24q34 0 60.5 -16.5t47 -41.5t37.5 -54.5t33 -54.5t31.5 -41.5t34.5 -16.5q9 0 15 1t11 3.5t10.5 7t13.5 12.5
q5 5 12.5 6t9.5 1q14 0 24.5 -9.5t10.5 -26.5q0 -13 -10.5 -25t-26 -21t-34.5 -14t-36 -5q-34 0 -59.5 16.5t-45 41.5t-36 54.5t-32 54.5t-32.5 41.5t-39 16.5q-11 0 -25 -9.5t-28 -24t-26.5 -32t-20.5 -34.5v-25.5t0.5 -27t0.5 -25v-17.5q0 -23 -6.5 -31t-29.5 -8
q-8 0 -15.5 2t-12.5 9q-7 8 -11 28.5t-7.5 46t-7.5 53t-9.5 50t-14 37t-20.5 14.5q-18 0 -41.5 -22.5t-46 -53t-42 -61.5t-31.5 -48zM155 611q-11 0 -20 -5t-17 -11t-16 -11t-17 -5q-17 0 -24 8.5t-7 18.5q0 16 10.5 29.5t25.5 23.5t32 16t30 6q27 0 50.5 -11.5t45.5 -25
t42 -25t38 -11.5q20 0 35 13t28.5 28.5t28 28.5t33.5 13q13 0 23 -9t8 -17q-6 -21 -22 -43.5t-38 -41t-47 -30t-50 -11.5t-48 11t-44.5 24.5t-41.5 25t-38 11.5z" />
    <glyph glyph-name="Ograve" unicode="&#xd2;" horiz-adv-x="566" 
d="M-17 154q0 52 12.5 95.5t35 74t54 47.5t70.5 17q40 0 74.5 -14.5t61.5 -40.5t45 -63.5t25 -82.5q5 -4 17 -8.5t26 -8t28 -6t23 -2.5q18 0 37.5 3t51.5 22q11 7 22 7q13 0 20 -5t10.5 -11t4 -12t0.5 -8q0 -16 -14.5 -28t-36.5 -20.5t-47.5 -13t-47.5 -4.5q-20 0 -38.5 4
t-43.5 12q0 -45 -14.5 -90.5t-40.5 -82.5t-63 -60t-83 -23q-54 0 -90.5 32.5t-58 79.5t-31 99t-9.5 91zM155 318q-29 0 -48.5 -16t-31 -40t-16.5 -53t-5 -55q0 -9 0.5 -17t1.5 -16q16 14 39.5 29.5t50.5 28t55 21t53 8.5q10 0 16 -1t15 -3q-6 22 -18 43t-28.5 36.5t-37.5 25
t-46 9.5zM172 -78q34 0 59.5 21.5t42 53t23.5 67t4 64.5q-8 3 -20 6.5t-22 3.5q-23 0 -50 -10t-53 -24.5t-48.5 -31.5t-35.5 -31q14 -62 39 -90.5t61 -28.5zM223 506q-33 -1 -77.5 8.5t-84 26.5t-67 38.5t-27.5 44.5q0 6 8.5 16.5t16.5 10.5q10 0 30 -12l45 -27t51.5 -28.5
t50.5 -16.5q13 -2 37.5 -1.5t44.5 -4.5q11 -3 15 -12t4 -16q0 -16 -14.5 -21t-32.5 -6z" />
    <glyph glyph-name="Oacute" unicode="&#xd3;" horiz-adv-x="554" 
d="M-29 154q0 52 12.5 95.5t35 74t54 47.5t70.5 17q40 0 74.5 -14.5t61.5 -40.5t45 -63.5t25 -82.5q5 -4 17 -8.5t26 -8t28 -6t23 -2.5q18 0 37.5 3t51.5 22q11 7 22 7q13 0 20 -5t10.5 -11t4 -12t0.5 -8q0 -16 -14.5 -28t-36.5 -20.5t-47.5 -13t-47.5 -4.5q-20 0 -38.5 4
t-43.5 12q0 -45 -14.5 -90.5t-40.5 -82.5t-63 -60t-83 -23q-54 0 -90.5 32.5t-58 79.5t-31 99t-9.5 91zM143 318q-29 0 -48.5 -16t-31 -40t-16.5 -53t-5 -55q0 -9 0.5 -17t1.5 -16q16 14 39.5 29.5t50.5 28t55 21t53 8.5q10 0 16 -1t15 -3q-6 22 -18 43t-28.5 36.5t-37.5 25
t-46 9.5zM160 -78q34 0 59.5 21.5t42 53t23.5 67t4 64.5q-8 3 -20 6.5t-22 3.5q-23 0 -50 -10t-53 -24.5t-48.5 -31.5t-35.5 -31q14 -62 39 -90.5t61 -28.5zM67 492q-4 4 -4 20q0 20 7 27.5t20.5 9.5t34.5 3t50 7q20 4 41 17.5t41.5 28t40 25.5t36.5 11q4 0 7 -4t5.5 -9.5
t4 -11t1.5 -7.5q0 -24 -28 -47t-67.5 -41t-82.5 -29t-72 -11q-28 0 -35 11z" />
    <glyph glyph-name="Ocircumflex" unicode="&#xd4;" horiz-adv-x="551" 
d="M-32 154q0 52 12.5 95.5t35 74t54 47.5t70.5 17q40 0 74.5 -14.5t61.5 -40.5t45 -63.5t25 -82.5q5 -4 17 -8.5t26 -8t28 -6t23 -2.5q18 0 37.5 3t51.5 22q11 7 22 7q13 0 20 -5t10.5 -11t4 -12t0.5 -8q0 -16 -14.5 -28t-36.5 -20.5t-47.5 -13t-47.5 -4.5q-20 0 -38.5 4
t-43.5 12q0 -45 -14.5 -90.5t-40.5 -82.5t-63 -60t-83 -23q-54 0 -90.5 32.5t-58 79.5t-31 99t-9.5 91zM140 318q-29 0 -48.5 -16t-31 -40t-16.5 -53t-5 -55q0 -9 0.5 -17t1.5 -16q16 14 39.5 29.5t50.5 28t55 21t53 8.5q10 0 16 -1t15 -3q-6 22 -18 43t-28.5 36.5t-37.5 25
t-46 9.5zM157 -78q34 0 59.5 21.5t42 53t23.5 67t4 64.5q-8 3 -20 6.5t-22 3.5q-23 0 -50 -10t-53 -24.5t-48.5 -31.5t-35.5 -31q14 -62 39 -90.5t61 -28.5zM362 541q1 -2 1 -7q0 -10 -9.5 -18.5t-18.5 -8.5q-4 0 -6 1q-14 9 -35 30t-44 42.5t-45.5 38t-40.5 16.5
q-20 0 -43.5 -14t-47 -33.5t-47 -41.5t-43.5 -38q-4 -2 -6 -2q-9 0 -18 8.5t-9 18.5q0 18 24.5 47.5t58.5 57.5t68 48.5t54 20.5q25 0 56.5 -16.5t60.5 -41.5t53.5 -54t36.5 -54z" />
    <glyph glyph-name="Otilde" unicode="&#xd5;" horiz-adv-x="553" 
d="M-29 154q0 52 12.5 95.5t35 74t54 47.5t70.5 17q40 0 74.5 -14.5t61.5 -40.5t45 -63.5t25 -82.5q5 -4 17 -8.5t26 -8t28 -6t23 -2.5q18 0 37.5 3t51.5 22q11 7 22 7q13 0 20 -5t10.5 -11t4 -12t0.5 -8q0 -16 -14.5 -28t-36.5 -20.5t-47.5 -13t-47.5 -4.5q-20 0 -38.5 4
t-43.5 12q0 -45 -14.5 -90.5t-40.5 -82.5t-63 -60t-83 -23q-54 0 -90.5 32.5t-58 79.5t-31 99t-9.5 91zM143 318q-29 0 -48.5 -16t-31 -40t-16.5 -53t-5 -55q0 -9 0.5 -17t1.5 -16q16 14 39.5 29.5t50.5 28t55 21t53 8.5q10 0 16 -1t15 -3q-6 22 -18 43t-28.5 36.5t-37.5 25
t-46 9.5zM160 -78q34 0 59.5 21.5t42 53t23.5 67t4 64.5q-8 3 -20 6.5t-22 3.5q-23 0 -50 -10t-53 -24.5t-48.5 -31.5t-35.5 -31q14 -62 39 -90.5t61 -28.5zM57 634q-11 0 -20 -5t-17 -11t-16 -11t-17 -5q-17 0 -24 8.5t-7 18.5q0 16 10.5 29.5t25.5 23.5t32 16t30 6
q27 0 50.5 -11.5t45.5 -25t42 -25t38 -11.5q20 0 35 13t28.5 28.5t28 28.5t33.5 13q13 0 23 -9t8 -17q-6 -21 -22 -43.5t-38 -41t-47 -30t-50 -11.5t-48 11t-44.5 24.5t-41.5 25t-38 11.5z" />
    <glyph glyph-name="Odieresis" unicode="&#xd6;" horiz-adv-x="554" 
d="M-29 154q0 52 12.5 95.5t35 74t54 47.5t70.5 17q40 0 74.5 -14.5t61.5 -40.5t45 -63.5t25 -82.5q5 -4 17 -8.5t26 -8t28 -6t23 -2.5q18 0 37.5 3t51.5 22q11 7 22 7q13 0 20 -5t10.5 -11t4 -12t0.5 -8q0 -16 -14.5 -28t-36.5 -20.5t-47.5 -13t-47.5 -4.5q-20 0 -38.5 4
t-43.5 12q0 -45 -14.5 -90.5t-40.5 -82.5t-63 -60t-83 -23q-54 0 -90.5 32.5t-58 79.5t-31 99t-9.5 91zM143 318q-29 0 -48.5 -16t-31 -40t-16.5 -53t-5 -55q0 -9 0.5 -17t1.5 -16q16 14 39.5 29.5t50.5 28t55 21t53 8.5q10 0 16 -1t15 -3q-6 22 -18 43t-28.5 36.5t-37.5 25
t-46 9.5zM160 -78q34 0 59.5 21.5t42 53t23.5 67t4 64.5q-8 3 -20 6.5t-22 3.5q-23 0 -50 -10t-53 -24.5t-48.5 -31.5t-35.5 -31q14 -62 39 -90.5t61 -28.5zM-8 557q2 22 20.5 33t41.5 11t34 -15t11 -29q0 -24 -15 -37t-53 -13q-18 0 -29 11.5t-11 29.5q0 6 1 9zM178 561
q2 21 20.5 32t41.5 11t33.5 -14t10.5 -28q0 -24 -13 -38t-53 -14q-18 0 -29.5 12t-11.5 30q0 6 1 9z" />
    <glyph glyph-name="multiply" unicode="&#xd7;" horiz-adv-x="600" 
d="M135 103q-26 13 -16 34q9 10 19 20l21 21q25 25 39 38t25 24l-90 91q-7 7 -11.5 14t-9.5 14q-4 11 4.5 20t19.5 9q11 -1 21 -3.5t18 -7.5q26 -18 49 -39.5t52 -49.5l104 89q9 8 19 9.5t20 -0.5q10 0 17.5 -10t1.5 -18q-19 -22 -42.5 -49.5t-65.5 -67.5q35 -33 54.5 -55
t34.5 -45l15 -17q3 -6 -2.5 -14.5t-16.5 -8.5q-7 2 -14.5 4t-17.5 5q-14 7 -32.5 16.5t-43.5 33.5l-32 31l-34 -32q-26 -23 -54.5 -40.5t-51.5 -15.5z" />
    <glyph glyph-name="Oslash" unicode="&#xd8;" horiz-adv-x="553" 
d="M-29 154q0 52 12.5 95.5t35 74t54 47.5t70.5 17q21 0 44 -5q12 35 31 94t40 124.5t40.5 129t33.5 107.5q5 18 19.5 25.5t30.5 7.5q11 0 22.5 -9t6.5 -27q-11 -39 -30 -99.5t-40.5 -128.5t-42.5 -136.5t-36 -123.5q34 -26 56.5 -67t30.5 -93q5 -4 17 -8.5t26 -8t28 -6
t23 -2.5q18 0 37.5 3t51.5 22q11 7 22 7q13 0 20 -5t10.5 -11t4 -12t0.5 -8q0 -16 -14.5 -28t-36.5 -20.5t-47.5 -13t-47.5 -4.5q-20 0 -38.5 4t-43.5 12q0 -45 -14.5 -90.5t-40.5 -82.5t-63 -60t-83 -23q-27 0 -49 9q-26 -66 -49.5 -135.5t-55.5 -141.5q-2 -3 -9.5 -6.5
t-16.5 -3.5t-15 3.5t-9.5 8t-5 8.5t-1.5 5q0 4 1.5 8t3.5 8q9 25 18.5 51t20.5 59t24.5 76.5t29.5 104.5q-21 25 -35.5 57t-23.5 66t-13 66.5t-4 58.5zM160 -78q34 0 59.5 21.5t42 53t23.5 67t4 64.5q-8 3 -20 6.5t-22 3.5q-23 0 -50 -10t-53 -24.5t-48.5 -31.5t-35.5 -31
q14 -62 39 -90.5t61 -28.5zM143 318q-29 0 -48.5 -16t-31 -40t-16.5 -53t-5 -55q0 -9 0.5 -17t1.5 -16q16 14 39.5 29.5t50.5 28t55 21t53 8.5q10 0 16 -1t15 -3q-6 22 -18 43t-28.5 36.5t-37.5 25t-46 9.5z" />
    <glyph glyph-name="Ugrave" unicode="&#xd9;" 
d="M-38 510q2 14 12 17.5t18 3.5q13 0 25 -6.5t12 -16.5q0 -36 -1.5 -71t-1.5 -68q0 -57 6 -111.5t22 -96.5t44.5 -68t74.5 -26q52 0 84 32.5t51.5 81.5t29 105t15.5 104q5 35 13.5 47t27.5 12q14 0 23 -6t13 -29q4 -26 10 -59t14.5 -68t20.5 -68.5t27.5 -59.5t35.5 -42
t45 -16q16 0 29.5 7t26 18.5t25.5 26.5t27 30q6 7 13 9t13 2q18 0 26.5 -11.5t8.5 -24.5q0 -9 -4 -16q-5 -9 -17.5 -27t-33 -36.5t-49 -32.5t-65.5 -14q-50 0 -83 21.5t-53.5 55.5t-31 74.5t-14.5 79.5q-6 -47 -22.5 -94.5t-44.5 -85.5t-68 -62t-93 -24q-67 0 -109.5 32.5
t-67 85t-33.5 117.5t-9 131q0 39 2 76.5t6 70.5zM267 636q-33 -1 -77.5 8.5t-84 26.5t-67 38.5t-27.5 44.5q0 6 8.5 16.5t16.5 10.5q10 0 30 -12l45 -27t51.5 -28.5t50.5 -16.5q13 -2 37.5 -1.5t44.5 -4.5q11 -3 15 -12t4 -16q0 -16 -14.5 -21t-32.5 -6z" />
    <glyph glyph-name="Uacute" unicode="&#xda;" 
d="M-38 510q2 14 12 17.5t18 3.5q13 0 25 -6.5t12 -16.5q0 -36 -1.5 -71t-1.5 -68q0 -57 6 -111.5t22 -96.5t44.5 -68t74.5 -26q52 0 84 32.5t51.5 81.5t29 105t15.5 104q5 35 13.5 47t27.5 12q14 0 23 -6t13 -29q4 -26 10 -59t14.5 -68t20.5 -68.5t27.5 -59.5t35.5 -42
t45 -16q16 0 29.5 7t26 18.5t25.5 26.5t27 30q6 7 13 9t13 2q18 0 26.5 -11.5t8.5 -24.5q0 -9 -4 -16q-5 -9 -17.5 -27t-33 -36.5t-49 -32.5t-65.5 -14q-50 0 -83 21.5t-53.5 55.5t-31 74.5t-14.5 79.5q-6 -47 -22.5 -94.5t-44.5 -85.5t-68 -62t-93 -24q-67 0 -109.5 32.5
t-67 85t-33.5 117.5t-9 131q0 39 2 76.5t6 70.5zM119 747q-4 4 -4 20q0 20 7 27.5t20.5 9.5t34.5 3t50 7q20 4 41 17.5t41.5 28t40 25.5t36.5 11q4 0 7 -4t5.5 -9.5t4 -11t1.5 -7.5q0 -24 -28 -47t-67.5 -41t-82.5 -29t-72 -11q-28 0 -35 11z" />
    <glyph glyph-name="Ucircumflex" unicode="&#xdb;" 
d="M-38 510q2 14 12 17.5t18 3.5q13 0 25 -6.5t12 -16.5q0 -36 -1.5 -71t-1.5 -68q0 -57 6 -111.5t22 -96.5t44.5 -68t74.5 -26q52 0 84 32.5t51.5 81.5t29 105t15.5 104q5 35 13.5 47t27.5 12q14 0 23 -6t13 -29q4 -26 10 -59t14.5 -68t20.5 -68.5t27.5 -59.5t35.5 -42
t45 -16q16 0 29.5 7t26 18.5t25.5 26.5t27 30q6 7 13 9t13 2q18 0 26.5 -11.5t8.5 -24.5q0 -9 -4 -16q-5 -9 -17.5 -27t-33 -36.5t-49 -32.5t-65.5 -14q-50 0 -83 21.5t-53.5 55.5t-31 74.5t-14.5 79.5q-6 -47 -22.5 -94.5t-44.5 -85.5t-68 -62t-93 -24q-67 0 -109.5 32.5
t-67 85t-33.5 117.5t-9 131q0 39 2 76.5t6 70.5zM418 699q1 -2 1 -7q0 -10 -9.5 -18.5t-18.5 -8.5q-4 0 -6 1q-14 9 -35 30t-44 42.5t-45.5 38t-40.5 16.5q-20 0 -43.5 -14t-47 -33.5t-47 -41.5t-43.5 -38q-4 -2 -6 -2q-9 0 -18 8.5t-9 18.5q0 18 24.5 47.5t58.5 57.5
t68 48.5t54 20.5q25 0 56.5 -16.5t60.5 -41.5t53.5 -54t36.5 -54z" />
    <glyph glyph-name="Udieresis" unicode="&#xdc;" 
d="M-38 510q2 14 12 17.5t18 3.5q13 0 25 -6.5t12 -16.5q0 -36 -1.5 -71t-1.5 -68q0 -57 6 -111.5t22 -96.5t44.5 -68t74.5 -26q52 0 84 32.5t51.5 81.5t29 105t15.5 104q5 35 13.5 47t27.5 12q14 0 23 -6t13 -29q4 -26 10 -59t14.5 -68t20.5 -68.5t27.5 -59.5t35.5 -42
t45 -16q16 0 29.5 7t26 18.5t25.5 26.5t27 30q6 7 13 9t13 2q18 0 26.5 -11.5t8.5 -24.5q0 -9 -4 -16q-5 -9 -17.5 -27t-33 -36.5t-49 -32.5t-65.5 -14q-50 0 -83 21.5t-53.5 55.5t-31 74.5t-14.5 79.5q-6 -47 -22.5 -94.5t-44.5 -85.5t-68 -62t-93 -24q-67 0 -109.5 32.5
t-67 85t-33.5 117.5t-9 131q0 39 2 76.5t6 70.5zM56 730q2 22 20.5 33t41.5 11t34 -15t11 -29q0 -24 -15 -37t-53 -13q-18 0 -29 11.5t-11 29.5q0 6 1 9zM242 734q2 21 20.5 32t41.5 11t33.5 -14t10.5 -28q0 -24 -13 -38t-53 -14q-18 0 -29.5 12t-11.5 30q0 6 1 9z" />
    <glyph glyph-name="Yacute" unicode="&#xdd;" horiz-adv-x="509" 
d="M23 288q11 5 23 -3t10 -19q-3 -12 -7.5 -29.5t-4.5 -37.5q0 -19 1.5 -37t7 -32.5t15.5 -23t27 -8.5q20 0 36.5 17t31 42t28 55t28 55t30 42t34.5 17q41 0 37 -31q-10 -67 -16.5 -114t-11.5 -82.5t-9 -65t-8.5 -62.5t-10.5 -74t-14 -100q12 20 31 52.5t41 71t46 79.5
t46 77t39.5 63.5t27.5 39.5q8 9 21 12t27 -5q9 -5 12 -12.5t3 -14.5t-1.5 -12.5t-2.5 -6.5q-20 -27 -45 -66t-52.5 -83.5t-56 -90.5t-54.5 -87.5t-48 -76t-37 -54.5q-17 -107 -33.5 -198.5t-39.5 -159.5t-55.5 -106.5t-81.5 -38.5q-13 0 -30 8t-32 22t-25.5 33t-10.5 42
q0 45 23 100t57 112.5t74 113t74 101.5q6 41 10.5 73.5t9 63.5t9 62.5t10 70.5t12 88t15.5 115q-9 -37 -19.5 -68t-29 -53t-47.5 -32.5t-75 -5.5q-24 3 -41.5 18.5t-29 37.5t-17 47.5t-5.5 48.5q0 42 15 70t39 40zM157 -411q-65 -91 -106 -169.5t-41 -134.5q0 -17 7 -25.5
t18 -8.5q20 0 39 31t35 80t28.5 109t19.5 118zM76 560q-4 4 -4 20q0 20 7 27.5t20.5 9.5t34.5 3t50 7q20 4 41 17.5t41.5 28t40 25.5t36.5 11q4 0 7 -4t5.5 -9.5t4 -11t1.5 -7.5q0 -24 -28 -47t-67.5 -41t-82.5 -29t-72 -11q-28 0 -35 11z" />
    <glyph glyph-name="Thorn" unicode="&#xde;" horiz-adv-x="788" 
d="M22 129q-4 -3 -9.5 -4t-10.5 -1q-12 0 -25 7.5t-13 30.5q0 9 12 24.5t30.5 33.5t41 38t43.5 39q0 70 0.5 153.5t1 172.5t1 179.5t1.5 174.5t1.5 158.5t1.5 130.5q0 11 2 28.5t7.5 34t15.5 28t27 11.5q11 0 20.5 -6t9.5 -20q-2 -246 -2 -486t-1 -486q17 17 36 33.5t41 29
t48 20t59 7.5q39 0 72 -15.5t57.5 -42.5t38 -63t13.5 -77q0 -35 -16.5 -66t-41.5 -57t-54.5 -47.5t-54.5 -37.5t-41.5 -26.5t-16.5 -14.5q0 -8 12.5 -14.5t30.5 -11t37 -6.5t32 -2q54 0 98 15.5t83 42.5t76 64.5t77 82.5q3 3 9.5 6.5t15.5 3.5q10 0 23 -8.5t13 -25.5
q0 -11 -7 -21q-44 -63 -89 -106.5t-94 -70.5t-104 -39t-120 -12q-24 0 -54.5 4.5t-57 15t-45 27.5t-18.5 42t17 45t42.5 37.5t55.5 35.5t55.5 40t42.5 49t17 64q0 25 -6 46.5t-19.5 37.5t-34.5 25t-50 9q-27 0 -52 -11.5t-47.5 -29.5t-42.5 -40.5t-37 -43.5q-1 -115 -1 -228
v-228q0 -162 1 -320t2 -326q0 -17 -13 -25t-24 -8q-9 0 -17.5 9t-15.5 23t-11 30.5t-4 32.5q-3 310 -3 620q0 90 0.5 174.5t0.5 174.5q-19 -19 -33 -32t-36 -32z" />
    <glyph glyph-name="germandbls" unicode="&#xdf;" horiz-adv-x="718" 
d="M87 -829q0 -22 -11 -27.5t-22 -5.5q-8 0 -14.5 6t-9.5 20q-1 3 -6 39.5t-12 98t-15 144t-15 178.5t-11.5 202t-4.5 214q0 111 5.5 219t19 204t35.5 174.5t55 131.5q17 27 39.5 46t47.5 30t51.5 16t50.5 5q84 0 126 -32t42 -112q0 -56 -22 -128t-64 -142q17 0 33 -2t35 -7
q30 -9 55 -38.5t43 -72.5t28 -95.5t10 -107.5q0 -9 -0.5 -17.5t-0.5 -17.5q45 20 81 44t61 49q7 7 22 7q13 0 24 -10.5t11 -25.5q0 -10 -3 -14q-42 -54 -94.5 -88t-115.5 -55q-10 -49 -34.5 -91t-56.5 -72.5t-69.5 -48t-73.5 -17.5q-20 0 -39 9t-34.5 25t-25 37.5t-9.5 45.5
q0 33 25.5 57.5t65.5 45t90 37.5t98 35q2 16 3 32t1 33q0 43 -6 84.5t-17 75t-26 56t-33 27.5q-20 5 -36 5q-28 0 -55 -12.5t-58 -37.5q-8 -6 -16.5 -11.5t-19.5 -5.5t-19 10t-8 30q0 17 8.5 26t16.5 16q38 32 67.5 73.5t49 85t29.5 86t10 77.5q0 25 -6 40.5t-18.5 23.5
t-31 11t-43.5 3q-35 0 -69.5 -13.5t-57.5 -50.5q-30 -47 -50 -120t-31.5 -163t-16.5 -193.5t-5 -211.5q0 -97 3.5 -194.5t8.5 -188t11.5 -171.5t11.5 -145t8.5 -108.5t3.5 -61.5zM399 -123q9 7 18 19.5t17.5 27t14 28.5t7.5 25q-26 -9 -57.5 -20t-59 -23t-46 -25t-18.5 -27
q0 -22 10 -30.5t26 -8.5q12 0 25 3.5t25 9t22 11t16 10.5z" />
    <glyph glyph-name="agrave" unicode="&#xe0;" horiz-adv-x="561" 
d="M226 239q0 33 -4 65t-15 57t-31 40t-53 15q-25 0 -44.5 -13.5t-33 -33t-20.5 -43t-7 -42.5q0 -30 12 -62t31.5 -58.5t44.5 -43t51 -16.5q29 0 49 32.5t20 102.5zM276 246q9 -36 9 -68q0 -64 -33 -104t-95 -40q-39 0 -76.5 22.5t-67 58.5t-48 81.5t-18.5 91.5
q0 36 14 71.5t37.5 63.5t55.5 45t68 17t65 -14.5t52 -38.5t42 -54.5t36 -62.5q10 -21 24 -57t30.5 -71t35 -60.5t38.5 -25.5q21 0 36 14.5t27.5 32t24.5 32t27 14.5q17 0 26 -11t9 -25q0 -12 -9 -24q-13 -18 -29 -36.5t-34.5 -33.5t-38 -24t-39.5 -9q-32 0 -58.5 21
t-48.5 52.5t-37.5 69.5t-24.5 72zM157 612q-33 -1 -77.5 8.5t-84 26.5t-67 38.5t-27.5 44.5q0 6 8.5 16.5t16.5 10.5q10 0 30 -12l45 -27t51.5 -28.5t50.5 -16.5q13 -2 37.5 -1.5t44.5 -4.5q11 -3 15 -12t4 -16q0 -16 -14.5 -21t-32.5 -6z" />
    <glyph glyph-name="aacute" unicode="&#xe1;" horiz-adv-x="556" 
d="M222 239q0 33 -4 65t-15 57t-31 40t-53 15q-25 0 -44.5 -13.5t-33 -33t-20.5 -43t-7 -42.5q0 -30 12 -62t31.5 -58.5t44.5 -43t51 -16.5q29 0 49 32.5t20 102.5zM272 246q9 -36 9 -68q0 -64 -33 -104t-95 -40q-39 0 -76.5 22.5t-67 58.5t-48 81.5t-18.5 91.5
q0 36 14 71.5t37.5 63.5t55.5 45t68 17t65 -14.5t52 -38.5t42 -54.5t36 -62.5q10 -21 24 -57t30.5 -71t35 -60.5t38.5 -25.5q21 0 36 14.5t27.5 32t24.5 32t27 14.5q17 0 26 -11t9 -25q0 -12 -9 -24q-13 -18 -29 -36.5t-34.5 -33.5t-38 -24t-39.5 -9q-32 0 -58.5 21
t-48.5 52.5t-37.5 69.5t-24.5 72zM27 656q-4 4 -4 20q0 20 7 27.5t20.5 9.5t34.5 3t50 7q20 4 41 17.5t41.5 28t40 25.5t36.5 11q4 0 7 -4t5.5 -9.5t4 -11t1.5 -7.5q0 -24 -28 -47t-67.5 -41t-82.5 -29t-72 -11q-28 0 -35 11z" />
    <glyph glyph-name="acircumflex" unicode="&#xe2;" horiz-adv-x="573" 
d="M239 239q0 33 -4 65t-15 57t-31 40t-53 15q-25 0 -44.5 -13.5t-33 -33t-20.5 -43t-7 -42.5q0 -30 12 -62t31.5 -58.5t44.5 -43t51 -16.5q29 0 49 32.5t20 102.5zM289 246q9 -36 9 -68q0 -64 -33 -104t-95 -40q-39 0 -76.5 22.5t-67 58.5t-48 81.5t-18.5 91.5
q0 36 14 71.5t37.5 63.5t55.5 45t68 17t65 -14.5t52 -38.5t42 -54.5t36 -62.5q10 -21 24 -57t30.5 -71t35 -60.5t38.5 -25.5q21 0 36 14.5t27.5 32t24.5 32t27 14.5q17 0 26 -11t9 -25q0 -12 -9 -24q-13 -18 -29 -36.5t-34.5 -33.5t-38 -24t-39.5 -9q-32 0 -58.5 21
t-48.5 52.5t-37.5 69.5t-24.5 72zM310 666q1 -2 1 -7q0 -10 -9.5 -18.5t-18.5 -8.5q-4 0 -6 1q-14 9 -35 30t-44 42.5t-45.5 38t-40.5 16.5q-20 0 -43.5 -14t-47 -33.5t-47 -41.5t-43.5 -38q-4 -2 -6 -2q-9 0 -18 8.5t-9 18.5q0 18 24.5 47.5t58.5 57.5t68 48.5t54 20.5
q25 0 56.5 -16.5t60.5 -41.5t53.5 -54t36.5 -54z" />
    <glyph glyph-name="atilde" unicode="&#xe3;" horiz-adv-x="561" 
d="M226 239q0 33 -4 65t-15 57t-31 40t-53 15q-25 0 -44.5 -13.5t-33 -33t-20.5 -43t-7 -42.5q0 -30 12 -62t31.5 -58.5t44.5 -43t51 -16.5q29 0 49 32.5t20 102.5zM276 246q9 -36 9 -68q0 -64 -33 -104t-95 -40q-39 0 -76.5 22.5t-67 58.5t-48 81.5t-18.5 91.5
q0 36 14 71.5t37.5 63.5t55.5 45t68 17t65 -14.5t52 -38.5t42 -54.5t36 -62.5q10 -21 24 -57t30.5 -71t35 -60.5t38.5 -25.5q21 0 36 14.5t27.5 32t24.5 32t27 14.5q17 0 26 -11t9 -25q0 -12 -9 -24q-13 -18 -29 -36.5t-34.5 -33.5t-38 -24t-39.5 -9q-32 0 -58.5 21
t-48.5 52.5t-37.5 69.5t-24.5 72zM-25 704q-11 0 -20 -5t-17 -11t-16 -11t-17 -5q-17 0 -24 8.5t-7 18.5q0 16 10.5 29.5t25.5 23.5t32 16t30 6q27 0 50.5 -11.5t45.5 -25t42 -25t38 -11.5q20 0 35 13t28.5 28.5t28 28.5t33.5 13q13 0 23 -9t8 -17q-6 -21 -22 -43.5t-38 -41
t-47 -30t-50 -11.5t-48 11t-44.5 24.5t-41.5 25t-38 11.5z" />
    <glyph glyph-name="adieresis" unicode="&#xe4;" horiz-adv-x="566" 
d="M232 239q0 33 -4 65t-15 57t-31 40t-53 15q-25 0 -44.5 -13.5t-33 -33t-20.5 -43t-7 -42.5q0 -30 12 -62t31.5 -58.5t44.5 -43t51 -16.5q29 0 49 32.5t20 102.5zM282 246q9 -36 9 -68q0 -64 -33 -104t-95 -40q-39 0 -76.5 22.5t-67 58.5t-48 81.5t-18.5 91.5
q0 36 14 71.5t37.5 63.5t55.5 45t68 17t65 -14.5t52 -38.5t42 -54.5t36 -62.5q10 -21 24 -57t30.5 -71t35 -60.5t38.5 -25.5q21 0 36 14.5t27.5 32t24.5 32t27 14.5q17 0 26 -11t9 -25q0 -12 -9 -24q-13 -18 -29 -36.5t-34.5 -33.5t-38 -24t-39.5 -9q-32 0 -58.5 21
t-48.5 52.5t-37.5 69.5t-24.5 72zM-46 665q2 22 20.5 33t41.5 11t34 -15t11 -29q0 -24 -15 -37t-53 -13q-18 0 -29 11.5t-11 29.5q0 6 1 9zM140 669q2 21 20.5 32t41.5 11t33.5 -14t10.5 -28q0 -24 -13 -38t-53 -14q-18 0 -29.5 12t-11.5 30q0 6 1 9z" />
    <glyph glyph-name="aring" unicode="&#xe5;" horiz-adv-x="561" 
d="M226 239q0 33 -4 65t-15 57t-31 40t-53 15q-25 0 -44.5 -13.5t-33 -33t-20.5 -43t-7 -42.5q0 -30 12 -62t31.5 -58.5t44.5 -43t51 -16.5q29 0 49 32.5t20 102.5zM276 246q9 -36 9 -68q0 -64 -33 -104t-95 -40q-39 0 -76.5 22.5t-67 58.5t-48 81.5t-18.5 91.5
q0 36 14 71.5t37.5 63.5t55.5 45t68 17t65 -14.5t52 -38.5t42 -54.5t36 -62.5q10 -21 24 -57t30.5 -71t35 -60.5t38.5 -25.5q21 0 36 14.5t27.5 32t24.5 32t27 14.5q17 0 26 -11t9 -25q0 -12 -9 -24q-13 -18 -29 -36.5t-34.5 -33.5t-38 -24t-39.5 -9q-32 0 -58.5 21
t-48.5 52.5t-37.5 69.5t-24.5 72zM-64 808q0 53 32.5 86t94.5 33q72 0 108 -34.5t36 -91.5q0 -29 -11 -52t-29.5 -38.5t-42.5 -23.5t-50 -8q-27 0 -52 8t-44 23.5t-30.5 40t-11.5 57.5zM64 857q-31 0 -44 -15t-13 -34q0 -29 16.5 -45.5t49.5 -16.5q23 0 42.5 15.5t19.5 39.5
t-15 40t-56 16z" />
    <glyph glyph-name="ae" unicode="&#xe6;" horiz-adv-x="748" 
d="M446 501q22 0 42.5 -10t36 -27t24.5 -38.5t9 -45.5q0 -30 -11 -63t-30.5 -66t-45 -63.5t-54.5 -54.5q25 -23 58 -31t75 -8q24 0 48.5 5.5t47 16t41.5 26.5t32 37q7 11 15.5 13t13.5 2q11 0 23 -8t12 -28q0 -14 -11 -26q-19 -22 -41 -41.5t-48.5 -34.5t-59.5 -23.5
t-73 -8.5q-62 0 -105.5 13.5t-75.5 41.5t-55 69.5t-43 97.5q9 -36 9 -68q0 -64 -33 -104t-95 -40q-39 0 -76.5 22.5t-67 58.5t-48 81.5t-18.5 91.5q0 36 14 71.5t37.5 63.5t55.5 45t68 17q29 0 53 -9.5t44.5 -26t37.5 -38t32 -46.5q9 29 24.5 54t37 43t47 28.5t53.5 10.5z
M221 239q0 33 -4 65t-15 57t-31 40t-53 15q-25 0 -44.5 -13.5t-33 -33t-20.5 -43t-7 -42.5q0 -30 12 -62t31.5 -58.5t44.5 -43t51 -16.5q29 0 49 32.5t20 102.5zM447 431q-26 0 -44.5 -11.5t-31.5 -30t-19 -42t-6 -47.5q0 -33 6.5 -64.5t21.5 -53.5q14 14 33.5 37.5t37 51
t30 56t12.5 53.5q0 20 -8.5 35.5t-31.5 15.5z" />
    <glyph glyph-name="ccedilla" unicode="&#xe7;" horiz-adv-x="461" 
d="M305 346q0 -14 -2 -29.5t-7.5 -28.5t-15.5 -22t-26 -9q-11 0 -20 7t-9 22q0 14 4.5 29t4.5 31q0 18 -4.5 35.5t-14 31t-24 21.5t-34.5 8q-28 0 -52.5 -14.5t-43 -40t-29 -59.5t-10.5 -73q0 -40 15 -73.5t41.5 -58t62 -38.5t76.5 -14q43 0 74.5 8.5t56 23.5t45 36t43.5 45
q5 6 11.5 8t12.5 2q20 0 28 -12t8 -24t-4 -17q-46 -67 -116 -103.5t-159 -36.5q-48 0 -95.5 16.5t-85.5 48.5t-61.5 79.5t-23.5 109.5q0 39 11 84.5t36 83.5t64 63.5t95 25.5q33 0 60 -13t46.5 -35.5t30.5 -52.5t11 -65zM0 -128q-1 2 -1 6q0 14 11 21.5t24 7.5
q9 0 23.5 -10.5t32 -23.5t36 -23.5t36.5 -10.5q15 0 26 6t17.5 16t10 21.5t3.5 23.5q0 22 -14 40t-31.5 33.5t-31.5 28t-14 24.5q0 17 12 20t24 3q11 0 34 -12.5t46.5 -33t41 -46t17.5 -52.5q0 -26 -10.5 -51t-29.5 -44t-45.5 -30.5t-57.5 -11.5t-57.5 9t-47 23t-35 31.5
t-20.5 34.5z" />
    <glyph glyph-name="egrave" unicode="&#xe8;" horiz-adv-x="382" 
d="M80 501q22 0 42.5 -10t36 -27t24.5 -38.5t9 -45.5q0 -30 -11 -63t-30.5 -66t-45 -63.5t-54.5 -54.5q25 -23 58 -31t75 -8q24 0 48.5 5.5t47 16t41.5 26.5t32 37q7 11 15.5 13t13.5 2q11 0 23 -8t12 -28q0 -14 -11 -26q-19 -22 -41 -41.5t-48.5 -34.5t-59.5 -23.5
t-73 -8.5q-76 0 -128.5 23.5t-85 62.5t-47 88.5t-14.5 101.5q0 41 13.5 77.5t36.5 64t54 43.5t67 16zM81 431q-26 0 -44.5 -11.5t-31.5 -30t-19 -42t-6 -47.5q0 -33 6.5 -64.5t21.5 -53.5q14 14 33.5 37.5t37 51t30 56t12.5 53.5q0 20 -8.5 35.5t-31.5 15.5zM157 605
q-33 -1 -77.5 8.5t-84 26.5t-67 38.5t-27.5 44.5q0 6 8.5 16.5t16.5 10.5q10 0 30 -12l45 -27t51.5 -28.5t50.5 -16.5q13 -2 37.5 -1.5t44.5 -4.5q11 -3 15 -12t4 -16q0 -16 -14.5 -21t-32.5 -6z" />
    <glyph glyph-name="eacute" unicode="&#xe9;" horiz-adv-x="382" 
d="M80 501q22 0 42.5 -10t36 -27t24.5 -38.5t9 -45.5q0 -30 -11 -63t-30.5 -66t-45 -63.5t-54.5 -54.5q25 -23 58 -31t75 -8q24 0 48.5 5.5t47 16t41.5 26.5t32 37q7 11 15.5 13t13.5 2q11 0 23 -8t12 -28q0 -14 -11 -26q-19 -22 -41 -41.5t-48.5 -34.5t-59.5 -23.5
t-73 -8.5q-76 0 -128.5 23.5t-85 62.5t-47 88.5t-14.5 101.5q0 41 13.5 77.5t36.5 64t54 43.5t67 16zM81 431q-26 0 -44.5 -11.5t-31.5 -30t-19 -42t-6 -47.5q0 -33 6.5 -64.5t21.5 -53.5q14 14 33.5 37.5t37 51t30 56t12.5 53.5q0 20 -8.5 35.5t-31.5 15.5zM40 596
q-4 4 -4 20q0 20 7 27.5t20.5 9.5t34.5 3t50 7q20 4 41 17.5t41.5 28t40 25.5t36.5 11q4 0 7 -4t5.5 -9.5t4 -11t1.5 -7.5q0 -24 -28 -47t-67.5 -41t-82.5 -29t-72 -11q-28 0 -35 11z" />
    <glyph glyph-name="ecircumflex" unicode="&#xea;" horiz-adv-x="382" 
d="M80 501q22 0 42.5 -10t36 -27t24.5 -38.5t9 -45.5q0 -30 -11 -63t-30.5 -66t-45 -63.5t-54.5 -54.5q25 -23 58 -31t75 -8q24 0 48.5 5.5t47 16t41.5 26.5t32 37q7 11 15.5 13t13.5 2q11 0 23 -8t12 -28q0 -14 -11 -26q-19 -22 -41 -41.5t-48.5 -34.5t-59.5 -23.5
t-73 -8.5q-76 0 -128.5 23.5t-85 62.5t-47 88.5t-14.5 101.5q0 41 13.5 77.5t36.5 64t54 43.5t67 16zM81 431q-26 0 -44.5 -11.5t-31.5 -30t-19 -42t-6 -47.5q0 -33 6.5 -64.5t21.5 -53.5q14 14 33.5 37.5t37 51t30 56t12.5 53.5q0 20 -8.5 35.5t-31.5 15.5zM315 619
q1 -2 1 -7q0 -10 -9.5 -18.5t-18.5 -8.5q-4 0 -6 1q-14 9 -35 30t-44 42.5t-45.5 38t-40.5 16.5q-20 0 -43.5 -14t-47 -33.5t-47 -41.5t-43.5 -38q-4 -2 -6 -2q-9 0 -18 8.5t-9 18.5q0 18 24.5 47.5t58.5 57.5t68 48.5t54 20.5q25 0 56.5 -16.5t60.5 -41.5t53.5 -54
t36.5 -54z" />
    <glyph glyph-name="edieresis" unicode="&#xeb;" horiz-adv-x="382" 
d="M80 501q22 0 42.5 -10t36 -27t24.5 -38.5t9 -45.5q0 -30 -11 -63t-30.5 -66t-45 -63.5t-54.5 -54.5q25 -23 58 -31t75 -8q24 0 48.5 5.5t47 16t41.5 26.5t32 37q7 11 15.5 13t13.5 2q11 0 23 -8t12 -28q0 -14 -11 -26q-19 -22 -41 -41.5t-48.5 -34.5t-59.5 -23.5
t-73 -8.5q-76 0 -128.5 23.5t-85 62.5t-47 88.5t-14.5 101.5q0 41 13.5 77.5t36.5 64t54 43.5t67 16zM81 431q-26 0 -44.5 -11.5t-31.5 -30t-19 -42t-6 -47.5q0 -33 6.5 -64.5t21.5 -53.5q14 14 33.5 37.5t37 51t30 56t12.5 53.5q0 20 -8.5 35.5t-31.5 15.5zM-41 656
q2 22 20.5 33t41.5 11t34 -15t11 -29q0 -24 -15 -37t-53 -13q-18 0 -29 11.5t-11 29.5q0 6 1 9zM145 660q2 21 20.5 32t41.5 11t33.5 -14t10.5 -28q0 -24 -13 -38t-53 -14q-18 0 -29.5 12t-11.5 30q0 6 1 9z" />
    <glyph glyph-name="igrave" unicode="&#xec;" horiz-adv-x="290" 
d="M-61 329q0 11 5 19q10 17 33 17q11 0 21 -9t13 -27q5 -31 11 -74.5t18 -84t34.5 -69t60.5 -28.5q21 0 40 11t35 27t29 34.5t23 32.5q7 10 15 13t15 3q14 0 24.5 -10t10.5 -26q0 -11 -6 -20q-16 -24 -34.5 -48.5t-41 -43.5t-49.5 -31t-61 -12q-54 0 -89.5 27.5t-57.5 73
t-33.5 104.5t-15.5 121zM-20 563q-33 -1 -77.5 8.5t-84 26.5t-67 38.5t-27.5 44.5q0 6 8.5 16.5t16.5 10.5q10 0 30 -12l45 -27t51.5 -28.5t50.5 -16.5q13 -2 37.5 -1.5t44.5 -4.5q11 -3 15 -12t4 -16q0 -16 -14.5 -21t-32.5 -6z" />
    <glyph glyph-name="iacute" unicode="&#xed;" horiz-adv-x="283" 
d="M-61 329q0 11 5 19q10 17 33 17q11 0 21 -9t13 -27q5 -31 11 -74.5t18 -84t34.5 -69t60.5 -28.5q21 0 40 11t35 27t29 34.5t23 32.5q7 10 15 13t15 3q14 0 24.5 -10t10.5 -26q0 -11 -6 -20q-16 -24 -34.5 -48.5t-41 -43.5t-49.5 -31t-61 -12q-54 0 -89.5 27.5t-57.5 73
t-33.5 104.5t-15.5 121zM-82 495q-4 4 -4 20q0 20 7 27.5t20.5 9.5t34.5 3t50 7q20 4 41 17.5t41.5 28t40 25.5t36.5 11q4 0 7 -4t5.5 -9.5t4 -11t1.5 -7.5q0 -24 -28 -47t-67.5 -41t-82.5 -29t-72 -11q-28 0 -35 11z" />
    <glyph glyph-name="icircumflex" unicode="&#xee;" horiz-adv-x="290" 
d="M-61 329q0 11 5 19q10 17 33 17q11 0 21 -9t13 -27q5 -31 11 -74.5t18 -84t34.5 -69t60.5 -28.5q21 0 40 11t35 27t29 34.5t23 32.5q7 10 15 13t15 3q14 0 24.5 -10t10.5 -26q0 -11 -6 -20q-16 -24 -34.5 -48.5t-41 -43.5t-49.5 -31t-61 -12q-54 0 -89.5 27.5t-57.5 73
t-33.5 104.5t-15.5 121zM178 565q1 -2 1 -7q0 -10 -9.5 -18.5t-18.5 -8.5q-4 0 -6 1q-14 9 -35 30t-44 42.5t-45.5 38t-40.5 16.5q-20 0 -43.5 -14t-47 -33.5t-47 -41.5t-43.5 -38q-4 -2 -6 -2q-9 0 -18 8.5t-9 18.5q0 18 24.5 47.5t58.5 57.5t68 48.5t54 20.5
q25 0 56.5 -16.5t60.5 -41.5t53.5 -54t36.5 -54z" />
    <glyph glyph-name="idieresis" unicode="&#xef;" horiz-adv-x="290" 
d="M-61 329q0 11 5 19q10 17 33 17q11 0 21 -9t13 -27q5 -31 11 -74.5t18 -84t34.5 -69t60.5 -28.5q21 0 40 11t35 27t29 34.5t23 32.5q7 10 15 13t15 3q14 0 24.5 -10t10.5 -26q0 -11 -6 -20q-16 -24 -34.5 -48.5t-41 -43.5t-49.5 -31t-61 -12q-54 0 -89.5 27.5t-57.5 73
t-33.5 104.5t-15.5 121zM-166 610q2 22 20.5 33t41.5 11t34 -15t11 -29q0 -24 -15 -37t-53 -13q-18 0 -29 11.5t-11 29.5q0 6 1 9zM20 614q2 21 20.5 32t41.5 11t33.5 -14t10.5 -28q0 -24 -13 -38t-53 -14q-18 0 -29.5 12t-11.5 30q0 6 1 9z" />
    <glyph glyph-name="eth" unicode="&#xf0;" horiz-adv-x="598" 
d="M225 660q-10 -6 -21.5 -13.5t-24 -14t-25.5 -11.5t-26 -5q-11 0 -20.5 8.5t-9.5 22.5q0 7 9.5 15.5t24.5 17.5t32.5 18.5t33.5 18.5q-31 60 -66.5 116t-79.5 114q-6 7 -6 14q0 13 15 24.5t29 11.5q13 0 24 -12q45 -56 81 -109t70 -122q9 5 21.5 13t26 15.5t26 12.5
t20.5 5q18 0 25.5 -10.5t7.5 -21.5q0 -8 -10 -17t-24.5 -18.5t-31.5 -19t-32 -18.5q52 -118 81 -241.5t36 -264.5q3 -30 1.5 -57.5t-4.5 -55.5q-7 -39 -23 -72t-41 -57t-58.5 -37t-74.5 -13q-59 0 -106 32t-80 82t-51 111t-18 119q0 35 11.5 70t33.5 63.5t55 46.5t75 18
q54 0 100 -17.5t80 -62.5q-6 44 -13.5 82.5t-18 74.5t-24 71t-30.5 73zM147 370q-29 0 -51 -11.5t-36.5 -31t-21.5 -45.5t-7 -56q0 -38 12.5 -83.5t36 -85t57.5 -66t77 -26.5q39 0 63 18t37.5 46.5t18.5 64t5 71.5q0 37 -15 74t-41.5 66t-61 47t-73.5 18z" />
    <glyph glyph-name="ntilde" unicode="&#xf1;" horiz-adv-x="940" 
d="M505 258q-19 0 -39 -13t-38.5 -31t-34 -37t-24.5 -31q-5 -15 -5.5 -36.5t-3.5 -41t-11 -33.5t-28 -14q-16 0 -26 9.5t-10 24.5t1.5 28.5t4 26.5t4 27t1.5 31q0 23 -4 49.5t-12 49t-22 37.5t-33 15q-34 0 -59.5 -18t-48 -45.5t-45 -60.5t-49.5 -62q-9 -9 -23 -9
q-11 0 -24 8t-13 25q0 12 8 25q63 98 127 152.5t137 54.5q61 0 86 -37t33 -106q10 18 22.5 33t30.5 26t42 17t56 6q43 0 75 -18t56 -45.5t42.5 -59.5t36.5 -59.5t37 -45.5t44 -18q29 0 56.5 26.5t56.5 69.5q10 16 30 16t27.5 -13t7.5 -23t-3 -14q-13 -24 -29.5 -47.5
t-38 -42t-48 -30t-57.5 -11.5q-40 0 -69 18t-51 45.5t-40.5 59t-38 59t-42 45.5t-52.5 18zM280 670q-11 0 -20 -5t-17 -11t-16 -11t-17 -5q-17 0 -24 8.5t-7 18.5q0 16 10.5 29.5t25.5 23.5t32 16t30 6q27 0 50.5 -11.5t45.5 -25t42 -25t38 -11.5q20 0 35 13t28.5 28.5
t28 28.5t33.5 13q13 0 23 -9t8 -17q-6 -21 -22 -43.5t-38 -41t-47 -30t-50 -11.5t-48 11t-44.5 24.5t-41.5 25t-38 11.5z" />
    <glyph glyph-name="ograve" unicode="&#xf2;" horiz-adv-x="532" 
d="M-25 162q0 34 14 70t39.5 65.5t62 48.5t80.5 19q15 0 32.5 -0.5t31.5 -4.5t23.5 -13t9.5 -25q22 -10 40 -23.5t31.5 -33t21 -45.5t7.5 -61q0 -4 5 -6.5t12.5 -3.5t15 -1.5t13.5 -0.5q34 0 55 8.5t41 28.5q5 5 12.5 7.5t12.5 2.5q17 0 26 -11.5t9 -24.5q0 -6 -3 -11.5
t-5 -10.5q-10 -20 -28 -32t-38.5 -18t-42 -7.5t-39.5 -1.5t-34 2t-24 6q-14 -64 -58 -99.5t-120 -35.5q-55 0 -93.5 20t-63 51t-35.5 68.5t-11 72.5zM100 240q0 11 2.5 23t7.5 22q-15 -8 -27 -21.5t-20.5 -31t-12.5 -36t-4 -35.5q0 -33 12 -59t31.5 -44t42.5 -28t46 -10
q43 0 70.5 19t35.5 61q-21 5 -52.5 15t-61 26.5t-50 41t-20.5 57.5zM223 290q-6 0 -15.5 -1.5t-17.5 -5t-14 -11.5t-6 -21q0 -16 11 -29t29 -23t40.5 -18t45.5 -14v8q0 39 -22 70t-51 45zM239 501q-33 -1 -77.5 8.5t-84 26.5t-67 38.5t-27.5 44.5q0 6 8.5 16.5t16.5 10.5
q10 0 30 -12l45 -27t51.5 -28.5t50.5 -16.5q13 -2 37.5 -1.5t44.5 -4.5q11 -3 15 -12t4 -16q0 -16 -14.5 -21t-32.5 -6z" />
    <glyph glyph-name="oacute" unicode="&#xf3;" horiz-adv-x="532" 
d="M-25 162q0 34 14 70t39.5 65.5t62 48.5t80.5 19q15 0 32.5 -0.5t31.5 -4.5t23.5 -13t9.5 -25q22 -10 40 -23.5t31.5 -33t21 -45.5t7.5 -61q0 -4 5 -6.5t12.5 -3.5t15 -1.5t13.5 -0.5q34 0 55 8.5t41 28.5q5 5 12.5 7.5t12.5 2.5q17 0 26 -11.5t9 -24.5q0 -6 -3 -11.5
t-5 -10.5q-10 -20 -28 -32t-38.5 -18t-42 -7.5t-39.5 -1.5t-34 2t-24 6q-14 -64 -58 -99.5t-120 -35.5q-55 0 -93.5 20t-63 51t-35.5 68.5t-11 72.5zM100 240q0 11 2.5 23t7.5 22q-15 -8 -27 -21.5t-20.5 -31t-12.5 -36t-4 -35.5q0 -33 12 -59t31.5 -44t42.5 -28t46 -10
q43 0 70.5 19t35.5 61q-21 5 -52.5 15t-61 26.5t-50 41t-20.5 57.5zM223 290q-6 0 -15.5 -1.5t-17.5 -5t-14 -11.5t-6 -21q0 -16 11 -29t29 -23t40.5 -18t45.5 -14v8q0 39 -22 70t-51 45zM135 500q-4 4 -4 20q0 20 7 27.5t20.5 9.5t34.5 3t50 7q20 4 41 17.5t41.5 28
t40 25.5t36.5 11q4 0 7 -4t5.5 -9.5t4 -11t1.5 -7.5q0 -24 -28 -47t-67.5 -41t-82.5 -29t-72 -11q-28 0 -35 11z" />
    <glyph glyph-name="ocircumflex" unicode="&#xf4;" horiz-adv-x="532" 
d="M-25 162q0 34 14 70t39.5 65.5t62 48.5t80.5 19q15 0 32.5 -0.5t31.5 -4.5t23.5 -13t9.5 -25q22 -10 40 -23.5t31.5 -33t21 -45.5t7.5 -61q0 -4 5 -6.5t12.5 -3.5t15 -1.5t13.5 -0.5q34 0 55 8.5t41 28.5q5 5 12.5 7.5t12.5 2.5q17 0 26 -11.5t9 -24.5q0 -6 -3 -11.5
t-5 -10.5q-10 -20 -28 -32t-38.5 -18t-42 -7.5t-39.5 -1.5t-34 2t-24 6q-14 -64 -58 -99.5t-120 -35.5q-55 0 -93.5 20t-63 51t-35.5 68.5t-11 72.5zM100 240q0 11 2.5 23t7.5 22q-15 -8 -27 -21.5t-20.5 -31t-12.5 -36t-4 -35.5q0 -33 12 -59t31.5 -44t42.5 -28t46 -10
q43 0 70.5 19t35.5 61q-21 5 -52.5 15t-61 26.5t-50 41t-20.5 57.5zM223 290q-6 0 -15.5 -1.5t-17.5 -5t-14 -11.5t-6 -21q0 -16 11 -29t29 -23t40.5 -18t45.5 -14v8q0 39 -22 70t-51 45zM407 524q1 -2 1 -7q0 -10 -9.5 -18.5t-18.5 -8.5q-4 0 -6 1q-14 9 -35 30t-44 42.5
t-45.5 38t-40.5 16.5q-20 0 -43.5 -14t-47 -33.5t-47 -41.5t-43.5 -38q-4 -2 -6 -2q-9 0 -18 8.5t-9 18.5q0 18 24.5 47.5t58.5 57.5t68 48.5t54 20.5q25 0 56.5 -16.5t60.5 -41.5t53.5 -54t36.5 -54z" />
    <glyph glyph-name="otilde" unicode="&#xf5;" horiz-adv-x="531" 
d="M-25 162q0 34 14 70t39.5 65.5t62 48.5t80.5 19q15 0 32.5 -0.5t31.5 -4.5t23.5 -13t9.5 -25q22 -10 40 -23.5t31.5 -33t21 -45.5t7.5 -61q0 -4 5 -6.5t12.5 -3.5t15 -1.5t13.5 -0.5q34 0 55 8.5t41 28.5q5 5 12.5 7.5t12.5 2.5q17 0 26 -11.5t9 -24.5q0 -6 -3 -11.5
t-5 -10.5q-10 -20 -28 -32t-38.5 -18t-42 -7.5t-39.5 -1.5t-34 2t-24 6q-14 -64 -58 -99.5t-120 -35.5q-55 0 -93.5 20t-63 51t-35.5 68.5t-11 72.5zM100 240q0 11 2.5 23t7.5 22q-15 -8 -27 -21.5t-20.5 -31t-12.5 -36t-4 -35.5q0 -33 12 -59t31.5 -44t42.5 -28t46 -10
q43 0 70.5 19t35.5 61q-21 5 -52.5 15t-61 26.5t-50 41t-20.5 57.5zM223 290q-6 0 -15.5 -1.5t-17.5 -5t-14 -11.5t-6 -21q0 -16 11 -29t29 -23t40.5 -18t45.5 -14v8q0 39 -22 70t-51 45zM92 588q-11 0 -20 -5t-17 -11t-16 -11t-17 -5q-17 0 -24 8.5t-7 18.5q0 16 10.5 29.5
t25.5 23.5t32 16t30 6q27 0 50.5 -11.5t45.5 -25t42 -25t38 -11.5q20 0 35 13t28.5 28.5t28 28.5t33.5 13q13 0 23 -9t8 -17q-6 -21 -22 -43.5t-38 -41t-47 -30t-50 -11.5t-48 11t-44.5 24.5t-41.5 25t-38 11.5z" />
    <glyph glyph-name="odieresis" unicode="&#xf6;" horiz-adv-x="532" 
d="M-25 162q0 34 14 70t39.5 65.5t62 48.5t80.5 19q15 0 32.5 -0.5t31.5 -4.5t23.5 -13t9.5 -25q22 -10 40 -23.5t31.5 -33t21 -45.5t7.5 -61q0 -4 5 -6.5t12.5 -3.5t15 -1.5t13.5 -0.5q34 0 55 8.5t41 28.5q5 5 12.5 7.5t12.5 2.5q17 0 26 -11.5t9 -24.5q0 -6 -3 -11.5
t-5 -10.5q-10 -20 -28 -32t-38.5 -18t-42 -7.5t-39.5 -1.5t-34 2t-24 6q-14 -64 -58 -99.5t-120 -35.5q-55 0 -93.5 20t-63 51t-35.5 68.5t-11 72.5zM100 240q0 11 2.5 23t7.5 22q-15 -8 -27 -21.5t-20.5 -31t-12.5 -36t-4 -35.5q0 -33 12 -59t31.5 -44t42.5 -28t46 -10
q43 0 70.5 19t35.5 61q-21 5 -52.5 15t-61 26.5t-50 41t-20.5 57.5zM223 290q-6 0 -15.5 -1.5t-17.5 -5t-14 -11.5t-6 -21q0 -16 11 -29t29 -23t40.5 -18t45.5 -14v8q0 39 -22 70t-51 45zM57 589q2 22 20.5 33t41.5 11t34 -15t11 -29q0 -24 -15 -37t-53 -13q-18 0 -29 11.5
t-11 29.5q0 6 1 9zM243 593q2 21 20.5 32t41.5 11t33.5 -14t10.5 -28q0 -24 -13 -38t-53 -14q-18 0 -29.5 12t-11.5 30q0 6 1 9z" />
    <glyph glyph-name="divide" unicode="&#xf7;" horiz-adv-x="561" 
d="M89 236q-14 0 -27 0.5t-22.5 4.5t-15 11.5t-5.5 21.5q0 8 8.5 13t23 8t33 4t39.5 1h54t66.5 -0.5t68.5 -2t59 -3.5q40 -4 50.5 -10.5t10.5 -20.5q0 -10 -7.5 -16t-17.5 -9t-20.5 -3.5t-16.5 -0.5q-30 0 -59.5 0.5t-63 0.5t-72.5 0.5t-86 0.5zM172 84q0 13 6.5 23t17 17
t23 10t25.5 3q23 0 33.5 -15.5t10.5 -30.5q0 -14 -2.5 -24.5t-10 -17.5t-22 -11t-38.5 -4q-21 0 -32 13.5t-11 36.5zM164 459q8 25 25.5 35t44.5 10q22 -2 38 -18t15 -32q0 -13 -2 -23t-8.5 -17.5t-18.5 -11.5t-33 -5q-11 -1 -22.5 0.5t-20.5 7t-14.5 16t-5.5 27.5q0 8 2 11
z" />
    <glyph glyph-name="oslash" unicode="&#xf8;" horiz-adv-x="529" 
d="M-31 162q0 40 15.5 77.5t40 66.5t55.5 46t62 17q9 0 29.5 -2t41.5 -8q6 18 10.5 30.5t9 26t10.5 32t15 47.5q6 19 12.5 40.5t15 41t20.5 36t30 26.5q5 1 12.5 0t14 -4.5t11 -9t3.5 -13.5q-8 -25 -15 -51t-17 -60.5t-23.5 -81t-33.5 -111.5q34 -21 54.5 -57t19.5 -98
q15 -4 27 -5t24 -1q32 0 52 9t39 28q5 5 12.5 7.5t12.5 2.5q17 0 26 -11.5t9 -24.5q0 -6 -3 -11.5t-5 -10.5q-10 -20 -28 -32t-38.5 -18t-42 -7.5t-39.5 -1.5t-34 2t-24 6q-14 -64 -58 -99.5t-120 -35.5h-4l-44 -141q-14 -44 -32.5 -76t-47.5 -52q-11 -3 -20.5 5.5
t-7.5 24.5q13 50 29.5 111.5t40.5 144.5q-31 13 -53 35t-36.5 48.5t-21 55.5t-6.5 56zM94 240q0 11 2.5 23t7.5 22q-15 -8 -27 -21.5t-20.5 -31t-12.5 -36t-4 -35.5q0 -33 12 -59t31.5 -44t42.5 -28t46 -10q43 0 70.5 19t35.5 61q-21 5 -52.5 15t-61 26.5t-50 41t-20.5 57.5
zM217 290q-6 0 -15.5 -1.5t-17.5 -5t-14 -11.5t-6 -21q0 -16 11 -29t29 -23t40.5 -18t45.5 -14v8q0 39 -22 70t-51 45z" />
    <glyph glyph-name="ugrave" unicode="&#xf9;" horiz-adv-x="592" 
d="M23 288q25 0 25 -18q0 -21 -3.5 -50.5t-3.5 -59.5q0 -61 15.5 -89t37.5 -28q17 0 34.5 15t32.5 36t26 43t15 37q9 26 16 38t25 12q17 0 26 -8t10 -22q1 -12 9.5 -42t22 -61.5t31 -56t36.5 -24.5q26 0 50.5 15t46.5 37.5t41.5 48.5t34.5 49l6 10t6 9q11 15 28 15
q15 0 25.5 -10t10.5 -25q0 -12 -6 -21q-19 -28 -42.5 -62.5t-53 -64.5t-66 -50.5t-81.5 -20.5q-32 0 -57.5 16.5t-43.5 42.5t-28 58t-12 62q-3 -36 -17 -63t-34 -45.5t-44 -28t-48 -9.5q-28 0 -51 14.5t-39.5 38t-25.5 53t-9 59.5q0 28 1 55t6 48t16 34t31 13zM147 486
q-33 -1 -77.5 8.5t-84 26.5t-67 38.5t-27.5 44.5q0 6 8.5 16.5t16.5 10.5q10 0 30 -12l45 -27t51.5 -28.5t50.5 -16.5q13 -2 37.5 -1.5t44.5 -4.5q11 -3 15 -12t4 -16q0 -16 -14.5 -21t-32.5 -6z" />
    <glyph glyph-name="uacute" unicode="&#xfa;" horiz-adv-x="591" 
d="M23 288q25 0 25 -18q0 -21 -3.5 -50.5t-3.5 -59.5q0 -61 15.5 -89t37.5 -28q17 0 34.5 15t32.5 36t26 43t15 37q9 26 16 38t25 12q17 0 26 -8t10 -22q1 -12 9.5 -42t22 -61.5t31 -56t36.5 -24.5q26 0 50.5 15t46.5 37.5t41.5 48.5t34.5 49l6 10t6 9q11 15 28 15
q15 0 25.5 -10t10.5 -25q0 -12 -6 -21q-19 -28 -42.5 -62.5t-53 -64.5t-66 -50.5t-81.5 -20.5q-32 0 -57.5 16.5t-43.5 42.5t-28 58t-12 62q-3 -36 -17 -63t-34 -45.5t-44 -28t-48 -9.5q-28 0 -51 14.5t-39.5 38t-25.5 53t-9 59.5q0 28 1 55t6 48t16 34t31 13zM69 519
q-4 4 -4 20q0 20 7 27.5t20.5 9.5t34.5 3t50 7q20 4 41 17.5t41.5 28t40 25.5t36.5 11q4 0 7 -4t5.5 -9.5t4 -11t1.5 -7.5q0 -24 -28 -47t-67.5 -41t-82.5 -29t-72 -11q-28 0 -35 11z" />
    <glyph glyph-name="ucircumflex" unicode="&#xfb;" horiz-adv-x="592" 
d="M23 288q25 0 25 -18q0 -21 -3.5 -50.5t-3.5 -59.5q0 -61 15.5 -89t37.5 -28q17 0 34.5 15t32.5 36t26 43t15 37q9 26 16 38t25 12q17 0 26 -8t10 -22q1 -12 9.5 -42t22 -61.5t31 -56t36.5 -24.5q26 0 50.5 15t46.5 37.5t41.5 48.5t34.5 49l6 10t6 9q11 15 28 15
q15 0 25.5 -10t10.5 -25q0 -12 -6 -21q-19 -28 -42.5 -62.5t-53 -64.5t-66 -50.5t-81.5 -20.5q-32 0 -57.5 16.5t-43.5 42.5t-28 58t-12 62q-3 -36 -17 -63t-34 -45.5t-44 -28t-48 -9.5q-28 0 -51 14.5t-39.5 38t-25.5 53t-9 59.5q0 28 1 55t6 48t16 34t31 13zM341 533
q1 -2 1 -7q0 -10 -9.5 -18.5t-18.5 -8.5q-4 0 -6 1q-14 9 -35 30t-44 42.5t-45.5 38t-40.5 16.5q-20 0 -43.5 -14t-47 -33.5t-47 -41.5t-43.5 -38q-4 -2 -6 -2q-9 0 -18 8.5t-9 18.5q0 18 24.5 47.5t58.5 57.5t68 48.5t54 20.5q25 0 56.5 -16.5t60.5 -41.5t53.5 -54
t36.5 -54z" />
    <glyph glyph-name="udieresis" unicode="&#xfc;" horiz-adv-x="592" 
d="M23 288q25 0 25 -18q0 -21 -3.5 -50.5t-3.5 -59.5q0 -61 15.5 -89t37.5 -28q17 0 34.5 15t32.5 36t26 43t15 37q9 26 16 38t25 12q17 0 26 -8t10 -22q1 -12 9.5 -42t22 -61.5t31 -56t36.5 -24.5q26 0 50.5 15t46.5 37.5t41.5 48.5t34.5 49l6 10t6 9q11 15 28 15
q15 0 25.5 -10t10.5 -25q0 -12 -6 -21q-19 -28 -42.5 -62.5t-53 -64.5t-66 -50.5t-81.5 -20.5q-32 0 -57.5 16.5t-43.5 42.5t-28 58t-12 62q-3 -36 -17 -63t-34 -45.5t-44 -28t-48 -9.5q-28 0 -51 14.5t-39.5 38t-25.5 53t-9 59.5q0 28 1 55t6 48t16 34t31 13zM-12 554
q2 22 20.5 33t41.5 11t34 -15t11 -29q0 -24 -15 -37t-53 -13q-18 0 -29 11.5t-11 29.5q0 6 1 9zM174 558q2 21 20.5 32t41.5 11t33.5 -14t10.5 -28q0 -24 -13 -38t-53 -14q-18 0 -29.5 12t-11.5 30q0 6 1 9z" />
    <glyph glyph-name="yacute" unicode="&#xfd;" horiz-adv-x="634" 
d="M604 179q3 5 10.5 10t18.5 5q12 0 24 -8t12 -22t-14.5 -36t-38 -48.5t-53 -55t-59 -55.5t-56 -51t-44.5 -40q1 -19 1.5 -34t1 -29t1 -29t0.5 -35q0 -53 -3 -122.5t-13.5 -142.5t-31.5 -144t-58 -126.5t-92 -89.5t-133 -34q-38 0 -72 12t-60.5 35t-42 56.5t-15.5 77.5
q0 62 20 122.5t54.5 118t79 112t93.5 104.5t98.5 95.5t94.5 85.5q-1 16 -2.5 30t-3 27.5t-3 28t-2.5 31.5q-3 -31 -19 -58t-40 -47.5t-55 -32t-64 -11.5q-44 0 -79 17.5t-59.5 45.5t-37.5 63t-13 70q0 29 6 56.5t17 46.5q10 19 24 22t19 3q23 0 27 -13.5t4 -31.5
q0 -23 -5.5 -47t-5.5 -46t7 -43t20.5 -37t34 -25.5t47.5 -9.5q43 0 71.5 30t46 75t25 97t7.5 95q0 13 10.5 20.5t22.5 7.5t21.5 -5t12.5 -20q6 -27 11 -67t9.5 -81.5t8.5 -78t7 -55.5q29 22 55.5 45t51 49t49.5 55t51 62zM77 -838q67 0 112.5 37t74.5 96t43.5 133t21 148
t7.5 140.5t1 111.5q-40 -36 -83 -77t-85.5 -85.5t-80.5 -92.5t-67 -97.5t-46 -100.5t-17 -102q0 -24 9 -44.5t25 -35t38 -23t47 -8.5zM83 513q-4 4 -4 20q0 20 7 27.5t20.5 9.5t34.5 3t50 7q20 4 41 17.5t41.5 28t40 25.5t36.5 11q4 0 7 -4t5.5 -9.5t4 -11t1.5 -7.5
q0 -24 -28 -47t-67.5 -41t-82.5 -29t-72 -11q-28 0 -35 11z" />
    <glyph glyph-name="thorn" unicode="&#xfe;" horiz-adv-x="788" 
d="M22 129q-4 -3 -9.5 -4t-10.5 -1q-12 0 -25 7.5t-13 30.5q0 9 12 24.5t30.5 33.5t41 38t43.5 39q0 70 0.5 153.5t1 172.5t1 179.5t1.5 174.5t1.5 158.5t1.5 130.5q0 11 2 28.5t7.5 34t15.5 28t27 11.5q11 0 20.5 -6t9.5 -20q-2 -246 -2 -486t-1 -486q17 17 36 33.5t41 29
t48 20t59 7.5q39 0 72 -15.5t57.5 -42.5t38 -63t13.5 -77q0 -35 -16.5 -66t-41.5 -57t-54.5 -47.5t-54.5 -37.5t-41.5 -26.5t-16.5 -14.5q0 -8 12.5 -14.5t30.5 -11t37 -6.5t32 -2q54 0 98 15.5t83 42.5t76 64.5t77 82.5q3 3 9.5 6.5t15.5 3.5q10 0 23 -8.5t13 -25.5
q0 -11 -7 -21q-44 -63 -89 -106.5t-94 -70.5t-104 -39t-120 -12q-24 0 -54.5 4.5t-57 15t-45 27.5t-18.5 42t17 45t42.5 37.5t55.5 35.5t55.5 40t42.5 49t17 64q0 25 -6 46.5t-19.5 37.5t-34.5 25t-50 9q-27 0 -52 -11.5t-47.5 -29.5t-42.5 -40.5t-37 -43.5q-1 -115 -1 -228
v-228q0 -162 1 -320t2 -326q0 -17 -13 -25t-24 -8q-9 0 -17.5 9t-15.5 23t-11 30.5t-4 32.5q-3 310 -3 620q0 90 0.5 174.5t0.5 174.5q-19 -19 -33 -32t-36 -32z" />
    <glyph glyph-name="ydieresis" unicode="&#xff;" horiz-adv-x="634" 
d="M604 179q3 5 10.5 10t18.5 5q12 0 24 -8t12 -22t-14.5 -36t-38 -48.5t-53 -55t-59 -55.5t-56 -51t-44.5 -40q1 -19 1.5 -34t1 -29t1 -29t0.5 -35q0 -53 -3 -122.5t-13.5 -142.5t-31.5 -144t-58 -126.5t-92 -89.5t-133 -34q-38 0 -72 12t-60.5 35t-42 56.5t-15.5 77.5
q0 62 20 122.5t54.5 118t79 112t93.5 104.5t98.5 95.5t94.5 85.5q-1 16 -2.5 30t-3 27.5t-3 28t-2.5 31.5q-3 -31 -19 -58t-40 -47.5t-55 -32t-64 -11.5q-44 0 -79 17.5t-59.5 45.5t-37.5 63t-13 70q0 29 6 56.5t17 46.5q10 19 24 22t19 3q23 0 27 -13.5t4 -31.5
q0 -23 -5.5 -47t-5.5 -46t7 -43t20.5 -37t34 -25.5t47.5 -9.5q43 0 71.5 30t46 75t25 97t7.5 95q0 13 10.5 20.5t22.5 7.5t21.5 -5t12.5 -20q6 -27 11 -67t9.5 -81.5t8.5 -78t7 -55.5q29 22 55.5 45t51 49t49.5 55t51 62zM77 -838q67 0 112.5 37t74.5 96t43.5 133t21 148
t7.5 140.5t1 111.5q-40 -36 -83 -77t-85.5 -85.5t-80.5 -92.5t-67 -97.5t-46 -100.5t-17 -102q0 -24 9 -44.5t25 -35t38 -23t47 -8.5zM38 560q2 22 20.5 33t41.5 11t34 -15t11 -29q0 -24 -15 -37t-53 -13q-18 0 -29 11.5t-11 29.5q0 6 1 9zM224 564q2 21 20.5 32t41.5 11
t33.5 -14t10.5 -28q0 -24 -13 -38t-53 -14q-18 0 -29.5 12t-11.5 30q0 6 1 9z" />
    <glyph glyph-name="Amacron" unicode="&#x100;" horiz-adv-x="605" 
d="M211 82q-18 0 -39 6.5t-42 19t-40 31.5t-32 45q-14 -26 -27.5 -43t-30.5 -17q-19 0 -27.5 12t-8.5 23q0 6 6 18t14.5 25.5t18.5 27.5t18 25q-7 31 -7 74q0 37 9 77t29 73.5t53.5 55t83.5 21.5q54 0 91 -28.5t59.5 -70.5t32.5 -91t10 -90q0 -23 -3.5 -41.5t-10.5 -34.5
q11 -26 26.5 -43.5t31.5 -28t31.5 -15t27.5 -4.5q27 0 43 13.5t27.5 29t22 29t26.5 13.5q15 0 25.5 -10t10.5 -26q0 -6 -10 -25.5t-29.5 -40.5t-48.5 -37t-67 -16q-28 0 -53 8.5t-45.5 22t-36.5 30.5t-26 33q-42 -51 -113 -51zM191 486q-30 -1 -50.5 -16t-32.5 -37.5
t-17.5 -50t-5.5 -53.5q0 -32 10.5 -63.5t28 -57t40 -41t47.5 -15.5q22 0 40.5 11.5t32 29.5t20.5 40t7 43q0 28 -6.5 64.5t-20.5 68.5t-37 54.5t-56 22.5zM55 651q-3 3 -3 8q0 17 31 21t81 4h68t66 -3t50 -10.5t20 -22.5q0 -8 -6.5 -13t-16 -7t-20.5 -2.5t-19 -0.5
q-11 0 -23.5 0.5t-30.5 1.5t-44 1.5t-64 0.5h-25.5t-26 2t-22.5 6.5t-15 13.5z" />
    <glyph glyph-name="amacron" unicode="&#x101;" horiz-adv-x="556" 
d="M222 239q0 33 -4 65t-15 57t-31 40t-53 15q-25 0 -44.5 -13.5t-33 -33t-20.5 -43t-7 -42.5q0 -30 12 -62t31.5 -58.5t44.5 -43t51 -16.5q29 0 49 32.5t20 102.5zM272 246q9 -36 9 -68q0 -64 -33 -104t-95 -40q-39 0 -76.5 22.5t-67 58.5t-48 81.5t-18.5 91.5
q0 36 14 71.5t37.5 63.5t55.5 45t68 17t65 -14.5t52 -38.5t42 -54.5t36 -62.5q10 -21 24 -57t30.5 -71t35 -60.5t38.5 -25.5q21 0 36 14.5t27.5 32t24.5 32t27 14.5q17 0 26 -11t9 -25q0 -12 -9 -24q-13 -18 -29 -36.5t-34.5 -33.5t-38 -24t-39.5 -9q-32 0 -58.5 21
t-48.5 52.5t-37.5 69.5t-24.5 72zM-64 667q-3 3 -3 8q0 17 31 21t81 4h68t66 -3t50 -10.5t20 -22.5q0 -8 -6.5 -13t-16 -7t-20.5 -2.5t-19 -0.5q-11 0 -23.5 0.5t-30.5 1.5t-44 1.5t-64 0.5h-25.5t-26 2t-22.5 6.5t-15 13.5z" />
    <glyph glyph-name="Abreve" unicode="&#x102;" horiz-adv-x="605" 
d="M211 82q-18 0 -39 6.5t-42 19t-40 31.5t-32 45q-14 -26 -27.5 -43t-30.5 -17q-19 0 -27.5 12t-8.5 23q0 6 6 18t14.5 25.5t18.5 27.5t18 25q-7 31 -7 74q0 37 9 77t29 73.5t53.5 55t83.5 21.5q54 0 91 -28.5t59.5 -70.5t32.5 -91t10 -90q0 -23 -3.5 -41.5t-10.5 -34.5
q11 -26 26.5 -43.5t31.5 -28t31.5 -15t27.5 -4.5q27 0 43 13.5t27.5 29t22 29t26.5 13.5q15 0 25.5 -10t10.5 -26q0 -6 -10 -25.5t-29.5 -40.5t-48.5 -37t-67 -16q-28 0 -53 8.5t-45.5 22t-36.5 30.5t-26 33q-42 -51 -113 -51zM191 486q-30 -1 -50.5 -16t-32.5 -37.5
t-17.5 -50t-5.5 -53.5q0 -32 10.5 -63.5t28 -57t40 -41t47.5 -15.5q22 0 40.5 11.5t32 29.5t20.5 40t7 43q0 28 -6.5 64.5t-20.5 68.5t-37 54.5t-56 22.5zM-8 772q0 2 -0.5 4t-0.5 4q0 11 10.5 16t21.5 5q17 0 24 -8q14 -15 29.5 -34t33.5 -35.5t38.5 -27.5t43.5 -11
q30 0 51.5 13.5t40 32.5t37 39t43.5 33q2 0 3 0.5t3 0.5q11 0 20 -6.5t9 -17.5q0 -1 -0.5 -2t-0.5 -2q-11 -21 -29 -48t-44 -51t-59.5 -40.5t-76.5 -16.5q-33 0 -64.5 16.5t-58 40.5t-46 50t-28.5 45z" />
    <glyph glyph-name="abreve" unicode="&#x103;" horiz-adv-x="565" 
d="M231 239q0 33 -4 65t-15 57t-31 40t-53 15q-25 0 -44.5 -13.5t-33 -33t-20.5 -43t-7 -42.5q0 -30 12 -62t31.5 -58.5t44.5 -43t51 -16.5q29 0 49 32.5t20 102.5zM281 246q9 -36 9 -68q0 -64 -33 -104t-95 -40q-39 0 -76.5 22.5t-67 58.5t-48 81.5t-18.5 91.5
q0 36 14 71.5t37.5 63.5t55.5 45t68 17t65 -14.5t52 -38.5t42 -54.5t36 -62.5q10 -21 24 -57t30.5 -71t35 -60.5t38.5 -25.5q21 0 36 14.5t27.5 32t24.5 32t27 14.5q17 0 26 -11t9 -25q0 -12 -9 -24q-13 -18 -29 -36.5t-34.5 -33.5t-38 -24t-39.5 -9q-32 0 -58.5 21
t-48.5 52.5t-37.5 69.5t-24.5 72zM-77 830q0 2 -0.5 4t-0.5 4q0 11 10.5 16t21.5 5q17 0 24 -8q14 -15 29.5 -34t33.5 -35.5t38.5 -27.5t43.5 -11q30 0 51.5 13.5t40 32.5t37 39t43.5 33q2 0 3 0.5t3 0.5q11 0 20 -6.5t9 -17.5q0 -1 -0.5 -2t-0.5 -2q-11 -21 -29 -48
t-44 -51t-59.5 -40.5t-76.5 -16.5q-33 0 -64.5 16.5t-58 40.5t-46 50t-28.5 45z" />
    <glyph glyph-name="Aogonek" unicode="&#x104;" horiz-adv-x="605" 
d="M211 82q-18 0 -39 6.5t-42 19t-40 31.5t-32 45q-14 -26 -27.5 -43t-30.5 -17q-19 0 -27.5 12t-8.5 23q0 6 6 18t14.5 25.5t18.5 27.5t18 25q-7 31 -7 74q0 37 9 77t29 73.5t53.5 55t83.5 21.5q54 0 91 -28.5t59.5 -70.5t32.5 -91t10 -90q0 -23 -3.5 -41.5t-10.5 -34.5
q11 -26 26.5 -43.5t31.5 -28t31.5 -15t27.5 -4.5q27 0 43 13.5t27.5 29t22 29t26.5 13.5q15 0 25.5 -10t10.5 -26q0 -6 -10 -25.5t-29.5 -40.5t-48.5 -37t-67 -16q-28 0 -53 8.5t-45.5 22t-36.5 30.5t-26 33q-42 -51 -113 -51zM191 486q-30 -1 -50.5 -16t-32.5 -37.5
t-17.5 -50t-5.5 -53.5q0 -32 10.5 -63.5t28 -57t40 -41t47.5 -15.5q22 0 40.5 11.5t32 29.5t20.5 40t7 43q0 28 -6.5 64.5t-20.5 68.5t-37 54.5t-56 22.5zM546 111q5 0 12.5 -0.5t14 -3t11.5 -7t5 -12.5q0 -9 -8 -15q-24 -17 -60.5 -40t-70.5 -50t-58.5 -57t-24.5 -61
q0 -13 5.5 -20t14.5 -10.5t20 -4.5t22 -1q15 0 31.5 3t32.5 6t31 6t26 3t17 -8.5t6 -19.5q0 -12 -11.5 -22.5t-31 -18.5t-45 -12.5t-54.5 -4.5q-25 0 -52 6t-49 18.5t-36 32.5t-14 48t15 57.5t39 56.5t53.5 51t59 41.5t56 28t43.5 10.5z" />
    <glyph glyph-name="aogonek" unicode="&#x105;" horiz-adv-x="561" 
d="M226 239q0 33 -4 65t-15 57t-31 40t-53 15q-25 0 -44.5 -13.5t-33 -33t-20.5 -43t-7 -42.5q0 -30 12 -62t31.5 -58.5t44.5 -43t51 -16.5q29 0 49 32.5t20 102.5zM276 246q9 -36 9 -68q0 -64 -33 -104t-95 -40q-39 0 -76.5 22.5t-67 58.5t-48 81.5t-18.5 91.5
q0 36 14 71.5t37.5 63.5t55.5 45t68 17t65 -14.5t52 -38.5t42 -54.5t36 -62.5q10 -21 24 -57t30.5 -71t35 -60.5t38.5 -25.5q21 0 36 14.5t27.5 32t24.5 32t27 14.5q17 0 26 -11t9 -25q0 -12 -9 -24q-13 -18 -29 -36.5t-34.5 -33.5t-38 -24t-39.5 -9q-32 0 -58.5 21
t-48.5 52.5t-37.5 69.5t-24.5 72zM473 92q5 0 12.5 -0.5t14 -3t11.5 -7t5 -12.5q0 -9 -8 -15q-24 -17 -60.5 -40t-70.5 -50t-58.5 -57t-24.5 -61q0 -13 5.5 -20t14.5 -10.5t20 -4.5t22 -1q15 0 31.5 3t32.5 6t31 6t26 3t17 -8.5t6 -19.5q0 -12 -11.5 -22.5t-31 -18.5
t-45 -12.5t-54.5 -4.5q-25 0 -52 6t-49 18.5t-36 32.5t-14 48t15 57.5t39 56.5t53.5 51t59 41.5t56 28t43.5 10.5z" />
    <glyph glyph-name="Cacute" unicode="&#x106;" horiz-adv-x="517" 
d="M488 179q4 5 11 10t18 5q13 0 24 -10t11 -24t-7 -24q-21 -28 -47 -54.5t-58 -46.5t-69.5 -32.5t-80.5 -12.5q-46 0 -83.5 17t-65 46.5t-45.5 68t-26 81.5q-8 -10 -18 -30t-23 -34q-14 -15 -30 -15q-21 0 -28 12.5t-7 22.5q0 7 11 26.5t26.5 42.5t32.5 45.5t28 36.5
q8 39 22.5 75t36.5 63.5t53.5 44t74.5 16.5q26 0 50 -8.5t45 -23.5t38 -34.5t29 -41.5q6 -12 6 -23q0 -16 -9 -24t-22 -8q-18 0 -27 12q-22 30 -48 55t-61 25q-28 0 -50.5 -14.5t-38 -37.5t-23.5 -51.5t-8 -55.5q0 -46 10 -86t30 -69.5t50 -46.5t70 -17q35 0 64.5 10.5
t54 28t44.5 38.5t35 42zM98 631q-4 4 -4 20q0 20 7 27.5t20.5 9.5t34.5 3t50 7q20 4 41 17.5t41.5 28t40 25.5t36.5 11q4 0 7 -4t5.5 -9.5t4 -11t1.5 -7.5q0 -24 -28 -47t-67.5 -41t-82.5 -29t-72 -11q-28 0 -35 11z" />
    <glyph glyph-name="cacute" unicode="&#x107;" horiz-adv-x="461" 
d="M305 346q0 -14 -2 -29.5t-7.5 -28.5t-15.5 -22t-26 -9q-11 0 -20 7t-9 22q0 14 4.5 29t4.5 31q0 18 -4.5 35.5t-14 31t-24 21.5t-34.5 8q-28 0 -52.5 -14.5t-43 -40t-29 -59.5t-10.5 -73q0 -40 15 -73.5t41.5 -58t62 -38.5t76.5 -14q43 0 74.5 8.5t56 23.5t45 36t43.5 45
q5 6 11.5 8t12.5 2q20 0 28 -12t8 -24t-4 -17q-46 -67 -116 -103.5t-159 -36.5q-48 0 -95.5 16.5t-85.5 48.5t-61.5 79.5t-23.5 109.5q0 39 11 84.5t36 83.5t64 63.5t95 25.5q33 0 60 -13t46.5 -35.5t30.5 -52.5t11 -65zM130 620q-4 4 -4 20q0 20 7 27.5t20.5 9.5t34.5 3
t50 7q20 4 41 17.5t41.5 28t40 25.5t36.5 11q4 0 7 -4t5.5 -9.5t4 -11t1.5 -7.5q0 -24 -28 -47t-67.5 -41t-82.5 -29t-72 -11q-28 0 -35 11z" />
    <glyph glyph-name="Ccircumflex" unicode="&#x108;" horiz-adv-x="517" 
d="M488 179q4 5 11 10t18 5q13 0 24 -10t11 -24t-7 -24q-21 -28 -47 -54.5t-58 -46.5t-69.5 -32.5t-80.5 -12.5q-46 0 -83.5 17t-65 46.5t-45.5 68t-26 81.5q-8 -10 -18 -30t-23 -34q-14 -15 -30 -15q-21 0 -28 12.5t-7 22.5q0 7 11 26.5t26.5 42.5t32.5 45.5t28 36.5
q8 39 22.5 75t36.5 63.5t53.5 44t74.5 16.5q26 0 50 -8.5t45 -23.5t38 -34.5t29 -41.5q6 -12 6 -23q0 -16 -9 -24t-22 -8q-18 0 -27 12q-22 30 -48 55t-61 25q-28 0 -50.5 -14.5t-38 -37.5t-23.5 -51.5t-8 -55.5q0 -46 10 -86t30 -69.5t50 -46.5t70 -17q35 0 64.5 10.5
t54 28t44.5 38.5t35 42zM448 662q1 -2 1 -7q0 -10 -9.5 -18.5t-18.5 -8.5q-4 0 -6 1q-14 9 -35 30t-44 42.5t-45.5 38t-40.5 16.5q-20 0 -43.5 -14t-47 -33.5t-47 -41.5t-43.5 -38q-4 -2 -6 -2q-9 0 -18 8.5t-9 18.5q0 18 24.5 47.5t58.5 57.5t68 48.5t54 20.5
q25 0 56.5 -16.5t60.5 -41.5t53.5 -54t36.5 -54z" />
    <glyph glyph-name="ccircumflex" unicode="&#x109;" horiz-adv-x="461" 
d="M305 346q0 -14 -2 -29.5t-7.5 -28.5t-15.5 -22t-26 -9q-11 0 -20 7t-9 22q0 14 4.5 29t4.5 31q0 18 -4.5 35.5t-14 31t-24 21.5t-34.5 8q-28 0 -52.5 -14.5t-43 -40t-29 -59.5t-10.5 -73q0 -40 15 -73.5t41.5 -58t62 -38.5t76.5 -14q43 0 74.5 8.5t56 23.5t45 36t43.5 45
q5 6 11.5 8t12.5 2q20 0 28 -12t8 -24t-4 -17q-46 -67 -116 -103.5t-159 -36.5q-48 0 -95.5 16.5t-85.5 48.5t-61.5 79.5t-23.5 109.5q0 39 11 84.5t36 83.5t64 63.5t95 25.5q33 0 60 -13t46.5 -35.5t30.5 -52.5t11 -65zM383 628q1 -2 1 -7q0 -10 -9.5 -18.5t-18.5 -8.5
q-4 0 -6 1q-14 9 -35 30t-44 42.5t-45.5 38t-40.5 16.5q-20 0 -43.5 -14t-47 -33.5t-47 -41.5t-43.5 -38q-4 -2 -6 -2q-9 0 -18 8.5t-9 18.5q0 18 24.5 47.5t58.5 57.5t68 48.5t54 20.5q25 0 56.5 -16.5t60.5 -41.5t53.5 -54t36.5 -54z" />
    <glyph glyph-name="Cdotaccent" unicode="&#x10a;" horiz-adv-x="517" 
d="M488 179q4 5 11 10t18 5q13 0 24 -10t11 -24t-7 -24q-21 -28 -47 -54.5t-58 -46.5t-69.5 -32.5t-80.5 -12.5q-46 0 -83.5 17t-65 46.5t-45.5 68t-26 81.5q-8 -10 -18 -30t-23 -34q-14 -15 -30 -15q-21 0 -28 12.5t-7 22.5q0 7 11 26.5t26.5 42.5t32.5 45.5t28 36.5
q8 39 22.5 75t36.5 63.5t53.5 44t74.5 16.5q26 0 50 -8.5t45 -23.5t38 -34.5t29 -41.5q6 -12 6 -23q0 -16 -9 -24t-22 -8q-18 0 -27 12q-22 30 -48 55t-61 25q-28 0 -50.5 -14.5t-38 -37.5t-23.5 -51.5t-8 -55.5q0 -46 10 -86t30 -69.5t50 -46.5t70 -17q35 0 64.5 10.5
t54 28t44.5 38.5t35 42zM195 677q3 22 22.5 32.5t42.5 10.5q22 0 32 -14t10 -28q0 -24 -13 -38t-52 -14q-19 0 -31 12t-12 31q0 2 0.5 4t0.5 4z" />
    <glyph glyph-name="cdotaccent" unicode="&#x10b;" horiz-adv-x="461" 
d="M305 346q0 -14 -2 -29.5t-7.5 -28.5t-15.5 -22t-26 -9q-11 0 -20 7t-9 22q0 14 4.5 29t4.5 31q0 18 -4.5 35.5t-14 31t-24 21.5t-34.5 8q-28 0 -52.5 -14.5t-43 -40t-29 -59.5t-10.5 -73q0 -40 15 -73.5t41.5 -58t62 -38.5t76.5 -14q43 0 74.5 8.5t56 23.5t45 36t43.5 45
q5 6 11.5 8t12.5 2q20 0 28 -12t8 -24t-4 -17q-46 -67 -116 -103.5t-159 -36.5q-48 0 -95.5 16.5t-85.5 48.5t-61.5 79.5t-23.5 109.5q0 39 11 84.5t36 83.5t64 63.5t95 25.5q33 0 60 -13t46.5 -35.5t30.5 -52.5t11 -65zM139 698q3 22 22.5 32.5t42.5 10.5q22 0 32 -14
t10 -28q0 -24 -13 -38t-52 -14q-19 0 -31 12t-12 31q0 2 0.5 4t0.5 4z" />
    <glyph glyph-name="Ccaron" unicode="&#x10c;" horiz-adv-x="517" 
d="M488 179q4 5 11 10t18 5q13 0 24 -10t11 -24t-7 -24q-21 -28 -47 -54.5t-58 -46.5t-69.5 -32.5t-80.5 -12.5q-46 0 -83.5 17t-65 46.5t-45.5 68t-26 81.5q-8 -10 -18 -30t-23 -34q-14 -15 -30 -15q-21 0 -28 12.5t-7 22.5q0 7 11 26.5t26.5 42.5t32.5 45.5t28 36.5
q8 39 22.5 75t36.5 63.5t53.5 44t74.5 16.5q26 0 50 -8.5t45 -23.5t38 -34.5t29 -41.5q6 -12 6 -23q0 -16 -9 -24t-22 -8q-18 0 -27 12q-22 30 -48 55t-61 25q-28 0 -50.5 -14.5t-38 -37.5t-23.5 -51.5t-8 -55.5q0 -46 10 -86t30 -69.5t50 -46.5t70 -17q35 0 64.5 10.5
t54 28t44.5 38.5t35 42zM20 783q-3 6 -3 11q0 15 19 15q19 -3 42.5 -18t46.5 -38q9 -9 19.5 -20.5t22.5 -21.5t25.5 -17t28.5 -7q21 0 40 13t38.5 31t39.5 36.5t41 30.5q7 5 14.5 8.5t14.5 3.5q6 0 10.5 -4t4.5 -10q0 -8 -10 -23t-26.5 -34t-38 -38.5t-44 -36.5t-44 -28.5
t-38.5 -12.5q-23 0 -51 14.5t-55.5 38t-53 52t-43.5 55.5z" />
    <glyph glyph-name="ccaron" unicode="&#x10d;" horiz-adv-x="461" 
d="M305 346q0 -14 -2 -29.5t-7.5 -28.5t-15.5 -22t-26 -9q-11 0 -20 7t-9 22q0 14 4.5 29t4.5 31q0 18 -4.5 35.5t-14 31t-24 21.5t-34.5 8q-28 0 -52.5 -14.5t-43 -40t-29 -59.5t-10.5 -73q0 -40 15 -73.5t41.5 -58t62 -38.5t76.5 -14q43 0 74.5 8.5t56 23.5t45 36t43.5 45
q5 6 11.5 8t12.5 2q20 0 28 -12t8 -24t-4 -17q-46 -67 -116 -103.5t-159 -36.5q-48 0 -95.5 16.5t-85.5 48.5t-61.5 79.5t-23.5 109.5q0 39 11 84.5t36 83.5t64 63.5t95 25.5q33 0 60 -13t46.5 -35.5t30.5 -52.5t11 -65zM12 785q-3 6 -3 11q0 15 19 15q19 -3 42.5 -18
t46.5 -38q9 -9 19.5 -20.5t22.5 -21.5t25.5 -17t28.5 -7q21 0 40 13t38.5 31t39.5 36.5t41 30.5q7 5 14.5 8.5t14.5 3.5q6 0 10.5 -4t4.5 -10q0 -8 -10 -23t-26.5 -34t-38 -38.5t-44 -36.5t-44 -28.5t-38.5 -12.5q-23 0 -51 14.5t-55.5 38t-53 52t-43.5 55.5z" />
    <glyph glyph-name="Dcaron" unicode="&#x10e;" horiz-adv-x="551" 
d="M349 814q0 -67 -9 -146t-20 -154.5t-20 -139.5t-9 -101q0 -31 7 -63.5t21 -58.5t34.5 -43t47.5 -17q39 0 67.5 26t52.5 61q6 9 13.5 12.5t15.5 3.5q14 0 25 -9.5t11 -26.5q0 -10 -4 -17q-17 -25 -36 -47t-41.5 -38t-48 -25.5t-55.5 -9.5q-26 0 -50.5 10t-44.5 27
t-33 39.5t-17 46.5q-7 -23 -16 -44t-22 -37t-32 -25.5t-46 -9.5q-45 0 -78 23t-54.5 56t-31.5 70.5t-10 66.5q0 34 10 67.5t29 59.5t47.5 42.5t64.5 16.5q17 0 33.5 -5.5t30.5 -14t26 -19t20 -19.5q4 41 12.5 85t17 95t15 111.5t6.5 134.5q0 46 -3 96.5t-7.5 102t-10 102
t-11.5 97.5q0 2 -0.5 3t-0.5 3q0 14 15.5 22.5t32.5 8.5q13 0 22.5 -24.5t16 -63t10 -86t5 -94t2 -87t0.5 -64.5zM217 236q0 22 -5.5 44t-17.5 40t-31 29t-46 11q-20 0 -34.5 -10t-25 -26.5t-15.5 -37t-5 -42.5q0 -27 6 -53t18.5 -46.5t32 -33.5t46.5 -13q22 0 37 13
t24 33.5t12.5 44.5t3.5 47zM80 1506q-3 6 -3 11q0 15 19 15q19 -3 42.5 -18t46.5 -38q9 -9 19.5 -20.5t22.5 -21.5t25.5 -17t28.5 -7q21 0 40 13t38.5 31t39.5 36.5t41 30.5q7 5 14.5 8.5t14.5 3.5q6 0 10.5 -4t4.5 -10q0 -8 -10 -23t-26.5 -34t-38 -38.5t-44 -36.5
t-44 -28.5t-38.5 -12.5q-23 0 -51 14.5t-55.5 38t-53 52t-43.5 55.5z" />
    <glyph glyph-name="dcaron" unicode="&#x10f;" horiz-adv-x="547" 
d="M350 437q0 -23 -0.5 -47.5t-1.5 -53t-1.5 -63.5t-0.5 -80q0 -12 3 -29t10.5 -32.5t20.5 -26t33 -10.5q21 0 37 6.5t28 18t20.5 26t16.5 29.5q5 9 13.5 14t18.5 5q20 0 27.5 -12.5t7.5 -22.5q0 -12 -7 -22q-12 -18 -24.5 -38t-30 -36.5t-43 -27t-64.5 -10.5q-29 0 -50.5 9
t-36.5 24t-24.5 33t-13.5 36q-23 -48 -65.5 -75t-103.5 -27q-33 0 -59.5 11t-45.5 31.5t-29.5 48t-10.5 60.5q0 38 17 83.5t47 85t70.5 66t86.5 26.5q21 0 45.5 -12t33.5 -29q3 46 3 92q0 72 -4 138.5t-8.5 129.5t-8.5 124.5t-4 125.5q0 16 1.5 32t5.5 29.5t11.5 22
t20.5 8.5q12 0 24 -6.5t12 -17.5q0 -16 -0.5 -31.5t-0.5 -32.5q0 -73 3.5 -148.5t8 -150t8.5 -144t4 -130.5zM119 95q31 0 59.5 13.5t50 36.5t34 52.5t12.5 62.5q0 49 -21 78t-59 29q-26 0 -52.5 -17t-48.5 -44t-35.5 -61.5t-13.5 -68.5q0 -42 21 -61.5t53 -19.5zM428 993
q-1 18 14 27t35 3q13 -5 20 -14t10.5 -19.5t4 -21.5t0.5 -20q0 -16 -5 -39t-13.5 -45.5t-19 -42.5t-21.5 -30q-13 -6 -20 -3.5t-10 9.5t-3.5 16t0.5 16q2 17 6.5 38t5.5 38q2 22 0.5 43t-4.5 45z" />
    <glyph glyph-name="Dcroat" unicode="&#x110;" horiz-adv-x="547" 
d="M349 814q0 -67 -9 -146t-20 -154.5t-20 -139.5t-9 -101q0 -31 7 -63.5t21 -58.5t34.5 -43t47.5 -17q39 0 67.5 26t52.5 61q6 9 13.5 12.5t15.5 3.5q14 0 25 -9.5t11 -26.5q0 -10 -4 -17q-17 -25 -36 -47t-41.5 -38t-48 -25.5t-55.5 -9.5q-26 0 -50.5 10t-44.5 27
t-33 39.5t-17 46.5q-7 -23 -16 -44t-22 -37t-32 -25.5t-46 -9.5q-45 0 -78 23t-54.5 56t-31.5 70.5t-10 66.5q0 34 10 67.5t29 59.5t47.5 42.5t64.5 16.5q17 0 33.5 -5.5t30.5 -14t26 -19t20 -19.5q4 41 12.5 85t17 95t15 111.5t6.5 134.5q0 46 -3 96.5t-7.5 102t-10 102
t-11.5 97.5q0 2 -0.5 3t-0.5 3q0 14 15.5 22.5t32.5 8.5q13 0 22.5 -24.5t16 -63t10 -86t5 -94t2 -87t0.5 -64.5zM217 236q0 22 -5.5 44t-17.5 40t-31 29t-46 11q-20 0 -34.5 -10t-25 -26.5t-15.5 -37t-5 -42.5q0 -27 6 -53t18.5 -46.5t32 -33.5t46.5 -13q22 0 37 13
t24 33.5t12.5 44.5t3.5 47zM152 725q-3 3 -3 8q0 17 31 21t81 4h68t66 -3t50 -10.5t20 -22.5q0 -8 -6.5 -13t-16 -7t-20.5 -2.5t-19 -0.5q-11 0 -23.5 0.5t-30.5 1.5t-44 1.5t-64 0.5h-25.5t-26 2t-22.5 6.5t-15 13.5z" />
    <glyph glyph-name="dcroat" unicode="&#x111;" horiz-adv-x="549" 
d="M350 437q0 -23 -0.5 -47.5t-1.5 -53t-1.5 -63.5t-0.5 -80q0 -12 3 -29t10.5 -32.5t20.5 -26t33 -10.5q21 0 37 6.5t28 18t20.5 26t16.5 29.5q5 9 13.5 14t18.5 5q20 0 27.5 -12.5t7.5 -22.5q0 -12 -7 -22q-12 -18 -24.5 -38t-30 -36.5t-43 -27t-64.5 -10.5q-29 0 -50.5 9
t-36.5 24t-24.5 33t-13.5 36q-23 -48 -65.5 -75t-103.5 -27q-33 0 -59.5 11t-45.5 31.5t-29.5 48t-10.5 60.5q0 38 17 83.5t47 85t70.5 66t86.5 26.5q21 0 45.5 -12t33.5 -29q3 46 3 92q0 72 -4 138.5t-8.5 129.5t-8.5 124.5t-4 125.5q0 16 1.5 32t5.5 29.5t11.5 22
t20.5 8.5q12 0 24 -6.5t12 -17.5q0 -16 -0.5 -31.5t-0.5 -32.5q0 -73 3.5 -148.5t8 -150t8.5 -144t4 -130.5zM119 95q31 0 59.5 13.5t50 36.5t34 52.5t12.5 62.5q0 49 -21 78t-59 29q-26 0 -52.5 -17t-48.5 -44t-35.5 -61.5t-13.5 -68.5q0 -42 21 -61.5t53 -19.5zM85 726
q-5 11 0.5 21t20.5 11q12 1 25 1h27h61.5t94.5 -1h42t42 -3t31 -10t11 -21q-3 -22 -25.5 -26t-54.5 -4t-72.5 -0.5t-80 1.5t-73 9t-49.5 22z" />
    <glyph glyph-name="Emacron" unicode="&#x112;" horiz-adv-x="539" 
d="M137 541q52 0 87 -32t35 -86q0 -45 -17 -87t-45 -78.5t-65 -67t-76 -53.5q29 -58 75.5 -82.5t104.5 -24.5q40 0 77.5 14t72 36t66 49.5t60.5 54.5q12 10 26 10q13 0 24 -9t11 -27q0 -15 -11 -26q-75 -85 -153 -128.5t-173 -43.5q-57 0 -107.5 21.5t-88.5 59.5t-60.5 89
t-22.5 110q0 54 7.5 107.5t27.5 96.5t55 70t90 27zM137 471q-29 0 -50 -20t-34.5 -50.5t-20.5 -67t-7 -69.5t6 -58q28 18 56 40t50.5 49t36.5 59t14 69q0 24 -14 36t-37 12zM13 674q-3 3 -3 8q0 17 31 21t81 4h68t66 -3t50 -10.5t20 -22.5q0 -8 -6.5 -13t-16 -7t-20.5 -2.5
t-19 -0.5q-11 0 -23.5 0.5t-30.5 1.5t-44 1.5t-64 0.5h-25.5t-26 2t-22.5 6.5t-15 13.5z" />
    <glyph glyph-name="emacron" unicode="&#x113;" horiz-adv-x="382" 
d="M80 501q22 0 42.5 -10t36 -27t24.5 -38.5t9 -45.5q0 -30 -11 -63t-30.5 -66t-45 -63.5t-54.5 -54.5q25 -23 58 -31t75 -8q24 0 48.5 5.5t47 16t41.5 26.5t32 37q7 11 15.5 13t13.5 2q11 0 23 -8t12 -28q0 -14 -11 -26q-19 -22 -41 -41.5t-48.5 -34.5t-59.5 -23.5
t-73 -8.5q-76 0 -128.5 23.5t-85 62.5t-47 88.5t-14.5 101.5q0 41 13.5 77.5t36.5 64t54 43.5t67 16zM81 431q-26 0 -44.5 -11.5t-31.5 -30t-19 -42t-6 -47.5q0 -33 6.5 -64.5t21.5 -53.5q14 14 33.5 37.5t37 51t30 56t12.5 53.5q0 20 -8.5 35.5t-31.5 15.5zM-46 635
q-3 3 -3 8q0 17 31 21t81 4h68t66 -3t50 -10.5t20 -22.5q0 -8 -6.5 -13t-16 -7t-20.5 -2.5t-19 -0.5q-11 0 -23.5 0.5t-30.5 1.5t-44 1.5t-64 0.5h-25.5t-26 2t-22.5 6.5t-15 13.5z" />
    <glyph glyph-name="Ebreve" unicode="&#x114;" horiz-adv-x="546" 
d="M143 541q52 0 87 -32t35 -86q0 -45 -17 -87t-45 -78.5t-65 -67t-76 -53.5q29 -58 75.5 -82.5t104.5 -24.5q40 0 77.5 14t72 36t66 49.5t60.5 54.5q12 10 26 10q13 0 24 -9t11 -27q0 -15 -11 -26q-75 -85 -153 -128.5t-173 -43.5q-57 0 -107.5 21.5t-88.5 59.5t-60.5 89
t-22.5 110q0 54 7.5 107.5t27.5 96.5t55 70t90 27zM143 471q-29 0 -50 -20t-34.5 -50.5t-20.5 -67t-7 -69.5t6 -58q28 18 56 40t50.5 49t36.5 59t14 69q0 24 -14 36t-37 12zM-47 772q0 2 -0.5 4t-0.5 4q0 11 10.5 16t21.5 5q17 0 24 -8q14 -15 29.5 -34t33.5 -35.5
t38.5 -27.5t43.5 -11q30 0 51.5 13.5t40 32.5t37 39t43.5 33q2 0 3 0.5t3 0.5q11 0 20 -6.5t9 -17.5q0 -1 -0.5 -2t-0.5 -2q-11 -21 -29 -48t-44 -51t-59.5 -40.5t-76.5 -16.5q-33 0 -64.5 16.5t-58 40.5t-46 50t-28.5 45z" />
    <glyph glyph-name="ebreve" unicode="&#x115;" horiz-adv-x="382" 
d="M80 501q22 0 42.5 -10t36 -27t24.5 -38.5t9 -45.5q0 -30 -11 -63t-30.5 -66t-45 -63.5t-54.5 -54.5q25 -23 58 -31t75 -8q24 0 48.5 5.5t47 16t41.5 26.5t32 37q7 11 15.5 13t13.5 2q11 0 23 -8t12 -28q0 -14 -11 -26q-19 -22 -41 -41.5t-48.5 -34.5t-59.5 -23.5
t-73 -8.5q-76 0 -128.5 23.5t-85 62.5t-47 88.5t-14.5 101.5q0 41 13.5 77.5t36.5 64t54 43.5t67 16zM81 431q-26 0 -44.5 -11.5t-31.5 -30t-19 -42t-6 -47.5q0 -33 6.5 -64.5t21.5 -53.5q14 14 33.5 37.5t37 51t30 56t12.5 53.5q0 20 -8.5 35.5t-31.5 15.5zM-84 732
q0 2 -0.5 4t-0.5 4q0 11 10.5 16t21.5 5q17 0 24 -8q14 -15 29.5 -34t33.5 -35.5t38.5 -27.5t43.5 -11q30 0 51.5 13.5t40 32.5t37 39t43.5 33q2 0 3 0.5t3 0.5q11 0 20 -6.5t9 -17.5q0 -1 -0.5 -2t-0.5 -2q-11 -21 -29 -48t-44 -51t-59.5 -40.5t-76.5 -16.5
q-33 0 -64.5 16.5t-58 40.5t-46 50t-28.5 45z" />
    <glyph glyph-name="Edotaccent" unicode="&#x116;" horiz-adv-x="539" 
d="M137 541q52 0 87 -32t35 -86q0 -45 -17 -87t-45 -78.5t-65 -67t-76 -53.5q29 -58 75.5 -82.5t104.5 -24.5q40 0 77.5 14t72 36t66 49.5t60.5 54.5q12 10 26 10q13 0 24 -9t11 -27q0 -15 -11 -26q-75 -85 -153 -128.5t-173 -43.5q-57 0 -107.5 21.5t-88.5 59.5t-60.5 89
t-22.5 110q0 54 7.5 107.5t27.5 96.5t55 70t90 27zM137 471q-29 0 -50 -20t-34.5 -50.5t-20.5 -67t-7 -69.5t6 -58q28 18 56 40t50.5 49t36.5 59t14 69q0 24 -14 36t-37 12zM98 672q3 22 22.5 32.5t42.5 10.5q22 0 32 -14t10 -28q0 -24 -13 -38t-52 -14q-19 0 -31 12t-12 31
q0 2 0.5 4t0.5 4z" />
    <glyph glyph-name="edotaccent" unicode="&#x117;" horiz-adv-x="382" 
d="M80 501q22 0 42.5 -10t36 -27t24.5 -38.5t9 -45.5q0 -30 -11 -63t-30.5 -66t-45 -63.5t-54.5 -54.5q25 -23 58 -31t75 -8q24 0 48.5 5.5t47 16t41.5 26.5t32 37q7 11 15.5 13t13.5 2q11 0 23 -8t12 -28q0 -14 -11 -26q-19 -22 -41 -41.5t-48.5 -34.5t-59.5 -23.5
t-73 -8.5q-76 0 -128.5 23.5t-85 62.5t-47 88.5t-14.5 101.5q0 41 13.5 77.5t36.5 64t54 43.5t67 16zM81 431q-26 0 -44.5 -11.5t-31.5 -30t-19 -42t-6 -47.5q0 -33 6.5 -64.5t21.5 -53.5q14 14 33.5 37.5t37 51t30 56t12.5 53.5q0 20 -8.5 35.5t-31.5 15.5zM77 656
q3 22 22.5 32.5t42.5 10.5q22 0 32 -14t10 -28q0 -24 -13 -38t-52 -14q-19 0 -31 12t-12 31q0 2 0.5 4t0.5 4z" />
    <glyph glyph-name="Eogonek" unicode="&#x118;" horiz-adv-x="553" 
d="M150 541q52 0 87 -32t35 -86q0 -45 -17 -87t-45 -78.5t-65 -67t-76 -53.5q29 -58 75.5 -82.5t104.5 -24.5q40 0 77.5 14t72 36t66 49.5t60.5 54.5q12 10 26 10q13 0 24 -9t11 -27q0 -15 -11 -26q-75 -85 -153 -128.5t-173 -43.5q-57 0 -107.5 21.5t-88.5 59.5t-60.5 89
t-22.5 110q0 54 7.5 107.5t27.5 96.5t55 70t90 27zM150 471q-29 0 -50 -20t-34.5 -50.5t-20.5 -67t-7 -69.5t6 -58q28 18 56 40t50.5 49t36.5 59t14 69q0 24 -14 36t-37 12zM368 34q5 0 12.5 -0.5t14 -3t11.5 -7t5 -12.5q0 -9 -8 -15q-24 -17 -60.5 -40t-70.5 -50t-58.5 -57
t-24.5 -61q0 -13 5.5 -20t14.5 -10.5t20 -4.5t22 -1q15 0 31.5 3t32.5 6t31 6t26 3t17 -8.5t6 -19.5q0 -12 -11.5 -22.5t-31 -18.5t-45 -12.5t-54.5 -4.5q-25 0 -52 6t-49 18.5t-36 32.5t-14 48t15 57.5t39 56.5t53.5 51t59 41.5t56 28t43.5 10.5z" />
    <glyph glyph-name="eogonek" unicode="&#x119;" horiz-adv-x="382" 
d="M80 501q22 0 42.5 -10t36 -27t24.5 -38.5t9 -45.5q0 -30 -11 -63t-30.5 -66t-45 -63.5t-54.5 -54.5q25 -23 58 -31t75 -8q24 0 48.5 5.5t47 16t41.5 26.5t32 37q7 11 15.5 13t13.5 2q11 0 23 -8t12 -28q0 -14 -11 -26q-19 -22 -41 -41.5t-48.5 -34.5t-59.5 -23.5
t-73 -8.5q-76 0 -128.5 23.5t-85 62.5t-47 88.5t-14.5 101.5q0 41 13.5 77.5t36.5 64t54 43.5t67 16zM81 431q-26 0 -44.5 -11.5t-31.5 -30t-19 -42t-6 -47.5q0 -33 6.5 -64.5t21.5 -53.5q14 14 33.5 37.5t37 51t30 56t12.5 53.5q0 20 -8.5 35.5t-31.5 15.5zM301 107
q5 0 12.5 -0.5t14 -3t11.5 -7t5 -12.5q0 -9 -8 -15q-24 -17 -60.5 -40t-70.5 -50t-58.5 -57t-24.5 -61q0 -13 5.5 -20t14.5 -10.5t20 -4.5t22 -1q15 0 31.5 3t32.5 6t31 6t26 3t17 -8.5t6 -19.5q0 -12 -11.5 -22.5t-31 -18.5t-45 -12.5t-54.5 -4.5q-25 0 -52 6t-49 18.5
t-36 32.5t-14 48t15 57.5t39 56.5t53.5 51t59 41.5t56 28t43.5 10.5z" />
    <glyph glyph-name="Ecaron" unicode="&#x11a;" horiz-adv-x="544" 
d="M142 541q52 0 87 -32t35 -86q0 -45 -17 -87t-45 -78.5t-65 -67t-76 -53.5q29 -58 75.5 -82.5t104.5 -24.5q40 0 77.5 14t72 36t66 49.5t60.5 54.5q12 10 26 10q13 0 24 -9t11 -27q0 -15 -11 -26q-75 -85 -153 -128.5t-173 -43.5q-57 0 -107.5 21.5t-88.5 59.5t-60.5 89
t-22.5 110q0 54 7.5 107.5t27.5 96.5t55 70t90 27zM142 471q-29 0 -50 -20t-34.5 -50.5t-20.5 -67t-7 -69.5t6 -58q28 18 56 40t50.5 49t36.5 59t14 69q0 24 -14 36t-37 12zM-46 783q-3 6 -3 11q0 15 19 15q19 -3 42.5 -18t46.5 -38q9 -9 19.5 -20.5t22.5 -21.5t25.5 -17
t28.5 -7q21 0 40 13t38.5 31t39.5 36.5t41 30.5q7 5 14.5 8.5t14.5 3.5q6 0 10.5 -4t4.5 -10q0 -8 -10 -23t-26.5 -34t-38 -38.5t-44 -36.5t-44 -28.5t-38.5 -12.5q-23 0 -51 14.5t-55.5 38t-53 52t-43.5 55.5z" />
    <glyph glyph-name="ecaron" unicode="&#x11b;" horiz-adv-x="382" 
d="M80 501q22 0 42.5 -10t36 -27t24.5 -38.5t9 -45.5q0 -30 -11 -63t-30.5 -66t-45 -63.5t-54.5 -54.5q25 -23 58 -31t75 -8q24 0 48.5 5.5t47 16t41.5 26.5t32 37q7 11 15.5 13t13.5 2q11 0 23 -8t12 -28q0 -14 -11 -26q-19 -22 -41 -41.5t-48.5 -34.5t-59.5 -23.5
t-73 -8.5q-76 0 -128.5 23.5t-85 62.5t-47 88.5t-14.5 101.5q0 41 13.5 77.5t36.5 64t54 43.5t67 16zM81 431q-26 0 -44.5 -11.5t-31.5 -30t-19 -42t-6 -47.5q0 -33 6.5 -64.5t21.5 -53.5q14 14 33.5 37.5t37 51t30 56t12.5 53.5q0 20 -8.5 35.5t-31.5 15.5zM-77 743
q-3 6 -3 11q0 15 19 15q19 -3 42.5 -18t46.5 -38q9 -9 19.5 -20.5t22.5 -21.5t25.5 -17t28.5 -7q21 0 40 13t38.5 31t39.5 36.5t41 30.5q7 5 14.5 8.5t14.5 3.5q6 0 10.5 -4t4.5 -10q0 -8 -10 -23t-26.5 -34t-38 -38.5t-44 -36.5t-44 -28.5t-38.5 -12.5q-23 0 -51 14.5
t-55.5 38t-53 52t-43.5 55.5z" />
    <glyph glyph-name="Gcircumflex" unicode="&#x11c;" horiz-adv-x="568" 
d="M235 346q-3 12 -8.5 27t-11.5 30.5t-12.5 29.5t-10.5 22q-3 6 -3 12q0 9 5 17t14 12q13 5 21 5q14 0 19 -7q31 -37 55 -99t40.5 -134t26 -147t12.5 -139q23 29 43 53.5t39 48t37.5 48t37.5 54.5q3 5 10.5 10t18.5 5q16 0 25.5 -10.5t9.5 -25.5q0 -11 -5 -19
q-24 -35 -52 -71l-56 -72t-54.5 -70.5t-48.5 -66.5q3 -64 6.5 -132t6.5 -144t5 -163.5t2 -190.5q0 -35 -5 -72t-18.5 -67t-38 -49t-64.5 -19q-63 0 -103.5 25.5t-64.5 65t-33.5 87t-9.5 92.5q0 77 20 153.5t53 151.5t76.5 148t91.5 144q-3 54 -4 104.5t-4 103.5
q-23 -55 -61.5 -86t-79.5 -31q-39 0 -74.5 18t-63 47.5t-43.5 68t-16 80.5q0 43 17.5 79.5t44.5 63t59.5 41.5t62.5 15q25 0 46.5 -11t39.5 -36zM337 -771q0 134 -5 270.5t-12 270.5q-31 -49 -62.5 -106t-57.5 -118.5t-42.5 -126t-16.5 -127.5q0 -30 5 -65t20 -65t43 -50
t74 -20q13 0 23.5 12t17 31t10 43.5t3.5 50.5zM268 232q-4 16 -15 32.5t-27 29.5t-36 21t-41 8q-26 0 -46.5 -10.5t-35.5 -28t-23 -41t-8 -49.5q0 -25 9 -50.5t25.5 -46.5t39.5 -34t52 -13q25 0 45.5 12t35 32t22.5 45.5t8 53.5q0 10 -1.5 21t-3.5 18zM400 642q1 -2 1 -7
q0 -10 -9.5 -18.5t-18.5 -8.5q-4 0 -6 1q-14 9 -35 30t-44 42.5t-45.5 38t-40.5 16.5q-20 0 -43.5 -14t-47 -33.5t-47 -41.5t-43.5 -38q-4 -2 -6 -2q-9 0 -18 8.5t-9 18.5q0 18 24.5 47.5t58.5 57.5t68 48.5t54 20.5q25 0 56.5 -16.5t60.5 -41.5t53.5 -54t36.5 -54z" />
    <glyph glyph-name="gcircumflex" unicode="&#x11d;" horiz-adv-x="568" 
d="M270 -573q21 0 35.5 10.5t23.5 29t13 43.5t4 55q0 37 -4.5 76.5t-10.5 75.5t-13 66t-12 47q-24 -14 -44.5 -44.5t-36 -69.5t-24 -82.5t-8.5 -82.5q0 -54 17 -89t60 -35zM-39 162q2 39 16.5 80t42 75.5t68.5 56.5t97 22q41 0 69 -15.5t45.5 -39.5t25 -53.5t7.5 -57.5
q0 -17 -4.5 -40t-12.5 -42q5 -20 10.5 -44t11 -49t10.5 -49.5t9 -43.5q38 34 63 60.5t44.5 51.5t37 50t39.5 57q5 8 12.5 10.5t14.5 2.5q14 0 25 -10.5t11 -26.5q0 -9 -4 -16q-30 -44 -54.5 -77.5t-49.5 -62t-53.5 -56t-65.5 -58.5q5 -21 13.5 -56t16 -77t13 -88.5
t5.5 -91.5t-7 -86t-24 -71.5t-46 -49t-73 -18.5t-75.5 15.5t-51.5 42t-29 62t-9 76.5q0 49 12.5 102.5t35.5 103.5t55 92.5t70 69.5q-8 42 -17 80.5t-20 85.5q-17 -16 -40 -28t-47 -20.5t-48 -13t-43 -4.5q-31 0 -51.5 10t-33 26.5t-17.5 39t-5 47.5v12.5t1 13.5zM185 334
q-24 0 -50.5 -15t-48.5 -39t-36.5 -53.5t-14.5 -58.5q0 -35 11 -61.5t40 -26.5q30 0 60 11.5t54 30.5t39 44.5t15 54.5q0 15 -2.5 35t-10 37t-21 29t-35.5 12zM378 536q1 -2 1 -7q0 -10 -9.5 -18.5t-18.5 -8.5q-4 0 -6 1q-14 9 -35 30t-44 42.5t-45.5 38t-40.5 16.5
q-20 0 -43.5 -14t-47 -33.5t-47 -41.5t-43.5 -38q-4 -2 -6 -2q-9 0 -18 8.5t-9 18.5q0 18 24.5 47.5t58.5 57.5t68 48.5t54 20.5q25 0 56.5 -16.5t60.5 -41.5t53.5 -54t36.5 -54z" />
    <glyph glyph-name="Gbreve" unicode="&#x11e;" horiz-adv-x="589" 
d="M256 346q-3 12 -8.5 27t-11.5 30.5t-12.5 29.5t-10.5 22q-3 6 -3 12q0 9 5 17t14 12q13 5 21 5q14 0 19 -7q31 -37 55 -99t40.5 -134t26 -147t12.5 -139q23 29 43 53.5t39 48t37.5 48t37.5 54.5q3 5 10.5 10t18.5 5q16 0 25.5 -10.5t9.5 -25.5q0 -11 -5 -19
q-24 -35 -52 -71l-56 -72t-54.5 -70.5t-48.5 -66.5q3 -64 6.5 -132t6.5 -144t5 -163.5t2 -190.5q0 -35 -5 -72t-18.5 -67t-38 -49t-64.5 -19q-63 0 -103.5 25.5t-64.5 65t-33.5 87t-9.5 92.5q0 77 20 153.5t53 151.5t76.5 148t91.5 144q-3 54 -4 104.5t-4 103.5
q-23 -55 -61.5 -86t-79.5 -31q-39 0 -74.5 18t-63 47.5t-43.5 68t-16 80.5q0 43 17.5 79.5t44.5 63t59.5 41.5t62.5 15q25 0 46.5 -11t39.5 -36zM358 -771q0 134 -5 270.5t-12 270.5q-31 -49 -62.5 -106t-57.5 -118.5t-42.5 -126t-16.5 -127.5q0 -30 5 -65t20 -65t43 -50
t74 -20q13 0 23.5 12t17 31t10 43.5t3.5 50.5zM289 232q-4 16 -15 32.5t-27 29.5t-36 21t-41 8q-26 0 -46.5 -10.5t-35.5 -28t-23 -41t-8 -49.5q0 -25 9 -50.5t25.5 -46.5t39.5 -34t52 -13q25 0 45.5 12t35 32t22.5 45.5t8 53.5q0 10 -1.5 21t-3.5 18zM-39 772q0 2 -0.5 4
t-0.5 4q0 11 10.5 16t21.5 5q17 0 24 -8q14 -15 29.5 -34t33.5 -35.5t38.5 -27.5t43.5 -11q30 0 51.5 13.5t40 32.5t37 39t43.5 33q2 0 3 0.5t3 0.5q11 0 20 -6.5t9 -17.5q0 -1 -0.5 -2t-0.5 -2q-11 -21 -29 -48t-44 -51t-59.5 -40.5t-76.5 -16.5q-33 0 -64.5 16.5t-58 40.5
t-46 50t-28.5 45z" />
    <glyph glyph-name="gbreve" unicode="&#x11f;" horiz-adv-x="568" 
d="M270 -573q21 0 35.5 10.5t23.5 29t13 43.5t4 55q0 37 -4.5 76.5t-10.5 75.5t-13 66t-12 47q-24 -14 -44.5 -44.5t-36 -69.5t-24 -82.5t-8.5 -82.5q0 -54 17 -89t60 -35zM-39 162q2 39 16.5 80t42 75.5t68.5 56.5t97 22q41 0 69 -15.5t45.5 -39.5t25 -53.5t7.5 -57.5
q0 -17 -4.5 -40t-12.5 -42q5 -20 10.5 -44t11 -49t10.5 -49.5t9 -43.5q38 34 63 60.5t44.5 51.5t37 50t39.5 57q5 8 12.5 10.5t14.5 2.5q14 0 25 -10.5t11 -26.5q0 -9 -4 -16q-30 -44 -54.5 -77.5t-49.5 -62t-53.5 -56t-65.5 -58.5q5 -21 13.5 -56t16 -77t13 -88.5
t5.5 -91.5t-7 -86t-24 -71.5t-46 -49t-73 -18.5t-75.5 15.5t-51.5 42t-29 62t-9 76.5q0 49 12.5 102.5t35.5 103.5t55 92.5t70 69.5q-8 42 -17 80.5t-20 85.5q-17 -16 -40 -28t-47 -20.5t-48 -13t-43 -4.5q-31 0 -51.5 10t-33 26.5t-17.5 39t-5 47.5v12.5t1 13.5zM185 334
q-24 0 -50.5 -15t-48.5 -39t-36.5 -53.5t-14.5 -58.5q0 -35 11 -61.5t40 -26.5q30 0 60 11.5t54 30.5t39 44.5t15 54.5q0 15 -2.5 35t-10 37t-21 29t-35.5 12zM13 658q0 2 -0.5 4t-0.5 4q0 11 10.5 16t21.5 5q17 0 24 -8q14 -15 29.5 -34t33.5 -35.5t38.5 -27.5t43.5 -11
q30 0 51.5 13.5t40 32.5t37 39t43.5 33q2 0 3 0.5t3 0.5q11 0 20 -6.5t9 -17.5q0 -1 -0.5 -2t-0.5 -2q-11 -21 -29 -48t-44 -51t-59.5 -40.5t-76.5 -16.5q-33 0 -64.5 16.5t-58 40.5t-46 50t-28.5 45z" />
    <glyph glyph-name="Gdotaccent" unicode="&#x120;" horiz-adv-x="568" 
d="M235 346q-3 12 -8.5 27t-11.5 30.5t-12.5 29.5t-10.5 22q-3 6 -3 12q0 9 5 17t14 12q13 5 21 5q14 0 19 -7q31 -37 55 -99t40.5 -134t26 -147t12.5 -139q23 29 43 53.5t39 48t37.5 48t37.5 54.5q3 5 10.5 10t18.5 5q16 0 25.5 -10.5t9.5 -25.5q0 -11 -5 -19
q-24 -35 -52 -71l-56 -72t-54.5 -70.5t-48.5 -66.5q3 -64 6.5 -132t6.5 -144t5 -163.5t2 -190.5q0 -35 -5 -72t-18.5 -67t-38 -49t-64.5 -19q-63 0 -103.5 25.5t-64.5 65t-33.5 87t-9.5 92.5q0 77 20 153.5t53 151.5t76.5 148t91.5 144q-3 54 -4 104.5t-4 103.5
q-23 -55 -61.5 -86t-79.5 -31q-39 0 -74.5 18t-63 47.5t-43.5 68t-16 80.5q0 43 17.5 79.5t44.5 63t59.5 41.5t62.5 15q25 0 46.5 -11t39.5 -36zM337 -771q0 134 -5 270.5t-12 270.5q-31 -49 -62.5 -106t-57.5 -118.5t-42.5 -126t-16.5 -127.5q0 -30 5 -65t20 -65t43 -50
t74 -20q13 0 23.5 12t17 31t10 43.5t3.5 50.5zM268 232q-4 16 -15 32.5t-27 29.5t-36 21t-41 8q-26 0 -46.5 -10.5t-35.5 -28t-23 -41t-8 -49.5q0 -25 9 -50.5t25.5 -46.5t39.5 -34t52 -13q25 0 45.5 12t35 32t22.5 45.5t8 53.5q0 10 -1.5 21t-3.5 18zM158 708
q3 22 22.5 32.5t42.5 10.5q22 0 32 -14t10 -28q0 -24 -13 -38t-52 -14q-19 0 -31 12t-12 31q0 2 0.5 4t0.5 4z" />
    <glyph glyph-name="gdotaccent" unicode="&#x121;" horiz-adv-x="568" 
d="M270 -573q21 0 35.5 10.5t23.5 29t13 43.5t4 55q0 37 -4.5 76.5t-10.5 75.5t-13 66t-12 47q-24 -14 -44.5 -44.5t-36 -69.5t-24 -82.5t-8.5 -82.5q0 -54 17 -89t60 -35zM-39 162q2 39 16.5 80t42 75.5t68.5 56.5t97 22q41 0 69 -15.5t45.5 -39.5t25 -53.5t7.5 -57.5
q0 -17 -4.5 -40t-12.5 -42q5 -20 10.5 -44t11 -49t10.5 -49.5t9 -43.5q38 34 63 60.5t44.5 51.5t37 50t39.5 57q5 8 12.5 10.5t14.5 2.5q14 0 25 -10.5t11 -26.5q0 -9 -4 -16q-30 -44 -54.5 -77.5t-49.5 -62t-53.5 -56t-65.5 -58.5q5 -21 13.5 -56t16 -77t13 -88.5
t5.5 -91.5t-7 -86t-24 -71.5t-46 -49t-73 -18.5t-75.5 15.5t-51.5 42t-29 62t-9 76.5q0 49 12.5 102.5t35.5 103.5t55 92.5t70 69.5q-8 42 -17 80.5t-20 85.5q-17 -16 -40 -28t-47 -20.5t-48 -13t-43 -4.5q-31 0 -51.5 10t-33 26.5t-17.5 39t-5 47.5v12.5t1 13.5zM185 334
q-24 0 -50.5 -15t-48.5 -39t-36.5 -53.5t-14.5 -58.5q0 -35 11 -61.5t40 -26.5q30 0 60 11.5t54 30.5t39 44.5t15 54.5q0 15 -2.5 35t-10 37t-21 29t-35.5 12zM118 557q3 22 22.5 32.5t42.5 10.5q22 0 32 -14t10 -28q0 -24 -13 -38t-52 -14q-19 0 -31 12t-12 31q0 2 0.5 4
t0.5 4z" />
    <glyph glyph-name="Gcommaaccent" unicode="&#x122;" horiz-adv-x="568" 
d="M235 346q-3 12 -8.5 27t-11.5 30.5t-12.5 29.5t-10.5 22q-3 6 -3 12q0 9 5 17t14 12q13 5 21 5q14 0 19 -7q31 -37 55 -99t40.5 -134t26 -147t12.5 -139q23 29 43 53.5t39 48t37.5 48t37.5 54.5q3 5 10.5 10t18.5 5q16 0 25.5 -10.5t9.5 -25.5q0 -11 -5 -19
q-24 -35 -52 -71l-56 -72t-54.5 -70.5t-48.5 -66.5q3 -64 6.5 -132t6.5 -144t5 -163.5t2 -190.5q0 -35 -5 -72t-18.5 -67t-38 -49t-64.5 -19q-63 0 -103.5 25.5t-64.5 65t-33.5 87t-9.5 92.5q0 77 20 153.5t53 151.5t76.5 148t91.5 144q-3 54 -4 104.5t-4 103.5
q-23 -55 -61.5 -86t-79.5 -31q-39 0 -74.5 18t-63 47.5t-43.5 68t-16 80.5q0 43 17.5 79.5t44.5 63t59.5 41.5t62.5 15q25 0 46.5 -11t39.5 -36zM337 -771q0 134 -5 270.5t-12 270.5q-31 -49 -62.5 -106t-57.5 -118.5t-42.5 -126t-16.5 -127.5q0 -30 5 -65t20 -65t43 -50
t74 -20q13 0 23.5 12t17 31t10 43.5t3.5 50.5zM268 232q-4 16 -15 32.5t-27 29.5t-36 21t-41 8q-26 0 -46.5 -10.5t-35.5 -28t-23 -41t-8 -49.5q0 -25 9 -50.5t25.5 -46.5t39.5 -34t52 -13q25 0 45.5 12t35 32t22.5 45.5t8 53.5q0 10 -1.5 21t-3.5 18zM211 714
q-3 -10 -4.5 -21.5t-5.5 -21.5t-11.5 -17t-20.5 -7q-21 0 -30.5 15.5t-9.5 35.5q0 15 4 30q3 11 14 35.5t27 50t35 45t36 19.5q10 0 14.5 -6t6.5 -13q0 -3 -16.5 -35t-38.5 -110z" />
    <glyph glyph-name="gcommaaccent" unicode="&#x123;" horiz-adv-x="568" 
d="M270 -573q21 0 35.5 10.5t23.5 29t13 43.5t4 55q0 37 -4.5 76.5t-10.5 75.5t-13 66t-12 47q-24 -14 -44.5 -44.5t-36 -69.5t-24 -82.5t-8.5 -82.5q0 -54 17 -89t60 -35zM-39 162q2 39 16.5 80t42 75.5t68.5 56.5t97 22q41 0 69 -15.5t45.5 -39.5t25 -53.5t7.5 -57.5
q0 -17 -4.5 -40t-12.5 -42q5 -20 10.5 -44t11 -49t10.5 -49.5t9 -43.5q38 34 63 60.5t44.5 51.5t37 50t39.5 57q5 8 12.5 10.5t14.5 2.5q14 0 25 -10.5t11 -26.5q0 -9 -4 -16q-30 -44 -54.5 -77.5t-49.5 -62t-53.5 -56t-65.5 -58.5q5 -21 13.5 -56t16 -77t13 -88.5
t5.5 -91.5t-7 -86t-24 -71.5t-46 -49t-73 -18.5t-75.5 15.5t-51.5 42t-29 62t-9 76.5q0 49 12.5 102.5t35.5 103.5t55 92.5t70 69.5q-8 42 -17 80.5t-20 85.5q-17 -16 -40 -28t-47 -20.5t-48 -13t-43 -4.5q-31 0 -51.5 10t-33 26.5t-17.5 39t-5 47.5v12.5t1 13.5zM185 334
q-24 0 -50.5 -15t-48.5 -39t-36.5 -53.5t-14.5 -58.5q0 -35 11 -61.5t40 -26.5q30 0 60 11.5t54 30.5t39 44.5t15 54.5q0 15 -2.5 35t-10 37t-21 29t-35.5 12zM220 546q1 -17 -12 -27t-36 -6q-14 3 -22 11.5t-11.5 19t-5 21.5t-1.5 20q0 16 5.5 40.5t14.5 48.5t20 44t21 29
q11 5 22 1.5t13 -16.5q-1 -4 -5 -14q3 -4 3 -8q-2 -15 -6.5 -37t-6.5 -40q-2 -13 -2 -24.5t1 -22.5q0 -11 2.5 -21t5.5 -19z" />
    <glyph glyph-name="Hcircumflex" unicode="&#x124;" horiz-adv-x="573" 
d="M101 393q-33 -54 -46 -110t-13 -110q0 -35 4 -82t4 -101q0 -31 -36 -31q-34 0 -34 26q-3 92 -2 173t4 159t7.5 156.5t8.5 166.5t7.5 188t5.5 221q0 14 10 19.5t23 5.5q26 0 31.5 -12.5t5.5 -31.5q0 -87 -2 -164.5t-5 -149.5t-6.5 -140.5t-6.5 -136.5q34 54 77 77.5
t85 23.5q47 0 77 -16.5t48.5 -43t28 -61t15.5 -70t11.5 -70t15.5 -61t27.5 -43t47.5 -16.5q13 0 23.5 5.5t20 12.5t17.5 12.5t17 5.5q15 0 25.5 -10.5t10.5 -26.5q0 -18 -13 -31t-31.5 -21.5t-38 -12.5t-32.5 -4q-45 0 -74 16.5t-46 43t-26 61t-15 70t-11.5 70t-16.5 61
t-30 43t-51 16.5q-16 0 -33.5 -6t-33.5 -16.5t-30.5 -24.5t-24.5 -30zM247 1172q1 -2 1 -7q0 -10 -9.5 -18.5t-18.5 -8.5q-4 0 -6 1q-14 9 -35 30t-44 42.5t-45.5 38t-40.5 16.5q-20 0 -43.5 -14t-47 -33.5t-47 -41.5t-43.5 -38q-4 -2 -6 -2q-9 0 -18 8.5t-9 18.5
q0 18 24.5 47.5t58.5 57.5t68 48.5t54 20.5q25 0 56.5 -16.5t60.5 -41.5t53.5 -54t36.5 -54z" />
    <glyph glyph-name="hcircumflex" unicode="&#x125;" horiz-adv-x="704" 
d="M-19 -92q-7 115 -11.5 201.5t-7.5 151.5t-4 111t-1 81q0 32 1 72.5t5.5 82t12.5 81t22.5 70.5t35.5 49.5t51 18.5q29 0 49.5 -15t34.5 -39t21.5 -54t11.5 -60t5 -57t1 -44q0 -52 -10 -99.5t-26 -90t-35 -78.5t-37 -65t-33 -50.5t-22 -33.5q0 -51 0.5 -88t4.5 -67
q17 5 30.5 22.5t26 41t26.5 49.5t32.5 47.5t44 36t60.5 14.5q36 0 59 -13.5t39 -33t27.5 -43t24.5 -43t30.5 -33t44.5 -13.5q25 0 50 16.5t49 41t45 52.5t38 51q11 15 30 15q14 0 24.5 -10.5t10.5 -25.5q0 -13 -7 -21q-29 -42 -57 -76.5t-57.5 -59.5t-60.5 -39t-66 -14
q-40 0 -67 13.5t-46 33t-31.5 43t-24.5 43t-24.5 33t-30.5 13.5q-22 0 -38.5 -17.5t-32.5 -44.5t-32.5 -57.5t-38 -57.5t-49.5 -44.5t-66 -17.5q-30 0 -32 20zM29 335q0 -18 0.5 -45.5t2.5 -43.5q21 34 39.5 74t33 81t23 81.5t8.5 75.5q0 18 -3 51.5t-9 66.5t-15.5 57
t-23.5 24q-13 0 -22 -24.5t-15 -63.5t-10 -87t-6 -95t-2.5 -87.5t-0.5 -64.5zM298 952q1 -2 1 -7q0 -10 -9.5 -18.5t-18.5 -8.5q-4 0 -6 1q-14 9 -35 30t-44 42.5t-45.5 38t-40.5 16.5q-20 0 -43.5 -14t-47 -33.5t-47 -41.5t-43.5 -38q-4 -2 -6 -2q-9 0 -18 8.5t-9 18.5
q0 18 24.5 47.5t58.5 57.5t68 48.5t54 20.5q25 0 56.5 -16.5t60.5 -41.5t53.5 -54t36.5 -54z" />
    <glyph glyph-name="Hbar" unicode="&#x126;" horiz-adv-x="573" 
d="M-56 699q-28 2 -40 11.5t-12 26.5q0 15 3.5 23.5t30.5 8.5h36.5t41.5 -1q2 63 3.5 132.5t3.5 148.5q0 14 10 19.5t23 5.5q26 0 31.5 -12.5t5.5 -31.5q0 -72 -1.5 -137t-3.5 -126q30 -1 60.5 -1h60.5q8 0 12 -9.5t4 -19.5q0 -39 -62 -39h-77q-3 -68 -6.5 -131.5
t-6.5 -127.5q34 54 77 77.5t85 23.5q47 0 77 -16.5t48.5 -43t28 -61t15.5 -70t11.5 -70t15.5 -61t27.5 -43t47.5 -16.5q13 0 23.5 5.5t20 12.5t17.5 12.5t17 5.5q15 0 25.5 -10.5t10.5 -26.5q0 -18 -13 -31t-31.5 -21.5t-38 -12.5t-32.5 -4q-45 0 -74 16.5t-46 43t-26 61
t-15 70t-11.5 70t-16.5 61t-30 43t-51 16.5q-16 0 -33.5 -6t-33.5 -16.5t-30.5 -24.5t-24.5 -30q-33 -54 -46 -110t-13 -110q0 -35 4 -82t4 -101q0 -31 -36 -31q-34 0 -34 26q-3 99 -1.5 185.5t5 170.5t8 170.5t9.5 185.5h-9q-12 0 -24 0.5t-24 1.5z" />
    <glyph glyph-name="hbar" unicode="&#x127;" horiz-adv-x="704" 
d="M-22 -92q-7 115 -11.5 201.5t-7.5 151.5t-4 111t-1 81q0 32 1 72.5t5.5 82t12.5 81t22.5 70.5t35.5 49.5t51 18.5q29 0 49.5 -15t34.5 -39t21.5 -54t11.5 -60t5 -57t1 -44q0 -52 -10 -99.5t-26 -90t-35 -78.5t-37 -65t-33 -50.5t-22 -33.5q0 -51 0.5 -88t4.5 -67
q17 5 30.5 22.5t26 41t26.5 49.5t32.5 47.5t44 36t60.5 14.5q36 0 59 -13.5t39 -33t27.5 -43t24.5 -43t30.5 -33t44.5 -13.5q25 0 50 16.5t49 41t45 52.5t38 51q11 15 30 15q14 0 24.5 -10.5t10.5 -25.5q0 -13 -7 -21q-29 -42 -57 -76.5t-57.5 -59.5t-60.5 -39t-66 -14
q-40 0 -67 13.5t-46 33t-31.5 43t-24.5 43t-24.5 33t-30.5 13.5q-22 0 -38.5 -17.5t-32.5 -44.5t-32.5 -57.5t-38 -57.5t-49.5 -44.5t-66 -17.5q-30 0 -32 20zM26 335q0 -18 0.5 -45.5t2.5 -43.5q21 34 39.5 74t33 81t23 81.5t8.5 75.5q0 18 -3 51.5t-9 66.5t-15.5 57
t-23.5 24q-13 0 -22 -24.5t-15 -63.5t-10 -87t-6 -95t-2.5 -87.5t-0.5 -64.5zM-45 429q-34 2 -49 10.5t-15 25.5q0 7 0.5 12.5t4 9.5t12 6t25.5 2q31 0 71 -0.5t84.5 -1t91 -1t90.5 -0.5q10 0 15 -9t5 -18q0 -37 -77 -37q-69 0 -114.5 -0.5t-83.5 -0.5q-15 0 -30 0.5
t-30 1.5z" />
    <glyph glyph-name="Itilde" unicode="&#x128;" horiz-adv-x="428" 
d="M54 186q-2 -9 -6.5 -20t-11.5 -20t-16 -15.5t-20 -6.5q-18 0 -27 11.5t-9 22.5q0 9 4 17q13 20 26 44.5t13 48.5q0 12 1 23t4.5 20t12 14.5t23.5 5.5q14 0 20 -8.5t7 -10.5q3 -5 6 -17q8 -24 22 -61t36 -72t53.5 -60.5t74.5 -25.5q18 0 37.5 10t37.5 25.5t33 33t23 32.5
q5 8 13.5 12.5t17.5 4.5q11 0 23 -8t12 -27q0 -12 -8 -24q-17 -25 -38 -48t-45 -41t-51 -29t-55 -11q-39 0 -75 15.5t-64.5 41t-47.5 58t-26 65.5zM-70 540q-11 0 -20 -5t-17 -11t-16 -11t-17 -5q-17 0 -24 8.5t-7 18.5q0 16 10.5 29.5t25.5 23.5t32 16t30 6
q27 0 50.5 -11.5t45.5 -25t42 -25t38 -11.5q20 0 35 13t28.5 28.5t28 28.5t33.5 13q13 0 23 -9t8 -17q-6 -21 -22 -43.5t-38 -41t-47 -30t-50 -11.5t-48 11t-44.5 24.5t-41.5 25t-38 11.5z" />
    <glyph glyph-name="itilde" unicode="&#x129;" horiz-adv-x="290" 
d="M-61 329q0 11 5 19q10 17 33 17q11 0 21 -9t13 -27q5 -31 11 -74.5t18 -84t34.5 -69t60.5 -28.5q21 0 40 11t35 27t29 34.5t23 32.5q7 10 15 13t15 3q14 0 24.5 -10t10.5 -26q0 -11 -6 -20q-16 -24 -34.5 -48.5t-41 -43.5t-49.5 -31t-61 -12q-54 0 -89.5 27.5t-57.5 73
t-33.5 104.5t-15.5 121zM-144 634q-11 0 -20 -5t-17 -11t-16 -11t-17 -5q-17 0 -24 8.5t-7 18.5q0 16 10.5 29.5t25.5 23.5t32 16t30 6q27 0 50.5 -11.5t45.5 -25t42 -25t38 -11.5q20 0 35 13t28.5 28.5t28 28.5t33.5 13q13 0 23 -9t8 -17q-6 -21 -22 -43.5t-38 -41t-47 -30
t-50 -11.5t-48 11t-44.5 24.5t-41.5 25t-38 11.5z" />
    <glyph glyph-name="Imacron" unicode="&#x12a;" horiz-adv-x="428" 
d="M-92 514q-3 3 -3 8q0 17 31 21t81 4h68t66 -3t50 -10.5t20 -22.5q0 -8 -6.5 -13t-16 -7t-20.5 -2.5t-19 -0.5q-11 0 -23.5 0.5t-30.5 1.5t-44 1.5t-64 0.5h-25.5t-26 2t-22.5 6.5t-15 13.5zM54 186q-2 -9 -6.5 -20t-11.5 -20t-16 -15.5t-20 -6.5q-18 0 -27 11.5t-9 22.5
q0 9 4 17q13 20 26 44.5t13 48.5q0 12 1 23t4.5 20t12 14.5t23.5 5.5q14 0 20 -8.5t7 -10.5q3 -5 6 -17q8 -24 22 -61t36 -72t53.5 -60.5t74.5 -25.5q18 0 37.5 10t37.5 25.5t33 33t23 32.5q5 8 13.5 12.5t17.5 4.5q11 0 23 -8t12 -27q0 -12 -8 -24q-17 -25 -38 -48t-45 -41
t-51 -29t-55 -11q-39 0 -75 15.5t-64.5 41t-47.5 58t-26 65.5z" />
    <glyph glyph-name="imacron" unicode="&#x12b;" horiz-adv-x="290" 
d="M-61 329q0 11 5 19q10 17 33 17q11 0 21 -9t13 -27q5 -31 11 -74.5t18 -84t34.5 -69t60.5 -28.5q21 0 40 11t35 27t29 34.5t23 32.5q7 10 15 13t15 3q14 0 24.5 -10t10.5 -26q0 -11 -6 -20q-16 -24 -34.5 -48.5t-41 -43.5t-49.5 -31t-61 -12q-54 0 -89.5 27.5t-57.5 73
t-33.5 104.5t-15.5 121zM-182 592q-3 3 -3 8q0 17 31 21t81 4h68t66 -3t50 -10.5t20 -22.5q0 -8 -6.5 -13t-16 -7t-20.5 -2.5t-19 -0.5q-11 0 -23.5 0.5t-30.5 1.5t-44 1.5t-64 0.5h-25.5t-26 2t-22.5 6.5t-15 13.5z" />
    <glyph glyph-name="Ibreve" unicode="&#x12c;" horiz-adv-x="428" 
d="M-152 643q0 2 -0.5 4t-0.5 4q0 11 10.5 16t21.5 5q17 0 24 -8q14 -15 29.5 -34t33.5 -35.5t38.5 -27.5t43.5 -11q30 0 51.5 13.5t40 32.5t37 39t43.5 33q2 0 3 0.5t3 0.5q11 0 20 -6.5t9 -17.5q0 -1 -0.5 -2t-0.5 -2q-11 -21 -29 -48t-44 -51t-59.5 -40.5t-76.5 -16.5
q-33 0 -64.5 16.5t-58 40.5t-46 50t-28.5 45zM54 186q-2 -9 -6.5 -20t-11.5 -20t-16 -15.5t-20 -6.5q-18 0 -27 11.5t-9 22.5q0 9 4 17q13 20 26 44.5t13 48.5q0 12 1 23t4.5 20t12 14.5t23.5 5.5q14 0 20 -8.5t7 -10.5q3 -5 6 -17q8 -24 22 -61t36 -72t53.5 -60.5
t74.5 -25.5q18 0 37.5 10t37.5 25.5t33 33t23 32.5q5 8 13.5 12.5t17.5 4.5q11 0 23 -8t12 -27q0 -12 -8 -24q-17 -25 -38 -48t-45 -41t-51 -29t-55 -11q-39 0 -75 15.5t-64.5 41t-47.5 58t-26 65.5z" />
    <glyph glyph-name="ibreve" unicode="&#x12d;" horiz-adv-x="291" 
d="M-61 329q0 11 5 19q10 17 33 17q11 0 21 -9t13 -27q5 -31 11 -74.5t18 -84t34.5 -69t60.5 -28.5q21 0 40 11t35 27t29 34.5t23 32.5q7 10 15 13t15 3q14 0 24.5 -10t10.5 -26q0 -11 -6 -20q-16 -24 -34.5 -48.5t-41 -43.5t-49.5 -31t-61 -12q-54 0 -89.5 27.5t-57.5 73
t-33.5 104.5t-15.5 121zM-233 721q0 2 -0.5 4t-0.5 4q0 11 10.5 16t21.5 5q17 0 24 -8q14 -15 29.5 -34t33.5 -35.5t38.5 -27.5t43.5 -11q30 0 51.5 13.5t40 32.5t37 39t43.5 33q2 0 3 0.5t3 0.5q11 0 20 -6.5t9 -17.5q0 -1 -0.5 -2t-0.5 -2q-11 -21 -29 -48t-44 -51
t-59.5 -40.5t-76.5 -16.5q-33 0 -64.5 16.5t-58 40.5t-46 50t-28.5 45z" />
    <glyph glyph-name="Iogonek" unicode="&#x12e;" horiz-adv-x="428" 
d="M306 70q5 0 12.5 -0.5t14 -3t11.5 -7t5 -12.5q0 -9 -8 -15q-24 -17 -60.5 -40t-70.5 -50t-58.5 -57t-24.5 -61q0 -13 5.5 -20t14.5 -10.5t20 -4.5t22 -1q15 0 31.5 3t32.5 6t31 6t26 3t17 -8.5t6 -19.5q0 -12 -11.5 -22.5t-31 -18.5t-45 -12.5t-54.5 -4.5q-25 0 -52 6
t-49 18.5t-36 32.5t-14 48t15 57.5t39 56.5t53.5 51t59 41.5t56 28t43.5 10.5zM-3 523q4 14 15.5 26.5t38.5 12.5q14 0 23 -5t14.5 -12.5t8 -16.5t2.5 -16q0 -24 -16 -37.5t-51 -13.5q-18 0 -27.5 13t-9.5 31v9t2 9zM54 186q-2 -9 -6.5 -20t-11.5 -20t-16 -15.5t-20 -6.5
q-18 0 -27 11.5t-9 22.5q0 9 4 17q13 20 26 44.5t13 48.5q0 12 1 23t4.5 20t12 14.5t23.5 5.5q14 0 20 -8.5t7 -10.5q3 -5 6 -17q8 -24 22 -61t36 -72t53.5 -60.5t74.5 -25.5q18 0 37.5 10t37.5 25.5t33 33t23 32.5q5 8 13.5 12.5t17.5 4.5q11 0 23 -8t12 -27q0 -12 -8 -24
q-17 -25 -38 -48t-45 -41t-51 -29t-55 -11q-39 0 -75 15.5t-64.5 41t-47.5 58t-26 65.5z" />
    <glyph glyph-name="iogonek" unicode="&#x12f;" horiz-adv-x="292" 
d="M-61 625q6 18 21.5 29t37.5 11q24 0 35 -17t11 -30q0 -23 -16 -38.5t-48 -15.5q-20 0 -31 13.5t-11 35.5q0 8 1 12zM-60 329q0 11 5 19q10 17 33 17q11 0 21 -9t13 -27q5 -31 11 -74.5t18 -84t34.5 -69t60.5 -28.5q21 0 40 11t35 27t29 34.5t23 32.5q7 10 15 13t15 3
q14 0 24.5 -10t10.5 -26q0 -11 -6 -20q-16 -24 -34.5 -48.5t-41 -43.5t-49.5 -31t-61 -12q-54 0 -89.5 27.5t-57.5 73t-33.5 104.5t-15.5 121zM196 72q5 0 12.5 -0.5t14 -3t11.5 -7t5 -12.5q0 -9 -8 -15q-24 -17 -60.5 -40t-70.5 -50t-58.5 -57t-24.5 -61q0 -13 5.5 -20
t14.5 -10.5t20 -4.5t22 -1q15 0 31.5 3t32.5 6t31 6t26 3t17 -8.5t6 -19.5q0 -12 -11.5 -22.5t-31 -18.5t-45 -12.5t-54.5 -4.5q-25 0 -52 6t-49 18.5t-36 32.5t-14 48t15 57.5t39 56.5t53.5 51t59 41.5t56 28t43.5 10.5z" />
    <glyph glyph-name="Idotaccent" unicode="&#x130;" horiz-adv-x="429" 
d="M54 186q-2 -9 -6.5 -20t-11.5 -20t-16 -15.5t-20 -6.5q-18 0 -27 11.5t-9 22.5q0 9 4 17q13 20 26 44.5t13 48.5q0 12 1 23t4.5 20t12 14.5t23.5 5.5q14 0 20 -8.5t7 -10.5q3 -5 6 -17q8 -24 22 -61t36 -72t53.5 -60.5t74.5 -25.5q18 0 37.5 10t37.5 25.5t33 33t23 32.5
q5 8 13.5 12.5t17.5 4.5q11 0 23 -8t12 -27q0 -12 -8 -24q-17 -25 -38 -48t-45 -41t-51 -29t-55 -11q-39 0 -75 15.5t-64.5 41t-47.5 58t-26 65.5z" />
    <glyph glyph-name="dotlessi" unicode="&#x131;" horiz-adv-x="291" 
d="M-61 329q0 11 5 19q10 17 33 17q11 0 21 -9t13 -27q5 -31 11 -74.5t18 -84t34.5 -69t60.5 -28.5q21 0 40 11t35 27t29 34.5t23 32.5q7 10 15 13t15 3q14 0 24.5 -10t10.5 -26q0 -11 -6 -20q-16 -24 -34.5 -48.5t-41 -43.5t-49.5 -31t-61 -12q-54 0 -89.5 27.5t-57.5 73
t-33.5 104.5t-15.5 121z" />
    <glyph glyph-name="IJ" unicode="&#x132;" horiz-adv-x="669" 
d="M359 510q4 21 21.5 29.5t37.5 8.5q12 0 20.5 -5t13.5 -12.5t7 -16.5t2 -16q0 -24 -15 -38.5t-48 -14.5q-20 0 -30.5 14.5t-10.5 34.5q0 6 2 16zM379 334q5 9 13 12t19 3q34 0 34 -31q0 -7 -0.5 -13.5t-0.5 -13.5q0 -56 11.5 -111.5t20.5 -111.5q55 30 98 57t76 68
q4 5 12 9t17 4q8 0 21 -7.5t13 -29.5q0 -11 -5 -18q-22 -30 -47.5 -51t-53 -38.5t-56 -33t-55.5 -33.5l17.5 -87.5t14.5 -84t9.5 -83.5t3.5 -88q0 -20 -3 -70t-11.5 -113.5t-25 -132t-44 -125t-66.5 -93t-94 -36.5q-34 0 -62 21t-49.5 55t-37.5 78t-26.5 90t-15.5 90.5
t-5 80.5q0 99 25.5 177.5t68 143t99 117.5t119.5 100q-5 24 -11.5 55t-12.5 65t-10.5 68t-4.5 63v26t5 22zM431 -40q-57 -44 -104.5 -94t-82 -107t-53.5 -122.5t-19 -138.5q0 -23 3 -57.5t9.5 -73t16.5 -77t23.5 -69t31.5 -50t41 -19.5q22 0 41.5 18.5t36 44t28 53
t17.5 45.5q24 80 37 166t13 173q0 59 -9.5 137t-29.5 171zM-7 486q3 22 22.5 32.5t42.5 10.5q22 0 32 -14t10 -28q0 -24 -13 -38t-52 -14q-19 0 -31 12t-12 31q0 2 0.5 4t0.5 4zM54 186q-2 -9 -6.5 -20t-11.5 -20t-16 -15.5t-20 -6.5q-18 0 -27 11.5t-9 22.5q0 9 4 17
q13 20 26 44.5t13 48.5q0 12 1 23t4.5 20t12 14.5t23.5 5.5q14 0 20 -8.5t7 -10.5q3 -5 6 -17q8 -24 22 -61t36 -72t53.5 -60.5t74.5 -25.5q18 0 37.5 10t37.5 25.5t33 33t23 32.5q5 8 13.5 12.5t17.5 4.5q11 0 23 -8t12 -27q0 -12 -8 -24q-17 -25 -38 -48t-45 -41t-51 -29
t-55 -11q-39 0 -75 15.5t-64.5 41t-47.5 58t-26 65.5z" />
    <glyph glyph-name="ij" unicode="&#x133;" horiz-adv-x="550" 
d="M-63 625q6 18 21.5 29t37.5 11q24 0 35 -17t11 -30q0 -23 -16 -38.5t-48 -15.5q-20 0 -31 13.5t-11 35.5q0 8 1 12zM-62 329q0 11 5 19q10 17 33 17q11 0 21 -9t13 -27q5 -31 11 -74.5t18 -84t34.5 -69t60.5 -28.5q21 0 40 11t35 27t29 34.5t23 32.5q7 10 15 13t15 3
q14 0 24.5 -10t10.5 -26q0 -11 -6 -20q-16 -24 -34.5 -48.5t-41 -43.5t-49.5 -31t-61 -12q-54 0 -89.5 27.5t-57.5 73t-33.5 104.5t-15.5 121zM283 69q-8 49 -18 102.5t-10 107.5q0 26 4 42.5t28 16.5q16 0 29 -8t13 -23q0 -7 -0.5 -14t-0.5 -15q0 -39 6.5 -83t13.5 -87.5
t12.5 -81.5t2.5 -65q43 60 82 110t77 109q3 5 11 9.5t17 4.5q16 0 26 -10.5t10 -24.5q0 -5 -2 -10.5t-4 -9.5q-24 -35 -50.5 -69.5t-53.5 -68t-52.5 -66.5t-47.5 -65q3 -57 5.5 -120t4 -135t2.5 -156.5t1 -185.5q0 -34 -6 -74t-20 -74t-38.5 -57t-61.5 -23
q-63 0 -103.5 27.5t-64 69t-32.5 91t-9 94.5q0 67 18.5 138.5t51 144t77 145.5t97.5 145q-2 39 -5.5 84t-9.5 85zM234 582q5 18 21 29t38 11q24 0 35 -17t11 -30q0 -24 -16.5 -39t-48.5 -15q-20 0 -31 12.5t-11 32.5q0 4 0.5 7.5t1.5 8.5zM319 -726q0 129 -1.5 256.5
t-5.5 270.5q-30 -49 -62.5 -107.5t-60 -120.5t-45.5 -125.5t-18 -121.5q0 -30 4.5 -67t19 -69t41.5 -54t73 -22q15 0 25.5 15.5t17 39t9.5 51.5t3 54z" />
    <glyph glyph-name="Jcircumflex" unicode="&#x134;" horiz-adv-x="259" 
d="M-41 322q5 9 13 12t19 3q34 0 34 -31q0 -7 -0.5 -13.5t-0.5 -13.5q0 -56 11.5 -111.5t20.5 -111.5q55 30 98 57t76 68q4 5 12 9t17 4q8 0 21 -7.5t13 -29.5q0 -11 -5 -18q-22 -30 -47.5 -51t-53 -38.5t-56 -33t-55.5 -33.5l17.5 -87.5t14.5 -84t9.5 -83.5t3.5 -88
q0 -20 -3 -70t-11.5 -113.5t-25 -132t-44 -125t-66.5 -93t-94 -36.5q-34 0 -62 21t-49.5 55t-37.5 78t-26.5 90t-15.5 90.5t-5 80.5q0 99 25.5 177.5t68 143t99 117.5t119.5 100q-5 24 -11.5 55t-12.5 65t-10.5 68t-4.5 63v26t5 22zM11 -52q-57 -44 -104.5 -94t-82 -107
t-53.5 -122.5t-19 -138.5q0 -23 3 -57.5t9.5 -73t16.5 -77t23.5 -69t31.5 -50t41 -19.5q22 0 41.5 18.5t36 44t28 53t17.5 45.5q24 80 37 166t13 173q0 59 -9.5 137t-29.5 171zM181 513q1 -2 1 -7q0 -10 -9.5 -18.5t-18.5 -8.5q-4 0 -6 1q-14 9 -35 30t-44 42.5t-45.5 38
t-40.5 16.5q-20 0 -43.5 -14t-47 -33.5t-47 -41.5t-43.5 -38q-4 -2 -6 -2q-9 0 -18 8.5t-9 18.5q0 18 24.5 47.5t58.5 57.5t68 48.5t54 20.5q25 0 56.5 -16.5t60.5 -41.5t53.5 -54t36.5 -54z" />
    <glyph glyph-name="jcircumflex" unicode="&#x135;" horiz-adv-x="262" 
d="M-5 69q-8 49 -18 102.5t-10 107.5q0 26 4 42.5t28 16.5q16 0 29 -8t13 -23q0 -7 -0.5 -14t-0.5 -15q0 -39 6.5 -83t13.5 -87.5t12.5 -81.5t2.5 -65q43 60 82 110t77 109q3 5 11 9.5t17 4.5q16 0 26 -10.5t10 -24.5q0 -5 -2 -10.5t-4 -9.5q-24 -35 -50.5 -69.5t-53.5 -68
t-52.5 -66.5t-47.5 -65q3 -57 5.5 -120t4 -135t2.5 -156.5t1 -185.5q0 -34 -6 -74t-20 -74t-38.5 -57t-61.5 -23q-63 0 -103.5 27.5t-64 69t-32.5 91t-9 94.5q0 67 18.5 138.5t51 144t77 145.5t97.5 145q-2 39 -5.5 84t-9.5 85zM31 -726q0 129 -1.5 256.5t-5.5 270.5
q-30 -49 -62.5 -107.5t-60 -120.5t-45.5 -125.5t-18 -121.5q0 -30 4.5 -67t19 -69t41.5 -54t73 -22q15 0 25.5 15.5t17 39t9.5 51.5t3 54zM210 597q1 -2 1 -7q0 -10 -9.5 -18.5t-18.5 -8.5q-4 0 -6 1q-14 9 -35 30t-44 42.5t-45.5 38t-40.5 16.5q-20 0 -43.5 -14t-47 -33.5
t-47 -41.5t-43.5 -38q-4 -2 -6 -2q-9 0 -18 8.5t-9 18.5q0 18 24.5 47.5t58.5 57.5t68 48.5t54 20.5q25 0 56.5 -16.5t60.5 -41.5t53.5 -54t36.5 -54z" />
    <glyph glyph-name="Kcommaaccent" unicode="&#x136;" horiz-adv-x="574" 
d="M-34 1142q0 12 12 19t24 7q8 0 17 -3.5t10 -14.5q12 -139 16.5 -276t4.5 -278q0 -81 -1 -162t-2 -164q30 36 68.5 74.5t80.5 74t86.5 66t87.5 50.5q6 2 9 2q11 0 21 -8.5t10 -22.5q0 -15 -10 -26t-30 -25q-41 -30 -81.5 -59.5t-80 -61t-76 -68t-69.5 -80.5
q22 -5 43.5 -20.5t43.5 -36.5t44 -44t44.5 -42.5t45 -32t45.5 -12.5q25 0 55.5 19t60.5 46.5t57 59t45 56.5q5 8 13.5 11.5t16.5 3.5q17 0 26 -11.5t9 -24.5q0 -10 -6 -19q-23 -33 -55.5 -70t-69 -68.5t-76 -52.5t-76.5 -21q-45 0 -82 22.5t-70.5 53t-66.5 62.5t-71 52
q-2 -34 -3 -68.5t-1 -69.5q0 -72 2.5 -145t2.5 -145q0 -13 -13 -20.5t-28 -7.5q-10 0 -19 4.5t-10 15.5q-2 19 -3 48.5t-1.5 64.5t-1 73t-0.5 74v83.5t2 61.5q4 72 6 130t3.5 107t2 90t0.5 79q0 35 -0.5 69t-0.5 69t-0.5 74t-0.5 84q0 93 -5 182.5t-5 171.5z
M158.036 -281.915q2.99902 9.99902 4.49902 21.498q1.5 11.498 5.5 21.4971q3.99902 9.99902 11.498 16.998t20.498 6.99902q20.9971 0 30.4961 -15.498t9.49902 -35.4961q0 -14.998 -4 -29.9961q-2.99902 -10.999 -13.998 -35.4961t-26.9971 -49.9932
q-15.998 -25.4971 -34.9951 -44.9951q-18.998 -19.4971 -35.9961 -19.4971q-9.99902 0 -14.498 5.99902t-6.49902 12.998q0 3 16.498 34.9961t38.4951 109.986z" />
    <glyph glyph-name="kcommaaccent" unicode="&#x137;" horiz-adv-x="582" 
d="M344 -81q-43 0 -92.5 25.5t-92 61.5t-70.5 75t-28 67q0 11 9.5 23.5t28.5 18.5q28 9 56 21.5t50.5 28t36.5 34t14 39.5q0 24 -18 24q-24 0 -55 -21.5t-60 -49t-52 -53t-31 -33.5q1 -32 12.5 -79.5t19.5 -101.5q2 -13 -7 -21t-26 -8q-15 0 -25.5 9t-14.5 24
q-27 103 -36.5 227.5t-9.5 267.5q0 37 1 86.5t7 101.5t17.5 102t32.5 89.5t53 63.5t79 24q45 0 75.5 -16.5t49 -45t26 -66.5t7.5 -81q0 -64 -10 -117.5t-28.5 -101.5t-45 -93t-59.5 -93q9 8 23 17t29.5 16.5t32.5 12.5t32 5q25 0 38.5 -23.5t13.5 -65.5q0 -36 -16 -65
t-43 -50t-61.5 -35.5t-70.5 -22.5q10 -20 31.5 -46.5t50 -49.5t61 -39t65.5 -16q36 0 65.5 20.5t55 50.5t47 63t42.5 59q6 7 13.5 9.5t13.5 2.5q19 0 27 -12t8 -24q0 -13 -6 -20q-23 -32 -47 -70t-55 -71t-71 -55.5t-93 -22.5zM24 499q0 -63 2.5 -122.5t7.5 -118.5
q23 40 47 79.5t46.5 80.5t42.5 84.5t35 91.5q8 25 16.5 69.5t8.5 92.5q0 27 -4.5 52t-14.5 44t-27 30.5t-42 11.5q-29 0 -49.5 -22t-33.5 -56.5t-20 -78.5t-10.5 -87.5t-4 -83.5t-0.5 -67zM186.036 -205.915q2.99902 9.99902 4.49902 21.498q1.5 11.498 5.5 21.4971
q3.99902 9.99902 11.498 16.998t20.498 6.99902q20.9971 0 30.4961 -15.498t9.49902 -35.4961q0 -14.998 -4 -29.9961q-2.99902 -10.999 -13.998 -35.4961t-26.9971 -49.9932q-15.998 -25.4971 -34.9951 -44.9951q-18.998 -19.4971 -35.9961 -19.4971
q-9.99902 0 -14.498 5.99902t-6.49902 12.998q0 3 16.498 34.9961t38.4951 109.986z" />
    <glyph glyph-name="kgreenlandic" unicode="&#x138;" horiz-adv-x="582" 
d="M344 -81q-43 0 -92.5 25.5t-92 61.5t-70.5 75t-28 67q0 11 9.5 23.5t28.5 18.5q28 9 56 21.5t50.5 28t36.5 34t14 39.5q0 24 -18 24q-24 0 -55 -21.5t-60 -49t-52 -53t-31 -33.5q1 -32 12.5 -79.5t19.5 -101.5q2 -13 -7 -21t-26 -8q-15 0 -25.5 9t-14.5 24
q-27 103 -36.5 227.5t-9.5 267.5q0 37 1 86.5t7 101.5t17.5 102t32.5 89.5t53 63.5t79 24q45 0 75.5 -16.5t49 -45t26 -66.5t7.5 -81q0 -64 -10 -117.5t-28.5 -101.5t-45 -93t-59.5 -93q9 8 23 17t29.5 16.5t32.5 12.5t32 5q25 0 38.5 -23.5t13.5 -65.5q0 -36 -16 -65
t-43 -50t-61.5 -35.5t-70.5 -22.5q10 -20 31.5 -46.5t50 -49.5t61 -39t65.5 -16q36 0 65.5 20.5t55 50.5t47 63t42.5 59q6 7 13.5 9.5t13.5 2.5q19 0 27 -12t8 -24q0 -13 -6 -20q-23 -32 -47 -70t-55 -71t-71 -55.5t-93 -22.5zM24 499q0 -63 2.5 -122.5t7.5 -118.5
q23 40 47 79.5t46.5 80.5t42.5 84.5t35 91.5q8 25 16.5 69.5t8.5 92.5q0 27 -4.5 52t-14.5 44t-27 30.5t-42 11.5q-29 0 -49.5 -22t-33.5 -56.5t-20 -78.5t-10.5 -87.5t-4 -83.5t-0.5 -67z" />
    <glyph glyph-name="Lacute" unicode="&#x139;" horiz-adv-x="392" 
d="M175 643q0 -89 -9 -160.5t-27 -132t-46 -114t-66 -107.5q6 -29 16 -68.5t25 -75.5t35 -61.5t46 -25.5q20 0 40 15.5t39 40t37 55.5t34.5 62.5t32.5 60t31 48.5q5 8 13 11t16 3q11 0 23 -8.5t12 -27.5q0 -10 -7 -21q-29 -44 -56 -97.5t-58.5 -100.5t-69.5 -79t-87 -32
q-55 0 -93 44.5t-63 114.5t-40 156t-23 169.5t-11 154.5t-6 111q-1 8 -1.5 20t-0.5 26q0 29 2 67t8 77.5t16 77.5t26 68t37.5 48t51.5 18q42 0 66.5 -27.5t37 -74t16 -107.5t3.5 -128zM52 910q-16 0 -27.5 -18.5t-19 -48.5t-11.5 -67t-6.5 -74t-3 -70t-0.5 -54
q0 -44 1.5 -90t5 -90t8.5 -85t12 -75q29 46 47.5 92.5t28.5 98.5t13.5 113t3.5 136q0 40 -2.5 81.5t-8.5 75t-16 54.5t-25 21zM-26 1087q-4 4 -4 20q0 20 7 27.5t20.5 9.5t34.5 3t50 7q20 4 41 17.5t41.5 28t40 25.5t36.5 11q4 0 7 -4t5.5 -9.5t4 -11t1.5 -7.5
q0 -24 -28 -47t-67.5 -41t-82.5 -29t-72 -11q-28 0 -35 11z" />
    <glyph glyph-name="lacute" unicode="&#x13a;" horiz-adv-x="526" 
d="M231 -143q-54 0 -97.5 27t-77.5 73.5t-59.5 108t-43.5 130.5t-30 141t-19 139.5t-9.5 126.5t-2.5 102q0 28 1 70t5 88t13.5 92t26 83t42.5 60t64 23q42 0 68.5 -31.5t42 -82.5t21.5 -114t6 -126q0 -99 -10.5 -185.5t-29 -161t-44 -138.5t-56.5 -118q9 -37 25.5 -78.5
t39.5 -77t53.5 -58.5t66.5 -23q48 0 88 28t73.5 67.5t60 82.5t46.5 73q5 7 12.5 11.5t18.5 4.5q15 0 24.5 -11t9.5 -25q0 -11 -13 -38t-36.5 -60t-55 -69t-68 -66t-76.5 -49t-80 -19zM44 1051q-16 0 -28.5 -17.5t-21.5 -46t-15 -65t-9.5 -75.5t-5 -77t-1.5 -69
q0 -110 10.5 -219.5t36.5 -227.5q29 72 48.5 129t31 114t16.5 121t5 149q0 45 -4 95t-12.5 92t-21 69.5t-29.5 27.5zM1 1243q-4 4 -4 20q0 20 7 27.5t20.5 9.5t34.5 3t50 7q20 4 41 17.5t41.5 28t40 25.5t36.5 11q4 0 7 -4t5.5 -9.5t4 -11t1.5 -7.5q0 -24 -28 -47t-67.5 -41
t-82.5 -29t-72 -11q-28 0 -35 11z" />
    <glyph glyph-name="Lcommaaccent" unicode="&#x13b;" horiz-adv-x="392" 
d="M175 643q0 -89 -9 -160.5t-27 -132t-46 -114t-66 -107.5q6 -29 16 -68.5t25 -75.5t35 -61.5t46 -25.5q20 0 40 15.5t39 40t37 55.5t34.5 62.5t32.5 60t31 48.5q5 8 13 11t16 3q11 0 23 -8.5t12 -27.5q0 -10 -7 -21q-29 -44 -56 -97.5t-58.5 -100.5t-69.5 -79t-87 -32
q-55 0 -93 44.5t-63 114.5t-40 156t-23 169.5t-11 154.5t-6 111q-1 8 -1.5 20t-0.5 26q0 29 2 67t8 77.5t16 77.5t26 68t37.5 48t51.5 18q42 0 66.5 -27.5t37 -74t16 -107.5t3.5 -128zM52 910q-16 0 -27.5 -18.5t-19 -48.5t-11.5 -67t-6.5 -74t-3 -70t-0.5 -54
q0 -44 1.5 -90t5 -90t8.5 -85t12 -75q29 46 47.5 92.5t28.5 98.5t13.5 113t3.5 136q0 40 -2.5 81.5t-8.5 75t-16 54.5t-25 21zM106.036 -318.915q2.99902 9.99902 4.49902 21.498q1.5 11.498 5.5 21.4971q3.99902 9.99902 11.498 16.998t20.498 6.99902
q20.9971 0 30.4961 -15.498t9.49902 -35.4961q0 -14.998 -4 -29.9961q-2.99902 -10.999 -13.998 -35.4961t-26.9971 -49.9932q-15.998 -25.4971 -34.9951 -44.9951q-18.998 -19.4971 -35.9961 -19.4971q-9.99902 0 -14.498 5.99902t-6.49902 12.998q0 3 16.498 34.9961
t38.4951 109.986z" />
    <glyph glyph-name="lcommaaccent" unicode="&#x13c;" horiz-adv-x="526" 
d="M231 -143q-54 0 -97.5 27t-77.5 73.5t-59.5 108t-43.5 130.5t-30 141t-19 139.5t-9.5 126.5t-2.5 102q0 28 1 70t5 88t13.5 92t26 83t42.5 60t64 23q42 0 68.5 -31.5t42 -82.5t21.5 -114t6 -126q0 -99 -10.5 -185.5t-29 -161t-44 -138.5t-56.5 -118q9 -37 25.5 -78.5
t39.5 -77t53.5 -58.5t66.5 -23q48 0 88 28t73.5 67.5t60 82.5t46.5 73q5 7 12.5 11.5t18.5 4.5q15 0 24.5 -11t9.5 -25q0 -11 -13 -38t-36.5 -60t-55 -69t-68 -66t-76.5 -49t-80 -19zM44 1051q-16 0 -28.5 -17.5t-21.5 -46t-15 -65t-9.5 -75.5t-5 -77t-1.5 -69
q0 -110 10.5 -219.5t36.5 -227.5q29 72 48.5 129t31 114t16.5 121t5 149q0 45 -4 95t-12.5 92t-21 69.5t-29.5 27.5zM111.036 -292.915q2.99902 9.99902 4.49902 21.498q1.5 11.498 5.5 21.4971q3.99902 9.99902 11.498 16.998t20.498 6.99902q20.9971 0 30.4961 -15.498
t9.49902 -35.4961q0 -14.998 -4 -29.9961q-2.99902 -10.999 -13.998 -35.4961t-26.9971 -49.9932q-15.998 -25.4971 -34.9951 -44.9951q-18.998 -19.4971 -35.9961 -19.4971q-9.99902 0 -14.498 5.99902t-6.49902 12.998q0 3 16.498 34.9961t38.4951 109.986z" />
    <glyph glyph-name="Lcaron" unicode="&#x13d;" horiz-adv-x="392" 
d="M175 643q0 -89 -9 -160.5t-27 -132t-46 -114t-66 -107.5q6 -29 16 -68.5t25 -75.5t35 -61.5t46 -25.5q20 0 40 15.5t39 40t37 55.5t34.5 62.5t32.5 60t31 48.5q5 8 13 11t16 3q11 0 23 -8.5t12 -27.5q0 -10 -7 -21q-29 -44 -56 -97.5t-58.5 -100.5t-69.5 -79t-87 -32
q-55 0 -93 44.5t-63 114.5t-40 156t-23 169.5t-11 154.5t-6 111q-1 8 -1.5 20t-0.5 26q0 29 2 67t8 77.5t16 77.5t26 68t37.5 48t51.5 18q42 0 66.5 -27.5t37 -74t16 -107.5t3.5 -128zM52 910q-16 0 -27.5 -18.5t-19 -48.5t-11.5 -67t-6.5 -74t-3 -70t-0.5 -54
q0 -44 1.5 -90t5 -90t8.5 -85t12 -75q29 46 47.5 92.5t28.5 98.5t13.5 113t3.5 136q0 40 -2.5 81.5t-8.5 75t-16 54.5t-25 21zM270 1070q-2 17 11.5 28t36.5 6q15 -6 23.5 -17t12.5 -24t4 -26.5t-1 -25.5q-1 -15 -7.5 -36.5t-16 -42.5t-20.5 -39t-21 -25q-14 -6 -26.5 0
t-10.5 22q4 22 11 47t10 48q3 25 2 45q-1 11 -3 20.5t-5 19.5z" />
    <glyph glyph-name="lcaron" unicode="&#x13e;" horiz-adv-x="526" 
d="M231 -143q-54 0 -97.5 27t-77.5 73.5t-59.5 108t-43.5 130.5t-30 141t-19 139.5t-9.5 126.5t-2.5 102q0 28 1 70t5 88t13.5 92t26 83t42.5 60t64 23q42 0 68.5 -31.5t42 -82.5t21.5 -114t6 -126q0 -99 -10.5 -185.5t-29 -161t-44 -138.5t-56.5 -118q9 -37 25.5 -78.5
t39.5 -77t53.5 -58.5t66.5 -23q48 0 88 28t73.5 67.5t60 82.5t46.5 73q5 7 12.5 11.5t18.5 4.5q15 0 24.5 -11t9.5 -25q0 -11 -13 -38t-36.5 -60t-55 -69t-68 -66t-76.5 -49t-80 -19zM44 1051q-16 0 -28.5 -17.5t-21.5 -46t-15 -65t-9.5 -75.5t-5 -77t-1.5 -69
q0 -110 10.5 -219.5t36.5 -227.5q29 72 48.5 129t31 114t16.5 121t5 149q0 45 -4 95t-12.5 92t-21 69.5t-29.5 27.5zM353 1189q-2 17 11.5 28t36.5 6q15 -6 23.5 -17t12.5 -24t4 -26.5t-1 -25.5q-1 -15 -7.5 -36.5t-16 -42.5t-20.5 -39t-21 -25q-14 -6 -26.5 0t-10.5 22
q4 22 11 47t10 48q3 25 2 45q-1 11 -3 20.5t-5 19.5z" />
    <glyph glyph-name="Ldot" unicode="&#x13f;" horiz-adv-x="392" 
d="M175 643q0 -89 -9 -160.5t-27 -132t-46 -114t-66 -107.5q6 -29 16 -68.5t25 -75.5t35 -61.5t46 -25.5q20 0 40 15.5t39 40t37 55.5t34.5 62.5t32.5 60t31 48.5q5 8 13 11t16 3q11 0 23 -8.5t12 -27.5q0 -10 -7 -21q-29 -44 -56 -97.5t-58.5 -100.5t-69.5 -79t-87 -32
q-55 0 -93 44.5t-63 114.5t-40 156t-23 169.5t-11 154.5t-6 111q-1 8 -1.5 20t-0.5 26q0 29 2 67t8 77.5t16 77.5t26 68t37.5 48t51.5 18q42 0 66.5 -27.5t37 -74t16 -107.5t3.5 -128zM52 910q-16 0 -27.5 -18.5t-19 -48.5t-11.5 -67t-6.5 -74t-3 -70t-0.5 -54
q0 -44 1.5 -90t5 -90t8.5 -85t12 -75q29 46 47.5 92.5t28.5 98.5t13.5 113t3.5 136q0 40 -2.5 81.5t-8.5 75t-16 54.5t-25 21zM-18 1170q8 26 26 36.5t47 10.5q23 -2 39.5 -18.5t15.5 -33.5q0 -14 -2 -24.5t-8.5 -18t-19.5 -12t-35 -5.5q-12 -1 -23.5 0.5t-21 7.5
t-15.5 16.5t-6 28.5q0 7 3 12z" />
    <glyph glyph-name="ldot" unicode="&#x140;" horiz-adv-x="526" 
d="M231 -143q-54 0 -97.5 27t-77.5 73.5t-59.5 108t-43.5 130.5t-30 141t-19 139.5t-9.5 126.5t-2.5 102q0 28 1 70t5 88t13.5 92t26 83t42.5 60t64 23q42 0 68.5 -31.5t42 -82.5t21.5 -114t6 -126q0 -99 -10.5 -185.5t-29 -161t-44 -138.5t-56.5 -118q9 -37 25.5 -78.5
t39.5 -77t53.5 -58.5t66.5 -23q48 0 88 28t73.5 67.5t60 82.5t46.5 73q5 7 12.5 11.5t18.5 4.5q15 0 24.5 -11t9.5 -25q0 -11 -13 -38t-36.5 -60t-55 -69t-68 -66t-76.5 -49t-80 -19zM44 1051q-16 0 -28.5 -17.5t-21.5 -46t-15 -65t-9.5 -75.5t-5 -77t-1.5 -69
q0 -110 10.5 -219.5t36.5 -227.5q29 72 48.5 129t31 114t16.5 121t5 149q0 45 -4 95t-12.5 92t-21 69.5t-29.5 27.5zM266 565q8 26 26 36.5t47 10.5q23 -2 39.5 -18.5t15.5 -33.5q0 -14 -2 -24.5t-8.5 -18t-19.5 -12t-35 -5.5q-12 -1 -23.5 0.5t-21 7.5t-15.5 16.5t-6 28.5
q0 7 3 12z" />
    <glyph glyph-name="Lslash" unicode="&#x141;" horiz-adv-x="392" 
d="M175 643q0 -89 -9 -160.5t-27 -132t-46 -114t-66 -107.5q6 -29 16 -68.5t25 -75.5t35 -61.5t46 -25.5q20 0 40 15.5t39 40t37 55.5t34.5 62.5t32.5 60t31 48.5q5 8 13 11t16 3q11 0 23 -8.5t12 -27.5q0 -10 -7 -21q-29 -44 -56 -97.5t-58.5 -100.5t-69.5 -79t-87 -32
q-55 0 -93 44.5t-63 114.5t-40 156t-23 169.5t-11 154.5t-6 111q-1 8 -1.5 20t-0.5 26q0 29 2 67t8 77.5t16 77.5t26 68t37.5 48t51.5 18q42 0 66.5 -27.5t37 -74t16 -107.5t3.5 -128zM52 910q-16 0 -27.5 -18.5t-19 -48.5t-11.5 -67t-6.5 -74t-3 -70t-0.5 -54
q0 -44 1.5 -90t5 -90t8.5 -85t12 -75q29 46 47.5 92.5t28.5 98.5t13.5 113t3.5 136q0 40 -2.5 81.5t-8.5 75t-16 54.5t-25 21zM-91.6855 604.025q-33.6328 2.13379 -48.4707 11.2041t-14.8379 27.2109q0 7.46973 0.495117 13.3379q0.494141 5.86914 3.95605 10.1377
q3.46289 4.26855 11.8711 6.40234t25.2246 2.13379q30.665 0 70.2324 -0.533203q39.5684 -0.533203 83.5869 -1.06738q44.0195 -0.533203 90.0176 -1.06641q45.9971 -0.53418 89.5225 -0.53418q9.8916 0 14.8379 -9.60352q4.94531 -9.60352 4.94531 -19.207
q0 -39.4824 -76.168 -39.4824q-68.2549 0 -113.263 -0.533203q-45.0088 -0.533203 -82.5986 -0.533203q-14.8379 0 -29.6758 0.533203t-29.6758 1.60059z" />
    </font>
</defs>
</svg>
