<?xml version="1.0" standalone="no"?>
<!DOCTYPE svg PUBLIC "-//W3C//DTD SVG 1.1//EN" "http://www.w3.org/Graphics/SVG/1.1/DTD/svg11.dtd" >
<svg xmlns="http://www.w3.org/2000/svg" xmlns:xlink="http://www.w3.org/1999/xlink" version="1.1">
<metadata>
Created by FontForge 20201107 at Sun Nov  9 17:15:45 2025
 By 
Copyright 2021 Interval Type
</metadata>
<defs>
<font id="Oceanic-Light" horiz-adv-x="1333" >
  <font-face 
    font-family="TRIAL Oceanic Light"
    font-weight="300"
    font-stretch="normal"
    units-per-em="2048"
    panose-1="0 0 0 0 0 0 0 0 0 0"
    ascent="1536"
    descent="-512"
    x-height="942"
    cap-height="1434"
    bbox="-369 -485 2554 1982"
    underline-thickness="28"
    underline-position="-439"
    unicode-range="U+000D-FB04"
  />
<missing-glyph horiz-adv-x="1093" 
d="M184 -29l-28 23l356 493l-356 494l28 23l351 -486l348 486l28 -23l-356 -494l356 -493l-28 -23l-348 486z" />
    <glyph glyph-name="ff" unicode="ff" horiz-adv-x="1110" 
d="M633 0v20q68 0 98.5 17t30.5 69v775q0 23 -8.5 32t-30.5 9h-371v-797q0 -65 38.5 -85t144.5 -20v-20h-488v20q68 0 98.5 17t30.5 69v775q0 23 -8.5 32t-30.5 9h-90v20h129v145q0 198 106.5 319.5t276.5 121.5q90 0 156 -33.5t102 -89.5q80 151 250 151q114 0 190 -65.5
t76 -151.5q0 -45 -27.5 -73.5t-74.5 -28.5q-48 0 -75.5 27t-27.5 69q0 31 16.5 57t33 46.5t16.5 38.5q0 30 -31 46.5t-82 16.5q-112 0 -166.5 -79.5t-54.5 -205.5q0 -131 76 -311h244v-20h-242v-797q0 -65 38 -85t144 -20v-20h-487zM295 1198q0 -126 55 -256h412v186
q0 47 2 70q-48 1 -74 27.5t-26 68.5q0 37 28.5 77.5t28.5 58.5q0 32 -39.5 55.5t-99.5 23.5q-141 0 -214 -86t-73 -225z" />
    <glyph glyph-name="fi" unicode="fi" horiz-adv-x="1110" 
d="M47 0v20q68 0 98.5 17t30.5 69v775q0 23 -8.5 32t-30.5 9h-90v20h129v145q0 211 114 340t298 129q148 0 245 -79.5t97 -176.5q0 -45 -28 -73.5t-73 -28.5q-50 0 -77 26.5t-27 69.5q0 39 30.5 81t30.5 61q0 41 -51.5 70.5t-134.5 29.5q-160 0 -234.5 -87.5t-74.5 -234.5
q0 -64 13.5 -122.5t45.5 -149.5h588v-836q0 -52 30.5 -69t98.5 -17v-20h-434v20q68 0 98.5 17t30.5 69v711q0 67 -25.5 86t-103.5 19h-281v-797q0 -65 38.5 -85t144.5 -20v-20h-488z" />
    <glyph glyph-name="fl" unicode="fl" horiz-adv-x="1120" 
d="M47 0v20q68 0 98.5 17t30.5 69v775q0 23 -8.5 32t-30.5 9h-90v20h129v145q0 210 112.5 339.5t284.5 129.5q70 0 132 -20h243v-1430q0 -52 30.5 -69t98.5 -17v-20h-434v20q68 0 98.5 17t30.5 69v1149q-38 4 -59 28t-21 58q0 36 24.5 74t24.5 58q0 27 -41 45t-114 18
q-149 0 -222 -88t-73 -234q0 -135 59 -272h244v-20h-242v-797q0 -65 38.5 -85t144.5 -20v-20h-488z" />
    <glyph glyph-name="ffi" unicode="ffi" horiz-adv-x="1695" 
d="M633 0v20q68 0 98.5 17t30.5 69v775q0 23 -8.5 32t-30.5 9h-371v-797q0 -65 38.5 -85t144.5 -20v-20h-488v20q68 0 98.5 17t30.5 69v775q0 23 -8.5 32t-30.5 9h-90v20h129v145q0 198 106.5 319.5t276.5 121.5q102 0 174.5 -44t102.5 -110q55 87 142 134.5t196 47.5
q148 0 245 -79.5t97 -176.5q0 -45 -28 -73.5t-73 -28.5q-50 0 -77 26.5t-27 69.5q0 39 30.5 81t30.5 61q0 41 -51.5 70.5t-134.5 29.5q-160 0 -234.5 -87.5t-74.5 -234.5q0 -64 13.5 -122.5t45.5 -149.5h588v-836q0 -52 30.5 -69t98.5 -17v-20h-434v20q68 0 98.5 17t30.5 69
v711q0 67 -25.5 86t-103.5 19h-281v-797q0 -65 38 -85t144 -20v-20h-487zM295 1198q0 -126 55 -256h412v145q0 53 10 111h-4q-50 0 -77 26.5t-27 69.5q0 37 28.5 77.5t28.5 58.5q0 32 -39.5 55.5t-99.5 23.5q-141 0 -214 -86t-73 -225z" />
    <glyph glyph-name="f_f_l" unicode="ffl" horiz-adv-x="1705" 
d="M633 0v20q68 0 98.5 17t30.5 69v775q0 23 -8.5 32t-30.5 9h-371v-797q0 -65 38.5 -85t144.5 -20v-20h-488v20q68 0 98.5 17t30.5 69v775q0 23 -8.5 32t-30.5 9h-90v20h129v145q0 198 106.5 319.5t276.5 121.5q102 0 174.5 -44t102.5 -110q54 87 138 134.5t185 47.5
q69 0 131 -20h244v-1430q0 -52 30.5 -69t98.5 -17v-20h-434v20q68 0 98.5 17t30.5 69v1149q-38 4 -59 28t-21 58q0 36 24.5 74t24.5 58q0 27 -41.5 45t-114.5 18q-148 0 -221 -88t-73 -234q0 -135 59 -272h244v-20h-242v-797q0 -65 38 -85t144 -20v-20h-487zM295 1198
q0 -126 55 -256h412v145q0 53 10 111h-4q-50 0 -77 26.5t-27 69.5q0 37 28.5 77.5t28.5 58.5q0 32 -39.5 55.5t-99.5 23.5q-141 0 -214 -86t-73 -225z" />
    <glyph glyph-name="fj" unicode="fj" horiz-adv-x="1085" 
d="M47 0v20q68 0 98.5 17t30.5 69v775q0 23 -8.5 32t-30.5 9h-90v20h129v145q0 211 114 340t298 129q148 0 245 -79.5t97 -176.5q0 -45 -28 -73.5t-73 -28.5q-50 0 -77 26.5t-27 69.5q0 39 30.5 81t30.5 61q0 41 -51.5 70.5t-134.5 29.5q-160 0 -234.5 -87.5t-74.5 -234.5
q0 -64 13.5 -122.5t45.5 -149.5h588v-1042q0 -150 -79 -230t-236 -125l-7 19q84 29 115 77t31 148v1028q0 67 -26 86t-103 19h-281v-797q0 -65 38.5 -85t144.5 -20v-20h-488z" />
    <glyph glyph-name="f_b" unicode="fb" horiz-adv-x="1837" 
d="M47 0v20q68 0 98.5 17t30.5 69v775q0 23 -8.5 32t-30.5 9h-90v20h129v145q0 210 112.5 339.5t284.5 129.5q70 0 132 -20h243v-856q44 138 143.5 210.5t237.5 72.5q191 0 308.5 -133.5t117.5 -352.5q0 -225 -132 -361t-347 -136q-105 0 -200 42t-161 117l-131 -157h-12
v1273q-38 4 -59 28t-21 58q0 36 24.5 74t24.5 58q0 27 -41 45t-114 18q-149 0 -222 -88t-73 -234q0 -135 59 -272h244v-20h-242v-797q0 -65 38.5 -85t144.5 -20v-20h-488zM1262 909q-151 0 -235.5 -121t-84.5 -333q0 -218 89 -336.5t235 -118.5q145 0 225 125t80 352
q0 205 -81.5 318.5t-227.5 113.5z" />
    <glyph glyph-name="f_h" unicode="fh" horiz-adv-x="1785" 
d="M47 0v20q68 0 98.5 17t30.5 69v775q0 23 -8.5 32t-30.5 9h-90v20h129v145q0 210 112.5 339.5t284.5 129.5q70 0 132 -20h243v-901q37 164 140 246t243 82q131 0 213 -79.5t82 -240.5v-537q0 -52 30.5 -69t98.5 -17v-20h-434v20q68 0 98.5 17t30.5 69v547q0 131 -55 188.5
t-144 57.5q-79 0 -139 -37.5t-95 -103.5t-52 -148t-17 -178v-326q0 -52 30.5 -69t98.5 -17v-20h-434v20q68 0 98.5 17t30.5 69v1149q-38 4 -59 28t-21 58q0 36 24.5 74t24.5 58q0 27 -41 45t-114 18q-149 0 -222 -88t-73 -234q0 -135 59 -272h244v-20h-242v-797
q0 -65 38.5 -85t144.5 -20v-20h-488z" />
    <glyph glyph-name="f_k" unicode="fk" horiz-adv-x="1683" 
d="M47 0v20q68 0 98.5 17t30.5 69v775q0 23 -8.5 32t-30.5 9h-90v20h129v145q0 210 112.5 339.5t284.5 129.5q70 0 132 -20h243v-1430q0 -52 30.5 -69t98.5 -17v-20h-434v20q68 0 98.5 17t30.5 69v1149q-38 4 -59 28t-21 58q0 36 24.5 74t24.5 58q0 27 -41 45t-114 18
q-149 0 -222 -88t-73 -234q0 -135 59 -272h244v-20h-242v-797q0 -65 38.5 -85t144.5 -20v-20h-488zM1188 551l336 -432q43 -55 78 -76.5t102 -22.5v-20h-299l-391 502l266 241q29 26 42 45.5t13 45.5q0 88 -131 88v20h449v-20q-89 -3 -160.5 -42.5t-189.5 -146.5l-203 -182
h88z" />
    <glyph glyph-name="f_f_f" unicode="fff" horiz-adv-x="1695" 
d="M176 1067q0 198 106.5 319t276.5 121q101 0 172.5 -41.5t102.5 -105.5q50 80 130.5 124t180.5 44q89 0 156.5 -34.5t103.5 -88.5q82 151 252 151q113 0 187.5 -65.5t74.5 -151.5q0 -45 -27.5 -73.5t-74.5 -28.5q-48 0 -75.5 27t-27.5 69q0 31 16.5 57t33 46.5t16.5 38.5
q0 30 -31 46.5t-82 16.5q-112 0 -166.5 -79.5t-54.5 -205.5q0 -131 76 -311h243v-20h-241v-797q0 -65 38 -85t144 -20v-20h-487v20q68 0 98.5 17t30.5 69v775q0 23 -8.5 32t-30.5 9h-371v-797q0 -65 38 -85t144 -20v-20h-487v20q68 0 98.5 17t30.5 69v775q0 23 -8.5 32
t-30.5 9h-371v-797q0 -65 38.5 -85t144.5 -20v-20h-488v20q68 0 98.5 17t30.5 69v775q0 23 -8.5 32t-30.5 9h-90v20h129v125zM881 1198q0 -126 55 -256h412v186q0 47 2 70q-48 1 -74.5 27.5t-26.5 68.5q0 37 29 77.5t29 58.5q0 32 -40 55.5t-100 23.5q-140 0 -213 -86
t-73 -225zM762 1087q0 47 6 91q-50 0 -77 26.5t-27 69.5q0 37 28.5 77t28.5 58q0 32 -39.5 56t-99.5 24q-141 0 -214 -86t-73 -225q0 -107 55 -236h412v145z" />
    <glyph glyph-name="f_f_j" unicode="ffj" horiz-adv-x="1671" 
d="M633 0v20q68 0 98.5 17t30.5 69v775q0 23 -8.5 32t-30.5 9h-371v-797q0 -65 38.5 -85t144.5 -20v-20h-488v20q68 0 98.5 17t30.5 69v775q0 23 -8.5 32t-30.5 9h-90v20h129v145q0 198 106.5 319.5t276.5 121.5q102 0 174.5 -44t102.5 -110q55 87 142 134.5t196 47.5
q148 0 245 -79.5t97 -176.5q0 -45 -28 -73.5t-73 -28.5q-50 0 -77 26.5t-27 69.5q0 39 30.5 81t30.5 61q0 41 -51.5 70.5t-134.5 29.5q-160 0 -234.5 -87.5t-74.5 -234.5q0 -64 13.5 -122.5t45.5 -149.5h588v-1042q0 -77 -21.5 -136t-65 -100.5t-98 -69t-131.5 -49.5l-6 19
q84 29 115 77t31 148v1028q0 67 -26 86t-103 19h-281v-797q0 -65 38 -85t144 -20v-20h-487zM295 1198q0 -126 55 -256h412v145q0 53 10 111h-4q-50 0 -77 26.5t-27 69.5q0 37 28.5 77.5t28.5 58.5q0 32 -39.5 55.5t-99.5 23.5q-141 0 -214 -86t-73 -225z" />
    <glyph glyph-name="f_f_b" unicode="ffb" horiz-adv-x="2422" 
d="M633 0v20q68 0 98.5 17t30.5 69v775q0 23 -8.5 32t-30.5 9h-371v-797q0 -65 38.5 -85t144.5 -20v-20h-488v20q68 0 98.5 17t30.5 69v775q0 23 -8.5 32t-30.5 9h-90v20h129v145q0 198 106.5 319.5t276.5 121.5q102 0 174.5 -44t102.5 -110q54 87 138 134.5t185 47.5
q69 0 131 -20h244v-856q44 138 143.5 210.5t237.5 72.5q191 0 308.5 -133.5t117.5 -352.5q0 -225 -132 -361t-347 -136q-105 0 -200 42t-161 117l-131 -157h-12v1273q-38 4 -59 28t-21 58q0 36 24.5 74t24.5 58q0 27 -41.5 45t-114.5 18q-148 0 -221 -88t-73 -234
q0 -135 59 -272h244v-20h-242v-797q0 -65 38 -85t144 -20v-20h-487zM295 1198q0 -126 55 -256h412v145q0 53 10 111h-4q-50 0 -77 26.5t-27 69.5q0 37 28.5 77.5t28.5 58.5q0 32 -39.5 55.5t-99.5 23.5q-141 0 -214 -86t-73 -225zM1847 909q-151 0 -235 -121t-84 -333
q0 -218 88.5 -336.5t234.5 -118.5q145 0 225.5 125t80.5 352q0 205 -81.5 318.5t-228.5 113.5z" />
    <glyph glyph-name="f_f_h" unicode="ffh" horiz-adv-x="2371" 
d="M633 0v20q68 0 98.5 17t30.5 69v775q0 23 -8.5 32t-30.5 9h-371v-797q0 -65 38.5 -85t144.5 -20v-20h-488v20q68 0 98.5 17t30.5 69v775q0 23 -8.5 32t-30.5 9h-90v20h129v145q0 198 106.5 319.5t276.5 121.5q102 0 174.5 -44t102.5 -110q54 87 138 134.5t185 47.5
q69 0 131 -20h244v-901q37 164 140 246t243 82q131 0 213 -79.5t82 -240.5v-537q0 -52 30.5 -69t98.5 -17v-20h-434v20q68 0 98.5 17t30.5 69v547q0 131 -55 188.5t-144 57.5q-79 0 -139 -37.5t-95 -103.5t-52 -148t-17 -178v-326q0 -52 30.5 -69t98.5 -17v-20h-434v20
q68 0 98.5 17t30.5 69v1149q-38 4 -59 28t-21 58q0 36 24.5 74t24.5 58q0 27 -41.5 45t-114.5 18q-148 0 -221 -88t-73 -234q0 -135 59 -272h244v-20h-242v-797q0 -65 38 -85t144 -20v-20h-487zM295 1198q0 -126 55 -256h412v145q0 53 10 111h-4q-50 0 -77 26.5t-27 69.5
q0 37 28.5 77.5t28.5 58.5q0 32 -39.5 55.5t-99.5 23.5q-141 0 -214 -86t-73 -225z" />
    <glyph glyph-name="f_f_k" unicode="ffk" horiz-adv-x="2269" 
d="M633 0v20q68 0 98.5 17t30.5 69v775q0 23 -8.5 32t-30.5 9h-371v-797q0 -65 38.5 -85t144.5 -20v-20h-488v20q68 0 98.5 17t30.5 69v775q0 23 -8.5 32t-30.5 9h-90v20h129v145q0 198 106.5 319.5t276.5 121.5q102 0 174.5 -44t102.5 -110q54 87 138 134.5t185 47.5
q69 0 131 -20h244v-1430q0 -52 30.5 -69t98.5 -17v-20h-434v20q68 0 98.5 17t30.5 69v1149q-38 4 -59 28t-21 58q0 36 24.5 74t24.5 58q0 27 -41.5 45t-114.5 18q-148 0 -221 -88t-73 -234q0 -135 59 -272h244v-20h-242v-797q0 -65 38 -85t144 -20v-20h-487zM295 1198
q0 -126 55 -256h412v145q0 53 10 111h-4q-50 0 -77 26.5t-27 69.5q0 37 28.5 77.5t28.5 58.5q0 32 -39.5 55.5t-99.5 23.5q-141 0 -214 -86t-73 -225zM1774 551l335 -432q43 -55 78.5 -76.5t102.5 -22.5v-20h-299l-392 502l267 241q29 26 42 45.5t13 45.5q0 88 -131 88v20
h448v-20q-89 -3 -160.5 -42.5t-189.5 -146.5l-202 -182h88z" />
    <glyph glyph-name=".notdef" horiz-adv-x="1093" 
d="M184 -29l-28 23l356 493l-356 494l28 23l351 -486l348 486l28 -23l-356 -494l356 -493l-28 -23l-348 486z" />
    <glyph glyph-name=".null" horiz-adv-x="0" 
 />
    <glyph glyph-name=".null" horiz-adv-x="0" 
 />
    <glyph glyph-name="nonmarkingreturn" horiz-adv-x="682" 
 />
    <glyph glyph-name="CR" unicode="&#xd;" horiz-adv-x="0" 
 />
    <glyph glyph-name="space" unicode=" " horiz-adv-x="460" 
 />
    <glyph glyph-name="exclam" unicode="!" horiz-adv-x="684" 
d="M354 410h-22q0 186 -18.5 346.5t-40 248.5t-40 172.5t-18.5 135.5q0 65 34.5 103t92.5 38q59 0 94 -38.5t35 -102.5q0 -51 -18.5 -135.5t-40 -172.5t-40 -248.5t-18.5 -346.5zM342 -12q-59 0 -95 36.5t-36 96.5t36 96.5t95 36.5t95 -36.5t36 -96.5t-36 -96.5t-95 -36.5z
" />
    <glyph glyph-name="quotedbl" unicode="&#x22;" horiz-adv-x="866" 
d="M260 940q-3 97 -27.5 174.5t-46.5 129t-22 89.5q0 55 28.5 88t75.5 33q45 0 73 -33t28 -88q0 -32 -14 -72t-30.5 -76.5t-32 -102.5t-18.5 -142h-14zM594 940q-3 97 -27.5 174.5t-46.5 129t-22 89.5q0 55 28.5 88t75.5 33q45 0 72.5 -33t27.5 -88q0 -38 -21.5 -89.5
t-45.5 -129t-27 -174.5h-14z" />
    <glyph glyph-name="numbersign" unicode="#" horiz-adv-x="1325" 
d="M1083 461h-239l-101 -461h-28l100 461h-420l-100 -461h-29l101 461h-234v26h238l104 476h-233v26h237l88 404h29l-88 -404h420l88 404h28l-88 -404h236v-26h-240l-104 -476h235v-26zM399 487h420l105 476h-420z" />
    <glyph glyph-name="dollar" unicode="$" horiz-adv-x="1269" 
d="M559 -174h-27v178q-42 11 -102 32t-100.5 32.5t-69.5 11.5q-49 0 -74 -22.5t-28 -77.5h-25v587h23q10 -116 46.5 -210t90.5 -156.5t113 -102.5t126 -63v629q-67 19 -115.5 38t-103 53t-89 76t-57 106.5t-22.5 145.5q0 152 107 254.5t280 114.5v158h27v-156h16
q84 0 166 -20v176h27v-183q33 -9 80.5 -25.5t79.5 -25t57 -8.5q39 0 54.5 21t17.5 65h22v-491h-22q-6 165 -86.5 274.5t-202.5 157.5v-578q63 -19 104 -34t93.5 -39.5t86 -54t64.5 -70.5t45.5 -96.5t14.5 -123.5q0 -172 -110.5 -286t-297.5 -131v-156h-27v154h-28
q-69 0 -154 18v-172zM594 1430q-20 0 -35 -3v-550q23 -7 86.5 -24.5t95.5 -27.5v580q-77 25 -147 25zM291 1174q0 -119 58.5 -183.5t182.5 -105.5v540q-117 -15 -179 -82.5t-62 -168.5zM698 6q29 0 43 2v598q-30 9 -182 49v-628q73 -21 139 -21zM1038 293q0 125 -70 194.5
t-200 110.5v-588q124 13 197 81t73 202z" />
    <glyph glyph-name="percent" unicode="%" horiz-adv-x="1857" 
d="M395 -6l1043 1472l22 -16l-1042 -1473zM537 750q-161 0 -267 99t-106 251t106 251t267 99t266.5 -99t105.5 -251t-105.5 -251t-266.5 -99zM537 1434q-109 0 -167.5 -86t-58.5 -248t58.5 -248t167.5 -86t166 85.5t57 248.5t-57 248.5t-166 85.5zM1321 -16q-163 0 -269 99
t-106 251t106 251t269 99q161 0 267 -99t106 -251t-106 -251t-267 -99zM1321 668q-109 0 -167 -86t-58 -248t58 -248t167 -86t166 85.5t57 248.5t-57 248.5t-166 85.5z" />
    <glyph glyph-name="ampersand" unicode="&#x26;" horiz-adv-x="1777" 
d="M109 416q0 199 137 311t387 133q3 277 119.5 435.5t318.5 158.5q134 0 215.5 -67.5t81.5 -186.5q0 -158 -141 -258t-398 -113q9 -121 33 -232t67.5 -214.5t102 -179t141.5 -121t181 -45.5q137 0 221 92.5t84 247.5q0 71 -26.5 117.5t-59.5 46.5q-20 0 -36 -19t-27 -41.5
t-37 -41.5t-64 -19q-56 0 -89.5 33t-33.5 88q0 61 38.5 99t100.5 38q106 0 181 -83.5t75 -213.5q0 -183 -113.5 -292t-307.5 -109q-182 0 -318 102q-184 -102 -364 -102q-221 0 -345 122t-124 314zM1212 1169q0 116 -40 190.5t-123 74.5q-68 0 -114.5 -37.5t-69 -107.5
t-31.5 -147t-9 -179q0 -37 4 -111q198 9 290.5 86t92.5 231zM297 465q0 -221 102 -331.5t269 -110.5q125 0 254 75q-138 113 -213.5 311t-75.5 429q-178 -15 -257 -105.5t-79 -267.5z" />
    <glyph glyph-name="quotesingle" unicode="'" horiz-adv-x="532" 
d="M260 940q-3 97 -27.5 174.5t-46.5 129t-22 89.5q0 55 28.5 88t75.5 33q45 0 73 -33t28 -88q0 -32 -14 -72t-30.5 -76.5t-32 -102.5t-18.5 -142h-14z" />
    <glyph glyph-name="parenleft" unicode="(" horiz-adv-x="737" 
d="M362 612q0 -347 87.5 -580t246.5 -331l-6 -14q-101 40 -194.5 126.5t-166 205.5t-116 274t-43.5 319t43.5 319t116 274t166 206t194.5 127l6 -14q-160 -98 -247 -331t-87 -581z" />
    <glyph glyph-name="parenright" unicode=")" horiz-adv-x="731" 
d="M375 612q0 348 -87 581t-247 331l6 14q101 -40 194.5 -127t166 -206t116 -274t43.5 -319t-43.5 -319t-116 -274t-166 -205.5t-194.5 -126.5l-6 14q160 98 247 330.5t87 580.5z" />
    <glyph glyph-name="asterisk" unicode="*" horiz-adv-x="1069" 
d="M623 764q0 -45 -25 -68.5t-61 -23.5q-39 0 -63.5 23t-24.5 67q0 32 12 67t26.5 63t27 76t13.5 103q-47 -29 -82.5 -64.5t-52.5 -62t-41 -53t-51 -41.5q-43 -23 -73.5 -13.5t-49.5 40.5q-40 75 33 120q35 20 84.5 25.5t108.5 16t118 44.5q-62 32 -122 43.5t-107 17
t-80 23.5q-37 23 -45.5 58t8.5 63q20 33 51 42.5t72 -11.5q28 -17 52.5 -45t41.5 -54.5t52 -61t81 -62.5q-1 56 -13.5 104.5t-26.5 76.5t-25.5 61.5t-11.5 64.5q0 45 24 68.5t59 23.5q39 0 65 -23t26 -67q0 -40 -19.5 -84t-39.5 -100t-21 -125q47 30 82.5 65t52.5 61t41 53
t51 42q41 22 73 13.5t48 -38.5q42 -76 -33 -125q-34 -20 -82.5 -24.5t-107.5 -15t-119 -44.5q62 -32 121.5 -44t106 -17.5t79.5 -24.5q38 -22 47 -56t-10 -62q-19 -33 -50.5 -43t-72.5 12q-28 16 -52.5 44t-41 55t-51 61.5t-80.5 62.5q2 -70 21.5 -127.5t38 -100t18.5 -79.5
z" />
    <glyph glyph-name="plus" unicode="+" horiz-adv-x="972" 
d="M498 307h-27v418h-393v27h393v415h27v-415h397v-27h-397v-418z" />
    <glyph glyph-name="comma" unicode="," horiz-adv-x="610" 
d="M365 18q-5 0 -28 -7t-44 -7q-55 0 -89 34t-34 89q0 57 35 92t92 35q66 0 106.5 -49.5t40.5 -132.5q0 -36 -6.5 -72t-26.5 -79.5t-50.5 -78t-84.5 -62.5t-124 -38l-5 16q114 18 179 84.5t65 139.5q0 36 -26 36z" />
    <glyph glyph-name="hyphen" unicode="-" horiz-adv-x="649" 
d="M88 532v119h473v-119h-473z" />
    <glyph glyph-name="period" unicode="." horiz-adv-x="602" 
d="M301 -12q-59 0 -95 36.5t-36 96.5t36 96.5t95 36.5t95 -36.5t36 -96.5t-36 -96.5t-95 -36.5z" />
    <glyph glyph-name="slash" unicode="/" horiz-adv-x="718" 
d="M0 -188l688 1761l31 -12l-690 -1762z" />
    <glyph glyph-name="zero" unicode="0" horiz-adv-x="1409" 
d="M705 1454q169 0 304 -95t211 -263.5t76 -378.5t-76 -378.5t-210.5 -263.5t-302.5 -95q-169 0 -305 95t-212.5 263.5t-76.5 378.5t76 378.5t211.5 263.5t304.5 95zM705 1430q-187 0 -281 -170.5t-94 -542.5t94 -542.5t283 -170.5q187 0 280.5 170.5t93.5 542.5
t-93.5 542.5t-282.5 170.5z" />
    <glyph glyph-name="one" unicode="1" horiz-adv-x="724" 
d="M72 0v25q58 0 91 4.5t60 20t37 46t10 80.5v1061q0 67 -17.5 91.5t-74.5 23.5l-106 -4v20l393 86v-1278q0 -96 43 -123.5t156 -27.5v-25h-592z" />
    <glyph glyph-name="two" unicode="2" horiz-adv-x="1234" 
d="M352 184h402q130 0 199.5 22t114.5 78t91 175l23 -4l-127 -455h-946l-3 20q113 87 191.5 150t160.5 132.5t135.5 122.5t105.5 112.5t82.5 111t55 109.5t34.5 117t10 124q0 195 -87 305.5t-257 110.5q-131 0 -219.5 -59t-88.5 -121q0 -26 19.5 -50.5t43 -42.5t43 -48.5
t19.5 -67.5q0 -59 -36 -96t-95 -37q-64 0 -99.5 42.5t-35.5 108.5q0 68 35.5 139t99.5 132t166.5 100t222.5 39q223 0 350.5 -114t127.5 -293q0 -65 -22 -130.5t-77.5 -138.5t-100.5 -126.5t-141 -138t-146.5 -126.5t-166.5 -135q-56 -45 -84 -68z" />
    <glyph glyph-name="three" unicode="3" horiz-adv-x="1271" 
d="M406 762h172q155 0 234 88.5t79 232.5q0 159 -81 249.5t-239 90.5q-129 0 -220 -53.5t-91 -109.5q0 -29 21 -58t42 -62.5t21 -72.5q0 -50 -31 -81.5t-82 -31.5q-55 0 -88.5 36.5t-33.5 96.5t36 124t99.5 118.5t164 89.5t216.5 35q214 0 341.5 -95t127.5 -261
q0 -152 -112.5 -243t-313.5 -110q223 3 350 -87t127 -271q0 -132 -73 -225.5t-192.5 -137.5t-271.5 -44q-114 0 -212 31.5t-162 83t-100 115.5t-36 130q0 63 37.5 105t100.5 42q58 0 93.5 -36t35.5 -93q0 -35 -13.5 -64.5t-29.5 -46.5t-29.5 -41t-13.5 -48
q0 -59 77.5 -103.5t210.5 -44.5q167 0 264 96t97 271t-88.5 264.5t-261.5 89.5h-172v31z" />
    <glyph glyph-name="four" unicode="4" horiz-adv-x="1220" 
d="M6 393v33l707 1008h166v-1008q106 4 182.5 103t107.5 270h23l-64 -406h-249v-217q0 -50 10 -80.5t37 -46t60 -20t91 -4.5v-25h-618v25q65 0 102.5 4.5t68 20t42.5 46t12 80.5v217h-678zM684 1337l-637 -911h637v911z" />
    <glyph glyph-name="five" unicode="5" horiz-adv-x="1247" 
d="M281 1434h614q50 0 76.5 3t52.5 15t41.5 36.5t28.5 67.5l22 -2l-80 -305h-747l-62 -475q151 148 400 148q102 0 191 -29.5t158 -86t108.5 -146.5t39.5 -203q0 -117 -39.5 -209t-109 -150t-160.5 -88t-199 -30q-115 0 -212 31.5t-160 83t-98 115.5t-35 130q0 63 37 105
t100 42q58 0 93.5 -36t35.5 -93q0 -35 -14.5 -64.5t-32.5 -47t-32.5 -41.5t-14.5 -49q0 -55 74 -98.5t186 -43.5q165 0 264.5 118t99.5 327q0 210 -85.5 319t-246.5 109q-205 0 -358 -156l-24 6z" />
    <glyph glyph-name="six" unicode="6" horiz-adv-x="1355" 
d="M1233 451q0 -115 -44.5 -206.5t-120 -148.5t-171.5 -86.5t-203 -29.5q-141 0 -250 55t-177.5 154t-103 232t-34.5 294q0 116 24.5 224t74.5 201.5t121.5 163.5t171.5 110t218 40q102 0 191.5 -31.5t147 -80.5t90 -106.5t32.5 -111.5q0 -63 -35.5 -101t-95.5 -38
q-61 0 -98 35t-37 92q0 35 14.5 63.5t31.5 44.5t31.5 39.5t14.5 49.5q0 40 -67.5 77t-176.5 37q-351 0 -422 -411q-19 -109 -22.5 -181.5t-1.5 -218.5q35 135 150.5 215t273.5 80q70 0 136 -15.5t127.5 -51.5t108 -87.5t74 -129.5t27.5 -172zM698 4q164 0 248 109t84 323
q0 209 -82 318.5t-239 109.5q-160 0 -264.5 -113.5t-104.5 -316.5q0 -188 96 -309t262 -121z" />
    <glyph glyph-name="seven" unicode="7" horiz-adv-x="1048" 
d="M528 0h-219l-6 10q112 647 598 1239h-565q-137 0 -191 -41.5t-92 -177.5l-20 4l84 453h16q1 -32 19 -42.5t63 -10.5h823v-13q-132 -162 -249 -398.5t-192 -514.5t-69 -508z" />
    <glyph glyph-name="eight" unicode="8" horiz-adv-x="1390" 
d="M694 1454q223 0 358.5 -97.5t135.5 -258.5q0 -139 -111 -230t-301 -108q229 -15 357.5 -114t128.5 -263q0 -190 -149.5 -296.5t-414.5 -106.5q-269 0 -419 106.5t-150 296.5q0 164 128 263t359 114q-190 17 -301.5 108t-111.5 230q0 161 134.5 258.5t356.5 97.5z
M694 1430q-142 0 -211 -82t-69 -250q0 -166 69 -247t213 -81q281 0 281 328q0 332 -283 332zM696 743q-177 0 -264.5 -90t-87.5 -274q0 -189 88 -282t266 -93q175 0 260.5 93t85.5 282q0 185 -85.5 274.5t-262.5 89.5z" />
    <glyph glyph-name="nine" unicode="9" horiz-adv-x="1355" 
d="M1227 719q0 -116 -24.5 -224t-75 -201.5t-122 -163.5t-171.5 -110t-218 -40q-102 0 -191 31.5t-146.5 80.5t-90 106t-32.5 111q0 63 35.5 101.5t95.5 38.5q61 0 98 -35t37 -92q0 -35 -14.5 -63.5t-31.5 -44.5t-31.5 -39.5t-14.5 -49.5q0 -40 67 -77.5t176 -37.5
q351 0 422 412q19 110 23 183.5t2 215.5q-35 -135 -150.5 -215t-273.5 -80q-70 0 -136 16t-127.5 51.5t-108 87.5t-74 130t-27.5 172q0 115 44.5 206.5t120 148.5t171.5 86.5t203 29.5q141 0 250 -55t177.5 -154t103 -232t34.5 -294zM657 1430q-164 0 -247.5 -109.5
t-83.5 -323.5q0 -209 82 -318.5t239 -109.5q160 0 264.5 113.5t104.5 316.5q0 188 -96.5 309.5t-262.5 121.5z" />
    <glyph glyph-name="colon" unicode=":" horiz-adv-x="602" 
d="M301 686q-59 0 -95 36.5t-36 96.5t36 96.5t95 36.5t95 -36.5t36 -96.5t-36 -96.5t-95 -36.5zM301 -12q-59 0 -95 36.5t-36 96.5t36 96.5t95 36.5t95 -36.5t36 -96.5t-36 -96.5t-95 -36.5z" />
    <glyph glyph-name="semicolon" unicode=";" horiz-adv-x="610" 
d="M301 686q-59 0 -95 36.5t-36 96.5t36 96.5t95 36.5t95 -36.5t36 -96.5t-36 -96.5t-95 -36.5zM365 18q-5 0 -28 -7t-44 -7q-55 0 -89 34t-34 89q0 57 35 92t92 35q66 0 106.5 -49.5t40.5 -132.5q0 -36 -6.5 -72t-26.5 -79.5t-50.5 -78t-84.5 -62.5t-124 -38l-5 16
q114 18 179 84.5t65 139.5q0 36 -26 36z" />
    <glyph glyph-name="less" unicode="&#x3c;" horiz-adv-x="933" 
d="M117 729v23l700 393v-31l-672 -375l672 -383v-30z" />
    <glyph glyph-name="equal" unicode="=" horiz-adv-x="972" 
d="M78 918v26h817v-26h-817zM78 528v27h817v-27h-817z" />
    <glyph glyph-name="greater" unicode="&#x3e;" horiz-adv-x="933" 
d="M817 729l-700 -403v30l671 383l-671 375v31l700 -393v-23z" />
    <glyph glyph-name="question" unicode="?" horiz-adv-x="1239" 
d="M573 410h-24v118q0 48 18.5 88.5t48.5 70.5t66 59.5t72 63t66 72t48.5 96t18.5 126.5q0 146 -80.5 233.5t-226.5 87.5q-111 0 -203 -44.5t-92 -112.5q0 -28 15 -51t33 -37.5t33 -41.5t15 -61q0 -55 -33.5 -88t-89.5 -33q-57 0 -91 35.5t-34 95.5q0 68 35.5 133.5
t98 117.5t156 84t200.5 32q216 0 344.5 -88.5t128.5 -247.5q0 -66 -20.5 -119t-60 -92t-83 -66.5t-101.5 -52.5q-130 -57 -194 -114t-64 -146v-118zM567 -12q-59 0 -95 36.5t-36 96.5t36 96.5t95 36.5t95 -36.5t36 -96.5t-36 -96.5t-95 -36.5z" />
    <glyph glyph-name="at" unicode="@" horiz-adv-x="2041" 
d="M1319 27q-95 0 -129.5 74t0.5 206q-86 -140 -174.5 -210t-198.5 -70q-113 0 -184.5 78.5t-71.5 216.5q0 130 47.5 255t123 215.5t174 145.5t196.5 55q171 0 211 -176l30 123l177 55l-174 -729q-42 -168 102 -168q62 0 127 37t121 104t91.5 175.5t35.5 236.5
q0 303 -200 487.5t-531 184.5q-238 0 -426 -102.5t-296 -296.5t-108 -449q0 -176 57 -324.5t160 -253.5t251.5 -164t324.5 -59q159 0 329 42t283 112l12 -18q-119 -76 -303.5 -121t-343.5 -45q-194 0 -356 58.5t-274.5 164t-175 257.5t-62.5 335q0 197 68.5 364t188.5 282
t287.5 179t362.5 64q242 0 425 -87t282.5 -247t99.5 -371q0 -94 -26 -180.5t-70 -152.5t-101 -120.5t-119.5 -89.5t-125 -54t-117.5 -19zM1110 971q-106 0 -194 -100.5t-134.5 -249t-46.5 -302.5q0 -112 43 -168.5t123 -56.5q63 0 125 48t109 123.5t84 163.5t56 171.5
t19 144.5q0 104 -50.5 165t-133.5 61z" />
    <glyph glyph-name="A" unicode="A" 
d="M793 0v25q99 0 135 43t2 151l-103 311h-481l-55 -172q-25 -77 -30.5 -135.5t5.5 -96t38 -60.5t62.5 -32t84.5 -9v-25h-451v25q58 1 99 30t79 100t80 203l309 963q-21 52 -47 70t-84 18v25h303l406 -1235q33 -99 74.5 -136.5t113.5 -37.5v-25h-540zM354 559h465l-235 717z
" />
    <glyph glyph-name="B" unicode="B" horiz-adv-x="1331" 
d="M72 0v25q47 0 73 4.5t47 20t29 46t8 80.5v1081q0 96 -33 124t-124 28v25h678q212 0 327 -92.5t115 -251.5q0 -147 -99 -233.5t-284 -108.5q210 -14 323 -103.5t113 -259.5q0 -181 -131.5 -283t-345.5 -102h-696zM434 1257v-497h281q145 0 208.5 80.5t63.5 242.5
q0 326 -244 326h-168q-82 0 -111.5 -32t-29.5 -120zM1028 367q0 364 -313 364h-281v-555q0 -88 29.5 -119.5t111.5 -31.5h160q154 0 223.5 87t69.5 255z" />
    <glyph glyph-name="C" unicode="C" horiz-adv-x="1476" 
d="M819 1427q-227 0 -345 -180.5t-118 -529.5q0 -348 122 -529.5t356 -181.5q88 0 172 37.5t153 106t113.5 175.5t50.5 234h23v-569h-23q-10 100 -88 100q-32 0 -75.5 -17t-85 -38t-119 -38t-169.5 -17q-187 0 -337 95t-234 263.5t-84 378.5t82.5 378.5t229 263.5t329.5 95
q85 0 160.5 -15.5t119 -33.5t88.5 -33.5t77 -15.5q46 0 62.5 23t18.5 65h23v-537h-23q-9 150 -75.5 269.5t-172.5 185t-231 65.5z" />
    <glyph glyph-name="D" unicode="D" horiz-adv-x="1566" 
d="M72 0v25q89 0 123 28t34 123v1081q0 96 -33 124t-124 28v25h657q202 0 362.5 -88.5t252.5 -252.5t92 -376t-92 -376t-252.5 -252.5t-362.5 -88.5h-657zM707 1409h-111q-97 0 -129.5 -30.5t-32.5 -121.5v-1081q0 -91 32.5 -121t129.5 -30h111q257 0 380 174t123 518
t-123 518t-380 174z" />
    <glyph glyph-name="E" unicode="E" horiz-adv-x="1320" 
d="M72 0v25q90 0 123.5 27.5t33.5 123.5v1081q0 96 -33 124t-124 28v25h1073l6 -492h-23q-36 467 -395 467h-155q-83 0 -113.5 -32t-30.5 -120v-505h125q150 0 214 69t67 234h22v-637h-22q-6 165 -70 236t-211 71h-125v-549q0 -88 30.5 -119.5t113.5 -31.5h167
q188 0 313.5 131t178.5 376h23l-78 -532h-1110z" />
    <glyph glyph-name="F" unicode="F" horiz-adv-x="1198" 
d="M72 0v25q90 0 123.5 27.5t33.5 123.5v1081q0 96 -33 124t-124 28v25h1052l11 -502h-23q-19 227 -129.5 352t-284.5 125h-120q-83 0 -113.5 -32t-30.5 -120v-526h139q150 0 214 69t67 234h23v-637h-23q-6 165 -70 236.5t-211 71.5h-139v-529q0 -41 13 -70.5t31.5 -45
t50.5 -23.5t58.5 -10t67.5 -2v-25h-583z" />
    <glyph glyph-name="G" unicode="G" horiz-adv-x="1587" 
d="M1186 203v329q0 50 -9.5 80.5t-34 46t-55 20.5t-83.5 5v25h499v-25q-68 0 -93.5 -28t-25.5 -124v-442q-46 6 -84 6q-46 0 -100.5 -18t-101.5 -40t-129.5 -40t-177.5 -18q-298 0 -479 202t-181 535t181 535t479 202q83 0 159 -15.5t120.5 -33.5t87.5 -33.5t69 -15.5
q76 0 80 88h22v-510h-22q-9 142 -77 256.5t-174.5 177t-228.5 62.5q-235 0 -353 -181t-118 -532q0 -349 120.5 -531t352.5 -182q81 0 164 27.5t138 74.5t55 97z" />
    <glyph glyph-name="H" unicode="H" horiz-adv-x="1619" 
d="M72 0v25q47 0 73 4.5t47 20t29 46t8 80.5v1081q0 96 -33 124t-124 28v25h522v-25q-47 0 -73.5 -5t-48 -20.5t-30 -46t-8.5 -80.5v-503h750v503q0 50 -8.5 80.5t-30 46t-48 20.5t-73.5 5v25h524v-25q-47 0 -73.5 -5t-47.5 -20.5t-29.5 -46t-8.5 -80.5v-1081q0 -50 8 -80.5
t29.5 -46t48 -20t73.5 -4.5v-25h-524v25q92 0 126 27.5t34 123.5v549h-750v-549q0 -96 34 -123.5t126 -27.5v-25h-522z" />
    <glyph glyph-name="I" unicode="I" horiz-adv-x="665" 
d="M72 0v25q47 0 73 4.5t47 20t29 46t8 80.5v1081q0 96 -33 124t-124 28v25h522v-25q-47 0 -73.5 -5t-48 -20.5t-30 -46t-8.5 -80.5v-1081q0 -96 34 -123.5t126 -27.5v-25h-522z" />
    <glyph glyph-name="J" unicode="J" horiz-adv-x="903" 
d="M322 1434h524v-25q-47 0 -73.5 -5t-48 -20.5t-30 -46t-8.5 -80.5v-856q0 -93 -18.5 -167t-49 -121t-73 -77.5t-88 -43t-97.5 -12.5q-139 0 -236 83.5t-97 194.5q0 70 37.5 111t99.5 41q58 0 93.5 -35t35.5 -92q0 -35 -13 -65t-29 -47t-29 -38.5t-13 -42.5q0 -86 137 -86
q108 0 172 58t64 171q0 50 -16 102t-34.5 88t-34.5 80.5t-16 82.5v671q0 51 -8 81t-29 45.5t-48 20.5t-74 5v25z" />
    <glyph glyph-name="K" unicode="K" horiz-adv-x="1472" 
d="M1483 25v-25h-379l-572 733l359 379q54 57 73 78t38.5 55t19.5 64q0 46 -34.5 73t-129.5 27v25h576v-25q-221 -5 -506 -301l-303 -317h133l332 -431q93 -120 139 -176t93 -97.5t79.5 -51.5t81.5 -10zM72 0v25q47 0 73 4.5t47 20t29 46t8 80.5v1081q0 96 -33 124t-124 28
v25h522v-25q-47 0 -73.5 -5t-48 -20.5t-30 -46t-8.5 -80.5v-1081q0 -96 34 -123.5t126 -27.5v-25h-522z" />
    <glyph glyph-name="L" unicode="L" horiz-adv-x="1253" 
d="M72 0v25q47 0 73 4.5t47 20t29 46t8 80.5v1081q0 96 -33 124t-124 28v25h522v-25q-47 0 -73.5 -5t-48 -20.5t-30 -46t-8.5 -80.5v-1081q0 -88 28 -119.5t111 -31.5h154q167 0 282.5 145t174.5 403h22l-78 -573h-1056z" />
    <glyph glyph-name="M" unicode="M" horiz-adv-x="1859" 
d="M63 0v25q41 0 69.5 14.5t52 52t35 109t11.5 178.5v887q0 64 -38.5 103.5t-116.5 39.5v25h317l568 -1237l493 1237h334v-25q-47 0 -73.5 -5t-48 -20.5t-30 -46t-8.5 -80.5v-1081q0 -96 34 -123.5t126 -27.5v-25h-522v25q47 0 73.5 4.5t48 20t29.5 46t8 80.5v1104
l-512 -1284h-77l-574 1247v-864q0 -107 15 -178t47 -108.5t71.5 -52t98.5 -15.5v-25h-431z" />
    <glyph glyph-name="N" unicode="N" horiz-adv-x="1523" 
d="M63 0v25q41 0 69.5 15t52 53t35 110.5t11.5 181.5v881q0 64 -39 103.5t-118 39.5v25h299l887 -1172v823q0 163 -54.5 242t-197.5 82v25h452v-25q-90 -3 -130 -84.5t-40 -239.5v-1089h-78l-950 1255v-866q0 -86 14 -150.5t36.5 -103.5t57 -63t69 -33t77.5 -10v-25h-453z
" />
    <glyph glyph-name="O" unicode="O" horiz-adv-x="1679" 
d="M840 1454q158 0 290 -53t224 -148.5t143 -233t51 -302.5q0 -333 -193.5 -535t-512.5 -202q-321 0 -516 202t-195 535q0 220 88 387.5t249 258.5t372 91zM840 1430q-236 0 -360 -182t-124 -531t124 -531t362 -182q235 0 358 182t123 531t-123.5 531t-359.5 182z" />
    <glyph glyph-name="P" unicode="P" horiz-adv-x="1304" 
d="M72 0v25q47 0 73 4.5t47 20t29 46t8 80.5v1081q0 96 -33 124t-124 28v25h649q230 0 370 -119t140 -314q0 -198 -146.5 -317t-388.5 -119q-149 0 -262 41v-430q0 -96 47 -123.5t172 -27.5v-25h-581zM434 750q0 -81 68 -120.5t184 -39.5q330 0 330 407q0 412 -314 412h-106
q-93 0 -127.5 -31.5t-34.5 -115.5v-512z" />
    <glyph glyph-name="Q" unicode="Q" horiz-adv-x="1660" 
d="M399 -295q0 107 123 168l269 135q-300 14 -480 210.5t-180 512.5q0 327 191.5 525t506.5 198t507 -198t192 -525q0 -322 -185 -519.5t-493 -203.5l-313 -155q78 14 182.5 0t186.5 -36t186 -42.5t180 -20.5q120 0 176 47.5t84 165.5l22 -4q-15 -77 -30.5 -132t-40 -108.5
t-55.5 -86t-77 -52.5t-104 -20q-61 0 -134.5 27.5t-142.5 67t-138.5 79t-144 67t-138.5 27.5q-62 0 -92.5 -34t-30.5 -83q0 -23 9.5 -35t25.5 -12q15 0 28 14.5t22.5 31.5t30 31.5t48.5 14.5q44 0 70 -27.5t26 -70.5q0 -54 -34 -83.5t-87 -29.5q-78 0 -122 46t-44 110z
M829 1430q-232 0 -353.5 -179t-121.5 -520t122 -519.5t355 -178.5q232 0 353 178.5t121 519.5t-122 520t-354 179z" />
    <glyph glyph-name="R" unicode="R" horiz-adv-x="1386" 
d="M72 0v25q47 0 73 4.5t47 20t29 46t8 80.5v1081q0 96 -33 124t-124 28v25h637q242 0 375 -100.5t133 -278.5q0 -97 -41.5 -171.5t-112 -118t-156.5 -65.5t-182 -22q-133 0 -240 61q92 -107 151.5 -142.5t156.5 -35.5h51l274 -348q98 -125 144 -156.5t135 -31.5v-25h-350
l-619 764v-588q0 -95 38 -123t132 -28v-25h-526zM428 924q0 -62 27 -106.5t72 -66.5t89.5 -31t92.5 -9q142 0 220.5 91t78.5 257q0 99 -30.5 176.5t-97.5 125.5t-163 48h-127q-92 0 -127 -29.5t-35 -107.5v-348z" />
    <glyph glyph-name="S" unicode="S" horiz-adv-x="1224" 
d="M709 4q137 0 217 69.5t80 194.5q0 119 -85.5 199t-295.5 160q-60 22 -102.5 39.5t-98 44.5t-93.5 52t-79 60.5t-65 73.5t-40 86.5t-16 103.5q0 159 107 263t290 104q70 0 141 -22t128 -44t92 -22q87 0 74 98h22l96 -491l-22 -4q-17 67 -71.5 147.5t-127.5 150
t-163.5 116.5t-170.5 47q-123 0 -189.5 -63.5t-66.5 -170.5q0 -43 12.5 -80.5t32.5 -67t53 -56.5t65 -46.5t78.5 -41t84.5 -36.5t91 -35q7 -3 11 -4q58 -22 96 -38t89.5 -42t85.5 -49.5t71 -57.5t58 -70t35 -83.5t14 -101.5q0 -179 -113.5 -293t-318.5 -114
q-89 0 -168.5 23.5t-138 47t-97.5 23.5q-46 0 -76 -24t-26 -81h-23l-92 598l23 4q29 -117 95.5 -224t149 -181t174.5 -118t173 -44z" />
    <glyph glyph-name="T" unicode="T" horiz-adv-x="1368" 
d="M362 0v25q33 0 55.5 1.5t50.5 6t46 14.5t35 26t25 42t8 61v1182q0 51 -50 51q-95 0 -170 -31t-122 -79t-80.5 -116.5t-49.5 -133t-24 -138.5h-23l31 523h1180l31 -523h-23q-8 74 -23.5 139t-49 133t-81 116t-122.5 79t-170 31q-50 0 -50 -51v-1182q0 -35 8 -61t25 -42
t35 -26t46 -14.5t50.5 -6t55.5 -1.5v-25h-644z" />
    <glyph glyph-name="U" unicode="U" horiz-adv-x="1468" 
d="M1274 475q0 -246 -127 -370.5t-356 -124.5q-142 0 -247 28t-184 91.5t-119 173t-40 266.5v718q0 50 -8.5 80.5t-30 46t-48 20.5t-73.5 5v25h524v-25q-47 0 -73.5 -5t-47.5 -20.5t-29.5 -46t-8.5 -80.5v-790q0 -238 101 -343.5t306 -105.5q198 0 313 112.5t115 334.5v590
q0 82 -5.5 135.5t-19.5 97.5t-40.5 68t-67.5 37.5t-102 15.5v25h436v-25q-92 -6 -130 -84.5t-38 -269.5v-580z" />
    <glyph glyph-name="V" unicode="V" horiz-adv-x="1398" 
d="M1128 1065l-366 -1069h-78l-479 1169q-61 147 -98 193.5t-107 50.5v25h559v-25q-132 1 -163.5 -60t22.5 -184l387 -954l291 854q25 73 32 133.5t-4 108.5t-49 75t-102 27v25h426v-25q-43 -2 -79 -21.5t-60.5 -46.5t-50 -77t-41.5 -90t-40 -109z" />
    <glyph glyph-name="W" unicode="W" horiz-adv-x="2064" 
d="M1802 1065l-352 -1069h-78l-342 942l-305 -942h-78l-442 1169q-56 146 -95 193t-110 51v25h557v-25q-131 1 -162.5 -59t19.5 -185l354 -942l246 762l-66 180q-36 100 -64 150t-60 70.5t-83 23.5v25h543v-25q-67 1 -105 -13t-49 -47t-4 -75t31 -109l338 -942l274 842
q23 71 27.5 131.5t-10 109t-57 76t-109.5 27.5v25h444v-25q-42 -2 -77 -22t-59 -47.5t-48.5 -77t-40 -90.5t-37.5 -107z" />
    <glyph glyph-name="X" unicode="X" horiz-adv-x="1435" 
d="M805 0v25q84 0 122 20.5t38 71.5q0 29 -20.5 66.5t-106.5 170.5l-195 299l-194 -295q-92 -138 -78.5 -235.5t127.5 -97.5v-25h-498v25q111 4 211 90.5t203 244.5l211 322l-263 405q-52 80 -86.5 130.5t-66 89t-51 57t-45 30t-45 13.5t-52.5 2v25h602v-25q-77 0 -112 -16
t-35 -56q0 -11 2.5 -23t10 -28t13.5 -28t20 -34.5t23 -37t29 -44.5t31 -48l193 -297l188 301q84 132 64 221.5t-136 89.5v25h490v-25q-108 -4 -197.5 -81t-187.5 -232l-205 -326l268 -416q131 -204 196.5 -265t162.5 -64v-25h-631z" />
    <glyph glyph-name="Y" unicode="Y" horiz-adv-x="1323" 
d="M397 0v25q96 0 138.5 28.5t42.5 122.5v416l-338 573q-65 113 -101.5 161.5t-64.5 64.5t-74 18v25h567v-25q-81 -1 -117.5 -32.5t-30.5 -81.5t44 -117l297 -516l235 442q52 101 52 184q0 63 -43 92t-115 29v25h434v-25q-84 -4 -146.5 -73t-148.5 -232l-248 -469v-459
q0 -94 42.5 -122.5t138.5 -28.5v-25h-564z" />
    <glyph glyph-name="Z" unicode="Z" horiz-adv-x="1294" 
d="M1219 571l-78 -571h-1063v20l889 1389h-363q-83 0 -151.5 -25t-118.5 -69t-86.5 -107.5t-58.5 -136.5t-33 -160h-27l45 523h1020v-23l-887 -1386h367q209 0 334 138.5t184 407.5h27z" />
    <glyph glyph-name="bracketleft" unicode="[" horiz-adv-x="657" 
d="M231 -287v1823h344v-25h-313q74 -171 114 -401.5t40 -488.5q0 -483 -154 -883h313v-25h-344z" />
    <glyph glyph-name="backslash" unicode="\" horiz-adv-x="718" 
d="M719 -188l-29 -13l-690 1762l31 12z" />
    <glyph glyph-name="bracketright" unicode="]" horiz-adv-x="657" 
d="M426 -287h-344v25h313q-153 397 -153 883q0 259 39.5 489t113.5 401h-313v25h344v-1823z" />
    <glyph glyph-name="asciicircum" unicode="^" horiz-adv-x="933" 
d="M471 1444l385 -737h-29l-364 704l-359 -704h-26l373 737h20z" />
    <glyph glyph-name="underscore" unicode="_" horiz-adv-x="952" 
d="M39 -152v29h874v-29h-874z" />
    <glyph glyph-name="grave" unicode="`" horiz-adv-x="1249" 
d="M633 1343l166 -215l-6 -8l-246 123q-74 37 -98.5 61t-24.5 60q0 32 23 55t55 23q33 0 60.5 -20.5t70.5 -78.5z" />
    <glyph glyph-name="a" unicode="a" horiz-adv-x="1054" 
d="M719 750q-8 192 -232 192q-110 0 -193 -39t-83 -94q0 -21 18.5 -43t37 -49t18.5 -62q0 -45 -28 -70.5t-75 -25.5q-48 0 -74 29t-26 78q0 110 117 203.5t299 93.5q54 0 106 -8.5t105.5 -31t93 -56t65 -88.5t25.5 -124v-512q0 -43 15.5 -60t47.5 -17q37 0 70 30l12 -12
q-50 -57 -92.5 -80.5t-97.5 -23.5q-131 0 -131 133v176q-26 -85 -69 -147t-96.5 -96.5t-109.5 -50t-118 -15.5q-117 0 -184.5 54t-67.5 154q0 85 65 144t244 135q115 51 168 76q99 46 136 93t34 114zM717 463v139l-72 -35q-117 -57 -182.5 -94t-117 -78t-70.5 -81t-19 -91
q0 -80 44.5 -127t127.5 -47q123 0 206 114t83 300z" />
    <glyph glyph-name="b" unicode="b" horiz-adv-x="1226" 
d="M162 -18v1427q0 67 -26 87t-103 20v20h305v-864q40 144 139.5 217.5t241.5 73.5q191 0 308.5 -133.5t117.5 -352.5q0 -225 -132 -361t-347 -136q-105 0 -199.5 42.5t-161.5 116.5l-131 -157h-12zM651 915q-148 0 -233.5 -123t-85.5 -337q0 -218 88.5 -336.5t234.5 -118.5
q145 0 225.5 125t80.5 352q0 209 -81.5 323.5t-228.5 114.5z" />
    <glyph glyph-name="c" unicode="c" horiz-adv-x="1069" 
d="M846 543q-49 0 -80 29.5t-31 76.5q0 35 18 64.5t36 53.5t18 44q0 53 -62 90t-151 37q-162 0 -257 -113.5t-95 -300.5q0 -189 104.5 -298t278.5 -109q166 0 272 108.5t121 300.5l16 -2q-11 -249 -142 -396.5t-345 -147.5q-210 0 -337.5 135.5t-127.5 351.5
q0 221 136 358.5t345 137.5q88 0 164 -28.5t125 -73.5t76.5 -98.5t27.5 -105.5t-29 -83t-81 -31z" />
    <glyph glyph-name="d" unicode="d" horiz-adv-x="1236" 
d="M512 -20q-194 0 -312 136.5t-118 360.5q0 219 118 352.5t312 133.5q143 0 241 -74.5t136 -214.5v735q0 67 -26 87t-103 20v20h305v-1430q0 -52 30.5 -69t98.5 -17v-20h-305v281q-38 -148 -135.5 -224.5t-241.5 -76.5zM578 27q144 0 227.5 119t83.5 331q0 205 -83.5 321.5
t-227.5 116.5q-151 0 -231.5 -112t-80.5 -326q0 -219 80.5 -334.5t231.5 -115.5z" />
    <glyph glyph-name="e" unicode="e" horiz-adv-x="1073" 
d="M82 467q0 224 128 360t339 136q210 0 326.5 -118.5t111.5 -320.5h-741q0 -192 99.5 -299.5t277.5 -107.5q170 0 274 103t121 292l14 -2q-9 -240 -140.5 -385t-344.5 -145q-210 0 -337.5 133t-127.5 354zM551 942q-140 0 -220 -106.5t-85 -288.5q93 0 197.5 -0.5
t147.5 -0.5t92.5 0.5t76 2t53.5 4.5q6 186 -62 287.5t-200 101.5z" />
    <glyph glyph-name="f" unicode="f" horiz-adv-x="565" 
d="M47 0v20q68 0 98.5 17t30.5 69v775q0 23 -8.5 32t-30.5 9h-90v20h129v158q0 205 93.5 330.5t252.5 125.5q112 0 189 -65.5t77 -149.5q0 -47 -27.5 -75.5t-74.5 -28.5q-46 0 -74 27t-28 69q0 24 10 46t22.5 35t22.5 29.5t10 31.5q0 30 -29.5 46.5t-78.5 16.5
q-128 0 -195 -80.5t-67 -204.5q0 -143 71 -311h225v-22h-223v-795q0 -65 38.5 -85t144.5 -20v-20h-488z" />
    <glyph glyph-name="g" unicode="g" horiz-adv-x="1003" 
d="M70 135q0 166 231 238q-107 34 -167 106t-60 168q0 142 113 229t298 87q128 0 228 -43q-45 56 -45 137q0 72 43.5 114.5t109.5 42.5q68 0 119 -42.5t51 -110.5q0 -47 -27.5 -75t-72.5 -28q-43 0 -71.5 25t-28.5 66q0 30 14.5 51t28.5 36.5t14 30.5q0 27 -35 27
q-51 0 -87 -37.5t-36 -97.5q0 -100 72 -166q65 -41 100 -104.5t35 -141.5q0 -135 -113 -218t-299 -83q-75 0 -147 16q-68 -12 -105.5 -48.5t-37.5 -92.5q0 -64 43 -90.5t135 -26.5h338q284 0 284 -208q0 -156 -144.5 -251.5t-373.5 -95.5q-426 0 -426 207q0 71 58.5 121
t175.5 68q-102 9 -158.5 58t-56.5 132zM485 367q232 0 232 280q0 297 -232 297q-231 0 -231 -297q0 -280 231 -280zM195 -225q0 -102 77 -153.5t215 -51.5q168 0 283 68q113 63 113 174q0 131 -172 131h-371q-67 -9 -106 -55t-39 -113z" />
    <glyph glyph-name="h" unicode="h" horiz-adv-x="1189" 
d="M47 0v20q68 0 98.5 17t30.5 69v1303q0 67 -26 87t-103 20v20h305v-901q37 164 140 246t243 82q131 0 213 -79.5t82 -240.5v-537q0 -52 30.5 -69t98.5 -17v-20h-434v20q68 0 98.5 17t30.5 69v547q0 131 -55 188.5t-144 57.5q-79 0 -139 -37.5t-95 -103.5t-52 -148
t-17 -178v-326q0 -52 30.5 -69t98.5 -17v-20h-434z" />
    <glyph glyph-name="i" unicode="i" horiz-adv-x="524" 
d="M264 1217q-52 0 -83 31.5t-31 82.5t31 83t83 32t83.5 -32t31.5 -83t-31.5 -82.5t-83.5 -31.5zM47 0v20q68 0 98.5 17t30.5 69v711q0 67 -25.5 86t-103.5 19v20h305v-836q0 -52 30.5 -69t98.5 -17v-20h-434z" />
    <glyph glyph-name="j" unicode="j" horiz-adv-x="524" 
d="M262 1217q-51 0 -83 31.5t-32 82.5t32 83t83 32t83 -32t32 -83t-32 -82.5t-83 -31.5zM352 942v-1042q0 -150 -79 -230t-236 -125l-6 19q84 29 114.5 77t30.5 148v1028q0 67 -26 86t-103 19v20h305z" />
    <glyph glyph-name="k" unicode="k" horiz-adv-x="1087" 
d="M47 0v20q68 0 98.5 17t30.5 69v1303q0 67 -26 87t-103 20v20h305v-1430q0 -52 30.5 -69t98.5 -17v-20h-434zM592 551l336 -432q43 -55 78 -76.5t102 -22.5v-20h-299l-391 502l266 241q29 26 42 45.5t13 45.5q0 88 -131 88v20h449v-20q-89 -3 -160.5 -42.5t-189.5 -146.5
l-203 -182h88z" />
    <glyph glyph-name="l" unicode="l" horiz-adv-x="524" 
d="M47 0v20q68 0 98.5 17t30.5 69v1303q0 67 -26 87t-103 20v20h305v-1430q0 -52 30.5 -69t98.5 -17v-20h-434z" />
    <glyph glyph-name="m" unicode="m" horiz-adv-x="1773" 
d="M47 0v20q68 0 98.5 17t30.5 69v711q0 67 -25.5 86t-103.5 19v20h305v-295q35 159 130.5 237.5t224.5 78.5q120 0 196 -78.5t80 -237.5q35 158 130 237t222 79q125 0 202 -79t77 -241v-537q0 -52 30.5 -69t98.5 -17v-20h-434v20q68 0 98.5 17t30.5 69v547q0 240 -183 240
q-72 0 -126 -36.5t-85 -100.5t-46 -142.5t-15 -171.5v-336q0 -52 30.5 -69t98.5 -17v-20h-434v20q68 0 98.5 17t30.5 69v547q0 240 -180 240q-73 0 -127.5 -36.5t-86 -100.5t-46.5 -142.5t-15 -171.5v-336q0 -52 30.5 -69t98.5 -17v-20h-434z" />
    <glyph glyph-name="n" unicode="n" horiz-adv-x="1189" 
d="M47 0v20q68 0 98.5 17t30.5 69v711q0 67 -25.5 86t-103.5 19v20h305v-307q37 164 140 246t243 82q131 0 213 -79.5t82 -240.5v-537q0 -52 30.5 -69t98.5 -17v-20h-434v20q68 0 98.5 17t30.5 69v547q0 131 -55 188.5t-144 57.5q-79 0 -139 -37.5t-95 -103.5t-52 -148
t-17 -178v-326q0 -52 30.5 -69t98.5 -17v-20h-434z" />
    <glyph glyph-name="o" unicode="o" horiz-adv-x="1171" 
d="M586 -20q-227 0 -365.5 135t-138.5 358q0 221 138.5 355.5t365.5 134.5t365.5 -134.5t138.5 -355.5q0 -223 -138.5 -358t-365.5 -135zM586 0q157 0 238 120t81 351t-81 351t-238 120t-238.5 -120.5t-81.5 -350.5t81.5 -350.5t238.5 -120.5z" />
    <glyph glyph-name="p" unicode="p" horiz-adv-x="1241" 
d="M47 -430v20q68 0 98.5 17t30.5 69v1141q0 67 -25.5 86t-103.5 19v20h305v-274q39 144 137.5 219.5t239.5 75.5q194 0 312 -133.5t118 -354.5q0 -223 -118.5 -359t-311.5 -136q-141 0 -239.5 74.5t-137.5 217.5v-587q0 -57 41 -76t127 -19v-20h-473zM668 915
q-146 0 -231 -116.5t-85 -323.5q0 -211 85 -329.5t231 -118.5q149 0 228 115.5t79 332.5q0 213 -77 326.5t-230 113.5z" />
    <glyph glyph-name="q" unicode="q" horiz-adv-x="1226" 
d="M512 -20q-194 0 -312 135.5t-118 359.5q0 219 135.5 353.5t349.5 134.5q94 0 184 -35t160 -97l142 130h12v-1285q0 -52 31 -69t98 -17v-20h-465v20q30 0 48 1t42 6t37.5 15t23 29t9.5 46v551q-46 -124 -144 -191t-233 -67zM580 37q154 0 235.5 110t81.5 320
q0 231 -80 352t-233 121q-157 0 -237.5 -118t-80.5 -345q0 -209 81 -324.5t233 -115.5z" />
    <glyph glyph-name="r" unicode="r" horiz-adv-x="897" 
d="M756 647q-49 0 -78 26.5t-29 69.5q0 37 30 77t30 67q0 53 -72 53q-127 0 -206 -113t-79 -313v-389q0 -58 33 -81.5t133 -23.5v-20h-471v20q68 0 98.5 17t30.5 69v711q0 67 -25.5 86t-103.5 19v20h305v-246q32 129 109 198t182 69q100 0 161.5 -57.5t61.5 -139.5
q0 -57 -29.5 -88t-80.5 -31z" />
    <glyph glyph-name="s" unicode="s" horiz-adv-x="890" 
d="M522 0q88 0 145.5 43.5t57.5 134.5q0 34 -9 62t-30 49t-41 35.5t-56.5 28.5t-61.5 22t-70 20q-163 45 -230 80q-147 79 -147 227q0 122 86.5 191.5t214.5 69.5q57 0 111 -16t92.5 -32t58.5 -16q28 0 38.5 15.5t8.5 48.5h17l88 -332l-19 -4q-79 151 -181 233t-210 82
q-88 0 -136 -43t-48 -115q0 -31 8.5 -55.5t27.5 -43.5t38.5 -32.5t53.5 -26.5t59 -21t68 -21q21 -6 31 -9q152 -45 208 -73q136 -69 149 -198q2 -16 2 -32q0 -131 -92 -211.5t-230 -80.5q-66 0 -127 17.5t-107 35.5t-75 18q-33 0 -47.5 -14t-13.5 -57h-17l-84 417l19 4
q75 -194 202 -297.5t248 -103.5z" />
    <glyph glyph-name="t" unicode="t" horiz-adv-x="598" 
d="M150 182v699q0 23 -8.5 32t-30.5 9h-84v20h30q79 0 137 51.5t84.5 129t26.5 167.5h21v-348h249v-22h-249v-717q0 -123 106 -123q113 0 154 92l12 -6q-34 -93 -101 -139.5t-149 -46.5q-90 0 -144 51.5t-54 150.5z" />
    <glyph glyph-name="u" unicode="u" horiz-adv-x="1146" 
d="M150 297v539q0 53 -30.5 69.5t-99.5 16.5v20h306v-655q0 -234 215 -234q264 0 264 477v306q0 54 -32.5 70t-115.5 16v20h324v-809q0 -67 22 -85.5t91 -18.5v-21l-289 -16v305q-37 -158 -128.5 -237.5t-221.5 -79.5q-305 0 -305 317z" />
    <glyph glyph-name="v" unicode="v" horiz-adv-x="1071" 
d="M864 690l-284 -694h-66l-342 745q-51 110 -83.5 145.5t-88.5 35.5v20h457v-20q-182 0 -97 -185l265 -573l213 530q44 116 8 172t-144 56v20h369v-20q-69 0 -112.5 -52.5t-94.5 -179.5z" />
    <glyph glyph-name="w" unicode="w" horiz-adv-x="1538" 
d="M166 756q-21 50 -37 80t-28 47.5t-30.5 25.5t-29.5 9.5t-41 3.5v20h418v-20q-35 0 -56.5 -6.5t-34.5 -24t-9.5 -51t24.5 -84.5l246 -596l182 452l-55 136q-26 64 -44 98.5t-38 51t-33 19.5t-45 5v20h426v-20q-161 0 -94 -166l237 -582l185 520q40 112 5.5 170t-140.5 58
v20h364v-20q-72 -3 -115.5 -56.5t-87.5 -175.5l-248 -694h-65l-238 584l-239 -584h-66z" />
    <glyph glyph-name="x" unicode="x" horiz-adv-x="1009" 
d="M250 213l166 238l-183 266q-50 74 -83 116t-59.5 61.5t-43.5 23.5t-47 4v20h432v-20q-45 0 -66.5 -11t-21.5 -39q0 -10 3.5 -21t12.5 -26t17 -27t25 -36t28 -41l115 -168l139 199q51 75 32 122.5t-93 47.5v20h340v-20q-130 0 -248 -168l-156 -222l205 -303
q88 -129 134 -168.5t112 -40.5v-20h-459v20q52 0 74 11.5t22 44.5q0 21 -15 50.5t-65 102.5l-137 201l-149 -217q-43 -63 -36.5 -105.5t42 -65t88.5 -22.5v-20h-375v20q66 0 122 45.5t128 147.5z" />
    <glyph glyph-name="y" unicode="y" horiz-adv-x="1064" 
d="M162 758q-43 103 -77.5 132t-94.5 32v20h459v-20q-85 0 -109 -37t10 -123l289 -715l207 647q69 222 -150 228v20h369v-20q-73 -4 -112.5 -51.5t-80.5 -178.5l-288 -897q-38 -118 -95.5 -182t-156.5 -64q-97 0 -166.5 58t-69.5 143q0 55 31 88t82 33q49 0 77.5 -31
t28.5 -82q0 -32 -15.5 -56t-31.5 -43t-16 -38q0 -53 80 -53q92 0 144 61t52 152q0 93 -82 291z" />
    <glyph glyph-name="z" unicode="z" horiz-adv-x="956" 
d="M680 922h-213q-160 0 -251 -83t-132 -247h-21l58 350h751v-18l-628 -906h205q170 0 274 96t160 285h20l-82 -399h-768v16z" />
    <glyph glyph-name="braceleft" unicode="{" horiz-adv-x="696" 
d="M233 604q116 -21 169 -80.5t53 -144.5q0 -80 -21.5 -218.5t-21.5 -215.5q0 -132 44 -183.5t167 -66.5l-2 -19q-165 12 -234 36q-151 51 -161 205q-1 12 -1 24q0 52 16.5 117t37 118.5t37 125t16.5 134.5q0 93 -45.5 124.5t-171.5 31.5v24q126 0 171.5 31.5t45.5 124.5
q0 79 -27 170.5t-53.5 176.5t-26.5 149q0 62 24.5 108.5t60.5 73.5t92.5 45t104.5 25t114 12l2 -19q-123 -15 -167 -66.5t-44 -182.5q0 -76 21.5 -216t21.5 -219q0 -85 -53 -144.5t-169 -80.5z" />
    <glyph glyph-name="bar" unicode="|" horiz-adv-x="538" 
d="M254 -287v1884h31v-1884h-31z" />
    <glyph glyph-name="braceright" unicode="}" horiz-adv-x="696" 
d="M463 604q-116 21 -168.5 80.5t-52.5 144.5q0 79 21.5 219t21.5 216q0 131 -44 182.5t-167 66.5l2 19q54 -4 94.5 -9.5t89.5 -17t84 -30.5t65.5 -46t46 -68t15.5 -93q0 -64 -26.5 -149t-53 -176.5t-26.5 -170.5q0 -93 45.5 -124.5t171.5 -31.5v-24q-126 0 -171.5 -31.5
t-45.5 -124.5q0 -79 26.5 -170t53 -176t26.5 -149q0 -38 -8 -70.5t-19.5 -56.5t-34 -43.5t-41 -32.5t-52 -23.5t-55 -16t-61.5 -10.5t-61 -7t-63 -5l-2 19q123 15 167 66.5t44 183.5q0 77 -21.5 215.5t-21.5 218.5q0 85 52.5 144.5t168.5 80.5z" />
    <glyph glyph-name="asciitilde" unicode="~" horiz-adv-x="972" 
d="M895 735q-44 -30 -98 -45.5t-97 -15.5q-77 0 -148 23t-137 46t-130 23q-36 0 -93 -17t-114 -53v31q104 66 207 66q58 0 114 -14.5t94 -32t94 -32t113 -14.5q44 0 98 17t97 49v-31z" />
    <glyph glyph-name="uni00A0" unicode="&#xa0;" horiz-adv-x="460" 
 />
    <glyph glyph-name="exclamdown" unicode="&#xa1;" horiz-adv-x="684" 
d="M342 696q-59 0 -95 36.5t-36 96.5t36 97t95 37t95 -37t36 -97t-36 -96.5t-95 -36.5zM354 573q0 -181 18.5 -338t40 -243t40 -168.5t18.5 -132.5q0 -64 -35 -103t-94 -39q-58 0 -92.5 38.5t-34.5 103.5q0 50 18.5 132.5t40 168.5t40 243t18.5 338h22z" />
    <glyph glyph-name="cent" unicode="&#xa2;" horiz-adv-x="1069" 
d="M584 -197h-27v177h-10q-210 0 -337.5 135.5t-127.5 351.5q0 220 135 358t340 138v231h27v-231q163 -7 267.5 -102.5t104.5 -203.5q0 -52 -29 -83t-81 -31q-49 0 -80 29.5t-31 76.5q0 35 18 64.5t36 53.5t18 44q0 53 -62 90t-151 37h-10v-819q14 -2 41 -2q166 0 272 108.5
t121 300.5l16 -2q-11 -237 -131 -383.5t-319 -158.5v-179zM242 524q0 -169 84.5 -275t230.5 -128v815q-147 -12 -231 -124t-84 -288z" />
    <glyph glyph-name="sterling" unicode="&#xa3;" horiz-adv-x="1374" 
d="M563 334v-25q76 -34 122.5 -52t122.5 -36t146 -18q43 0 78.5 6t81 29.5t78.5 62.5t61.5 111.5t40.5 171.5l19 -2q-18 -309 -108.5 -455.5t-250.5 -146.5q-55 0 -105 16t-99.5 52.5t-84.5 69t-92 91.5q-12 12 -18 20q-21 -116 -84.5 -182.5t-161.5 -66.5q-99 0 -157 59.5
t-58 155.5q0 86 52.5 142t144.5 56q72 0 190 -47v14q0 86 -29 160.5t-83 159.5h-228v29h209q-46 71 -68.5 111t-45.5 109t-23 136q0 122 65.5 211.5t174 133.5t245.5 44q121 0 225 -34.5t171 -90t105 -123.5t38 -137q0 -65 -34.5 -103t-96.5 -38q-60 0 -96.5 33t-36.5 92
q0 45 22 82t44 71.5t22 71.5q0 50 -87.5 96.5t-213.5 46.5q-166 0 -252 -97t-86 -284q0 -123 63 -331h535v-29h-524q23 -80 33.5 -118t22 -105t11.5 -123zM143 242q0 -58 42.5 -89.5t105.5 -31.5q72 0 122.5 44.5t63.5 133.5q-94 70 -184 70q-68 0 -109 -33.5t-41 -93.5z
" />
    <glyph glyph-name="currency" unicode="&#xa4;" horiz-adv-x="929" 
d="M131 350l-39 39l117 119q-74 90 -74 211q0 130 76 215l-119 119l39 41l119 -119q92 76 217 76q122 0 213 -72l117 117l41 -41l-117 -117q80 -93 80 -217q-3 -127 -82 -215l119 -117l-41 -41l-119 119q-89 -73 -213 -76q-122 3 -215 76zM467 444q118 0 195 78t77 197
q0 120 -78 199t-196 79q-117 0 -192.5 -79t-75.5 -199q0 -119 76.5 -197t193.5 -78z" />
    <glyph glyph-name="yen" unicode="&#xa5;" horiz-adv-x="1323" 
d="M397 0v25q96 0 138.5 28.5t42.5 122.5v242h-342v28h342v146l-25 43h-317v29h299l-295 501q-65 113 -101.5 161.5t-64.5 64.5t-74 18v25h567v-25q-81 -1 -117.5 -32.5t-30.5 -81.5t44 -117l297 -514h2l233 440q52 101 52 184q0 63 -43 92t-115 29v25h434v-25
q-84 -4 -146.5 -73t-148.5 -232l-233 -440h344v-29h-359v-189h359v-28h-359v-242q0 -94 42.5 -122.5t138.5 -28.5v-25h-564z" />
    <glyph glyph-name="brokenbar" unicode="&#xa6;" horiz-adv-x="538" 
d="M254 778v819h31v-819h-31zM254 -287v819h31v-819h-31z" />
    <glyph glyph-name="section" unicode="&#xa7;" horiz-adv-x="1142" 
d="M948 129q0 -137 -101 -230.5t-278 -93.5q-163 0 -273 68.5t-110 171.5q0 47 28 77t71 30q50 0 76 -25.5t26 -69.5q0 -34 -30.5 -73t-30.5 -66q0 -43 68 -68.5t169 -25.5q131 0 205 54t74 153q0 41 -12 75t-37 59t-52.5 44t-69 35.5t-76 27.5t-83.5 25q-23 7 -35 10
q-62 18 -102.5 33t-90 41t-78.5 56t-49 76t-20 103q0 87 53.5 163t126.5 124q-122 81 -122 227q0 137 100.5 230.5t277.5 93.5q163 0 273 -68.5t110 -171.5q0 -47 -27.5 -76.5t-70.5 -29.5q-50 0 -76 25t-26 69q0 34 30.5 73t30.5 66q0 43 -68 69t-169 26q-131 0 -205 -54
t-74 -153q0 -39 13 -71t35.5 -55.5t54.5 -43t68 -33.5t78 -27t83 -25l12 -3q48 -13 77.5 -22t72 -24.5t69 -30.5t56.5 -38t46.5 -48.5t28 -60t11.5 -75.5q0 -91 -58 -170t-135 -125q135 -89 135 -248zM545 485q157 -48 218 -79q18 -9 34 -19q116 70 116 174q0 23 -6.5 44
t-14.5 37.5t-27 32.5t-32 27t-42 24t-44.5 19.5t-52 18.5t-52 16.5t-56.5 16.5q-180 51 -252 96q-105 -68 -105 -166q0 -31 10 -57.5t23.5 -46t40.5 -38.5t48 -30.5t60.5 -26t63.5 -22t70 -21.5z" />
    <glyph glyph-name="dieresis" unicode="&#xa8;" horiz-adv-x="1249" 
d="M430 1217q-52 0 -83.5 31.5t-31.5 82.5t31.5 83t83.5 32t83.5 -32t31.5 -83t-31.5 -82.5t-83.5 -31.5zM819 1217q-52 0 -83 31.5t-31 82.5t31 83t83 32t83.5 -32t31.5 -83t-31.5 -82.5t-83.5 -31.5z" />
    <glyph glyph-name="copyright" unicode="&#xa9;" horiz-adv-x="1935" 
d="M967 -131q-257 0 -453.5 104.5t-304 296t-107.5 441.5q0 252 107.5 444t303.5 296.5t454 104.5q259 0 455.5 -104.5t303.5 -296.5t107 -444q0 -188 -62.5 -345t-174.5 -266.5t-273.5 -170t-355.5 -60.5zM967 1532q-249 0 -439 -101.5t-293.5 -288t-103.5 -431.5
q0 -244 103.5 -429.5t293 -286.5t439.5 -101q379 0 608 224t229 593q0 245 -103 431t-293.5 288t-440.5 102zM1001 1255q-182 0 -277 -138t-95 -400q0 -252 96 -383t281 -131q69 0 136.5 29.5t122 81.5t90 132.5t40.5 174.5h20v-418h-18q-3 34 -20.5 49.5t-57.5 15.5
q-29 0 -65.5 -14t-70 -31t-95 -31t-134.5 -14q-229 0 -378.5 153t-149.5 386q0 244 149.5 403.5t378.5 159.5q69 0 131.5 -15.5t98.5 -33.5t73 -33.5t62 -15.5q33 0 50.5 19.5t19.5 49.5h18v-401h-21q-5 89 -42 167t-92 129t-121 80t-130 29z" />
    <glyph glyph-name="ordfeminine" unicode="&#xaa;" horiz-adv-x="962" 
d="M418 1079q17 9 60 32t65 36q49 29 71.5 63t22.5 84q0 62 -43 101t-127 39q-80 0 -154.5 -32t-74.5 -71q0 -18 15 -35.5t30.5 -39.5t15.5 -52q0 -36 -22 -57t-58 -21q-39 0 -59.5 23.5t-20.5 60.5q0 92 98.5 168t249.5 76q52 0 101.5 -12.5t97 -39t76.5 -78t29 -120.5
v-385q0 -35 13 -48t40 -13q28 0 63 35l11 -13q-41 -58 -79.5 -81t-84.5 -23q-60 0 -92.5 35t-32.5 106v82q-36 -117 -116 -170t-181 -53q-89 0 -140 39.5t-51 113.5q0 29 11 54t27 44t56.5 46t75 46.5t107.5 59.5zM301 870q0 -65 34 -101t95 -36q34 0 67.5 19t65 57.5
t51 107.5t19.5 158v99l-203 -113q-72 -39 -100.5 -80.5t-28.5 -110.5z" />
    <glyph glyph-name="guillemotleft" unicode="&#xab;" horiz-adv-x="1028" 
d="M301 559l258 -393l-16 -12l-426 395v18l428 396l14 -13zM713 559l258 -393l-17 -12l-426 395v18l428 396l15 -13z" />
    <glyph glyph-name="logicalnot" unicode="&#xac;" horiz-adv-x="972" 
d="M98 913v27h776v-444h-26v417h-750z" />
    <glyph glyph-name="uni00AD" unicode="&#xad;" horiz-adv-x="649" 
d="M78 532v119h493v-119h-493z" />
    <glyph glyph-name="registered" unicode="&#xae;" horiz-adv-x="1521" 
d="M760 483q-274 0 -440 164t-166 434q0 271 166 435.5t440 164.5q275 0 441.5 -164t166.5 -436q0 -270 -166.5 -434t-441.5 -164zM760 1657q-260 0 -419 -158.5t-159 -417.5q0 -258 159 -415.5t419 -157.5q261 0 420 157.5t159 415.5q0 260 -159 418t-420 158zM436 748v18
q48 0 66 14t18 62v497q0 48 -18 62t-66 14v19h359q126 0 193 -49t67 -136t-71.5 -134.5t-170.5 -47.5q-84 0 -131 23q37 -44 71.5 -59t84.5 -15h45l127 -162q45 -58 67.5 -72t67.5 -14v-20h-215l-281 356v-262q0 -48 20.5 -62t69.5 -14v-18h-303zM649 1354v-168
q0 -57 35 -79t82 -22q154 0 154 168q0 70 -36.5 116t-103.5 46h-69q-32 0 -47 -14.5t-15 -46.5z" />
    <glyph glyph-name="macron" unicode="&#xaf;" horiz-adv-x="1249" 
d="M346 1278v57h557v-57h-557z" />
    <glyph glyph-name="degree" unicode="&#xb0;" horiz-adv-x="874" 
d="M436 827q-135 0 -224 89.5t-89 224.5t89 224t224 89q136 0 226 -89t90 -224t-90 -224.5t-226 -89.5zM436 1430q-123 0 -202.5 -82t-79.5 -207t79.5 -207t202.5 -82t204 82t81 207t-81 207t-204 82z" />
    <glyph glyph-name="plusminus" unicode="&#xb1;" horiz-adv-x="972" 
d="M498 471h-27v336h-393v27h393v333h27v-333h397v-27h-397v-336zM78 307v27h817v-27h-817z" />
    <glyph glyph-name="twosuperior" unicode="&#xb2;" horiz-adv-x="790" 
d="M96 948q227 164 311.5 269t84.5 225q0 87 -49.5 140.5t-133.5 53.5q-69 0 -102 -21t-33 -52q0 -19 29.5 -53t29.5 -62q0 -32 -21.5 -53t-55.5 -21q-37 0 -59.5 22.5t-22.5 63.5q0 75 82 140t217 65q119 0 192.5 -58.5t73.5 -150.5q0 -48 -22 -91t-65 -82.5t-85.5 -71.5
t-106 -77t-104.5 -79h201q107 0 149.5 23.5t77.5 113.5l16 -2l-84 -252h-516z" />
    <glyph glyph-name="threesuperior" unicode="&#xb3;" horiz-adv-x="794" 
d="M270 1323h88q78 0 118 44.5t40 115.5q0 76 -41.5 120t-122.5 44q-63 0 -106 -23t-43 -49q0 -15 26.5 -44t26.5 -58q0 -34 -22.5 -55t-57.5 -21t-56.5 23t-21.5 61q0 67 79 125.5t204 58.5q129 0 206 -47t77 -131q0 -153 -258 -174q134 2 209 -43.5t75 -136.5
q0 -99 -90.5 -152t-230.5 -53q-122 0 -199.5 55.5t-77.5 124.5q0 40 24 64t62 24q35 0 57.5 -21.5t22.5 -56.5q0 -28 -23.5 -57t-23.5 -45q0 -28 36.5 -49t100.5 -21q92 0 140.5 46.5t48.5 133.5q0 86 -45.5 131.5t-133.5 45.5h-88v20z" />
    <glyph glyph-name="acute" unicode="&#xb4;" horiz-adv-x="1249" 
d="M610 1343q43 58 70.5 78.5t60.5 20.5q32 0 55 -23t23 -55q0 -36 -24.5 -60t-98.5 -61l-245 -123l-7 8z" />
    <glyph glyph-name="mu" unicode="&#xb5;" horiz-adv-x="1370" 
d="M825 942h322v-788q0 -44 16.5 -62t50.5 -18q41 0 74 30l10 -12q-56 -59 -102 -85.5t-100 -26.5q-135 0 -135 135v202q-43 -169 -151.5 -253t-260.5 -84q-125 0 -204.5 55.5t-94.5 148.5h-4v-178q0 -107 21 -151.5t91 -77.5q57 -28 77 -58t20 -67q0 -48 -27 -75.5
t-76 -27.5q-61 0 -95 47.5t-34 139.5v1075q0 111 -135 111v20h322v-625q0 -134 57 -197t178 -63q84 0 146.5 38t98.5 107.5t53.5 158t17.5 198.5v252q0 111 -136 111v20z" />
    <glyph glyph-name="paragraph" unicode="&#xb6;" horiz-adv-x="1241" 
d="M635 -246v850h-39q-231 0 -356 109.5t-125 306.5q0 196 124.5 305t356.5 109h496v-35h-123v-1645h-39v1645h-256v-1645h-39z" />
    <glyph glyph-name="periodcentered" unicode="&#xb7;" horiz-adv-x="585" 
d="M293 602q-52 0 -83.5 32t-31.5 83t31.5 82.5t83.5 31.5t83.5 -31.5t31.5 -82.5t-31.5 -83t-83.5 -32z" />
    <glyph glyph-name="cedilla" unicode="&#xb8;" horiz-adv-x="1210" 
d="M821 -274q0 -79 -55 -124.5t-148 -45.5q-219 0 -266 241l17 4q16 -82 63.5 -121.5t108.5 -39.5q54 0 83 27t29 77q0 43 -25.5 67.5t-68.5 24.5q-42 0 -94 -24l67 188h27l-55 -152q63 37 143 37q81 0 127.5 -42.5t46.5 -116.5z" />
    <glyph glyph-name="onesuperior" unicode="&#xb9;" horiz-adv-x="557" 
d="M84 938v18q64 0 94.5 14.5t30.5 61.5v516q0 35 -9.5 48t-39.5 12l-76 -4v16l268 45v-633q0 -47 30.5 -61.5t94.5 -14.5v-18h-393z" />
    <glyph glyph-name="ordmasculine" unicode="&#xba;" horiz-adv-x="1034" 
d="M516 676q-166 0 -275.5 111.5t-109.5 281.5q0 166 109 275.5t276 109.5t277 -109.5t110 -275.5q0 -170 -110 -281.5t-277 -111.5zM516 694q115 0 168 89.5t53 283.5q0 191 -53 280t-168 89q-114 0 -166.5 -89t-52.5 -280q0 -194 52.5 -283.5t166.5 -89.5z" />
    <glyph glyph-name="guillemotright" unicode="&#xbb;" horiz-adv-x="1028" 
d="M315 559l-258 391l15 13l428 -396v-18l-426 -395l-17 12zM727 559l-258 391l14 13l428 -396v-18l-426 -395l-16 12z" />
    <glyph glyph-name="onequarter" unicode="&#xbc;" horiz-adv-x="1521" 
d="M211 -8l1042 1472l23 -16l-1043 -1473zM84 717v18q64 0 94.5 14.5t30.5 61.5v516q0 35 -9 47.5t-40 11.5l-76 -4v17l268 45v-633q0 -47 30.5 -61.5t94.5 -14.5v-18h-393zM1032 0v18q67 0 92 14t25 62v103h-361v16l377 504h127v-494q121 5 152 176h14l-33 -202h-133v-103
q0 -48 22.5 -62t82.5 -14v-18h-365zM1149 651l-320 -428h320v428z" />
    <glyph glyph-name="onehalf" unicode="&#xbd;" horiz-adv-x="1656" 
d="M211 -8l1042 1472l23 -16l-1043 -1473zM84 717v18q64 0 94.5 14.5t30.5 61.5v516q0 35 -9 47.5t-40 11.5l-76 -4v17l268 45v-633q0 -47 30.5 -61.5t94.5 -14.5v-18h-393zM963 10q226 164 310.5 269t84.5 225q0 87 -49 140.5t-133 53.5q-69 0 -102.5 -21t-33.5 -52
q0 -19 30 -53t30 -62q0 -31 -21.5 -52.5t-56.5 -21.5q-37 0 -59.5 22.5t-22.5 63.5q0 75 82 140t217 65q119 0 192.5 -58.5t73.5 -150.5q0 -48 -22 -91t-65 -82.5t-85.5 -71.5t-106 -77t-104.5 -79h201q107 0 149.5 23.5t77.5 113.5l17 -2l-84 -252h-516z" />
    <glyph glyph-name="threequarters" unicode="&#xbe;" horiz-adv-x="1695" 
d="M385 -8l1042 1472l23 -16l-1042 -1473zM270 1102h88q78 0 118 44.5t40 115.5q0 76 -41.5 119.5t-122.5 43.5q-63 0 -106 -22.5t-43 -48.5q0 -15 26.5 -44.5t26.5 -58.5q0 -34 -22.5 -54.5t-57.5 -20.5t-56.5 23t-21.5 61q0 67 79 125.5t204 58.5q129 0 206 -47t77 -131
q0 -153 -258 -174q134 2 209 -43.5t75 -137.5q0 -99 -90 -151.5t-231 -52.5q-122 0 -199.5 55.5t-77.5 124.5q0 40 24 64t62 24q35 0 57.5 -21.5t22.5 -56.5q0 -29 -23.5 -57t-23.5 -45q0 -28 36.5 -49t100.5 -21q92 0 140.5 46.5t48.5 133.5q0 86 -45.5 131t-133.5 45h-88
v21zM1206 0v18q67 0 92 14t25 62v103h-360v16l376 504h127v-494q121 5 152 176h14l-33 -202h-133v-103q0 -48 22.5 -62t82.5 -14v-18h-365zM1323 651l-319 -428h319v428z" />
    <glyph glyph-name="questiondown" unicode="&#xbf;" horiz-adv-x="1239" 
d="M662 696q-59 0 -95.5 36.5t-36.5 96.5t36.5 97t95.5 37t95 -37t36 -97t-36 -96.5t-95 -36.5zM655 573h25v-98q0 -49 -18.5 -90t-48.5 -71.5t-66 -60.5t-72 -63.5t-66 -73t-48.5 -97.5t-18.5 -128q0 -143 80.5 -228t226.5 -85q110 0 202.5 45t92.5 113q0 23 -10 41.5
t-24 32.5t-28 28.5t-24 37t-10 50.5q0 55 33.5 88t89.5 33q57 0 91 -35.5t34 -95.5q0 -68 -35.5 -133.5t-98 -117.5t-156 -84t-200.5 -32q-216 0 -344.5 88.5t-128.5 247.5q0 66 20.5 119t59.5 92t82.5 66.5t101.5 52.5q130 57 194 114t64 146v98z" />
    <glyph glyph-name="Agrave" unicode="&#xc0;" 
d="M561 1733l166 -215l-6 -9l-246 123q-74 37 -98.5 61t-24.5 60q0 32 23 55t55 23q34 0 61 -20.5t70 -77.5zM793 0v25q99 0 135 43t2 151l-103 311h-481l-55 -172q-25 -77 -30.5 -135.5t5.5 -96t38 -60.5t62.5 -32t84.5 -9v-25h-451v25q58 1 99 30t79 100t80 203l309 963
q-21 52 -47 70t-84 18v25h303l406 -1235q33 -99 74.5 -136.5t113.5 -37.5v-25h-540zM354 559h465l-235 717z" />
    <glyph glyph-name="Aacute" unicode="&#xc1;" 
d="M702 1733q43 57 70.5 77.5t61.5 20.5q32 0 54.5 -23t22.5 -55q0 -36 -24.5 -60t-98.5 -61l-245 -123l-6 9zM793 0v25q99 0 135 43t2 151l-103 311h-481l-55 -172q-25 -77 -30.5 -135.5t5.5 -96t38 -60.5t62.5 -32t84.5 -9v-25h-451v25q58 1 99 30t79 100t80 203l309 963
q-21 52 -47 70t-84 18v25h303l406 -1235q33 -99 74.5 -136.5t113.5 -37.5v-25h-540zM354 559h465l-235 717z" />
    <glyph glyph-name="Acircumflex" unicode="&#xc2;" 
d="M614 1681l-288 -174l-9 9l234 286q25 35 63 35q36 0 68 -37l231 -284l-8 -9zM793 0v25q99 0 135 43t2 151l-103 311h-481l-55 -172q-25 -77 -30.5 -135.5t5.5 -96t38 -60.5t62.5 -32t84.5 -9v-25h-451v25q58 1 99 30t79 100t80 203l309 963q-21 52 -47 70t-84 18v25h303
l406 -1235q33 -99 74.5 -136.5t113.5 -37.5v-25h-540zM354 559h465l-235 717z" />
    <glyph glyph-name="Atilde" unicode="&#xc3;" 
d="M522 1794q39 0 94 -31t107.5 -61.5t83.5 -30.5q51 0 79.5 30t53.5 107l18 -4q-28 -119 -84 -184.5t-131 -65.5q-30 0 -71 19.5t-74.5 43t-71.5 43t-63 19.5q-52 0 -80 -27.5t-51 -101.5l-19 4q26 114 81 177t128 63zM793 0v25q99 0 135 43t2 151l-103 311h-481l-55 -172
q-25 -77 -30.5 -135.5t5.5 -96t38 -60.5t62.5 -32t84.5 -9v-25h-451v25q58 1 99 30t79 100t80 203l309 963q-21 52 -47 70t-84 18v25h303l406 -1235q33 -99 74.5 -136.5t113.5 -37.5v-25h-540zM354 559h465l-235 717z" />
    <glyph glyph-name="Adieresis" unicode="&#xc4;" 
d="M440 1606q-52 0 -83 31.5t-31 82.5t31 83t83 32t83.5 -32t31.5 -83t-31.5 -82.5t-83.5 -31.5zM829 1606q-52 0 -83 31.5t-31 82.5t31 83t83 32t83.5 -32t31.5 -83t-31.5 -82.5t-83.5 -31.5zM793 0v25q99 0 135 43t2 151l-103 311h-481l-55 -172q-25 -77 -30.5 -135.5
t5.5 -96t38 -60.5t62.5 -32t84.5 -9v-25h-451v25q58 1 99 30t79 100t80 203l309 963q-21 52 -47 70t-84 18v25h303l406 -1235q33 -99 74.5 -136.5t113.5 -37.5v-25h-540zM354 559h465l-235 717z" />
    <glyph glyph-name="Aring" unicode="&#xc5;" 
d="M795 1712q0 -74 -48.5 -122t-119.5 -48q-73 0 -121.5 48t-48.5 122t48.5 122t121.5 48q71 0 119.5 -48t48.5 -122zM770 1712q0 64 -40.5 106t-102.5 42q-63 0 -104.5 -42t-41.5 -106t41.5 -105.5t104.5 -41.5q62 0 102.5 41.5t40.5 105.5zM793 0v25q99 0 135 43t2 151
l-103 311h-481l-55 -172q-25 -77 -30.5 -135.5t5.5 -96t38 -60.5t62.5 -32t84.5 -9v-25h-451v25q58 1 99 30t79 100t80 203l309 963q-21 52 -47 70t-84 18v25h303l406 -1235q33 -99 74.5 -136.5t113.5 -37.5v-25h-540zM354 559h465l-235 717z" />
    <glyph glyph-name="AE" unicode="&#xc6;" horiz-adv-x="2000" 
d="M752 0v25q90 0 123.5 27.5t33.5 123.5v354h-432l-102 -178q-63 -109 -70 -182.5t33.5 -108t122.5 -36.5v-25h-461v25q87 1 160.5 72t179.5 255l563 979q-11 48 -45 63t-106 15v25h1073l6 -492h-23q-36 467 -395 467h-156q-83 0 -113 -32t-30 -120v-505h125q150 0 214 69
t67 234h22v-637h-22q-6 165 -70 236t-211 71h-125v-549q0 -88 30 -119.5t113 -31.5h168q188 0 313.5 131t178.5 376h22l-77 -532h-1110zM494 559h415v725z" />
    <glyph glyph-name="Ccedilla" unicode="&#xc7;" horiz-adv-x="1476" 
d="M1042 -274q0 -79 -54.5 -124.5t-147.5 -45.5q-220 0 -267 241l17 4q16 -82 63.5 -121.5t108.5 -39.5q54 0 83 27t29 77q0 43 -25.5 67.5t-68.5 24.5q-42 0 -94 -24l62 170q-269 15 -443 221t-174 514q0 210 82.5 378.5t229 263.5t329.5 95q85 0 160.5 -15.5t119 -33.5
t88.5 -33.5t77 -15.5q46 0 62.5 23t18.5 65h23v-537h-23q-9 150 -75.5 269.5t-172.5 185t-231 65.5q-227 0 -345 -180.5t-118 -529.5q0 -348 122 -529.5t356 -181.5q88 0 172 37.5t153 106t113.5 175.5t50.5 234h23v-569h-23q-10 100 -88 100q-32 0 -75.5 -17t-85 -38
t-119 -38t-169.5 -17h-14l-47 -132q63 37 143 37q81 0 127.5 -42.5t46.5 -116.5z" />
    <glyph glyph-name="Egrave" unicode="&#xc8;" horiz-adv-x="1320" 
d="M627 1733l166 -215l-7 -9l-245 123q-74 37 -98.5 61t-24.5 60q0 32 23 55t55 23q34 0 61 -20.5t70 -77.5zM72 0v25q90 0 123.5 27.5t33.5 123.5v1081q0 96 -33 124t-124 28v25h1073l6 -492h-23q-36 467 -395 467h-155q-83 0 -113.5 -32t-30.5 -120v-505h125q150 0 214 69
t67 234h22v-637h-22q-6 165 -70 236t-211 71h-125v-549q0 -88 30.5 -119.5t113.5 -31.5h167q188 0 313.5 131t178.5 376h23l-78 -532h-1110z" />
    <glyph glyph-name="Eacute" unicode="&#xc9;" horiz-adv-x="1320" 
d="M768 1733q43 57 70 77.5t61 20.5q32 0 55 -23t23 -55q0 -36 -24.5 -60t-98.5 -61l-246 -123l-6 9zM72 0v25q90 0 123.5 27.5t33.5 123.5v1081q0 96 -33 124t-124 28v25h1073l6 -492h-23q-36 467 -395 467h-155q-83 0 -113.5 -32t-30.5 -120v-505h125q150 0 214 69t67 234
h22v-637h-22q-6 165 -70 236t-211 71h-125v-549q0 -88 30.5 -119.5t113.5 -31.5h167q188 0 313.5 131t178.5 376h23l-78 -532h-1110z" />
    <glyph glyph-name="Ecircumflex" unicode="&#xca;" horiz-adv-x="1320" 
d="M680 1681l-289 -174l-8 9l233 286q25 35 64 35q36 0 68 -37l231 -284l-8 -9zM72 0v25q90 0 123.5 27.5t33.5 123.5v1081q0 96 -33 124t-124 28v25h1073l6 -492h-23q-36 467 -395 467h-155q-83 0 -113.5 -32t-30.5 -120v-505h125q150 0 214 69t67 234h22v-637h-22
q-6 165 -70 236t-211 71h-125v-549q0 -88 30.5 -119.5t113.5 -31.5h167q188 0 313.5 131t178.5 376h23l-78 -532h-1110z" />
    <glyph glyph-name="Edieresis" unicode="&#xcb;" horiz-adv-x="1320" 
d="M485 1606q-52 0 -83 31.5t-31 82.5t31 83t83 32t83.5 -32t31.5 -83t-31.5 -82.5t-83.5 -31.5zM874 1606q-52 0 -83 31.5t-31 82.5t31 83t83 32t83.5 -32t31.5 -83t-31.5 -82.5t-83.5 -31.5zM72 0v25q90 0 123.5 27.5t33.5 123.5v1081q0 96 -33 124t-124 28v25h1073
l6 -492h-23q-36 467 -395 467h-155q-83 0 -113.5 -32t-30.5 -120v-505h125q150 0 214 69t67 234h22v-637h-22q-6 165 -70 236t-211 71h-125v-549q0 -88 30.5 -119.5t113.5 -31.5h167q188 0 313.5 131t178.5 376h23l-78 -532h-1110z" />
    <glyph glyph-name="Igrave" unicode="&#xcc;" horiz-adv-x="665" 
d="M285 1733l166 -215l-7 -9l-245 123q-74 37 -98.5 61t-24.5 60q0 32 23 55t55 23q34 0 61 -20.5t70 -77.5zM72 0v25q47 0 73 4.5t47 20t29 46t8 80.5v1081q0 96 -33 124t-124 28v25h522v-25q-47 0 -73.5 -5t-48 -20.5t-30 -46t-8.5 -80.5v-1081q0 -96 34 -123.5t126 -27.5
v-25h-522z" />
    <glyph glyph-name="Iacute" unicode="&#xcd;" horiz-adv-x="665" 
d="M389 1733q43 57 70 77.5t61 20.5q32 0 55 -23t23 -55q0 -36 -24.5 -60t-98.5 -61l-246 -123l-6 9zM72 0v25q47 0 73 4.5t47 20t29 46t8 80.5v1081q0 96 -33 124t-124 28v25h522v-25q-47 0 -73.5 -5t-48 -20.5t-30 -46t-8.5 -80.5v-1081q0 -96 34 -123.5t126 -27.5v-25
h-522z" />
    <glyph glyph-name="Icircumflex" unicode="&#xce;" horiz-adv-x="665" 
d="M338 1681l-289 -174l-8 9l233 286q25 35 64 35q36 0 68 -37l231 -284l-8 -9zM72 0v25q47 0 73 4.5t47 20t29 46t8 80.5v1081q0 96 -33 124t-124 28v25h522v-25q-47 0 -73.5 -5t-48 -20.5t-30 -46t-8.5 -80.5v-1081q0 -96 34 -123.5t126 -27.5v-25h-522z" />
    <glyph glyph-name="Idieresis" unicode="&#xcf;" horiz-adv-x="665" 
d="M143 1606q-52 0 -83 31.5t-31 82.5t31 83t83 32t83.5 -32t31.5 -83t-31.5 -82.5t-83.5 -31.5zM532 1606q-52 0 -83 31.5t-31 82.5t31 83t83 32t83.5 -32t31.5 -83t-31.5 -82.5t-83.5 -31.5zM72 0v25q47 0 73 4.5t47 20t29 46t8 80.5v1081q0 96 -33 124t-124 28v25h522
v-25q-47 0 -73.5 -5t-48 -20.5t-30 -46t-8.5 -80.5v-1081q0 -96 34 -123.5t126 -27.5v-25h-522z" />
    <glyph glyph-name="Eth" unicode="&#xd0;" horiz-adv-x="1566" 
d="M72 0v25q89 0 123 28t34 123v549h-161v29h161v503q0 96 -33 124t-124 28v25h657q202 0 362.5 -88.5t252.5 -252.5t92 -376t-92 -376t-252.5 -252.5t-362.5 -88.5h-657zM707 1409h-111q-97 0 -129.5 -30.5t-32.5 -121.5v-503h418v-29h-418v-549q0 -91 32.5 -121t129.5 -30
h111q257 0 380 174t123 518t-123 518t-380 174z" />
    <glyph glyph-name="Ntilde" unicode="&#xd1;" horiz-adv-x="1523" 
d="M700 1794q39 0 94 -31t107.5 -61.5t83.5 -30.5q51 0 79.5 30t53.5 107l19 -4q-28 -119 -84 -184.5t-131 -65.5q-30 0 -71 19.5t-74.5 43t-72 43t-63.5 19.5q-52 0 -80 -27.5t-51 -101.5l-18 4q26 114 80.5 177t127.5 63zM63 0v25q41 0 69.5 15t52 53t35 110.5t11.5 181.5
v881q0 64 -39 103.5t-118 39.5v25h299l887 -1172v823q0 163 -54.5 242t-197.5 82v25h452v-25q-90 -3 -130 -84.5t-40 -239.5v-1089h-78l-950 1255v-866q0 -86 14 -150.5t36.5 -103.5t57 -63t69 -33t77.5 -10v-25h-453z" />
    <glyph glyph-name="Ograve" unicode="&#xd2;" horiz-adv-x="1679" 
d="M791 1733l165 -215l-6 -9l-245 123q-74 37 -98.5 61t-24.5 60q0 32 22.5 55t54.5 23q34 0 61.5 -20.5t70.5 -77.5zM840 1454q158 0 290 -53t224 -148.5t143 -233t51 -302.5q0 -333 -193.5 -535t-512.5 -202q-321 0 -516 202t-195 535q0 220 88 387.5t249 258.5t372 91z
M840 1430q-236 0 -360 -182t-124 -531t124 -531t362 -182q235 0 358 182t123 531t-123.5 531t-359.5 182z" />
    <glyph glyph-name="Oacute" unicode="&#xd3;" horiz-adv-x="1679" 
d="M911 1733q43 57 70 77.5t61 20.5q32 0 55 -23t23 -55q0 -36 -24.5 -60t-98.5 -61l-245 -123l-7 9zM840 1454q158 0 290 -53t224 -148.5t143 -233t51 -302.5q0 -333 -193.5 -535t-512.5 -202q-321 0 -516 202t-195 535q0 220 88 387.5t249 258.5t372 91zM840 1430
q-236 0 -360 -182t-124 -531t124 -531t362 -182q235 0 358 182t123 531t-123.5 531t-359.5 182z" />
    <glyph glyph-name="Ocircumflex" unicode="&#xd4;" horiz-adv-x="1679" 
d="M844 1681l-289 -174l-8 9l233 286q25 35 64 35q35 0 67 -37l232 -284l-8 -9zM840 1454q158 0 290 -53t224 -148.5t143 -233t51 -302.5q0 -333 -193.5 -535t-512.5 -202q-321 0 -516 202t-195 535q0 220 88 387.5t249 258.5t372 91zM840 1430q-236 0 -360 -182t-124 -531
t124 -531t362 -182q235 0 358 182t123 531t-123.5 531t-359.5 182z" />
    <glyph glyph-name="Otilde" unicode="&#xd5;" horiz-adv-x="1679" 
d="M731 1794q39 0 94 -31t107.5 -61.5t83.5 -30.5q51 0 79.5 30t53.5 107l18 -4q-28 -119 -84 -184.5t-131 -65.5q-30 0 -71 19.5t-74.5 43t-71.5 43t-63 19.5q-52 0 -80 -27.5t-51 -101.5l-19 4q26 114 81 177t128 63zM840 1454q158 0 290 -53t224 -148.5t143 -233
t51 -302.5q0 -333 -193.5 -535t-512.5 -202q-321 0 -516 202t-195 535q0 220 88 387.5t249 258.5t372 91zM840 1430q-236 0 -360 -182t-124 -531t124 -531t362 -182q235 0 358 182t123 531t-123.5 531t-359.5 182z" />
    <glyph glyph-name="Odieresis" unicode="&#xd6;" horiz-adv-x="1679" 
d="M649 1606q-52 0 -83 31.5t-31 82.5t31 83t83 32t83.5 -32t31.5 -83t-31.5 -82.5t-83.5 -31.5zM1038 1606q-52 0 -83 31.5t-31 82.5t31 83t83 32t83.5 -32t31.5 -83t-31.5 -82.5t-83.5 -31.5zM840 1454q158 0 290 -53t224 -148.5t143 -233t51 -302.5q0 -333 -193.5 -535
t-512.5 -202q-321 0 -516 202t-195 535q0 220 88 387.5t249 258.5t372 91zM840 1430q-236 0 -360 -182t-124 -531t124 -531t362 -182q235 0 358 182t123 531t-123.5 531t-359.5 182z" />
    <glyph glyph-name="multiply" unicode="&#xd7;" horiz-adv-x="972" 
d="M178 410l-20 18l309 309l-324 322l19 18l323 -321l310 309l18 -18l-309 -312l323 -323l-18 -19l-324 324z" />
    <glyph glyph-name="Oslash" unicode="&#xd8;" horiz-adv-x="1679" 
d="M311 -31l-26 19l100 139q-122 98 -188 249t-66 341q0 220 88 387.5t249 258.5t372 91q238 0 415 -119l86 121l27 -18l-88 -121q129 -96 198.5 -250.5t69.5 -349.5q0 -333 -193.5 -535t-512.5 -202q-253 0 -430 129zM840 1430q-236 0 -360 -182t-124 -531q0 -315 101 -492
l739 1028q-124 177 -356 177zM1323 717q0 328 -109 508l-741 -1030q125 -191 369 -191q235 0 358 182t123 531z" />
    <glyph glyph-name="Ugrave" unicode="&#xd9;" horiz-adv-x="1468" 
d="M696 1733l166 -215l-6 -9l-246 123q-74 37 -98.5 61t-24.5 60q0 32 23 55t55 23q34 0 61 -20.5t70 -77.5zM1274 475q0 -246 -127 -370.5t-356 -124.5q-142 0 -247 28t-184 91.5t-119 173t-40 266.5v718q0 50 -8.5 80.5t-30 46t-48 20.5t-73.5 5v25h524v-25
q-47 0 -73.5 -5t-47.5 -20.5t-29.5 -46t-8.5 -80.5v-790q0 -238 101 -343.5t306 -105.5q198 0 313 112.5t115 334.5v590q0 82 -5.5 135.5t-19.5 97.5t-40.5 68t-67.5 37.5t-102 15.5v25h436v-25q-92 -6 -130 -84.5t-38 -269.5v-580z" />
    <glyph glyph-name="Uacute" unicode="&#xda;" horiz-adv-x="1468" 
d="M858 1733q43 57 70 77.5t61 20.5q32 0 55 -23t23 -55q0 -36 -24.5 -60t-98.5 -61l-246 -123l-6 9zM1274 475q0 -246 -127 -370.5t-356 -124.5q-142 0 -247 28t-184 91.5t-119 173t-40 266.5v718q0 50 -8.5 80.5t-30 46t-48 20.5t-73.5 5v25h524v-25q-47 0 -73.5 -5
t-47.5 -20.5t-29.5 -46t-8.5 -80.5v-790q0 -238 101 -343.5t306 -105.5q198 0 313 112.5t115 334.5v590q0 82 -5.5 135.5t-19.5 97.5t-40.5 68t-67.5 37.5t-102 15.5v25h436v-25q-92 -6 -130 -84.5t-38 -269.5v-580z" />
    <glyph glyph-name="Ucircumflex" unicode="&#xdb;" horiz-adv-x="1468" 
d="M791 1681l-289 -174l-8 9l233 286q25 35 64 35q35 0 67 -37l232 -284l-9 -9zM1274 475q0 -246 -127 -370.5t-356 -124.5q-142 0 -247 28t-184 91.5t-119 173t-40 266.5v718q0 50 -8.5 80.5t-30 46t-48 20.5t-73.5 5v25h524v-25q-47 0 -73.5 -5t-47.5 -20.5t-29.5 -46
t-8.5 -80.5v-790q0 -238 101 -343.5t306 -105.5q198 0 313 112.5t115 334.5v590q0 82 -5.5 135.5t-19.5 97.5t-40.5 68t-67.5 37.5t-102 15.5v25h436v-25q-92 -6 -130 -84.5t-38 -269.5v-580z" />
    <glyph glyph-name="Udieresis" unicode="&#xdc;" horiz-adv-x="1468" 
d="M596 1606q-52 0 -83.5 31.5t-31.5 82.5t31.5 83t83.5 32t83.5 -32t31.5 -83t-31.5 -82.5t-83.5 -31.5zM985 1606q-52 0 -83.5 31.5t-31.5 82.5t31.5 83t83.5 32t83.5 -32t31.5 -83t-31.5 -82.5t-83.5 -31.5zM1274 475q0 -246 -127 -370.5t-356 -124.5q-142 0 -247 28
t-184 91.5t-119 173t-40 266.5v718q0 50 -8.5 80.5t-30 46t-48 20.5t-73.5 5v25h524v-25q-47 0 -73.5 -5t-47.5 -20.5t-29.5 -46t-8.5 -80.5v-790q0 -238 101 -343.5t306 -105.5q198 0 313 112.5t115 334.5v590q0 82 -5.5 135.5t-19.5 97.5t-40.5 68t-67.5 37.5t-102 15.5
v25h436v-25q-92 -6 -130 -84.5t-38 -269.5v-580z" />
    <glyph glyph-name="Yacute" unicode="&#xdd;" horiz-adv-x="1323" 
d="M811 1733q43 57 70 77.5t61 20.5q32 0 55 -23t23 -55q0 -36 -24.5 -60t-98.5 -61l-246 -123l-6 9zM397 0v25q96 0 138.5 28.5t42.5 122.5v416l-338 573q-65 113 -101.5 161.5t-64.5 64.5t-74 18v25h567v-25q-81 -1 -117.5 -32.5t-30.5 -81.5t44 -117l297 -516l235 442
q52 101 52 184q0 63 -43 92t-115 29v25h434v-25q-84 -4 -146.5 -73t-148.5 -232l-248 -469v-459q0 -94 42.5 -122.5t138.5 -28.5v-25h-564z" />
    <glyph glyph-name="Thorn" unicode="&#xde;" horiz-adv-x="1314" 
d="M102 0v25q92 0 126 27.5t34 123.5v1081q0 50 -8.5 80.5t-30 46t-48 20.5t-73.5 5v25h523v-25q-47 0 -73.5 -5t-48 -20.5t-30 -46t-8.5 -80.5v-127h278q224 0 361 -111.5t137 -293.5q0 -178 -141 -284.5t-373 -106.5q-138 0 -262 47v-197q0 -53 9.5 -85t34 -48t54 -21
t82.5 -5v-25h-543zM606 1106q-80 0 -110.5 -27.5t-30.5 -99.5v-461q0 -71 71 -116.5t181 -45.5q309 0 309 369q0 381 -313 381h-107z" />
    <glyph glyph-name="germandbls" unicode="&#xdf;" horiz-adv-x="1236" 
d="M47 0v18q68 0 98.5 17t30.5 69v875q0 23 -8.5 32t-30.5 9h-84v20h123v54q0 215 118.5 338.5t313.5 123.5q151 0 245.5 -69.5t94.5 -179.5q0 -51 -23 -94t-57.5 -70.5t-75 -59t-75 -59t-57.5 -70.5t-23 -94q0 -31 9 -58.5t21 -48t36 -41.5t43 -35t53 -31.5t55 -27
t61 -26.5q48 -21 74.5 -34t67.5 -36.5t64 -45.5t47 -52.5t35 -68t11 -81.5q0 -125 -78.5 -209.5t-213.5 -84.5q-66 0 -148.5 26.5t-114.5 26.5q-70 0 -67 -72h-17l-71 420l16 2q27 -102 73 -179.5t101 -120.5t110 -64t109 -21q88 0 139.5 42.5t51.5 129.5q0 40 -15 74
t-34.5 56t-59 45.5t-65.5 35.5t-76 33q-47 20 -72.5 32t-66 34.5t-63 44.5t-46.5 53.5t-34.5 71t-10.5 87.5q0 71 25.5 132t62 106t73 89.5t62 103t25.5 126.5q0 107 -55 175.5t-162 68.5q-103 0 -171.5 -62.5t-68.5 -193.5v-1159q0 -63 34.5 -84t111.5 -21v-18h-451z" />
    <glyph glyph-name="agrave" unicode="&#xe0;" horiz-adv-x="1054" 
d="M430 1343l166 -215l-6 -8l-246 123q-74 37 -98.5 61t-24.5 60q0 32 23 55t55 23q33 0 60.5 -20.5t70.5 -78.5zM719 750q-8 192 -232 192q-110 0 -193 -39t-83 -94q0 -21 18.5 -43t37 -49t18.5 -62q0 -45 -28 -70.5t-75 -25.5q-48 0 -74 29t-26 78q0 110 117 203.5
t299 93.5q54 0 106 -8.5t105.5 -31t93 -56t65 -88.5t25.5 -124v-512q0 -43 15.5 -60t47.5 -17q37 0 70 30l12 -12q-50 -57 -92.5 -80.5t-97.5 -23.5q-131 0 -131 133v176q-26 -85 -69 -147t-96.5 -96.5t-109.5 -50t-118 -15.5q-117 0 -184.5 54t-67.5 154q0 85 65 144
t244 135q115 51 168 76q99 46 136 93t34 114zM717 463v139l-72 -35q-117 -57 -182.5 -94t-117 -78t-70.5 -81t-19 -91q0 -80 44.5 -127t127.5 -47q123 0 206 114t83 300z" />
    <glyph glyph-name="aacute" unicode="&#xe1;" horiz-adv-x="1054" 
d="M571 1343q43 58 70.5 78.5t60.5 20.5q32 0 55 -23t23 -55q0 -36 -24.5 -60t-98.5 -61l-245 -123l-6 8zM719 750q-8 192 -232 192q-110 0 -193 -39t-83 -94q0 -21 18.5 -43t37 -49t18.5 -62q0 -45 -28 -70.5t-75 -25.5q-48 0 -74 29t-26 78q0 110 117 203.5t299 93.5
q54 0 106 -8.5t105.5 -31t93 -56t65 -88.5t25.5 -124v-512q0 -43 15.5 -60t47.5 -17q37 0 70 30l12 -12q-50 -57 -92.5 -80.5t-97.5 -23.5q-131 0 -131 133v176q-26 -85 -69 -147t-96.5 -96.5t-109.5 -50t-118 -15.5q-117 0 -184.5 54t-67.5 154q0 85 65 144t244 135
q115 51 168 76q99 46 136 93t34 114zM717 463v139l-72 -35q-117 -57 -182.5 -94t-117 -78t-70.5 -81t-19 -91q0 -80 44.5 -127t127.5 -47q123 0 206 114t83 300z" />
    <glyph glyph-name="acircumflex" unicode="&#xe2;" horiz-adv-x="1054" 
d="M504 1292l-289 -174l-8 8l233 287q25 35 64 35q35 0 67 -37l232 -285l-8 -8zM719 750q-8 192 -232 192q-110 0 -193 -39t-83 -94q0 -21 18.5 -43t37 -49t18.5 -62q0 -45 -28 -70.5t-75 -25.5q-48 0 -74 29t-26 78q0 110 117 203.5t299 93.5q54 0 106 -8.5t105.5 -31
t93 -56t65 -88.5t25.5 -124v-512q0 -43 15.5 -60t47.5 -17q37 0 70 30l12 -12q-50 -57 -92.5 -80.5t-97.5 -23.5q-131 0 -131 133v176q-26 -85 -69 -147t-96.5 -96.5t-109.5 -50t-118 -15.5q-117 0 -184.5 54t-67.5 154q0 85 65 144t244 135q115 51 168 76q99 46 136 93
t34 114zM717 463v139l-72 -35q-117 -57 -182.5 -94t-117 -78t-70.5 -81t-19 -91q0 -80 44.5 -127t127.5 -47q123 0 206 114t83 300z" />
    <glyph glyph-name="atilde" unicode="&#xe3;" horiz-adv-x="1054" 
d="M391 1405q39 0 94 -30.5t107.5 -61.5t83.5 -31q51 0 79.5 30t53.5 107l18 -4q-28 -119 -84 -184.5t-131 -65.5q-38 0 -92 31.5t-105.5 62.5t-82.5 31q-52 0 -80 -27.5t-51 -101.5l-19 4q26 114 81 177t128 63zM719 750q-8 192 -232 192q-110 0 -193 -39t-83 -94
q0 -21 18.5 -43t37 -49t18.5 -62q0 -45 -28 -70.5t-75 -25.5q-48 0 -74 29t-26 78q0 110 117 203.5t299 93.5q54 0 106 -8.5t105.5 -31t93 -56t65 -88.5t25.5 -124v-512q0 -43 15.5 -60t47.5 -17q37 0 70 30l12 -12q-50 -57 -92.5 -80.5t-97.5 -23.5q-131 0 -131 133v176
q-26 -85 -69 -147t-96.5 -96.5t-109.5 -50t-118 -15.5q-117 0 -184.5 54t-67.5 154q0 85 65 144t244 135q115 51 168 76q99 46 136 93t34 114zM717 463v139l-72 -35q-117 -57 -182.5 -94t-117 -78t-70.5 -81t-19 -91q0 -80 44.5 -127t127.5 -47q123 0 206 114t83 300z" />
    <glyph glyph-name="adieresis" unicode="&#xe4;" horiz-adv-x="1054" 
d="M309 1217q-52 0 -83 31.5t-31 82.5t31 83t83 32t83.5 -32t31.5 -83t-31.5 -82.5t-83.5 -31.5zM698 1217q-52 0 -83 31.5t-31 82.5t31 83t83 32t83.5 -32t31.5 -83t-31.5 -82.5t-83.5 -31.5zM719 750q-8 192 -232 192q-110 0 -193 -39t-83 -94q0 -21 18.5 -43t37 -49
t18.5 -62q0 -45 -28 -70.5t-75 -25.5q-48 0 -74 29t-26 78q0 110 117 203.5t299 93.5q54 0 106 -8.5t105.5 -31t93 -56t65 -88.5t25.5 -124v-512q0 -43 15.5 -60t47.5 -17q37 0 70 30l12 -12q-50 -57 -92.5 -80.5t-97.5 -23.5q-131 0 -131 133v176q-26 -85 -69 -147
t-96.5 -96.5t-109.5 -50t-118 -15.5q-117 0 -184.5 54t-67.5 154q0 85 65 144t244 135q115 51 168 76q99 46 136 93t34 114zM717 463v139l-72 -35q-117 -57 -182.5 -94t-117 -78t-70.5 -81t-19 -91q0 -80 44.5 -127t127.5 -47q123 0 206 114t83 300z" />
    <glyph glyph-name="aring" unicode="&#xe5;" horiz-adv-x="1054" 
d="M666 1323q0 -74 -48.5 -122t-119.5 -48q-73 0 -121.5 48t-48.5 122t48.5 122t121.5 48q71 0 119.5 -48t48.5 -122zM641 1323q0 64 -40.5 105.5t-102.5 41.5q-63 0 -104.5 -41.5t-41.5 -105.5t41.5 -105.5t104.5 -41.5q62 0 102.5 41.5t40.5 105.5zM719 750
q-8 192 -232 192q-110 0 -193 -39t-83 -94q0 -21 18.5 -43t37 -49t18.5 -62q0 -45 -28 -70.5t-75 -25.5q-48 0 -74 29t-26 78q0 110 117 203.5t299 93.5q54 0 106 -8.5t105.5 -31t93 -56t65 -88.5t25.5 -124v-512q0 -43 15.5 -60t47.5 -17q37 0 70 30l12 -12
q-50 -57 -92.5 -80.5t-97.5 -23.5q-131 0 -131 133v176q-26 -85 -69 -147t-96.5 -96.5t-109.5 -50t-118 -15.5q-117 0 -184.5 54t-67.5 154q0 85 65 144t244 135q115 51 168 76q99 46 136 93t34 114zM717 463v139l-72 -35q-117 -57 -182.5 -94t-117 -78t-70.5 -81t-19 -91
q0 -80 44.5 -127t127.5 -47q123 0 206 114t83 300z" />
    <glyph glyph-name="ae" unicode="&#xe6;" horiz-adv-x="1705" 
d="M1182 963q210 0 326.5 -118.5t111.5 -320.5h-741q0 -192 99 -299.5t277 -107.5q170 0 274.5 103t121.5 292l14 -2q-9 -240 -140.5 -385t-344.5 -145q-150 0 -260.5 70.5t-163.5 197.5q-70 -135 -188 -201.5t-251 -66.5q-114 0 -179.5 53t-65.5 151q0 87 64 148t239 135
q115 51 168 76q99 46 136 93t34 114q-8 192 -232 192q-110 0 -193 -39t-83 -94q0 -21 18.5 -43t37 -49t18.5 -62q0 -45 -28 -70.5t-75 -25.5q-48 0 -74 29t-26 78q0 110 117 203.5t299 93.5q102 0 194.5 -36.5t140.5 -117.5q129 154 355 154zM1184 942q-140 0 -220 -106.5
t-85 -288.5q93 0 197.5 -0.5t147.5 -0.5t92.5 0.5t76 2t53.5 4.5q6 186 -62 287.5t-200 101.5zM711 326v276l-72 -35q-224 -108 -306.5 -180.5t-82.5 -173.5q0 -174 166 -174q123 0 209 79t86 208z" />
    <glyph glyph-name="ccedilla" unicode="&#xe7;" horiz-adv-x="1069" 
d="M776 -274q0 -79 -55 -124.5t-148 -45.5q-219 0 -266 241l17 4q16 -82 63.5 -121.5t108.5 -39.5q54 0 83 27t29 77q0 43 -25.5 67.5t-68.5 24.5q-42 0 -94 -24l61 172q-183 22 -291 153.5t-108 329.5q0 221 136 358.5t345 137.5q88 0 164 -28.5t125 -73.5t76.5 -98.5
t27.5 -105.5t-29 -83t-81 -31q-49 0 -80 29.5t-31 76.5q0 35 18 64.5t36 53.5t18 44q0 53 -62 90t-151 37q-162 0 -257 -113.5t-95 -300.5q0 -189 104.5 -298t278.5 -109q166 0 272 108.5t121 300.5l16 -2q-11 -249 -142 -396.5t-345 -147.5q-27 0 -39 2l-49 -134
q63 37 143 37q81 0 127.5 -42.5t46.5 -116.5z" />
    <glyph glyph-name="egrave" unicode="&#xe8;" horiz-adv-x="1073" 
d="M473 1343l166 -215l-6 -8l-246 123q-74 37 -98.5 61t-24.5 60q0 32 23 55t55 23q33 0 60.5 -20.5t70.5 -78.5zM82 467q0 224 128 360t339 136q210 0 326.5 -118.5t111.5 -320.5h-741q0 -192 99.5 -299.5t277.5 -107.5q170 0 274 103t121 292l14 -2q-9 -240 -140.5 -385
t-344.5 -145q-210 0 -337.5 133t-127.5 354zM551 942q-140 0 -220 -106.5t-85 -288.5q93 0 197.5 -0.5t147.5 -0.5t92.5 0.5t76 2t53.5 4.5q6 186 -62 287.5t-200 101.5z" />
    <glyph glyph-name="eacute" unicode="&#xe9;" horiz-adv-x="1073" 
d="M614 1343q43 58 70.5 78.5t60.5 20.5q32 0 55 -23t23 -55q0 -36 -24.5 -60t-98.5 -61l-245 -123l-6 8zM82 467q0 224 128 360t339 136q210 0 326.5 -118.5t111.5 -320.5h-741q0 -192 99.5 -299.5t277.5 -107.5q170 0 274 103t121 292l14 -2q-9 -240 -140.5 -385
t-344.5 -145q-210 0 -337.5 133t-127.5 354zM551 942q-140 0 -220 -106.5t-85 -288.5q93 0 197.5 -0.5t147.5 -0.5t92.5 0.5t76 2t53.5 4.5q6 186 -62 287.5t-200 101.5z" />
    <glyph glyph-name="ecircumflex" unicode="&#xea;" horiz-adv-x="1073" 
d="M547 1292l-289 -174l-8 8l233 287q25 35 64 35q35 0 67 -37l232 -285l-8 -8zM82 467q0 224 128 360t339 136q210 0 326.5 -118.5t111.5 -320.5h-741q0 -192 99.5 -299.5t277.5 -107.5q170 0 274 103t121 292l14 -2q-9 -240 -140.5 -385t-344.5 -145q-210 0 -337.5 133
t-127.5 354zM551 942q-140 0 -220 -106.5t-85 -288.5q93 0 197.5 -0.5t147.5 -0.5t92.5 0.5t76 2t53.5 4.5q6 186 -62 287.5t-200 101.5z" />
    <glyph glyph-name="edieresis" unicode="&#xeb;" horiz-adv-x="1073" 
d="M352 1217q-52 0 -83 31.5t-31 82.5t31 83t83 32t83.5 -32t31.5 -83t-31.5 -82.5t-83.5 -31.5zM741 1217q-52 0 -83 31.5t-31 82.5t31 83t83 32t83.5 -32t31.5 -83t-31.5 -82.5t-83.5 -31.5zM82 467q0 224 128 360t339 136q210 0 326.5 -118.5t111.5 -320.5h-741
q0 -192 99.5 -299.5t277.5 -107.5q170 0 274 103t121 292l14 -2q-9 -240 -140.5 -385t-344.5 -145q-210 0 -337.5 133t-127.5 354zM551 942q-140 0 -220 -106.5t-85 -288.5q93 0 197.5 -0.5t147.5 -0.5t92.5 0.5t76 2t53.5 4.5q6 186 -62 287.5t-200 101.5z" />
    <glyph glyph-name="igrave" unicode="&#xec;" horiz-adv-x="524" 
d="M182 1343l166 -215l-6 -8l-246 123q-74 37 -98.5 61t-24.5 60q0 32 23 55t55 23q33 0 60.5 -20.5t70.5 -78.5zM47 0v20q68 0 98.5 17t30.5 69v711q0 67 -25.5 86t-103.5 19v20h305v-836q0 -52 30.5 -69t98.5 -17v-20h-434z" />
    <glyph glyph-name="iacute" unicode="&#xed;" horiz-adv-x="524" 
d="M324 1343q43 58 70.5 78.5t60.5 20.5q32 0 54.5 -23t22.5 -55q0 -37 -24 -60.5t-98 -60.5l-246 -123l-6 8zM47 0v20q68 0 98.5 17t30.5 69v711q0 67 -25.5 86t-103.5 19v20h305v-836q0 -52 30.5 -69t98.5 -17v-20h-434z" />
    <glyph glyph-name="icircumflex" unicode="&#xee;" horiz-adv-x="524" 
d="M260 1292l-289 -174l-8 8l234 287q25 35 63 35q36 0 68 -37l231 -285l-8 -8zM47 0v20q68 0 98.5 17t30.5 69v711q0 67 -25.5 86t-103.5 19v20h305v-836q0 -52 30.5 -69t98.5 -17v-20h-434z" />
    <glyph glyph-name="idieresis" unicode="&#xef;" horiz-adv-x="524" 
d="M68 1217q-52 0 -83.5 31.5t-31.5 82.5t31.5 83t83.5 32t83 -32t31 -83t-31 -82.5t-83 -31.5zM457 1217q-52 0 -83.5 31.5t-31.5 82.5t31.5 83t83.5 32t83 -32t31 -83t-31 -82.5t-83 -31.5zM47 0v20q68 0 98.5 17t30.5 69v711q0 67 -25.5 86t-103.5 19v20h305v-836
q0 -52 30.5 -69t98.5 -17v-20h-434z" />
    <glyph glyph-name="eth" unicode="&#xf0;" horiz-adv-x="1177" 
d="M1096 547q0 -274 -133 -420.5t-367 -146.5t-374 134t-140 359q0 149 67.5 262t175.5 170.5t238 57.5q181 0 301 -89q-81 282 -293 463l-204 -161l-17 24l201 156q-142 114 -342 180l8 20q211 -54 389 -157l168 131l17 -21l-160 -125q122 -77 213 -175t145.5 -207
t80.5 -222t26 -233zM926 471q0 230 -89 349.5t-241 119.5q-330 0 -330 -469q0 -233 83.5 -352t246.5 -119q162 0 246 119.5t84 351.5z" />
    <glyph glyph-name="ntilde" unicode="&#xf1;" horiz-adv-x="1189" 
d="M528 1405q39 0 94 -30.5t107.5 -61.5t83.5 -31q51 0 79.5 30t53.5 107l19 -4q-28 -119 -84 -184.5t-131 -65.5q-38 0 -92.5 31.5t-106 62.5t-82.5 31q-52 0 -80 -27.5t-51 -101.5l-19 4q26 114 81 177t128 63zM47 0v20q68 0 98.5 17t30.5 69v711q0 67 -25.5 86t-103.5 19
v20h305v-307q37 164 140 246t243 82q131 0 213 -79.5t82 -240.5v-537q0 -52 30.5 -69t98.5 -17v-20h-434v20q68 0 98.5 17t30.5 69v547q0 131 -55 188.5t-144 57.5q-79 0 -139 -37.5t-95 -103.5t-52 -148t-17 -178v-326q0 -52 30.5 -69t98.5 -17v-20h-434z" />
    <glyph glyph-name="ograve" unicode="&#xf2;" horiz-adv-x="1171" 
d="M512 1343l166 -215l-6 -8l-246 123q-74 37 -98.5 61t-24.5 60q0 32 23 55t55 23q33 0 60.5 -20.5t70.5 -78.5zM586 -20q-227 0 -365.5 135t-138.5 358q0 221 138.5 355.5t365.5 134.5t365.5 -134.5t138.5 -355.5q0 -223 -138.5 -358t-365.5 -135zM586 0q157 0 238 120
t81 351t-81 351t-238 120t-238.5 -120.5t-81.5 -350.5t81.5 -350.5t238.5 -120.5z" />
    <glyph glyph-name="oacute" unicode="&#xf3;" horiz-adv-x="1171" 
d="M653 1343q43 58 70.5 78.5t60.5 20.5q32 0 55 -23t23 -55q0 -36 -24.5 -60t-98.5 -61l-245 -123l-7 8zM586 -20q-227 0 -365.5 135t-138.5 358q0 221 138.5 355.5t365.5 134.5t365.5 -134.5t138.5 -355.5q0 -223 -138.5 -358t-365.5 -135zM586 0q157 0 238 120t81 351
t-81 351t-238 120t-238.5 -120.5t-81.5 -350.5t81.5 -350.5t238.5 -120.5z" />
    <glyph glyph-name="ocircumflex" unicode="&#xf4;" horiz-adv-x="1171" 
d="M586 1292l-289 -174l-8 8l233 287q25 35 64 35q35 0 67 -37l232 -285l-8 -8zM586 -20q-227 0 -365.5 135t-138.5 358q0 221 138.5 355.5t365.5 134.5t365.5 -134.5t138.5 -355.5q0 -223 -138.5 -358t-365.5 -135zM586 0q157 0 238 120t81 351t-81 351t-238 120
t-238.5 -120.5t-81.5 -350.5t81.5 -350.5t238.5 -120.5z" />
    <glyph glyph-name="otilde" unicode="&#xf5;" horiz-adv-x="1171" 
d="M473 1405q39 0 94 -30.5t107.5 -61.5t83.5 -31q51 0 79.5 30t53.5 107l18 -4q-28 -119 -84 -184.5t-131 -65.5q-38 0 -92 31.5t-105.5 62.5t-82.5 31q-52 0 -80 -27.5t-51 -101.5l-19 4q26 114 81 177t128 63zM586 -20q-227 0 -365.5 135t-138.5 358q0 221 138.5 355.5
t365.5 134.5t365.5 -134.5t138.5 -355.5q0 -223 -138.5 -358t-365.5 -135zM586 0q157 0 238 120t81 351t-81 351t-238 120t-238.5 -120.5t-81.5 -350.5t81.5 -350.5t238.5 -120.5z" />
    <glyph glyph-name="odieresis" unicode="&#xf6;" horiz-adv-x="1171" 
d="M391 1217q-52 0 -83.5 31.5t-31.5 82.5t31.5 83t83.5 32t83.5 -32t31.5 -83t-31.5 -82.5t-83.5 -31.5zM780 1217q-52 0 -83 31.5t-31 82.5t31 83t83 32t83.5 -32t31.5 -83t-31.5 -82.5t-83.5 -31.5zM586 -20q-227 0 -365.5 135t-138.5 358q0 221 138.5 355.5t365.5 134.5
t365.5 -134.5t138.5 -355.5q0 -223 -138.5 -358t-365.5 -135zM586 0q157 0 238 120t81 351t-81 351t-238 120t-238.5 -120.5t-81.5 -350.5t81.5 -350.5t238.5 -120.5z" />
    <glyph glyph-name="divide" unicode="&#xf7;" horiz-adv-x="972" 
d="M487 944q-32 0 -52.5 22t-20.5 56q0 35 20.5 56.5t52.5 21.5q34 0 55 -21.5t21 -56.5q0 -34 -21 -56t-55 -22zM78 725v27h817v-27h-817zM487 377q-32 0 -52.5 22t-20.5 56q0 35 20 56t53 21q34 0 55 -21t21 -56q0 -34 -21 -56t-55 -22z" />
    <glyph glyph-name="oslash" unicode="&#xf8;" horiz-adv-x="1171" 
d="M233 -41l-22 16l65 93q-93 65 -143.5 169t-50.5 236q0 221 138.5 355.5t365.5 134.5q159 0 280 -70l70 96l22 -16l-67 -94q95 -65 147 -169.5t52 -236.5q0 -223 -138.5 -358t-365.5 -135q-164 0 -285 73zM266 471q0 -206 66 -326l487 682q-80 115 -233 115
q-157 0 -238.5 -120.5t-81.5 -350.5zM586 0q157 0 238 120t81 351q0 215 -69 332l-488 -684q81 -119 238 -119z" />
    <glyph glyph-name="ugrave" unicode="&#xf9;" horiz-adv-x="1146" 
d="M508 1343l166 -215l-6 -8l-246 123q-74 37 -98.5 61t-24.5 60q0 32 23 55t55 23q33 0 60.5 -20.5t70.5 -78.5zM150 297v539q0 53 -30.5 69.5t-99.5 16.5v20h306v-655q0 -234 215 -234q264 0 264 477v306q0 54 -32.5 70t-115.5 16v20h324v-809q0 -67 22 -85.5t91 -18.5
v-21l-289 -16v305q-37 -158 -128.5 -237.5t-221.5 -79.5q-305 0 -305 317z" />
    <glyph glyph-name="uacute" unicode="&#xfa;" horiz-adv-x="1146" 
d="M641 1343q43 58 70.5 78.5t60.5 20.5q32 0 55 -23t23 -55q0 -36 -24.5 -60t-98.5 -61l-246 -123l-6 8zM150 297v539q0 53 -30.5 69.5t-99.5 16.5v20h306v-655q0 -234 215 -234q264 0 264 477v306q0 54 -32.5 70t-115.5 16v20h324v-809q0 -67 22 -85.5t91 -18.5v-21
l-289 -16v305q-37 -158 -128.5 -237.5t-221.5 -79.5q-305 0 -305 317z" />
    <glyph glyph-name="ucircumflex" unicode="&#xfb;" horiz-adv-x="1146" 
d="M555 1292l-289 -174l-8 8l234 287q25 35 63 35q36 0 68 -37l231 -285l-8 -8zM150 297v539q0 53 -30.5 69.5t-99.5 16.5v20h306v-655q0 -234 215 -234q264 0 264 477v306q0 54 -32.5 70t-115.5 16v20h324v-809q0 -67 22 -85.5t91 -18.5v-21l-289 -16v305
q-37 -158 -128.5 -237.5t-221.5 -79.5q-305 0 -305 317z" />
    <glyph glyph-name="udieresis" unicode="&#xfc;" horiz-adv-x="1146" 
d="M365 1217q-52 0 -83.5 31.5t-31.5 82.5t31.5 83t83.5 32t83 -32t31 -83t-31 -82.5t-83 -31.5zM754 1217q-52 0 -83.5 31.5t-31.5 82.5t31.5 83t83.5 32t83 -32t31 -83t-31 -82.5t-83 -31.5zM150 297v539q0 53 -30.5 69.5t-99.5 16.5v20h306v-655q0 -234 215 -234
q264 0 264 477v306q0 54 -32.5 70t-115.5 16v20h324v-809q0 -67 22 -85.5t91 -18.5v-21l-289 -16v305q-37 -158 -128.5 -237.5t-221.5 -79.5q-305 0 -305 317z" />
    <glyph glyph-name="yacute" unicode="&#xfd;" horiz-adv-x="1064" 
d="M639 1343q43 58 70.5 78.5t60.5 20.5q32 0 55 -23t23 -55q0 -36 -24.5 -60t-98.5 -61l-246 -123l-6 8zM162 758q-43 103 -77.5 132t-94.5 32v20h459v-20q-85 0 -109 -37t10 -123l289 -715l207 647q69 222 -150 228v20h369v-20q-73 -4 -112.5 -51.5t-80.5 -178.5
l-288 -897q-38 -118 -95.5 -182t-156.5 -64q-97 0 -166.5 58t-69.5 143q0 55 31 88t82 33q49 0 77.5 -31t28.5 -82q0 -32 -15.5 -56t-31.5 -43t-16 -38q0 -53 80 -53q92 0 144 61t52 152q0 93 -82 291z" />
    <glyph glyph-name="thorn" unicode="&#xfe;" horiz-adv-x="1261" 
d="M47 -430v20q68 0 98.5 17t30.5 69v1735q0 67 -25.5 86t-103.5 19v20h305v-864q42 141 143.5 216t243.5 75q198 0 319.5 -133.5t121.5 -354.5q0 -223 -122 -359t-319 -136q-143 0 -245 76.5t-142 222.5v-594q0 -57 41 -76t127 -19v-20h-473zM678 915q-151 0 -238.5 -116.5
t-87.5 -323.5q0 -211 87.5 -329.5t238.5 -118.5q155 0 236 115.5t81 332.5q0 213 -79 326.5t-238 113.5z" />
    <glyph glyph-name="ydieresis" unicode="&#xff;" horiz-adv-x="1064" 
d="M377 1217q-52 0 -83.5 31.5t-31.5 82.5t31.5 83t83.5 32t83.5 -32t31.5 -83t-31.5 -82.5t-83.5 -31.5zM766 1217q-52 0 -83.5 31.5t-31.5 82.5t31.5 83t83.5 32t83.5 -32t31.5 -83t-31.5 -82.5t-83.5 -31.5zM162 758q-43 103 -77.5 132t-94.5 32v20h459v-20
q-85 0 -109 -37t10 -123l289 -715l207 647q69 222 -150 228v20h369v-20q-73 -4 -112.5 -51.5t-80.5 -178.5l-288 -897q-38 -118 -95.5 -182t-156.5 -64q-97 0 -166.5 58t-69.5 143q0 55 31 88t82 33q49 0 77.5 -31t28.5 -82q0 -32 -15.5 -56t-31.5 -43t-16 -38q0 -53 80 -53
q92 0 144 61t52 152q0 93 -82 291z" />
    <glyph glyph-name="Amacron" unicode="&#x100;" 
d="M336 1667v57h557v-57h-557zM793 0v25q99 0 135 43t2 151l-103 311h-481l-55 -172q-25 -77 -30.5 -135.5t5.5 -96t38 -60.5t62.5 -32t84.5 -9v-25h-451v25q58 1 99 30t79 100t80 203l309 963q-21 52 -47 70t-84 18v25h303l406 -1235q33 -99 74.5 -136.5t113.5 -37.5v-25
h-540zM354 559h465l-235 717z" />
    <glyph glyph-name="amacron" unicode="&#x101;" horiz-adv-x="1054" 
d="M225 1278v57h557v-57h-557zM719 750q-8 192 -232 192q-110 0 -193 -39t-83 -94q0 -21 18.5 -43t37 -49t18.5 -62q0 -45 -28 -70.5t-75 -25.5q-48 0 -74 29t-26 78q0 110 117 203.5t299 93.5q54 0 106 -8.5t105.5 -31t93 -56t65 -88.5t25.5 -124v-512q0 -43 15.5 -60
t47.5 -17q37 0 70 30l12 -12q-50 -57 -92.5 -80.5t-97.5 -23.5q-131 0 -131 133v176q-26 -85 -69 -147t-96.5 -96.5t-109.5 -50t-118 -15.5q-117 0 -184.5 54t-67.5 154q0 85 65 144t244 135q115 51 168 76q99 46 136 93t34 114zM717 463v139l-72 -35q-117 -57 -182.5 -94
t-117 -78t-70.5 -81t-19 -91q0 -80 44.5 -127t127.5 -47q123 0 206 114t83 300z" />
    <glyph glyph-name="Abreve" unicode="&#x102;" 
d="M625 1667q53 0 92.5 6t78.5 22.5t66 50t41 83.5l17 -4q-32 -159 -107 -228t-188 -69t-188 69t-107 228l16 4q14 -50 41 -83.5t66.5 -50t79 -22.5t92.5 -6zM793 0v25q99 0 135 43t2 151l-103 311h-481l-55 -172q-25 -77 -30.5 -135.5t5.5 -96t38 -60.5t62.5 -32t84.5 -9
v-25h-451v25q58 1 99 30t79 100t80 203l309 963q-21 52 -47 70t-84 18v25h303l406 -1235q33 -99 74.5 -136.5t113.5 -37.5v-25h-540zM354 559h465l-235 717z" />
    <glyph glyph-name="abreve" unicode="&#x103;" horiz-adv-x="1054" 
d="M504 1278q53 0 92.5 6t78.5 22.5t66 50t41 83.5l17 -4q-32 -159 -107 -228t-188 -69t-188 69t-107 228l16 4q14 -50 41 -83.5t66.5 -50t79 -22.5t92.5 -6zM719 750q-8 192 -232 192q-110 0 -193 -39t-83 -94q0 -21 18.5 -43t37 -49t18.5 -62q0 -45 -28 -70.5t-75 -25.5
q-48 0 -74 29t-26 78q0 110 117 203.5t299 93.5q54 0 106 -8.5t105.5 -31t93 -56t65 -88.5t25.5 -124v-512q0 -43 15.5 -60t47.5 -17q37 0 70 30l12 -12q-50 -57 -92.5 -80.5t-97.5 -23.5q-131 0 -131 133v176q-26 -85 -69 -147t-96.5 -96.5t-109.5 -50t-118 -15.5
q-117 0 -184.5 54t-67.5 154q0 85 65 144t244 135q115 51 168 76q99 46 136 93t34 114zM717 463v139l-72 -35q-117 -57 -182.5 -94t-117 -78t-70.5 -81t-19 -91q0 -80 44.5 -127t127.5 -47q123 0 206 114t83 300z" />
    <glyph glyph-name="Aogonek" unicode="&#x104;" 
d="M793 0v25q99 0 135 43t2 151l-103 311h-481l-55 -172q-25 -77 -30.5 -135.5t5.5 -96t38 -60.5t62.5 -32t84.5 -9v-25h-451v25q58 1 99 30t79 100t80 203l309 963q-21 52 -47 70t-84 18v25h303l406 -1235q33 -99 74.5 -136.5t113.5 -37.5v-25h-225q-188 -94 -188 -252
q0 -123 102 -123q44 0 100 27l8 -14q-108 -78 -208 -78q-74 0 -118 36.5t-44 106.5q0 95 78.5 167t230.5 126v4h-276zM354 559h465l-235 717z" />
    <glyph glyph-name="aogonek" unicode="&#x105;" horiz-adv-x="1054" 
d="M719 750q-8 192 -232 192q-110 0 -193 -39t-83 -94q0 -21 18.5 -43t37 -49t18.5 -62q0 -45 -28 -70.5t-75 -25.5q-48 0 -74 29t-26 78q0 110 117 203.5t299 93.5q54 0 106 -8.5t105.5 -31t93 -56t65 -88.5t25.5 -124v-512q0 -43 15.5 -60t47.5 -17q37 0 70 30l12 -12
q-9 -10 -33.5 -37.5t-35 -39.5t-32.5 -38t-32.5 -40.5t-27.5 -38t-25.5 -40t-17.5 -37t-13 -39t-4 -36.5q0 -50 33.5 -79.5t77.5 -29.5t92 23l8 -14q-108 -78 -209 -78q-73 0 -117.5 37.5t-44.5 103.5q0 86 73 154t200 131l-4 8q-35 -14 -78 -14q-131 0 -131 133v176
q-26 -85 -69 -147t-96.5 -96.5t-109.5 -50t-118 -15.5q-117 0 -184.5 54t-67.5 154q0 85 65 144t244 135q115 51 168 76q99 46 136 93t34 114zM717 463v139l-72 -35q-117 -57 -182.5 -94t-117 -78t-70.5 -81t-19 -91q0 -80 44.5 -127t127.5 -47q123 0 206 114t83 300z" />
    <glyph glyph-name="Cacute" unicode="&#x106;" horiz-adv-x="1476" 
d="M905 1733q43 57 70 77.5t61 20.5q32 0 55 -23t23 -55q0 -36 -24.5 -60t-98.5 -61l-246 -123l-6 9zM819 1427q-227 0 -345 -180.5t-118 -529.5q0 -348 122 -529.5t356 -181.5q88 0 172 37.5t153 106t113.5 175.5t50.5 234h23v-569h-23q-10 100 -88 100q-32 0 -75.5 -17
t-85 -38t-119 -38t-169.5 -17q-187 0 -337 95t-234 263.5t-84 378.5t82.5 378.5t229 263.5t329.5 95q85 0 160.5 -15.5t119 -33.5t88.5 -33.5t77 -15.5q46 0 62.5 23t18.5 65h23v-537h-23q-9 150 -75.5 269.5t-172.5 185t-231 65.5z" />
    <glyph glyph-name="cacute" unicode="&#x107;" horiz-adv-x="1069" 
d="M625 1343q43 58 70.5 78.5t60.5 20.5q32 0 55 -23t23 -55q0 -36 -24.5 -60t-98.5 -61l-246 -123l-6 8zM846 543q-49 0 -80 29.5t-31 76.5q0 35 18 64.5t36 53.5t18 44q0 53 -62 90t-151 37q-162 0 -257 -113.5t-95 -300.5q0 -189 104.5 -298t278.5 -109q166 0 272 108.5
t121 300.5l16 -2q-11 -249 -142 -396.5t-345 -147.5q-210 0 -337.5 135.5t-127.5 351.5q0 221 136 358.5t345 137.5q88 0 164 -28.5t125 -73.5t76.5 -98.5t27.5 -105.5t-29 -83t-81 -31z" />
    <glyph glyph-name="Ccircumflex" unicode="&#x108;" horiz-adv-x="1476" 
d="M817 1681l-289 -174l-8 9l234 286q25 35 63 35q36 0 68 -37l231 -284l-8 -9zM819 1427q-227 0 -345 -180.5t-118 -529.5q0 -348 122 -529.5t356 -181.5q88 0 172 37.5t153 106t113.5 175.5t50.5 234h23v-569h-23q-10 100 -88 100q-32 0 -75.5 -17t-85 -38t-119 -38
t-169.5 -17q-187 0 -337 95t-234 263.5t-84 378.5t82.5 378.5t229 263.5t329.5 95q85 0 160.5 -15.5t119 -33.5t88.5 -33.5t77 -15.5q46 0 62.5 23t18.5 65h23v-537h-23q-9 150 -75.5 269.5t-172.5 185t-231 65.5z" />
    <glyph glyph-name="ccircumflex" unicode="&#x109;" horiz-adv-x="1069" 
d="M557 1292l-289 -174l-8 8l234 287q25 35 63 35q36 0 68 -37l231 -285l-8 -8zM846 543q-49 0 -80 29.5t-31 76.5q0 35 18 64.5t36 53.5t18 44q0 53 -62 90t-151 37q-162 0 -257 -113.5t-95 -300.5q0 -189 104.5 -298t278.5 -109q166 0 272 108.5t121 300.5l16 -2
q-11 -249 -142 -396.5t-345 -147.5q-210 0 -337.5 135.5t-127.5 351.5q0 221 136 358.5t345 137.5q88 0 164 -28.5t125 -73.5t76.5 -98.5t27.5 -105.5t-29 -83t-81 -31z" />
    <glyph glyph-name="Cdotaccent" unicode="&#x10a;" horiz-adv-x="1476" 
d="M817 1606q-52 0 -83.5 31.5t-31.5 82.5t31.5 83t83.5 32t83.5 -32t31.5 -83t-31.5 -82.5t-83.5 -31.5zM819 1427q-227 0 -345 -180.5t-118 -529.5q0 -348 122 -529.5t356 -181.5q88 0 172 37.5t153 106t113.5 175.5t50.5 234h23v-569h-23q-10 100 -88 100
q-32 0 -75.5 -17t-85 -38t-119 -38t-169.5 -17q-187 0 -337 95t-234 263.5t-84 378.5t82.5 378.5t229 263.5t329.5 95q85 0 160.5 -15.5t119 -33.5t88.5 -33.5t77 -15.5q46 0 62.5 23t18.5 65h23v-537h-23q-9 150 -75.5 269.5t-172.5 185t-231 65.5z" />
    <glyph glyph-name="cdotaccent" unicode="&#x10b;" horiz-adv-x="1069" 
d="M557 1217q-52 0 -83.5 31.5t-31.5 82.5t31.5 83t83.5 32t83.5 -32t31.5 -83t-31.5 -82.5t-83.5 -31.5zM846 543q-49 0 -80 29.5t-31 76.5q0 35 18 64.5t36 53.5t18 44q0 53 -62 90t-151 37q-162 0 -257 -113.5t-95 -300.5q0 -189 104.5 -298t278.5 -109q166 0 272 108.5
t121 300.5l16 -2q-11 -249 -142 -396.5t-345 -147.5q-210 0 -337.5 135.5t-127.5 351.5q0 221 136 358.5t345 137.5q88 0 164 -28.5t125 -73.5t76.5 -98.5t27.5 -105.5t-29 -83t-81 -31z" />
    <glyph glyph-name="Ccaron" unicode="&#x10c;" horiz-adv-x="1476" 
d="M827 1663l291 174l8 -8l-231 -285q-32 -37 -68 -37q-38 0 -63 35l-234 287l9 8zM819 1427q-227 0 -345 -180.5t-118 -529.5q0 -348 122 -529.5t356 -181.5q88 0 172 37.5t153 106t113.5 175.5t50.5 234h23v-569h-23q-10 100 -88 100q-32 0 -75.5 -17t-85 -38t-119 -38
t-169.5 -17q-187 0 -337 95t-234 263.5t-84 378.5t82.5 378.5t229 263.5t329.5 95q85 0 160.5 -15.5t119 -33.5t88.5 -33.5t77 -15.5q46 0 62.5 23t18.5 65h23v-537h-23q-9 150 -75.5 269.5t-172.5 185t-231 65.5z" />
    <glyph glyph-name="ccaron" unicode="&#x10d;" horiz-adv-x="1069" 
d="M567 1274l291 174l8 -8l-231 -285q-32 -37 -68 -37q-38 0 -63 35l-234 287l9 8zM846 543q-49 0 -80 29.5t-31 76.5q0 35 18 64.5t36 53.5t18 44q0 53 -62 90t-151 37q-162 0 -257 -113.5t-95 -300.5q0 -189 104.5 -298t278.5 -109q166 0 272 108.5t121 300.5l16 -2
q-11 -249 -142 -396.5t-345 -147.5q-210 0 -337.5 135.5t-127.5 351.5q0 221 136 358.5t345 137.5q88 0 164 -28.5t125 -73.5t76.5 -98.5t27.5 -105.5t-29 -83t-81 -31z" />
    <glyph glyph-name="Dcaron" unicode="&#x10e;" horiz-adv-x="1566" 
d="M707 1663l290 174l9 -8l-232 -285q-32 -37 -67 -37q-39 0 -64 35l-233 287l8 8zM72 0v25q89 0 123 28t34 123v1081q0 96 -33 124t-124 28v25h657q202 0 362.5 -88.5t252.5 -252.5t92 -376t-92 -376t-252.5 -252.5t-362.5 -88.5h-657zM707 1409h-111q-97 0 -129.5 -30.5
t-32.5 -121.5v-1081q0 -91 32.5 -121t129.5 -30h111q257 0 380 174t123 518t-123 518t-380 174z" />
    <glyph glyph-name="dcaron" unicode="&#x10f;" horiz-adv-x="1341" 
d="M512 -20q-194 0 -312 136.5t-118 360.5q0 219 118 352.5t312 133.5q143 0 241 -74.5t136 -214.5v735q0 67 -26 87t-103 20v20h305v-1430q0 -52 30.5 -69t98.5 -17v-20h-305v281q-38 -148 -135.5 -224.5t-241.5 -76.5zM1202 1536h160v-14l-176 -357h-17zM578 27
q144 0 227.5 119t83.5 331q0 205 -83.5 321.5t-227.5 116.5q-151 0 -231.5 -112t-80.5 -326q0 -219 80.5 -334.5t231.5 -115.5z" />
    <glyph glyph-name="Dcroat" unicode="&#x110;" horiz-adv-x="1566" 
d="M72 0v25q89 0 123 28t34 123v549h-157v29h157v503q0 96 -33 124t-124 28v25h657q202 0 362.5 -88.5t252.5 -252.5t92 -376t-92 -376t-252.5 -252.5t-362.5 -88.5h-657zM707 1409h-111q-97 0 -129.5 -30.5t-32.5 -121.5v-503h422v-29h-422v-549q0 -91 32.5 -121t129.5 -30
h111q257 0 380 174t123 518t-123 518t-380 174z" />
    <glyph glyph-name="dcroat" unicode="&#x111;" horiz-adv-x="1236" 
d="M512 -20q-194 0 -312 136.5t-118 360.5q0 219 118 352.5t312 133.5q143 0 241 -74.5t136 -214.5v553h-383v28h383v154q0 67 -26 87t-103 20v20h305v-281h180v-28h-180v-1121q0 -52 30.5 -69t98.5 -17v-20h-305v281q-38 -148 -135.5 -224.5t-241.5 -76.5zM578 27
q144 0 227.5 119t83.5 331q0 205 -83.5 321.5t-227.5 116.5q-151 0 -231.5 -112t-80.5 -326q0 -219 80.5 -334.5t231.5 -115.5z" />
    <glyph glyph-name="Emacron" unicode="&#x112;" horiz-adv-x="1320" 
d="M397 1667v57h557v-57h-557zM72 0v25q90 0 123.5 27.5t33.5 123.5v1081q0 96 -33 124t-124 28v25h1073l6 -492h-23q-36 467 -395 467h-155q-83 0 -113.5 -32t-30.5 -120v-505h125q150 0 214 69t67 234h22v-637h-22q-6 165 -70 236t-211 71h-125v-549q0 -88 30.5 -119.5
t113.5 -31.5h167q188 0 313.5 131t178.5 376h23l-78 -532h-1110z" />
    <glyph glyph-name="emacron" unicode="&#x113;" horiz-adv-x="1073" 
d="M268 1278v57h557v-57h-557zM82 467q0 224 128 360t339 136q210 0 326.5 -118.5t111.5 -320.5h-741q0 -192 99.5 -299.5t277.5 -107.5q170 0 274 103t121 292l14 -2q-9 -240 -140.5 -385t-344.5 -145q-210 0 -337.5 133t-127.5 354zM551 942q-140 0 -220 -106.5
t-85 -288.5q93 0 197.5 -0.5t147.5 -0.5t92.5 0.5t76 2t53.5 4.5q6 186 -62 287.5t-200 101.5z" />
    <glyph glyph-name="Ebreve" unicode="&#x114;" horiz-adv-x="1320" 
d="M680 1667q53 0 92.5 6t78.5 22.5t66 50t41 83.5l17 -4q-32 -159 -107 -228t-188 -69t-188 69t-107 228l16 4q14 -50 41 -83.5t66.5 -50t79 -22.5t92.5 -6zM72 0v25q90 0 123.5 27.5t33.5 123.5v1081q0 96 -33 124t-124 28v25h1073l6 -492h-23q-36 467 -395 467h-155
q-83 0 -113.5 -32t-30.5 -120v-505h125q150 0 214 69t67 234h22v-637h-22q-6 165 -70 236t-211 71h-125v-549q0 -88 30.5 -119.5t113.5 -31.5h167q188 0 313.5 131t178.5 376h23l-78 -532h-1110z" />
    <glyph glyph-name="ebreve" unicode="&#x115;" horiz-adv-x="1073" 
d="M547 1278q53 0 92.5 6t78.5 22.5t66 50t41 83.5l17 -4q-32 -159 -107 -228t-188 -69t-188 69t-107 228l16 4q14 -50 41 -83.5t66.5 -50t79 -22.5t92.5 -6zM82 467q0 224 128 360t339 136q210 0 326.5 -118.5t111.5 -320.5h-741q0 -192 99.5 -299.5t277.5 -107.5
q170 0 274 103t121 292l14 -2q-9 -240 -140.5 -385t-344.5 -145q-210 0 -337.5 133t-127.5 354zM551 942q-140 0 -220 -106.5t-85 -288.5q93 0 197.5 -0.5t147.5 -0.5t92.5 0.5t76 2t53.5 4.5q6 186 -62 287.5t-200 101.5z" />
    <glyph glyph-name="Edotaccent" unicode="&#x116;" horiz-adv-x="1320" 
d="M680 1606q-52 0 -83.5 31.5t-31.5 82.5t31.5 83t83.5 32t83.5 -32t31.5 -83t-31.5 -82.5t-83.5 -31.5zM72 0v25q90 0 123.5 27.5t33.5 123.5v1081q0 96 -33 124t-124 28v25h1073l6 -492h-23q-36 467 -395 467h-155q-83 0 -113.5 -32t-30.5 -120v-505h125q150 0 214 69
t67 234h22v-637h-22q-6 165 -70 236t-211 71h-125v-549q0 -88 30.5 -119.5t113.5 -31.5h167q188 0 313.5 131t178.5 376h23l-78 -532h-1110z" />
    <glyph glyph-name="edotaccent" unicode="&#x117;" horiz-adv-x="1073" 
d="M547 1217q-52 0 -83.5 31.5t-31.5 82.5t31.5 83t83.5 32t83.5 -32t31.5 -83t-31.5 -82.5t-83.5 -31.5zM82 467q0 224 128 360t339 136q210 0 326.5 -118.5t111.5 -320.5h-741q0 -192 99.5 -299.5t277.5 -107.5q170 0 274 103t121 292l14 -2q-9 -240 -140.5 -385
t-344.5 -145q-210 0 -337.5 133t-127.5 354zM551 942q-140 0 -220 -106.5t-85 -288.5q93 0 197.5 -0.5t147.5 -0.5t92.5 0.5t76 2t53.5 4.5q6 186 -62 287.5t-200 101.5z" />
    <glyph glyph-name="Eogonek" unicode="&#x118;" horiz-adv-x="1320" 
d="M72 0v25q90 0 123.5 27.5t33.5 123.5v1081q0 96 -33 124t-124 28v25h1073l6 -492h-23q-36 467 -395 467h-155q-83 0 -113.5 -32t-30.5 -120v-505h125q150 0 214 69t67 234h22v-637h-22q-6 165 -70 236t-211 71h-125v-549q0 -88 30.5 -119.5t113.5 -31.5h167
q188 0 313.5 131t178.5 376h23l-78 -532h-84q-189 -94 -189 -252q0 -123 103 -123q44 0 100 27l8 -14q-108 -78 -209 -78q-74 0 -117.5 36.5t-43.5 106.5q0 95 78.5 167t230.5 126v4h-987z" />
    <glyph glyph-name="eogonek" unicode="&#x119;" horiz-adv-x="1073" 
d="M82 467q0 224 128 360t339 136q210 0 326.5 -118.5t111.5 -320.5h-741q0 -192 99.5 -299.5t277.5 -107.5q170 0 274 103t121 292l14 -2q-6 -155 -64.5 -273.5t-160.5 -183.5q-94 -72 -148.5 -155.5t-54.5 -149.5q0 -123 103 -123q44 0 100 27l8 -14q-108 -78 -209 -78
q-74 0 -118 36t-44 105q0 93 70 164t201 131l-4 10q-71 -26 -164 -26q-210 0 -337.5 133t-127.5 354zM551 942q-140 0 -220 -106.5t-85 -288.5q93 0 197.5 -0.5t147.5 -0.5t92.5 0.5t76 2t53.5 4.5q6 186 -62 287.5t-200 101.5z" />
    <glyph glyph-name="Ecaron" unicode="&#x11a;" horiz-adv-x="1320" 
d="M680 1663l291 174l8 -8l-231 -285q-32 -37 -68 -37q-39 0 -64 35l-233 287l8 8zM72 0v25q90 0 123.5 27.5t33.5 123.5v1081q0 96 -33 124t-124 28v25h1073l6 -492h-23q-36 467 -395 467h-155q-83 0 -113.5 -32t-30.5 -120v-505h125q150 0 214 69t67 234h22v-637h-22
q-6 165 -70 236t-211 71h-125v-549q0 -88 30.5 -119.5t113.5 -31.5h167q188 0 313.5 131t178.5 376h23l-78 -532h-1110z" />
    <glyph glyph-name="ecaron" unicode="&#x11b;" horiz-adv-x="1073" 
d="M547 1274l291 174l8 -8l-232 -285q-32 -37 -67 -37q-39 0 -64 35l-233 287l8 8zM82 467q0 224 128 360t339 136q210 0 326.5 -118.5t111.5 -320.5h-741q0 -192 99.5 -299.5t277.5 -107.5q170 0 274 103t121 292l14 -2q-9 -240 -140.5 -385t-344.5 -145q-210 0 -337.5 133
t-127.5 354zM551 942q-140 0 -220 -106.5t-85 -288.5q93 0 197.5 -0.5t147.5 -0.5t92.5 0.5t76 2t53.5 4.5q6 186 -62 287.5t-200 101.5z" />
    <glyph glyph-name="Gcircumflex" unicode="&#x11c;" horiz-adv-x="1587" 
d="M819 1681l-289 -174l-8 9l234 286q25 35 63 35q36 0 68 -37l231 -284l-8 -9zM1186 203v329q0 50 -9.5 80.5t-34 46t-55 20.5t-83.5 5v25h499v-25q-68 0 -93.5 -28t-25.5 -124v-442q-46 6 -84 6q-46 0 -100.5 -18t-101.5 -40t-129.5 -40t-177.5 -18q-298 0 -479 202
t-181 535t181 535t479 202q83 0 159 -15.5t120.5 -33.5t87.5 -33.5t69 -15.5q76 0 80 88h22v-510h-22q-9 142 -77 256.5t-174.5 177t-228.5 62.5q-235 0 -353 -181t-118 -532q0 -349 120.5 -531t352.5 -182q81 0 164 27.5t138 74.5t55 97z" />
    <glyph glyph-name="gcircumflex" unicode="&#x11d;" horiz-adv-x="1003" 
d="M483 1292l-288 -174l-9 8l234 287q25 35 63 35q46 0 68 -37l145 -227l-8 -8zM70 135q0 166 231 238q-107 34 -167 106t-60 168q0 142 113 229t298 87q128 0 228 -43q-45 56 -45 137q0 72 43.5 114.5t109.5 42.5q68 0 119 -42.5t51 -110.5q0 -47 -27.5 -75t-72.5 -28
q-43 0 -71.5 25t-28.5 66q0 30 14.5 51t28.5 36.5t14 30.5q0 27 -35 27q-51 0 -87 -37.5t-36 -97.5q0 -96 70 -166q137 -86 137 -246q0 -135 -113 -218t-299 -83q-75 0 -147 16q-68 -12 -105.5 -48.5t-37.5 -92.5q0 -64 43 -90.5t135 -26.5h338q284 0 284 -208
q0 -156 -144.5 -251.5t-373.5 -95.5q-426 0 -426 207q0 71 58.5 121t175.5 68q-102 9 -158.5 58t-56.5 132zM485 367q232 0 232 280q0 297 -232 297q-231 0 -231 -297q0 -280 231 -280zM195 -225q0 -102 77 -153.5t215 -51.5q168 0 283 68q113 63 113 174q0 131 -172 131
h-371q-67 -9 -106 -55t-39 -113z" />
    <glyph glyph-name="Gbreve" unicode="&#x11e;" horiz-adv-x="1587" 
d="M813 1667q53 0 92.5 6t79 22.5t66.5 50t41 83.5l16 -4q-32 -159 -107 -228t-188 -69t-188 69t-107 228l17 4q14 -50 41 -83.5t66 -50t78.5 -22.5t92.5 -6zM1186 203v329q0 50 -9.5 80.5t-34 46t-55 20.5t-83.5 5v25h499v-25q-68 0 -93.5 -28t-25.5 -124v-442q-46 6 -84 6
q-46 0 -100.5 -18t-101.5 -40t-129.5 -40t-177.5 -18q-298 0 -479 202t-181 535t181 535t479 202q83 0 159 -15.5t120.5 -33.5t87.5 -33.5t69 -15.5q76 0 80 88h22v-510h-22q-9 142 -77 256.5t-174.5 177t-228.5 62.5q-235 0 -353 -181t-118 -532q0 -349 120.5 -531
t352.5 -182q81 0 164 27.5t138 74.5t55 97z" />
    <glyph glyph-name="gbreve" unicode="&#x11f;" horiz-adv-x="1003" 
d="M494 1278q53 0 92.5 6t78.5 22.5t66 50t41 83.5l16 -4q-32 -159 -106.5 -228t-187.5 -69t-188 69t-107 228l16 4q14 -50 41 -83.5t66.5 -50t79 -22.5t92.5 -6zM70 135q0 166 231 238q-107 34 -167 106t-60 168q0 142 113 229t298 87q128 0 228 -43q-45 56 -45 137
q0 72 43.5 114.5t109.5 42.5q68 0 119 -42.5t51 -110.5q0 -47 -27.5 -75t-72.5 -28q-43 0 -71.5 25t-28.5 66q0 30 14.5 51t28.5 36.5t14 30.5q0 27 -35 27q-51 0 -87 -37.5t-36 -97.5q0 -96 70 -166q137 -86 137 -246q0 -135 -113 -218t-299 -83q-75 0 -147 16
q-68 -12 -105.5 -48.5t-37.5 -92.5q0 -64 43 -90.5t135 -26.5h338q284 0 284 -208q0 -156 -144.5 -251.5t-373.5 -95.5q-426 0 -426 207q0 71 58.5 121t175.5 68q-102 9 -158.5 58t-56.5 132zM485 367q232 0 232 280q0 297 -232 297q-231 0 -231 -297q0 -280 231 -280z
M195 -225q0 -102 77 -153.5t215 -51.5q168 0 283 68q113 63 113 174q0 131 -172 131h-371q-67 -9 -106 -55t-39 -113z" />
    <glyph glyph-name="Gdotaccent" unicode="&#x120;" horiz-adv-x="1587" 
d="M829 1606q-52 0 -83 31.5t-31 82.5t31 83t83 32t83.5 -32t31.5 -83t-31.5 -82.5t-83.5 -31.5zM1186 203v329q0 50 -9.5 80.5t-34 46t-55 20.5t-83.5 5v25h499v-25q-68 0 -93.5 -28t-25.5 -124v-442q-46 6 -84 6q-46 0 -100.5 -18t-101.5 -40t-129.5 -40t-177.5 -18
q-298 0 -479 202t-181 535t181 535t479 202q83 0 159 -15.5t120.5 -33.5t87.5 -33.5t69 -15.5q76 0 80 88h22v-510h-22q-9 142 -77 256.5t-174.5 177t-228.5 62.5q-235 0 -353 -181t-118 -532q0 -349 120.5 -531t352.5 -182q81 0 164 27.5t138 74.5t55 97z" />
    <glyph glyph-name="gdotaccent" unicode="&#x121;" horiz-adv-x="1003" 
d="M504 1217q-52 0 -83.5 31.5t-31.5 82.5t31.5 83t83.5 32t83 -32t31 -83t-31 -82.5t-83 -31.5zM70 135q0 166 231 238q-107 34 -167 106t-60 168q0 142 113 229t298 87q128 0 228 -43q-45 56 -45 137q0 72 43.5 114.5t109.5 42.5q68 0 119 -42.5t51 -110.5
q0 -47 -27.5 -75t-72.5 -28q-43 0 -71.5 25t-28.5 66q0 30 14.5 51t28.5 36.5t14 30.5q0 27 -35 27q-51 0 -87 -37.5t-36 -97.5q0 -96 70 -166q137 -86 137 -246q0 -135 -113 -218t-299 -83q-75 0 -147 16q-68 -12 -105.5 -48.5t-37.5 -92.5q0 -64 43 -90.5t135 -26.5h338
q284 0 284 -208q0 -156 -144.5 -251.5t-373.5 -95.5q-426 0 -426 207q0 71 58.5 121t175.5 68q-102 9 -158.5 58t-56.5 132zM485 367q232 0 232 280q0 297 -232 297q-231 0 -231 -297q0 -280 231 -280zM195 -225q0 -102 77 -153.5t215 -51.5q168 0 283 68q113 63 113 174
q0 131 -172 131h-371q-67 -9 -106 -55t-39 -113z" />
    <glyph glyph-name="Gcommaaccent" unicode="&#x122;" horiz-adv-x="1587" 
d="M1186 203v329q0 50 -9.5 80.5t-34 46t-55 20.5t-83.5 5v25h499v-25q-68 0 -93.5 -28t-25.5 -124v-442q-46 6 -84 6q-46 0 -100.5 -18t-101.5 -40t-129.5 -40t-177.5 -18q-298 0 -479 202t-181 535t181 535t479 202q83 0 159 -15.5t120.5 -33.5t87.5 -33.5t69 -15.5
q76 0 80 88h22v-510h-22q-9 142 -77 256.5t-174.5 177t-228.5 62.5q-235 0 -353 -181t-118 -532q0 -349 120.5 -531t352.5 -182q81 0 164 27.5t138 74.5t55 97zM715 -195q0 44 28 71.5t74 27.5q55 0 92 -38.5t37 -101.5q0 -73 -49.5 -141.5t-148.5 -107.5l-9 20
q117 45 117 121q0 23 -12.5 32t-50.5 23q-78 29 -78 94z" />
    <glyph glyph-name="gcommaaccent" unicode="&#x123;" horiz-adv-x="1003" 
d="M451 1343q0 -23 12.5 -32t50.5 -23q78 -29 78 -94q0 -44 -28.5 -71t-74.5 -27q-56 0 -92.5 37t-36.5 100q0 73 50 143t149 109l8 -21q-116 -45 -116 -121zM70 135q0 166 231 238q-107 34 -167 106t-60 168q0 142 113 229t298 87q128 0 228 -43q-45 56 -45 137
q0 72 43.5 114.5t109.5 42.5q68 0 119 -42.5t51 -110.5q0 -47 -27.5 -75t-72.5 -28q-43 0 -71.5 25t-28.5 66q0 30 14.5 51t28.5 36.5t14 30.5q0 27 -35 27q-51 0 -87 -37.5t-36 -97.5q0 -96 70 -166q137 -86 137 -246q0 -135 -113 -218t-299 -83q-75 0 -147 16
q-68 -12 -105.5 -48.5t-37.5 -92.5q0 -64 43 -90.5t135 -26.5h338q284 0 284 -208q0 -156 -144.5 -251.5t-373.5 -95.5q-426 0 -426 207q0 71 58.5 121t175.5 68q-102 9 -158.5 58t-56.5 132zM485 367q232 0 232 280q0 297 -232 297q-231 0 -231 -297q0 -280 231 -280z
M195 -225q0 -102 77 -153.5t215 -51.5q168 0 283 68q113 63 113 174q0 131 -172 131h-371q-67 -9 -106 -55t-39 -113z" />
    <glyph glyph-name="Hcircumflex" unicode="&#x124;" horiz-adv-x="1628" 
d="M815 1681l-289 -174l-8 9l234 286q25 35 63 35q36 0 68 -37l231 -284l-8 -9zM72 0v25q47 0 73 4.5t47 20t29 46t8 80.5v1081q0 96 -33 124t-124 28v25h522v-25q-47 0 -73.5 -5t-48 -20.5t-30 -46t-8.5 -80.5v-503h750v503q0 50 -8.5 80.5t-30 46t-48 20.5t-73.5 5v25h524
v-25q-47 0 -73.5 -5t-47.5 -20.5t-29.5 -46t-8.5 -80.5v-1081q0 -50 8 -80.5t29.5 -46t48 -20t73.5 -4.5v-25h-524v25q92 0 126 27.5t34 123.5v549h-750v-549q0 -96 34 -123.5t126 -27.5v-25h-522z" />
    <glyph glyph-name="hcircumflex" unicode="&#x125;" horiz-adv-x="1189" 
d="M535 1780l-289 -174l-8 8l233 287q24 34 64 34q35 0 67 -37l232 -284l-9 -8zM47 0v20q68 0 98.5 17t30.5 69v1303q0 67 -26 87t-103 20v20h305v-901q37 164 140 246t243 82q131 0 213 -79.5t82 -240.5v-537q0 -52 30.5 -69t98.5 -17v-20h-434v20q68 0 98.5 17t30.5 69
v547q0 131 -55 188.5t-144 57.5q-79 0 -139 -37.5t-95 -103.5t-52 -148t-17 -178v-326q0 -52 30.5 -69t98.5 -17v-20h-434z" />
    <glyph glyph-name="Hbar" unicode="&#x126;" horiz-adv-x="1628" 
d="M72 0v25q47 0 73 4.5t47 20t29 46t8 80.5v885h-153v29h153v167q0 96 -33 124t-124 28v25h522v-25q-47 0 -73.5 -5t-48 -20.5t-30 -46t-8.5 -80.5v-167h750v167q0 50 -8.5 80.5t-30 46t-48 20.5t-73.5 5v25h524v-25q-47 0 -73.5 -5t-47.5 -20.5t-29.5 -46t-8.5 -80.5v-167
h163v-29h-163v-885q0 -50 8 -80.5t29.5 -46t48 -20t73.5 -4.5v-25h-524v25q92 0 126 27.5t34 123.5v549h-750v-549q0 -96 34 -123.5t126 -27.5v-25h-522zM434 754h750v307h-750v-307z" />
    <glyph glyph-name="hbar" unicode="&#x127;" horiz-adv-x="1189" 
d="M47 0v20q68 0 98.5 17t30.5 69v1121h-100v28h100v154q0 67 -26 87t-103 20v20h305v-281h463v-28h-463v-592q37 164 140 246t243 82q131 0 213 -79.5t82 -240.5v-537q0 -52 30.5 -69t98.5 -17v-20h-434v20q68 0 98.5 17t30.5 69v547q0 131 -55 188.5t-144 57.5
q-79 0 -139 -37.5t-95 -103.5t-52 -148t-17 -178v-326q0 -52 30.5 -69t98.5 -17v-20h-434z" />
    <glyph glyph-name="Itilde" unicode="&#x128;" horiz-adv-x="665" 
d="M219 1794q39 0 94 -31t107.5 -61.5t83.5 -30.5q51 0 79.5 30t53.5 107l18 -4q-28 -119 -84 -184.5t-131 -65.5q-30 0 -71 19.5t-74.5 43t-71.5 43t-63 19.5q-52 0 -80 -27.5t-51 -101.5l-19 4q26 114 81 177t128 63zM72 0v25q47 0 73 4.5t47 20t29 46t8 80.5v1081
q0 96 -33 124t-124 28v25h522v-25q-47 0 -73.5 -5t-48 -20.5t-30 -46t-8.5 -80.5v-1081q0 -96 34 -123.5t126 -27.5v-25h-522z" />
    <glyph glyph-name="itilde" unicode="&#x129;" horiz-adv-x="524" 
d="M147 1405q39 0 94 -30.5t107.5 -61.5t83.5 -31q51 0 79.5 30t53.5 107l19 -4q-28 -119 -84 -184.5t-131 -65.5q-38 0 -92.5 31.5t-106 62.5t-82.5 31q-52 0 -80 -27.5t-51 -101.5l-18 4q26 114 80.5 177t127.5 63zM47 0v20q68 0 98.5 17t30.5 69v711q0 67 -25.5 86
t-103.5 19v20h305v-836q0 -52 30.5 -69t98.5 -17v-20h-434z" />
    <glyph glyph-name="Imacron" unicode="&#x12a;" horiz-adv-x="665" 
d="M53 1667v57h557v-57h-557zM72 0v25q47 0 73 4.5t47 20t29 46t8 80.5v1081q0 96 -33 124t-124 28v25h522v-25q-47 0 -73.5 -5t-48 -20.5t-30 -46t-8.5 -80.5v-1081q0 -96 34 -123.5t126 -27.5v-25h-522z" />
    <glyph glyph-name="imacron" unicode="&#x12b;" horiz-adv-x="524" 
d="M-16 1278v57h557v-57h-557zM47 0v20q68 0 98.5 17t30.5 69v711q0 67 -25.5 86t-103.5 19v20h305v-836q0 -52 30.5 -69t98.5 -17v-20h-434z" />
    <glyph glyph-name="Ibreve" unicode="&#x12c;" horiz-adv-x="665" 
d="M338 1667q53 0 92.5 6t78.5 22.5t66 50t41 83.5l17 -4q-32 -159 -107 -228t-188 -69t-188 69t-107 228l16 4q14 -50 41 -83.5t66.5 -50t79 -22.5t92.5 -6zM72 0v25q47 0 73 4.5t47 20t29 46t8 80.5v1081q0 96 -33 124t-124 28v25h522v-25q-47 0 -73.5 -5t-48 -20.5
t-30 -46t-8.5 -80.5v-1081q0 -96 34 -123.5t126 -27.5v-25h-522z" />
    <glyph glyph-name="ibreve" unicode="&#x12d;" horiz-adv-x="524" 
d="M262 1278q53 0 92.5 6t79 22.5t66.5 50t41 83.5l16 -4q-32 -159 -107 -228t-188 -69t-188 69t-107 228l17 4q14 -50 41 -83.5t66 -50t78.5 -22.5t92.5 -6zM47 0v20q68 0 98.5 17t30.5 69v711q0 67 -25.5 86t-103.5 19v20h305v-836q0 -52 30.5 -69t98.5 -17v-20h-434z" />
    <glyph glyph-name="Iogonek" unicode="&#x12e;" horiz-adv-x="665" 
d="M72 0v25q47 0 73 4.5t47 20t29 46t8 80.5v1081q0 96 -33 124t-124 28v25h522v-25q-47 0 -73.5 -5t-48 -20.5t-30 -46t-8.5 -80.5v-1081q0 -96 34 -123.5t126 -27.5v-25h-123q-188 -94 -188 -252q0 -123 102 -123q44 0 100 27l9 -14q-108 -78 -209 -78q-74 0 -118 36.5
t-44 106.5q0 95 78.5 167t230.5 126v4h-360z" />
    <glyph glyph-name="iogonek" unicode="&#x12f;" horiz-adv-x="524" 
d="M264 1217q-52 0 -83 31.5t-31 82.5t31 83t83 32t83.5 -32t31.5 -83t-31.5 -82.5t-83.5 -31.5zM47 0v20q68 0 98.5 17t30.5 69v711q0 67 -25.5 86t-103.5 19v20h305v-836q0 -52 30.5 -69t98.5 -17v-20h-98q-188 -94 -188 -252q0 -123 102 -123q44 0 100 27l9 -14
q-108 -78 -209 -78q-74 0 -118 36.5t-44 106.5q0 95 78.5 167t230.5 126v4h-297z" />
    <glyph glyph-name="Idotaccent" unicode="&#x130;" horiz-adv-x="665" 
d="M338 1606q-52 0 -83.5 31.5t-31.5 82.5t31.5 83t83.5 32t83.5 -32t31.5 -83t-31.5 -82.5t-83.5 -31.5zM72 0v25q47 0 73 4.5t47 20t29 46t8 80.5v1081q0 96 -33 124t-124 28v25h522v-25q-47 0 -73.5 -5t-48 -20.5t-30 -46t-8.5 -80.5v-1081q0 -96 34 -123.5t126 -27.5
v-25h-522z" />
    <glyph glyph-name="dotlessi" unicode="&#x131;" horiz-adv-x="524" 
d="M47 0v20q68 0 98.5 17t30.5 69v711q0 67 -25.5 86t-103.5 19v20h305v-836q0 -52 30.5 -69t98.5 -17v-20h-434z" />
    <glyph glyph-name="IJ" unicode="&#x132;" horiz-adv-x="1576" 
d="M72 0v25q47 0 73 4.5t47 20t29 46t8 80.5v1081q0 96 -33 124t-124 28v25h522v-25q-47 0 -73.5 -5t-48 -20.5t-30 -46t-8.5 -80.5v-1081q0 -96 34 -123.5t126 -27.5v-25h-522zM995 1434h525v-25q-47 0 -73.5 -5t-48 -20.5t-30 -46t-8.5 -80.5v-856q0 -93 -18.5 -167
t-49 -121t-73 -77.5t-88 -43t-97.5 -12.5q-139 0 -236.5 83.5t-97.5 194.5q0 70 38 111t100 41q58 0 93.5 -35t35.5 -92q0 -35 -13 -65t-29 -47t-29 -38.5t-13 -42.5q0 -86 137 -86q108 0 171.5 58t63.5 171q0 63 -25 127.5t-50 121.5t-25 104v671q0 51 -8 81t-29.5 45.5
t-48.5 20.5t-74 5v25z" />
    <glyph glyph-name="ij" unicode="&#x133;" horiz-adv-x="1044" 
d="M264 1217q-52 0 -83 31.5t-31 82.5t31 83t83 32t83.5 -32t31.5 -83t-31.5 -82.5t-83.5 -31.5zM782 1217q-51 0 -82.5 31.5t-31.5 82.5t31.5 83t82.5 32t83 -32t32 -83t-32 -82.5t-83 -31.5zM47 0v20q68 0 98.5 17t30.5 69v711q0 67 -25.5 86t-103.5 19v20h305v-836
q0 -52 30.5 -69t98.5 -17v-20h-434zM872 942v-1042q0 -150 -79 -230t-236 -125l-6 19q84 29 114.5 77t30.5 148v1028q0 67 -26 86t-103 19v20h305z" />
    <glyph glyph-name="Jcircumflex" unicode="&#x134;" horiz-adv-x="903" 
d="M575 1681l-288 -174l-8 9l233 286q25 35 63 35q36 0 68 -37l231 -284l-8 -9zM322 1434h524v-25q-47 0 -73.5 -5t-48 -20.5t-30 -46t-8.5 -80.5v-856q0 -93 -18.5 -167t-49 -121t-73 -77.5t-88 -43t-97.5 -12.5q-139 0 -236 83.5t-97 194.5q0 70 37.5 111t99.5 41
q58 0 93.5 -35t35.5 -92q0 -35 -13 -65t-29 -47t-29 -38.5t-13 -42.5q0 -86 137 -86q108 0 172 58t64 171q0 50 -16 102t-34.5 88t-34.5 80.5t-16 82.5v671q0 51 -8 81t-29 45.5t-48 20.5t-74 5v25z" />
    <glyph glyph-name="jcircumflex" unicode="&#x135;" horiz-adv-x="524" 
d="M252 1292l-289 -174l-8 8l233 287q25 35 64 35q35 0 67 -37l232 -285l-8 -8zM352 942v-1042q0 -150 -79 -230t-236 -125l-6 19q84 29 114.5 77t30.5 148v1028q0 67 -26 86t-103 19v20h305z" />
    <glyph glyph-name="Kcommaaccent" unicode="&#x136;" horiz-adv-x="1472" 
d="M1483 25v-25h-379l-572 733l359 379q54 57 73 78t38.5 55t19.5 64q0 46 -34.5 73t-129.5 27v25h576v-25q-221 -5 -506 -301l-303 -317h133l332 -431q93 -120 139 -176t93 -97.5t79.5 -51.5t81.5 -10zM72 0v25q47 0 73 4.5t47 20t29 46t8 80.5v1081q0 96 -33 124t-124 28
v25h522v-25q-47 0 -73.5 -5t-48 -20.5t-30 -46t-8.5 -80.5v-1081q0 -96 34 -123.5t126 -27.5v-25h-522zM655 -195q0 44 28.5 71.5t74.5 27.5q55 0 92 -38.5t37 -101.5q0 -72 -50 -141t-149 -108l-8 20q117 45 117 121q0 16 -8.5 26t-18 14t-37.5 15q-78 29 -78 94z" />
    <glyph glyph-name="kcommaaccent" unicode="&#x137;" horiz-adv-x="1087" 
d="M47 0v20q68 0 98.5 17t30.5 69v1303q0 67 -26 87t-103 20v20h305v-1430q0 -52 30.5 -69t98.5 -17v-20h-434zM592 551l336 -432q43 -55 78 -76.5t102 -22.5v-20h-299l-391 502l266 241q29 26 42 45.5t13 45.5q0 88 -131 88v20h449v-20q-89 -3 -160.5 -42.5t-189.5 -146.5
l-203 -182h88zM481 -195q0 44 28.5 71.5t74.5 27.5q55 0 92 -38.5t37 -101.5q0 -72 -50 -141t-149 -108l-8 20q117 45 117 121q0 16 -8.5 26t-18 14t-37.5 15q-78 29 -78 94z" />
    <glyph glyph-name="kgreenlandic" unicode="&#x138;" horiz-adv-x="1107" 
d="M47 0v20q68 0 98.5 17t30.5 69v709q0 67 -26 87t-103 20v20h305v-836q0 -52 30.5 -69t98.5 -17v-20h-434zM614 551l334 -432q43 -55 78 -76.5t100 -22.5v-20h-305l-391 502l262 239q56 52 56 103q0 78 -127 78v20h448v-20q-90 -3 -157.5 -40.5t-192.5 -148.5l-203 -182
h98z" />
    <glyph glyph-name="Lacute" unicode="&#x139;" horiz-adv-x="1253" 
d="M389 1733q43 57 70 77.5t61 20.5q32 0 55 -23t23 -55q0 -36 -24.5 -60t-98.5 -61l-246 -123l-6 9zM72 0v25q47 0 73 4.5t47 20t29 46t8 80.5v1081q0 96 -33 124t-124 28v25h522v-25q-47 0 -73.5 -5t-48 -20.5t-30 -46t-8.5 -80.5v-1081q0 -88 28 -119.5t111 -31.5h154
q167 0 282.5 145t174.5 403h22l-78 -573h-1056z" />
    <glyph glyph-name="lacute" unicode="&#x13a;" horiz-adv-x="524" 
d="M324 1855q43 58 70.5 78.5t60.5 20.5q32 0 54.5 -23t22.5 -55q0 -37 -24 -60.5t-98 -60.5l-246 -123l-6 8zM47 0v20q68 0 98.5 17t30.5 69v1303q0 67 -26 87t-103 20v20h305v-1430q0 -52 30.5 -69t98.5 -17v-20h-434z" />
    <glyph glyph-name="Lcommaaccent" unicode="&#x13b;" horiz-adv-x="1253" 
d="M72 0v25q47 0 73 4.5t47 20t29 46t8 80.5v1081q0 96 -33 124t-124 28v25h522v-25q-47 0 -73.5 -5t-48 -20.5t-30 -46t-8.5 -80.5v-1081q0 -88 28 -119.5t111 -31.5h154q167 0 282.5 145t174.5 403h22l-78 -573h-1056zM586 -195q0 44 28 71.5t74 27.5q55 0 92 -38.5
t37 -101.5q0 -72 -50 -141t-149 -108l-8 20q117 45 117 121q0 23 -12.5 32t-50.5 23q-78 29 -78 94z" />
    <glyph glyph-name="lcommaaccent" unicode="&#x13c;" horiz-adv-x="524" 
d="M47 0v20q68 0 98.5 17t30.5 69v1303q0 67 -26 87t-103 20v20h305v-1430q0 -52 30.5 -69t98.5 -17v-20h-434zM166 -195q0 44 28 71.5t74 27.5q55 0 92 -38.5t37 -101.5q0 -73 -49.5 -141.5t-148.5 -107.5l-9 20q117 45 117 121q0 23 -12.5 32t-50.5 23q-78 29 -78 94z" />
    <glyph glyph-name="Lcaron" unicode="&#x13d;" horiz-adv-x="1253" 
d="M72 0v25q47 0 73 4.5t47 20t29 46t8 80.5v1081q0 96 -33 124t-124 28v25h522v-25q-47 0 -73.5 -5t-48 -20.5t-30 -46t-8.5 -80.5v-1081q0 -88 28 -119.5t111 -31.5h154q167 0 282.5 145t174.5 403h22l-78 -573h-1056zM748 1434h159v-15l-176 -356h-16z" />
    <glyph glyph-name="lcaron" unicode="&#x13e;" horiz-adv-x="626" 
d="M47 0v20q68 0 98.5 17t30.5 69v1303q0 67 -26 87t-103 20v20h305v-1430q0 -52 30.5 -69t98.5 -17v-20h-434zM487 1536h160v-14l-176 -357h-16z" />
    <glyph glyph-name="Ldot" unicode="&#x13f;" horiz-adv-x="1241" 
d="M76 0v25q47 0 73 4.5t47 20t29 46t8 80.5v1081q0 96 -33 124t-124 28v25h522v-25q-47 0 -73.5 -5t-48 -20.5t-30 -46t-8.5 -80.5v-1081q0 -88 28.5 -119.5t111.5 -31.5h133q167 0 282 145t174 403h23l-78 -573h-1036zM971 666q-52 0 -83.5 31.5t-31.5 82.5t31.5 83
t83.5 32t83 -32t31 -83t-31 -82.5t-83 -31.5z" />
    <glyph glyph-name="ldot" unicode="&#x140;" horiz-adv-x="630" 
d="M47 0v20q68 0 98.5 17t30.5 69v1303q0 67 -26 87t-103 20v20h305v-1430q0 -52 30.5 -69t98.5 -17v-20h-434zM588 651q-52 0 -83.5 32t-31.5 83t31.5 83t83.5 32t83 -32t31 -83t-31 -83t-83 -32z" />
    <glyph glyph-name="Lslash" unicode="&#x141;" horiz-adv-x="1232" 
d="M72 0v25q47 0 73 4.5t47 20t29 46t8 80.5v424l-184 -90l-12 27l196 96v624q0 96 -33 124t-124 28v25h522v-25q-47 0 -73.5 -5t-48 -20.5t-30 -46t-8.5 -80.5v-522l359 176l14 -26l-373 -185v-524q0 -88 28 -119.5t111 -31.5h154q167 0 282.5 145t174.5 403h22l-78 -573
h-1056z" />
    <glyph glyph-name="lslash" unicode="&#x142;" horiz-adv-x="524" 
d="M47 0v20q68 0 98.5 17t30.5 69v586l-143 -76l-13 25l156 84v684q0 67 -26 87t-103 20v20h305v-717l140 74l12 -27l-152 -80v-680q0 -52 30.5 -69t98.5 -17v-20h-434z" />
    <glyph glyph-name="Nacute" unicode="&#x143;" horiz-adv-x="1523" 
d="M840 1733q43 57 70 77.5t61 20.5q32 0 55 -23t23 -55q0 -36 -24.5 -60t-98.5 -61l-246 -123l-6 9zM63 0v25q41 0 69.5 15t52 53t35 110.5t11.5 181.5v881q0 64 -39 103.5t-118 39.5v25h299l887 -1172v823q0 163 -54.5 242t-197.5 82v25h452v-25q-90 -3 -130 -84.5
t-40 -239.5v-1089h-78l-950 1255v-866q0 -86 14 -150.5t36.5 -103.5t57 -63t69 -33t77.5 -10v-25h-453z" />
    <glyph glyph-name="nacute" unicode="&#x144;" horiz-adv-x="1189" 
d="M733 1343q43 58 70.5 78.5t60.5 20.5q32 0 55 -23t23 -55q0 -36 -24.5 -60t-98.5 -61l-246 -123l-6 8zM47 0v20q68 0 98.5 17t30.5 69v711q0 67 -25.5 86t-103.5 19v20h305v-307q37 164 140 246t243 82q131 0 213 -79.5t82 -240.5v-537q0 -52 30.5 -69t98.5 -17v-20h-434
v20q68 0 98.5 17t30.5 69v547q0 131 -55 188.5t-144 57.5q-79 0 -139 -37.5t-95 -103.5t-52 -148t-17 -178v-326q0 -52 30.5 -69t98.5 -17v-20h-434z" />
    <glyph glyph-name="Ncommaaccent" unicode="&#x145;" horiz-adv-x="1523" 
d="M63 0v25q41 0 69.5 15t52 53t35 110.5t11.5 181.5v881q0 64 -39 103.5t-118 39.5v25h299l887 -1172v823q0 163 -54.5 242t-197.5 82v25h452v-25q-90 -3 -130 -84.5t-40 -239.5v-1089h-78l-950 1255v-866q0 -86 14 -150.5t36.5 -103.5t57 -63t69 -33t77.5 -10v-25h-453z
M692 -195q0 44 28.5 71.5t74.5 27.5q55 0 92 -38.5t37 -101.5q0 -72 -50 -141t-149 -108l-8 20q117 45 117 121q0 16 -8.5 26t-18 14t-37.5 15q-78 29 -78 94z" />
    <glyph glyph-name="ncommaaccent" unicode="&#x146;" horiz-adv-x="1189" 
d="M47 0v20q68 0 98.5 17t30.5 69v711q0 67 -25.5 86t-103.5 19v20h305v-307q37 164 140 246t243 82q131 0 213 -79.5t82 -240.5v-537q0 -52 30.5 -69t98.5 -17v-20h-434v20q68 0 98.5 17t30.5 69v547q0 131 -55 188.5t-144 57.5q-79 0 -139 -37.5t-95 -103.5t-52 -148
t-17 -178v-326q0 -52 30.5 -69t98.5 -17v-20h-434zM504 -195q0 44 28 71.5t74 27.5q55 0 92 -38.5t37 -101.5q0 -73 -49.5 -141.5t-148.5 -107.5l-9 20q117 45 117 121q0 23 -12.5 32t-50.5 23q-78 29 -78 94z" />
    <glyph glyph-name="Ncaron" unicode="&#x147;" horiz-adv-x="1523" 
d="M813 1663l291 174l8 -8l-231 -285q-32 -37 -68 -37q-38 0 -63 35l-234 287l8 8zM63 0v25q41 0 69.5 15t52 53t35 110.5t11.5 181.5v881q0 64 -39 103.5t-118 39.5v25h299l887 -1172v823q0 163 -54.5 242t-197.5 82v25h452v-25q-90 -3 -130 -84.5t-40 -239.5v-1089h-78
l-950 1255v-866q0 -86 14 -150.5t36.5 -103.5t57 -63t69 -33t77.5 -10v-25h-453z" />
    <glyph glyph-name="ncaron" unicode="&#x148;" horiz-adv-x="1189" 
d="M653 1274l291 174l8 -8l-231 -285q-32 -37 -68 -37q-38 0 -63 35l-234 287l9 8zM47 0v20q68 0 98.5 17t30.5 69v711q0 67 -25.5 86t-103.5 19v20h305v-307q37 164 140 246t243 82q131 0 213 -79.5t82 -240.5v-537q0 -52 30.5 -69t98.5 -17v-20h-434v20q68 0 98.5 17
t30.5 69v547q0 131 -55 188.5t-144 57.5q-79 0 -139 -37.5t-95 -103.5t-52 -148t-17 -178v-326q0 -52 30.5 -69t98.5 -17v-20h-434z" />
    <glyph glyph-name="napostrophe" unicode="&#x149;" horiz-adv-x="1189" 
d="M57 1360q0 44 28.5 71t74.5 27q55 0 92 -38t37 -101q0 -73 -50 -142t-149 -108l-8 21q117 45 117 120q0 23 -13 32.5t-51 23.5q-78 29 -78 94zM47 0v20q68 0 98.5 17t30.5 69v711q0 67 -25.5 86t-103.5 19v20h305v-307q37 164 140 246t243 82q131 0 213 -79.5t82 -240.5
v-537q0 -52 30.5 -69t98.5 -17v-20h-434v20q68 0 98.5 17t30.5 69v547q0 131 -55 188.5t-144 57.5q-79 0 -139 -37.5t-95 -103.5t-52 -148t-17 -178v-326q0 -52 30.5 -69t98.5 -17v-20h-434z" />
    <glyph glyph-name="Eng" unicode="&#x14a;" horiz-adv-x="1523" 
d="M63 0v25q41 0 69.5 15t52 53t35 110.5t11.5 181.5v881q0 64 -39 103.5t-118 39.5v25h299l887 -1172v823q0 163 -54.5 242t-197.5 82v25h452v-25q-90 -3 -130 -84.5t-40 -239.5v-1185q0 -150 -79 -230t-236 -125l-6 19q84 29 114.5 77t30.5 148v336l-852 1126v-866
q0 -86 14 -150.5t36.5 -103.5t57 -63t69 -33t77.5 -10v-25h-453z" />
    <glyph glyph-name="eng" unicode="&#x14b;" horiz-adv-x="1173" 
d="M47 0v20q68 0 98.5 17t30.5 69v711q0 67 -25.5 86t-103.5 19v20h305v-305q37 164 137.5 245t235.5 81t220 -79.5t85 -240.5v-743q0 -150 -79 -230t-236 -125l-6 19q84 29 114.5 77t30.5 148v864q0 246 -209 246q-76 0 -134 -37.5t-92 -103.5t-50.5 -148t-16.5 -178v-326
q0 -52 30.5 -69t98.5 -17v-20h-434z" />
    <glyph glyph-name="Omacron" unicode="&#x14c;" horiz-adv-x="1679" 
d="M565 1667v57h557v-57h-557zM840 1454q158 0 290 -53t224 -148.5t143 -233t51 -302.5q0 -333 -193.5 -535t-512.5 -202q-321 0 -516 202t-195 535q0 220 88 387.5t249 258.5t372 91zM840 1430q-236 0 -360 -182t-124 -531t124 -531t362 -182q235 0 358 182t123 531
t-123.5 531t-359.5 182z" />
    <glyph glyph-name="omacron" unicode="&#x14d;" horiz-adv-x="1171" 
d="M307 1278v57h557v-57h-557zM586 -20q-227 0 -365.5 135t-138.5 358q0 221 138.5 355.5t365.5 134.5t365.5 -134.5t138.5 -355.5q0 -223 -138.5 -358t-365.5 -135zM586 0q157 0 238 120t81 351t-81 351t-238 120t-238.5 -120.5t-81.5 -350.5t81.5 -350.5t238.5 -120.5z
" />
    <glyph glyph-name="Obreve" unicode="&#x14e;" horiz-adv-x="1679" 
d="M844 1667q53 0 92.5 6t78.5 22.5t66 50t41 83.5l17 -4q-32 -159 -107 -228t-188 -69t-188 69t-107 228l16 4q14 -50 41 -83.5t66.5 -50t79 -22.5t92.5 -6zM840 1454q158 0 290 -53t224 -148.5t143 -233t51 -302.5q0 -333 -193.5 -535t-512.5 -202q-321 0 -516 202
t-195 535q0 220 88 387.5t249 258.5t372 91zM840 1430q-236 0 -360 -182t-124 -531t124 -531t362 -182q235 0 358 182t123 531t-123.5 531t-359.5 182z" />
    <glyph glyph-name="obreve" unicode="&#x14f;" horiz-adv-x="1171" 
d="M586 1278q53 0 92.5 6t78.5 22.5t66 50t41 83.5l17 -4q-32 -159 -107 -228t-188 -69t-188 69t-107 228l16 4q14 -50 41 -83.5t66.5 -50t79 -22.5t92.5 -6zM586 -20q-227 0 -365.5 135t-138.5 358q0 221 138.5 355.5t365.5 134.5t365.5 -134.5t138.5 -355.5
q0 -223 -138.5 -358t-365.5 -135zM586 0q157 0 238 120t81 351t-81 351t-238 120t-238.5 -120.5t-81.5 -350.5t81.5 -350.5t238.5 -120.5z" />
    <glyph glyph-name="Ohungarumlaut" unicode="&#x150;" horiz-adv-x="1679" 
d="M1028 1708q22 30 31.5 42.5t34.5 30t49 17.5q32 0 51.5 -20.5t19.5 -51.5q0 -37 -25 -62t-85 -52l-209 -94l-4 6zM721 1708q22 30 31.5 42.5t34.5 30t49 17.5q32 0 51.5 -20.5t19.5 -51.5q0 -37 -25 -62t-85 -52l-209 -94l-4 6zM840 1454q158 0 290 -53t224 -148.5
t143 -233t51 -302.5q0 -333 -193.5 -535t-512.5 -202q-321 0 -516 202t-195 535q0 220 88 387.5t249 258.5t372 91zM840 1430q-236 0 -360 -182t-124 -531t124 -531t362 -182q235 0 358 182t123 531t-123.5 531t-359.5 182z" />
    <glyph glyph-name="ohungarumlaut" unicode="&#x151;" horiz-adv-x="1171" 
d="M770 1319q22 30 31.5 42.5t34.5 30t49 17.5q32 0 51.5 -20.5t19.5 -51.5q0 -37 -25 -62t-85 -52l-209 -95l-4 7zM463 1319q22 30 31.5 42.5t34.5 30t49 17.5q32 0 51.5 -20.5t19.5 -51.5q0 -37 -25 -62t-85 -52l-209 -95l-4 7zM586 -20q-227 0 -365.5 135t-138.5 358
q0 221 138.5 355.5t365.5 134.5t365.5 -134.5t138.5 -355.5q0 -223 -138.5 -358t-365.5 -135zM586 0q157 0 238 120t81 351t-81 351t-238 120t-238.5 -120.5t-81.5 -350.5t81.5 -350.5t238.5 -120.5z" />
    <glyph glyph-name="OE" unicode="&#x152;" horiz-adv-x="2205" 
d="M131 717q0 212 92 376t252.5 252.5t362.5 88.5h1192l6 -492h-23q-36 467 -395 467h-156q-83 0 -113 -32t-30 -120v-507h125q149 0 213 69.5t67 235.5h23v-637h-23q-6 165 -69.5 236t-210.5 71h-125v-549q0 -88 30 -119.5t113 -31.5h168q188 0 313.5 131t178.5 376h22
l-78 -532h-1228q-202 0 -362.5 88.5t-252.5 252.5t-92 376zM956 25q90 0 124 27.5t34 123.5v1081q0 50 -8 80.5t-29 46t-48 20.5t-73 5h-96q-257 0 -380.5 -174.5t-123.5 -517.5t123.5 -517.5t380.5 -174.5h96z" />
    <glyph glyph-name="oe" unicode="&#x153;" horiz-adv-x="1916" 
d="M586 -20q-227 0 -365.5 135t-138.5 358q0 221 138.5 355.5t365.5 134.5q138 0 246.5 -52t173.5 -147q61 95 160.5 147t226.5 52q210 0 326.5 -118.5t111.5 -320.5h-741q0 -192 99 -299.5t277 -107.5q170 0 274.5 103t121.5 292l14 -2q-9 -240 -140.5 -385t-344.5 -145
q-128 0 -227.5 51t-159.5 145q-65 -93 -173 -144.5t-245 -51.5zM586 0q157 0 238 120t81 351t-81 351t-238 120t-238.5 -120.5t-81.5 -350.5t81.5 -350.5t238.5 -120.5zM1395 942q-140 0 -220 -106.5t-85 -288.5q93 0 197.5 -0.5t147.5 -0.5t92.5 0.5t76 2t53.5 4.5
q6 186 -62 287.5t-200 101.5z" />
    <glyph glyph-name="Racute" unicode="&#x154;" horiz-adv-x="1386" 
d="M754 1733q43 57 70 77.5t61 20.5q32 0 55 -23t23 -55q0 -36 -24.5 -60t-98.5 -61l-246 -123l-6 9zM72 0v25q47 0 73 4.5t47 20t29 46t8 80.5v1081q0 96 -33 124t-124 28v25h637q242 0 375 -100.5t133 -278.5q0 -97 -41.5 -171.5t-112 -118t-156.5 -65.5t-182 -22
q-133 0 -240 61q92 -107 151.5 -142.5t156.5 -35.5h51l274 -348q98 -125 144 -156.5t135 -31.5v-25h-350l-619 764v-588q0 -95 38 -123t132 -28v-25h-526zM428 924q0 -62 27 -106.5t72 -66.5t89.5 -31t92.5 -9q142 0 220.5 91t78.5 257q0 99 -30.5 176.5t-97.5 125.5
t-163 48h-127q-92 0 -127 -29.5t-35 -107.5v-348z" />
    <glyph glyph-name="racute" unicode="&#x155;" horiz-adv-x="897" 
d="M526 1343q43 58 70.5 78.5t60.5 20.5q32 0 55 -23t23 -55q0 -36 -24.5 -60t-98.5 -61l-245 -123l-7 8zM756 647q-49 0 -78 26.5t-29 69.5q0 37 30 77t30 67q0 53 -72 53q-127 0 -206 -113t-79 -313v-389q0 -58 33 -81.5t133 -23.5v-20h-471v20q68 0 98.5 17t30.5 69v711
q0 67 -25.5 86t-103.5 19v20h305v-246q32 129 109 198t182 69q100 0 161.5 -57.5t61.5 -139.5q0 -57 -29.5 -88t-80.5 -31z" />
    <glyph glyph-name="Rcommaaccent" unicode="&#x156;" horiz-adv-x="1386" 
d="M72 0v25q47 0 73 4.5t47 20t29 46t8 80.5v1081q0 96 -33 124t-124 28v25h637q242 0 375 -100.5t133 -278.5q0 -97 -41.5 -171.5t-112 -118t-156.5 -65.5t-182 -22q-133 0 -240 61q92 -107 151.5 -142.5t156.5 -35.5h51l274 -348q98 -125 144 -156.5t135 -31.5v-25h-350
l-619 764v-588q0 -95 38 -123t132 -28v-25h-526zM428 924q0 -62 27 -106.5t72 -66.5t89.5 -31t92.5 -9q142 0 220.5 91t78.5 257q0 99 -30.5 176.5t-97.5 125.5t-163 48h-127q-92 0 -127 -29.5t-35 -107.5v-348zM643 -195q0 44 28 71.5t74 27.5q55 0 92 -38.5t37 -101.5
q0 -73 -49.5 -141.5t-148.5 -107.5l-8 20q116 45 116 121q0 23 -12.5 32t-50.5 23q-78 29 -78 94z" />
    <glyph glyph-name="rcommaaccent" unicode="&#x157;" horiz-adv-x="897" 
d="M756 647q-49 0 -78 26.5t-29 69.5q0 37 30 77t30 67q0 53 -72 53q-127 0 -206 -113t-79 -313v-389q0 -58 33 -81.5t133 -23.5v-20h-471v20q68 0 98.5 17t30.5 69v711q0 67 -25.5 86t-103.5 19v20h305v-246q32 129 109 198t182 69q100 0 161.5 -57.5t61.5 -139.5
q0 -57 -29.5 -88t-80.5 -31zM174 -195q0 44 28 71.5t74 27.5q55 0 92.5 -38.5t37.5 -101.5q0 -72 -50 -141t-149 -108l-8 20q116 45 116 121q0 23 -12.5 32t-50.5 23q-78 29 -78 94z" />
    <glyph glyph-name="Rcaron" unicode="&#x158;" horiz-adv-x="1386" 
d="M666 1663l290 174l9 -8l-232 -285q-32 -37 -67 -37q-39 0 -64 35l-233 287l8 8zM72 0v25q47 0 73 4.5t47 20t29 46t8 80.5v1081q0 96 -33 124t-124 28v25h637q242 0 375 -100.5t133 -278.5q0 -97 -41.5 -171.5t-112 -118t-156.5 -65.5t-182 -22q-133 0 -240 61
q92 -107 151.5 -142.5t156.5 -35.5h51l274 -348q98 -125 144 -156.5t135 -31.5v-25h-350l-619 764v-588q0 -95 38 -123t132 -28v-25h-526zM428 924q0 -62 27 -106.5t72 -66.5t89.5 -31t92.5 -9q142 0 220.5 91t78.5 257q0 99 -30.5 176.5t-97.5 125.5t-163 48h-127
q-92 0 -127 -29.5t-35 -107.5v-348z" />
    <glyph glyph-name="rcaron" unicode="&#x159;" horiz-adv-x="897" 
d="M492 1274l290 174l9 -8l-232 -285q-32 -37 -67 -37q-39 0 -64 35l-233 287l8 8zM756 647q-49 0 -78 26.5t-29 69.5q0 37 30 77t30 67q0 53 -72 53q-127 0 -206 -113t-79 -313v-389q0 -58 33 -81.5t133 -23.5v-20h-471v20q68 0 98.5 17t30.5 69v711q0 67 -25.5 86
t-103.5 19v20h305v-246q32 129 109 198t182 69q100 0 161.5 -57.5t61.5 -139.5q0 -57 -29.5 -88t-80.5 -31z" />
    <glyph glyph-name="Sacute" unicode="&#x15a;" horiz-adv-x="1224" 
d="M696 1733q43 57 70 77.5t61 20.5q32 0 55 -23t23 -55q0 -36 -24.5 -60t-98.5 -61l-245 -123l-7 9zM709 4q137 0 217 69.5t80 194.5q0 119 -85.5 199t-295.5 160q-60 22 -102.5 39.5t-98 44.5t-93.5 52t-79 60.5t-65 73.5t-40 86.5t-16 103.5q0 159 107 263t290 104
q70 0 141 -22t128 -44t92 -22q87 0 74 98h22l96 -491l-22 -4q-17 67 -71.5 147.5t-127.5 150t-163.5 116.5t-170.5 47q-123 0 -189.5 -63.5t-66.5 -170.5q0 -43 12.5 -80.5t32.5 -67t53 -56.5t65 -46.5t78.5 -41t84.5 -36.5t91 -35q7 -3 11 -4q58 -22 96 -38t89.5 -42
t85.5 -49.5t71 -57.5t58 -70t35 -83.5t14 -101.5q0 -179 -113.5 -293t-318.5 -114q-89 0 -168.5 23.5t-138 47t-97.5 23.5q-46 0 -76 -24t-26 -81h-23l-92 598l23 4q29 -117 95.5 -224t149 -181t174.5 -118t173 -44z" />
    <glyph glyph-name="sacute" unicode="&#x15b;" horiz-adv-x="890" 
d="M436 1343q43 58 70.5 78.5t60.5 20.5q32 0 55 -23t23 -55q0 -36 -24.5 -60t-98.5 -61l-246 -123l-6 8zM522 0q88 0 145.5 43.5t57.5 134.5q0 34 -9 62t-30 49t-41 35.5t-56.5 28.5t-61.5 22t-70 20q-163 45 -230 80q-147 79 -147 227q0 122 86.5 191.5t214.5 69.5
q57 0 111 -16t92.5 -32t58.5 -16q28 0 38.5 15.5t8.5 48.5h17l88 -332l-19 -4q-79 151 -181 233t-210 82q-88 0 -136 -43t-48 -115q0 -31 8.5 -55.5t27.5 -43.5t38.5 -32.5t53.5 -26.5t59 -21t68 -21q21 -6 31 -9q152 -45 208 -73q136 -69 149 -198q2 -16 2 -32
q0 -131 -92 -211.5t-230 -80.5q-66 0 -127 17.5t-107 35.5t-75 18q-33 0 -47.5 -14t-13.5 -57h-17l-84 417l19 4q75 -194 202 -297.5t248 -103.5z" />
    <glyph glyph-name="Scircumflex" unicode="&#x15c;" horiz-adv-x="1224" 
d="M653 1681l-288 -174l-9 9l234 286q25 35 63 35q36 0 68 -37l231 -284l-8 -9zM709 4q137 0 217 69.5t80 194.5q0 119 -85.5 199t-295.5 160q-60 22 -102.5 39.5t-98 44.5t-93.5 52t-79 60.5t-65 73.5t-40 86.5t-16 103.5q0 159 107 263t290 104q70 0 141 -22t128 -44
t92 -22q87 0 74 98h22l96 -491l-22 -4q-17 67 -71.5 147.5t-127.5 150t-163.5 116.5t-170.5 47q-123 0 -189.5 -63.5t-66.5 -170.5q0 -43 12.5 -80.5t32.5 -67t53 -56.5t65 -46.5t78.5 -41t84.5 -36.5t91 -35q7 -3 11 -4q58 -22 96 -38t89.5 -42t85.5 -49.5t71 -57.5t58 -70
t35 -83.5t14 -101.5q0 -179 -113.5 -293t-318.5 -114q-89 0 -168.5 23.5t-138 47t-97.5 23.5q-46 0 -76 -24t-26 -81h-23l-92 598l23 4q29 -117 95.5 -224t149 -181t174.5 -118t173 -44z" />
    <glyph glyph-name="scircumflex" unicode="&#x15d;" horiz-adv-x="890" 
d="M438 1292l-288 -174l-9 8l234 287q25 35 63 35q36 0 68 -37l231 -285l-8 -8zM522 0q88 0 145.5 43.5t57.5 134.5q0 34 -9 62t-30 49t-41 35.5t-56.5 28.5t-61.5 22t-70 20q-163 45 -230 80q-147 79 -147 227q0 122 86.5 191.5t214.5 69.5q57 0 111 -16t92.5 -32t58.5 -16
q28 0 38.5 15.5t8.5 48.5h17l88 -332l-19 -4q-79 151 -181 233t-210 82q-88 0 -136 -43t-48 -115q0 -31 8.5 -55.5t27.5 -43.5t38.5 -32.5t53.5 -26.5t59 -21t68 -21q21 -6 31 -9q152 -45 208 -73q136 -69 149 -198q2 -16 2 -32q0 -131 -92 -211.5t-230 -80.5
q-66 0 -127 17.5t-107 35.5t-75 18q-33 0 -47.5 -14t-13.5 -57h-17l-84 417l19 4q75 -194 202 -297.5t248 -103.5z" />
    <glyph glyph-name="Scedilla" unicode="&#x15e;" horiz-adv-x="1224" 
d="M709 4q137 0 217 69.5t80 194.5q0 119 -85.5 199t-295.5 160q-60 22 -102.5 39.5t-98 44.5t-93.5 52t-79 60.5t-65 73.5t-40 86.5t-16 103.5q0 159 107 263t290 104q70 0 141 -22t128 -44t92 -22q87 0 74 98h22l96 -491l-22 -4q-17 67 -71.5 147.5t-127.5 150
t-163.5 116.5t-170.5 47q-123 0 -189.5 -63.5t-66.5 -170.5q0 -43 12.5 -80.5t32.5 -67t53 -56.5t65 -46.5t78.5 -41t84.5 -36.5t91 -35q7 -3 11 -4q58 -22 96 -38t89.5 -42t85.5 -49.5t71 -57.5t58 -70t35 -83.5t14 -101.5q0 -179 -113.5 -293t-318.5 -114h-2l-47 -132
q63 37 143 37q81 0 127.5 -42.5t46.5 -116.5q0 -79 -55 -124.5t-148 -45.5q-219 0 -266 241l16 4q16 -82 63.5 -121.5t108.5 -39.5q54 0 83.5 27t29.5 77q0 43 -25.5 67.5t-68.5 24.5q-42 0 -94 -24l61 168q-80 3 -154.5 27t-129.5 45.5t-93 21.5q-46 0 -76 -24t-26 -81h-23
l-92 598l23 4q29 -117 95.5 -224t149 -181t174.5 -118t173 -44z" />
    <glyph glyph-name="scedilla" unicode="&#x15f;" horiz-adv-x="890" 
d="M522 0q88 0 145.5 43.5t57.5 134.5q0 34 -9 62t-30 49t-41 35.5t-56.5 28.5t-61.5 22t-70 20q-163 45 -230 80q-147 79 -147 227q0 122 86.5 191.5t214.5 69.5q57 0 111 -16t92.5 -32t58.5 -16q28 0 38.5 15.5t8.5 48.5h17l88 -332l-19 -4q-79 151 -181 233t-210 82
q-88 0 -136 -43t-48 -115q0 -31 8.5 -55.5t27.5 -43.5t38.5 -32.5t53.5 -26.5t59 -21t68 -21q21 -6 31 -9q152 -45 208 -73q136 -69 149 -198q2 -16 2 -32q0 -131 -92 -211.5t-230 -80.5q-29 0 -43 2l-49 -134q63 37 143 37q82 0 128.5 -42.5t46.5 -116.5q0 -79 -55 -124.5
t-148 -45.5q-219 0 -266 241l16 4q16 -82 63.5 -121.5t108.5 -39.5q54 0 83.5 27t29.5 77q0 42 -26 67t-69 25q-42 0 -94 -24l62 174q-57 7 -134 36t-106 29q-33 0 -47.5 -14t-13.5 -57h-17l-84 417l19 4q75 -194 202 -297.5t248 -103.5z" />
    <glyph glyph-name="Scaron" unicode="&#x160;" horiz-adv-x="1224" 
d="M639 1663l291 174l8 -8l-231 -285q-32 -37 -68 -37q-39 0 -64 35l-233 287l8 8zM709 4q137 0 217 69.5t80 194.5q0 119 -85.5 199t-295.5 160q-60 22 -102.5 39.5t-98 44.5t-93.5 52t-79 60.5t-65 73.5t-40 86.5t-16 103.5q0 159 107 263t290 104q70 0 141 -22t128 -44
t92 -22q87 0 74 98h22l96 -491l-22 -4q-17 67 -71.5 147.5t-127.5 150t-163.5 116.5t-170.5 47q-123 0 -189.5 -63.5t-66.5 -170.5q0 -43 12.5 -80.5t32.5 -67t53 -56.5t65 -46.5t78.5 -41t84.5 -36.5t91 -35q7 -3 11 -4q58 -22 96 -38t89.5 -42t85.5 -49.5t71 -57.5t58 -70
t35 -83.5t14 -101.5q0 -179 -113.5 -293t-318.5 -114q-89 0 -168.5 23.5t-138 47t-97.5 23.5q-46 0 -76 -24t-26 -81h-23l-92 598l23 4q29 -117 95.5 -224t149 -181t174.5 -118t173 -44z" />
    <glyph glyph-name="scaron" unicode="&#x161;" horiz-adv-x="890" 
d="M442 1274l291 174l8 -8l-231 -285q-32 -37 -68 -37q-38 0 -63 35l-234 287l9 8zM522 0q88 0 145.5 43.5t57.5 134.5q0 34 -9 62t-30 49t-41 35.5t-56.5 28.5t-61.5 22t-70 20q-163 45 -230 80q-147 79 -147 227q0 122 86.5 191.5t214.5 69.5q57 0 111 -16t92.5 -32
t58.5 -16q28 0 38.5 15.5t8.5 48.5h17l88 -332l-19 -4q-79 151 -181 233t-210 82q-88 0 -136 -43t-48 -115q0 -31 8.5 -55.5t27.5 -43.5t38.5 -32.5t53.5 -26.5t59 -21t68 -21q21 -6 31 -9q152 -45 208 -73q136 -69 149 -198q2 -16 2 -32q0 -131 -92 -211.5t-230 -80.5
q-66 0 -127 17.5t-107 35.5t-75 18q-33 0 -47.5 -14t-13.5 -57h-17l-84 417l19 4q75 -194 202 -297.5t248 -103.5z" />
    <glyph glyph-name="uni0162" unicode="&#x162;" horiz-adv-x="1368" 
d="M362 0v25q33 0 55.5 1.5t50.5 6t46 14.5t35 26t25 42t8 61v1182q0 51 -50 51q-95 0 -170 -31t-122 -79t-80.5 -116.5t-49.5 -133t-24 -138.5h-23l31 523h1180l31 -523h-23q-8 74 -23.5 139t-49 133t-81 116t-122.5 79t-170 31q-50 0 -50 -51v-1182q0 -35 8 -61t25 -42
t35 -26t46 -14.5t50.5 -6t55.5 -1.5v-25h-644zM575 -195q0 44 28.5 71.5t74.5 27.5q55 0 92 -38.5t37 -101.5q0 -72 -50 -141t-149 -108l-8 20q117 45 117 121q0 16 -8.5 26t-18 14t-37.5 15q-78 29 -78 94z" />
    <glyph glyph-name="uni0163" unicode="&#x163;" horiz-adv-x="598" 
d="M150 182v699q0 23 -8.5 32t-30.5 9h-84v20h30q79 0 137 51.5t84.5 129t26.5 167.5h21v-348h249v-22h-249v-717q0 -123 106 -123q113 0 154 92l12 -6q-34 -93 -101 -139.5t-149 -46.5q-90 0 -144 51.5t-54 150.5zM201 -195q0 44 28 71.5t74 27.5q55 0 92 -38.5t37 -101.5
q0 -72 -50 -141t-149 -108l-8 20q117 45 117 121q0 23 -12.5 32t-50.5 23q-78 29 -78 94z" />
    <glyph glyph-name="Tcaron" unicode="&#x164;" horiz-adv-x="1368" 
d="M688 1663l291 174l8 -8l-231 -285q-32 -37 -68 -37q-38 0 -63 35l-234 287l8 8zM362 0v25q33 0 55.5 1.5t50.5 6t46 14.5t35 26t25 42t8 61v1182q0 51 -50 51q-95 0 -170 -31t-122 -79t-80.5 -116.5t-49.5 -133t-24 -138.5h-23l31 523h1180l31 -523h-23q-8 74 -23.5 139
t-49 133t-81 116t-122.5 79t-170 31q-50 0 -50 -51v-1182q0 -35 8 -61t25 -42t35 -26t46 -14.5t50.5 -6t55.5 -1.5v-25h-644z" />
    <glyph glyph-name="tcaron" unicode="&#x165;" horiz-adv-x="598" 
d="M502 1434h160v-15l-177 -356h-16zM150 182v699q0 23 -8.5 32t-30.5 9h-84v20h30q79 0 137 51.5t84.5 129t26.5 167.5h21v-348h249v-22h-249v-717q0 -123 106 -123q113 0 154 92l12 -6q-34 -93 -101 -139.5t-149 -46.5q-90 0 -144 51.5t-54 150.5z" />
    <glyph glyph-name="Tbar" unicode="&#x166;" horiz-adv-x="1368" 
d="M362 0v25q33 0 55.5 1.5t50.5 6t46 14.5t35 26t25 42t8 61v512h-316v29h316v641q0 51 -50 51q-95 0 -170 -31t-122 -79t-80.5 -116.5t-49.5 -133t-24 -138.5h-23l31 523h1180l31 -523h-23q-8 74 -23.5 139t-49 133t-81 116t-122.5 79t-170 31q-50 0 -50 -51v-641h324v-29
h-324v-512q0 -35 8 -61t25 -42t35 -26t46 -14.5t50.5 -6t55.5 -1.5v-25h-644z" />
    <glyph glyph-name="tbar" unicode="&#x167;" horiz-adv-x="598" 
d="M150 182v328h-123v22h123v349q0 23 -8.5 32t-30.5 9h-84v20h30q79 0 137 51.5t84.5 129t26.5 167.5h21v-348h249v-22h-249v-388h249v-22h-249v-307q0 -123 106 -123q113 0 154 92l12 -6q-34 -93 -101 -139.5t-149 -46.5q-90 0 -144 51.5t-54 150.5z" />
    <glyph glyph-name="Utilde" unicode="&#x168;" horiz-adv-x="1468" 
d="M678 1794q39 0 94 -31t107.5 -61.5t83.5 -30.5q51 0 79.5 30t53.5 107l18 -4q-28 -119 -84 -184.5t-131 -65.5q-30 0 -71 19.5t-74.5 43t-72 43t-63.5 19.5q-52 0 -80 -27.5t-51 -101.5l-18 4q26 114 81 177t128 63zM1274 475q0 -246 -127 -370.5t-356 -124.5
q-142 0 -247 28t-184 91.5t-119 173t-40 266.5v718q0 50 -8.5 80.5t-30 46t-48 20.5t-73.5 5v25h524v-25q-47 0 -73.5 -5t-47.5 -20.5t-29.5 -46t-8.5 -80.5v-790q0 -238 101 -343.5t306 -105.5q198 0 313 112.5t115 334.5v590q0 82 -5.5 135.5t-19.5 97.5t-40.5 68
t-67.5 37.5t-102 15.5v25h436v-25q-92 -6 -130 -84.5t-38 -269.5v-580z" />
    <glyph glyph-name="utilde" unicode="&#x169;" horiz-adv-x="1146" 
d="M449 1405q31 0 72.5 -19t75.5 -42.5t72.5 -42.5t63.5 -19q51 0 79.5 30t53.5 107l19 -4q-28 -119 -84 -184.5t-131 -65.5q-38 0 -92.5 31.5t-106 62.5t-82.5 31q-52 0 -80 -27.5t-51 -101.5l-18 4q26 114 81 177t128 63zM150 297v539q0 53 -30.5 69.5t-99.5 16.5v20h306
v-655q0 -234 215 -234q264 0 264 477v306q0 54 -32.5 70t-115.5 16v20h324v-809q0 -67 22 -85.5t91 -18.5v-21l-289 -16v305q-37 -158 -128.5 -237.5t-221.5 -79.5q-305 0 -305 317z" />
    <glyph glyph-name="Umacron" unicode="&#x16a;" horiz-adv-x="1468" 
d="M492 1667v57h557v-57h-557zM1274 475q0 -246 -127 -370.5t-356 -124.5q-142 0 -247 28t-184 91.5t-119 173t-40 266.5v718q0 50 -8.5 80.5t-30 46t-48 20.5t-73.5 5v25h524v-25q-47 0 -73.5 -5t-47.5 -20.5t-29.5 -46t-8.5 -80.5v-790q0 -238 101 -343.5t306 -105.5
q198 0 313 112.5t115 334.5v590q0 82 -5.5 135.5t-19.5 97.5t-40.5 68t-67.5 37.5t-102 15.5v25h436v-25q-92 -6 -130 -84.5t-38 -269.5v-580z" />
    <glyph glyph-name="umacron" unicode="&#x16b;" horiz-adv-x="1146" 
d="M283 1278v57h557v-57h-557zM150 297v539q0 53 -30.5 69.5t-99.5 16.5v20h306v-655q0 -234 215 -234q264 0 264 477v306q0 54 -32.5 70t-115.5 16v20h324v-809q0 -67 22 -85.5t91 -18.5v-21l-289 -16v305q-37 -158 -128.5 -237.5t-221.5 -79.5q-305 0 -305 317z" />
    <glyph glyph-name="Ubreve" unicode="&#x16c;" horiz-adv-x="1468" 
d="M791 1667q53 0 92.5 6t78.5 22.5t66 50t41 83.5l16 -4q-32 -159 -106.5 -228t-187.5 -69t-188 69t-107 228l16 4q14 -50 41 -83.5t66.5 -50t79 -22.5t92.5 -6zM1274 475q0 -246 -127 -370.5t-356 -124.5q-142 0 -247 28t-184 91.5t-119 173t-40 266.5v718q0 50 -8.5 80.5
t-30 46t-48 20.5t-73.5 5v25h524v-25q-47 0 -73.5 -5t-47.5 -20.5t-29.5 -46t-8.5 -80.5v-790q0 -238 101 -343.5t306 -105.5q198 0 313 112.5t115 334.5v590q0 82 -5.5 135.5t-19.5 97.5t-40.5 68t-67.5 37.5t-102 15.5v25h436v-25q-92 -6 -130 -84.5t-38 -269.5v-580z" />
    <glyph glyph-name="ubreve" unicode="&#x16d;" horiz-adv-x="1146" 
d="M551 1278q53 0 92.5 6t78.5 22.5t66 50t41 83.5l17 -4q-32 -159 -107 -228t-188 -69t-188 69t-107 228l16 4q14 -50 41 -83.5t66.5 -50t79 -22.5t92.5 -6zM150 297v539q0 53 -30.5 69.5t-99.5 16.5v20h306v-655q0 -234 215 -234q264 0 264 477v306q0 54 -32.5 70
t-115.5 16v20h324v-809q0 -67 22 -85.5t91 -18.5v-21l-289 -16v305q-37 -158 -128.5 -237.5t-221.5 -79.5q-305 0 -305 317z" />
    <glyph glyph-name="Uring" unicode="&#x16e;" horiz-adv-x="1468" 
d="M950 1712q0 -74 -48.5 -122t-119.5 -48q-73 0 -121.5 48t-48.5 122t48.5 122t121.5 48q71 0 119.5 -48t48.5 -122zM926 1712q0 64 -41 106t-103 42q-63 0 -104 -42t-41 -106t41 -105.5t104 -41.5q62 0 103 41.5t41 105.5zM1274 475q0 -246 -127 -370.5t-356 -124.5
q-142 0 -247 28t-184 91.5t-119 173t-40 266.5v718q0 50 -8.5 80.5t-30 46t-48 20.5t-73.5 5v25h524v-25q-47 0 -73.5 -5t-47.5 -20.5t-29.5 -46t-8.5 -80.5v-790q0 -238 101 -343.5t306 -105.5q198 0 313 112.5t115 334.5v590q0 82 -5.5 135.5t-19.5 97.5t-40.5 68
t-67.5 37.5t-102 15.5v25h436v-25q-92 -6 -130 -84.5t-38 -269.5v-580z" />
    <glyph glyph-name="uring" unicode="&#x16f;" horiz-adv-x="1146" 
d="M717 1323q0 -74 -48.5 -122t-119.5 -48q-73 0 -121.5 48t-48.5 122t48.5 122t121.5 48q71 0 119.5 -48t48.5 -122zM692 1323q0 64 -40.5 105.5t-102.5 41.5q-63 0 -104.5 -41.5t-41.5 -105.5t41.5 -105.5t104.5 -41.5q62 0 102.5 41.5t40.5 105.5zM150 297v539
q0 53 -30.5 69.5t-99.5 16.5v20h306v-655q0 -234 215 -234q264 0 264 477v306q0 54 -32.5 70t-115.5 16v20h324v-809q0 -67 22 -85.5t91 -18.5v-21l-289 -16v305q-37 -158 -128.5 -237.5t-221.5 -79.5q-305 0 -305 317z" />
    <glyph glyph-name="Uhungarumlaut" unicode="&#x170;" horiz-adv-x="1468" 
d="M995 1708q22 30 31.5 42.5t34.5 30t49 17.5q32 0 52 -20.5t20 -51.5q0 -37 -25 -62t-86 -52l-209 -94l-4 6zM688 1708q22 30 31.5 42.5t34.5 30t49 17.5q32 0 51.5 -20.5t19.5 -51.5q0 -37 -25 -62t-85 -52l-209 -94l-4 6zM1274 475q0 -246 -127 -370.5t-356 -124.5
q-142 0 -247 28t-184 91.5t-119 173t-40 266.5v718q0 50 -8.5 80.5t-30 46t-48 20.5t-73.5 5v25h524v-25q-47 0 -73.5 -5t-47.5 -20.5t-29.5 -46t-8.5 -80.5v-790q0 -238 101 -343.5t306 -105.5q198 0 313 112.5t115 334.5v590q0 82 -5.5 135.5t-19.5 97.5t-40.5 68
t-67.5 37.5t-102 15.5v25h436v-25q-92 -6 -130 -84.5t-38 -269.5v-580z" />
    <glyph glyph-name="uhungarumlaut" unicode="&#x171;" horiz-adv-x="1146" 
d="M733 1319q22 30 31.5 42.5t34.5 30t49 17.5q32 0 52 -20.5t20 -51.5q0 -37 -25 -62t-86 -52l-209 -95l-4 7zM426 1319q22 30 31.5 42.5t34.5 30t49 17.5q32 0 51.5 -20.5t19.5 -51.5q0 -37 -25 -62t-85 -52l-209 -95l-4 7zM150 297v539q0 53 -30.5 69.5t-99.5 16.5v20
h306v-655q0 -234 215 -234q264 0 264 477v306q0 54 -32.5 70t-115.5 16v20h324v-809q0 -67 22 -85.5t91 -18.5v-21l-289 -16v305q-37 -158 -128.5 -237.5t-221.5 -79.5q-305 0 -305 317z" />
    <glyph glyph-name="Uogonek" unicode="&#x172;" horiz-adv-x="1468" 
d="M1020 -362q-108 -78 -209 -78q-74 0 -118 36.5t-44 106.5q0 89 72.5 158t212.5 125l-2 8q-63 -14 -141 -14q-142 0 -247 28t-184 91.5t-119 173t-40 266.5v718q0 50 -8.5 80.5t-30 46t-48 20.5t-73.5 5v25h524v-25q-47 0 -73.5 -5t-47.5 -20.5t-29.5 -46t-8.5 -80.5v-790
q0 -238 101 -343.5t306 -105.5q198 0 313 112.5t115 334.5v590q0 82 -5.5 135.5t-19.5 97.5t-40.5 68t-67.5 37.5t-102 15.5v25h436v-25q-92 -6 -130 -84.5t-38 -269.5v-580q0 -350 -258 -457q-207 -111 -207 -270q0 -123 102 -123q45 0 101 27z" />
    <glyph glyph-name="uogonek" unicode="&#x173;" horiz-adv-x="1146" 
d="M150 297v539q0 53 -30.5 69.5t-99.5 16.5v20h306v-655q0 -234 215 -234q264 0 264 477v306q0 54 -32.5 70t-115.5 16v20h324v-809q0 -67 22 -85.5t91 -18.5v-21l-111 -6q-182 -96 -182 -254q0 -123 102 -123q45 0 101 27l8 -14q-108 -78 -209 -78q-74 0 -118 36.5
t-44 106.5q0 184 307 297l-143 -8v305q-37 -158 -128.5 -237.5t-221.5 -79.5q-305 0 -305 317z" />
    <glyph glyph-name="Wcircumflex" unicode="&#x174;" horiz-adv-x="2064" 
d="M1012 1681l-289 -174l-8 9l233 286q25 35 64 35q35 0 67 -37l232 -284l-8 -9zM1802 1065l-352 -1069h-78l-342 942l-305 -942h-78l-442 1169q-56 146 -95 193t-110 51v25h557v-25q-131 1 -162.5 -59t19.5 -185l354 -942l246 762l-66 180q-36 100 -64 150t-60 70.5
t-83 23.5v25h543v-25q-67 1 -105 -13t-49 -47t-4 -75t31 -109l338 -942l274 842q23 71 27.5 131.5t-10 109t-57 76t-109.5 27.5v25h444v-25q-42 -2 -77 -22t-59 -47.5t-48.5 -77t-40 -90.5t-37.5 -107z" />
    <glyph glyph-name="wcircumflex" unicode="&#x175;" horiz-adv-x="1538" 
d="M770 1292l-289 -174l-8 8l234 287q25 35 63 35q36 0 68 -37l231 -285l-8 -8zM166 756q-21 50 -37 80t-28 47.5t-30.5 25.5t-29.5 9.5t-41 3.5v20h418v-20q-35 0 -56.5 -6.5t-34.5 -24t-9.5 -51t24.5 -84.5l246 -596l182 452l-55 136q-26 64 -44 98.5t-38 51t-33 19.5
t-45 5v20h426v-20q-161 0 -94 -166l237 -582l185 520q40 112 5.5 170t-140.5 58v20h364v-20q-72 -3 -115.5 -56.5t-87.5 -175.5l-248 -694h-65l-238 584l-239 -584h-66z" />
    <glyph glyph-name="Ycircumflex" unicode="&#x176;" horiz-adv-x="1323" 
d="M702 1681l-288 -174l-8 9l233 286q25 35 63 35q36 0 68 -37l231 -284l-8 -9zM397 0v25q96 0 138.5 28.5t42.5 122.5v416l-338 573q-65 113 -101.5 161.5t-64.5 64.5t-74 18v25h567v-25q-81 -1 -117.5 -32.5t-30.5 -81.5t44 -117l297 -516l235 442q52 101 52 184
q0 63 -43 92t-115 29v25h434v-25q-84 -4 -146.5 -73t-148.5 -232l-248 -469v-459q0 -94 42.5 -122.5t138.5 -28.5v-25h-564z" />
    <glyph glyph-name="ycircumflex" unicode="&#x177;" horiz-adv-x="1064" 
d="M571 1292l-288 -174l-9 8l234 287q25 35 63 35q36 0 68 -37l231 -285l-8 -8zM162 758q-43 103 -77.5 132t-94.5 32v20h459v-20q-85 0 -109 -37t10 -123l289 -715l207 647q69 222 -150 228v20h369v-20q-73 -4 -112.5 -51.5t-80.5 -178.5l-288 -897q-38 -118 -95.5 -182
t-156.5 -64q-97 0 -166.5 58t-69.5 143q0 55 31 88t82 33q49 0 77.5 -31t28.5 -82q0 -32 -15.5 -56t-31.5 -43t-16 -38q0 -53 80 -53q92 0 144 61t52 152q0 93 -82 291z" />
    <glyph glyph-name="Ydieresis" unicode="&#x178;" horiz-adv-x="1323" 
d="M508 1606q-52 0 -83.5 31.5t-31.5 82.5t31.5 83t83.5 32t83.5 -32t31.5 -83t-31.5 -82.5t-83.5 -31.5zM897 1606q-52 0 -83.5 31.5t-31.5 82.5t31.5 83t83.5 32t83.5 -32t31.5 -83t-31.5 -82.5t-83.5 -31.5zM397 0v25q96 0 138.5 28.5t42.5 122.5v416l-338 573
q-65 113 -101.5 161.5t-64.5 64.5t-74 18v25h567v-25q-81 -1 -117.5 -32.5t-30.5 -81.5t44 -117l297 -516l235 442q52 101 52 184q0 63 -43 92t-115 29v25h434v-25q-84 -4 -146.5 -73t-148.5 -232l-248 -469v-459q0 -94 42.5 -122.5t138.5 -28.5v-25h-564z" />
    <glyph glyph-name="Zacute" unicode="&#x179;" horiz-adv-x="1294" 
d="M745 1733q43 57 70.5 77.5t61.5 20.5q32 0 54.5 -23t22.5 -55q0 -36 -24.5 -60t-98.5 -61l-245 -123l-6 9zM1219 571l-78 -571h-1063v20l889 1389h-363q-83 0 -151.5 -25t-118.5 -69t-86.5 -107.5t-58.5 -136.5t-33 -160h-27l45 523h1020v-23l-887 -1386h367
q209 0 334 138.5t184 407.5h27z" />
    <glyph glyph-name="zacute" unicode="&#x17a;" horiz-adv-x="956" 
d="M543 1343q43 58 70.5 78.5t60.5 20.5q32 0 55 -23t23 -55q0 -36 -24.5 -60t-98.5 -61l-246 -123l-6 8zM680 922h-213q-160 0 -251 -83t-132 -247h-21l58 350h751v-18l-628 -906h205q170 0 274 96t160 285h20l-82 -399h-768v16z" />
    <glyph glyph-name="Zdotaccent" unicode="&#x17b;" horiz-adv-x="1294" 
d="M668 1606q-52 0 -83.5 31.5t-31.5 82.5t31.5 83t83.5 32t83 -32t31 -83t-31 -82.5t-83 -31.5zM1219 571l-78 -571h-1063v20l889 1389h-363q-83 0 -151.5 -25t-118.5 -69t-86.5 -107.5t-58.5 -136.5t-33 -160h-27l45 523h1020v-23l-887 -1386h367q209 0 334 138.5
t184 407.5h27z" />
    <glyph glyph-name="zdotaccent" unicode="&#x17c;" horiz-adv-x="956" 
d="M506 1217q-52 0 -83.5 31.5t-31.5 82.5t31.5 83t83.5 32t83.5 -32t31.5 -83t-31.5 -82.5t-83.5 -31.5zM680 922h-213q-160 0 -251 -83t-132 -247h-21l58 350h751v-18l-628 -906h205q170 0 274 96t160 285h20l-82 -399h-768v16z" />
    <glyph glyph-name="Zcaron" unicode="&#x17d;" horiz-adv-x="1294" 
d="M668 1663l290 174l9 -8l-232 -285q-32 -37 -67 -37q-39 0 -64 35l-233 287l8 8zM1219 571l-78 -571h-1063v20l889 1389h-363q-83 0 -151.5 -25t-118.5 -69t-86.5 -107.5t-58.5 -136.5t-33 -160h-27l45 523h1020v-23l-887 -1386h367q209 0 334 138.5t184 407.5h27z" />
    <glyph glyph-name="zcaron" unicode="&#x17e;" horiz-adv-x="956" 
d="M506 1274l291 174l8 -8l-232 -285q-32 -37 -67 -37q-39 0 -64 35l-233 287l8 8zM680 922h-213q-160 0 -251 -83t-132 -247h-21l58 350h751v-18l-628 -906h205q170 0 274 96t160 285h20l-82 -399h-768v16z" />
    <glyph glyph-name="florin" unicode="&#x192;" horiz-adv-x="1173" 
d="M127 737v29h295v229q0 261 109.5 411t299.5 150q136 0 225 -68.5t89 -158.5q0 -57 -32 -91t-85 -34t-85 31.5t-32 83.5q0 37 16.5 66t33 52t16.5 44q0 55 -117 55q-40 0 -73.5 -10t-58 -25.5t-43.5 -43t-32 -54t-22 -66.5t-14 -72.5t-7.5 -81t-3 -83t-0.5 -86.5v-248h426
v-29h-426v-667q0 -243 -104 -382t-287 -139q-136 0 -223.5 69t-87.5 159q0 57 31.5 91t82.5 34q53 0 85 -31.5t32 -83.5q0 -37 -16.5 -66t-32.5 -52t-16 -44q0 -55 116 -55q47 0 84.5 15t62 38t41.5 62.5t26.5 75.5t14.5 91.5t6 96t1 102.5v686h-295z" />
    <glyph glyph-name="uni0218" unicode="&#x218;" horiz-adv-x="1224" 
d="M709 4q137 0 217 69.5t80 194.5q0 119 -85.5 199t-295.5 160q-60 22 -102.5 39.5t-98 44.5t-93.5 52t-79 60.5t-65 73.5t-40 86.5t-16 103.5q0 159 107 263t290 104q70 0 141 -22t128 -44t92 -22q87 0 74 98h22l96 -491l-22 -4q-17 67 -71.5 147.5t-127.5 150
t-163.5 116.5t-170.5 47q-123 0 -189.5 -63.5t-66.5 -170.5q0 -43 12.5 -80.5t32.5 -67t53 -56.5t65 -46.5t78.5 -41t84.5 -36.5t91 -35q7 -3 11 -4q58 -22 96 -38t89.5 -42t85.5 -49.5t71 -57.5t58 -70t35 -83.5t14 -101.5q0 -179 -113.5 -293t-318.5 -114
q-89 0 -168.5 23.5t-138 47t-97.5 23.5q-46 0 -76 -24t-26 -81h-23l-92 598l23 4q29 -117 95.5 -224t149 -181t174.5 -118t173 -44zM606 -195q0 44 28.5 71.5t74.5 27.5q55 0 92 -38.5t37 -101.5q0 -72 -50 -141t-149 -108l-8 20q117 45 117 121q0 16 -8.5 26t-18 14
t-37.5 15q-78 29 -78 94z" />
    <glyph glyph-name="uni0219" unicode="&#x219;" horiz-adv-x="890" 
d="M522 0q88 0 145.5 43.5t57.5 134.5q0 34 -9 62t-30 49t-41 35.5t-56.5 28.5t-61.5 22t-70 20q-163 45 -230 80q-147 79 -147 227q0 122 86.5 191.5t214.5 69.5q57 0 111 -16t92.5 -32t58.5 -16q28 0 38.5 15.5t8.5 48.5h17l88 -332l-19 -4q-79 151 -181 233t-210 82
q-88 0 -136 -43t-48 -115q0 -31 8.5 -55.5t27.5 -43.5t38.5 -32.5t53.5 -26.5t59 -21t68 -21q21 -6 31 -9q152 -45 208 -73q136 -69 149 -198q2 -16 2 -32q0 -131 -92 -211.5t-230 -80.5q-66 0 -127 17.5t-107 35.5t-75 18q-33 0 -47.5 -14t-13.5 -57h-17l-84 417l19 4
q75 -194 202 -297.5t248 -103.5zM387 -195q0 44 28 71.5t74 27.5q55 0 92 -38.5t37 -101.5q0 -73 -49.5 -141.5t-148.5 -107.5l-8 20q116 45 116 121q0 23 -12.5 32t-50.5 23q-78 29 -78 94z" />
    <glyph glyph-name="uni021A" unicode="&#x21a;" horiz-adv-x="1368" 
d="M362 0v25q33 0 55.5 1.5t50.5 6t46 14.5t35 26t25 42t8 61v1182q0 51 -50 51q-95 0 -170 -31t-122 -79t-80.5 -116.5t-49.5 -133t-24 -138.5h-23l31 523h1180l31 -523h-23q-8 74 -23.5 139t-49 133t-81 116t-122.5 79t-170 31q-50 0 -50 -51v-1182q0 -35 8 -61t25 -42
t35 -26t46 -14.5t50.5 -6t55.5 -1.5v-25h-644zM575 -195q0 44 28.5 71.5t74.5 27.5q55 0 92 -38.5t37 -101.5q0 -72 -50 -141t-149 -108l-8 20q117 45 117 121q0 16 -8.5 26t-18 14t-37.5 15q-78 29 -78 94z" />
    <glyph glyph-name="uni021B" unicode="&#x21b;" horiz-adv-x="598" 
d="M150 182v699q0 23 -8.5 32t-30.5 9h-84v20h30q79 0 137 51.5t84.5 129t26.5 167.5h21v-348h249v-22h-249v-717q0 -123 106 -123q113 0 154 92l12 -6q-34 -93 -101 -139.5t-149 -46.5q-90 0 -144 51.5t-54 150.5zM201 -195q0 44 28 71.5t74 27.5q55 0 92 -38.5t37 -101.5
q0 -72 -50 -141t-149 -108l-8 20q117 45 117 121q0 23 -12.5 32t-50.5 23q-78 29 -78 94z" />
    <glyph glyph-name="dotlessj" unicode="&#x237;" horiz-adv-x="524" 
d="M352 942v-1042q0 -150 -79 -230t-236 -125l-6 19q84 29 114.5 77t30.5 148v1028q0 67 -26 86t-103 19v20h305z" />
    <glyph glyph-name="uni02BC" unicode="&#x2bc;" horiz-adv-x="600" 
d="M362 1249q-10 0 -36 -9t-50 -9q-49 0 -77.5 30t-28.5 80q0 52 34 82.5t87 30.5q65 0 104 -45t39 -121q0 -123 -68.5 -202.5t-191.5 -96.5l-4 19q97 13 159 71t62 133q0 20 -9 28.5t-20 8.5z" />
    <glyph glyph-name="circumflex" unicode="&#x2c6;" horiz-adv-x="1249" 
d="M625 1292l-289 -174l-8 8l233 287q25 35 64 35q35 0 67 -37l232 -285l-9 -8z" />
    <glyph glyph-name="caron" unicode="&#x2c7;" horiz-adv-x="1249" 
d="M625 1274l290 174l9 -8l-232 -285q-32 -37 -67 -37q-39 0 -64 35l-233 287l8 8z" />
    <glyph glyph-name="breve" unicode="&#x2d8;" horiz-adv-x="1249" 
d="M625 1278q53 0 92.5 6t78.5 22.5t66 50t41 83.5l17 -4q-32 -159 -107 -228t-188 -69t-188 69t-107 228l16 4q14 -50 41 -83.5t66.5 -50t79 -22.5t92.5 -6z" />
    <glyph glyph-name="dotaccent" unicode="&#x2d9;" horiz-adv-x="1249" 
d="M625 1217q-52 0 -83.5 31.5t-31.5 82.5t31.5 83t83.5 32t83 -32t31 -83t-31 -82.5t-83 -31.5z" />
    <glyph glyph-name="ring" unicode="&#x2da;" horiz-adv-x="1249" 
d="M795 1323q0 -74 -48.5 -122t-119.5 -48q-73 0 -121.5 48t-48.5 122t48.5 122t121.5 48q71 0 119.5 -48t48.5 -122zM770 1323q0 64 -40.5 105.5t-102.5 41.5q-63 0 -104.5 -41.5t-41.5 -105.5t41.5 -105.5t104.5 -41.5q62 0 102.5 41.5t40.5 105.5z" />
    <glyph glyph-name="ogonek" unicode="&#x2db;" horiz-adv-x="622" 
d="M553 -362q-108 -78 -209 -78q-74 0 -118 36.5t-44 106.5q0 182 310 293v14l38 -10q-188 -94 -188 -252q0 -123 102 -123q45 0 101 27z" />
    <glyph glyph-name="tilde" unicode="&#x2dc;" horiz-adv-x="1249" 
d="M512 1405q39 0 94 -30.5t107.5 -61.5t83.5 -31q51 0 79.5 30t53.5 107l18 -4q-28 -119 -84 -184.5t-131 -65.5q-38 0 -92 31.5t-105.5 62.5t-82.5 31q-52 0 -80 -27.5t-51 -101.5l-19 4q26 114 81 177t128 63z" />
    <glyph glyph-name="hungarumlaut" unicode="&#x2dd;" horiz-adv-x="1247" 
d="M786 1319q22 30 31.5 42.5t34.5 30t49 17.5q32 0 52 -20.5t20 -51.5q0 -37 -25 -62t-86 -52l-209 -95l-4 7zM479 1319q22 30 31.5 42.5t34.5 30t49 17.5q32 0 52 -20.5t20 -51.5q0 -37 -25 -62t-86 -52l-209 -95l-4 7z" />
    <glyph glyph-name="pi" unicode="&#x3c0;" horiz-adv-x="1249" 
d="M76 0v20q68 0 98.5 17t30.5 69v730q0 52 -30.5 69t-98.5 17v20h1098v-20q-68 0 -99 -17t-31 -69v-730q0 -52 31 -69t99 -17v-20h-435v20q68 0 98.5 17t30.5 69v730q0 47 -24 66.5t-82 19.5h-275q-106 0 -106 -86v-730q0 -52 30.5 -69t98.5 -17v-20h-434z" />
    <glyph glyph-name="uni0400" unicode="&#x400;" horiz-adv-x="1320" 
d="M627 1733l166 -215l-7 -9l-245 123q-74 37 -98.5 61t-24.5 60q0 32 23 55t55 23q34 0 61 -20.5t70 -77.5zM72 0v25q90 0 123.5 27.5t33.5 123.5v1081q0 96 -33 124t-124 28v25h1073l6 -492h-23q-36 467 -395 467h-155q-83 0 -113.5 -32t-30.5 -120v-505h125q150 0 214 69
t67 234h22v-637h-22q-6 165 -70 236t-211 71h-125v-549q0 -88 30.5 -119.5t113.5 -31.5h167q188 0 313.5 131t178.5 376h23l-78 -532h-1110z" />
    <glyph glyph-name="afii10023" unicode="&#x401;" horiz-adv-x="1320" 
d="M485 1606q-52 0 -83 31.5t-31 82.5t31 83t83 32t83.5 -32t31.5 -83t-31.5 -82.5t-83.5 -31.5zM874 1606q-52 0 -83 31.5t-31 82.5t31 83t83 32t83.5 -32t31.5 -83t-31.5 -82.5t-83.5 -31.5zM72 0v25q90 0 123.5 27.5t33.5 123.5v1081q0 96 -33 124t-124 28v25h1073
l6 -492h-23q-36 467 -395 467h-155q-83 0 -113.5 -32t-30.5 -120v-505h125q150 0 214 69t67 234h22v-637h-22q-6 165 -70 236t-211 71h-125v-549q0 -88 30.5 -119.5t113.5 -31.5h167q188 0 313.5 131t178.5 376h23l-78 -532h-1110z" />
    <glyph glyph-name="afii10051" unicode="&#x402;" horiz-adv-x="1605" 
d="M362 0v25q33 0 55.5 1.5t50.5 6t46 14.5t35 26t25 42t8 61v1182q0 51 -50 51q-95 0 -170 -31t-122 -79t-80.5 -116.5t-49.5 -133t-24 -138.5h-23l31 523h1180l31 -463h-23q-47 438 -446 438q-50 0 -50 -51v-778q21 85 64.5 147.5t101 97t119 50.5t129.5 16
q74 0 139.5 -21t119 -63t85 -113.5t31.5 -163.5v-630q0 -62 -17.5 -113t-47.5 -87.5t-75 -66.5t-93.5 -50t-110.5 -38l-8 23q85 29 116 77t31 148v748q0 81 -20 139.5t-56.5 90.5t-80 46t-97.5 14q-154 0 -242 -119t-88 -311v-225q0 -35 8 -61t25 -42t35 -26t46 -14.5
t50.5 -6t55.5 -1.5v-25h-644z" />
    <glyph glyph-name="afii10052" unicode="&#x403;" horiz-adv-x="1181" 
d="M770 1733q43 57 70 77.5t61 20.5q32 0 55 -23t23 -55q0 -36 -24.5 -60t-98.5 -61l-246 -123l-6 9zM72 0v25q90 0 123.5 27.5t33.5 123.5v1081q0 96 -33 124t-124 28v25h1052l11 -523h-23q-19 230 -130.5 364t-283.5 134h-120q-83 0 -113.5 -32t-30.5 -120v-1081
q0 -41 13 -70.5t31.5 -45t50.5 -23.5t58.5 -10t67.5 -2v-25h-583z" />
    <glyph glyph-name="afii10053" unicode="&#x404;" horiz-adv-x="1476" 
d="M819 1427q-221 0 -339 -171.5t-124 -501.5h699v-29h-699v-8q0 -348 122 -529.5t356 -181.5q88 0 172 37.5t153 106t113.5 175.5t50.5 234h23v-569h-23q-10 100 -88 100q-32 0 -75.5 -17t-85 -38t-119 -38t-169.5 -17q-187 0 -337 95t-234 263.5t-84 378.5t82.5 378.5
t229 263.5t329.5 95q85 0 160.5 -15.5t119 -33.5t88.5 -33.5t77 -15.5q46 0 62.5 23t18.5 65h23v-537h-23q-9 150 -75.5 269.5t-172.5 185t-231 65.5z" />
    <glyph glyph-name="afii10054" unicode="&#x405;" horiz-adv-x="1224" 
d="M709 4q137 0 217 69.5t80 194.5q0 119 -85.5 199t-295.5 160q-60 22 -102.5 39.5t-98 44.5t-93.5 52t-79 60.5t-65 73.5t-40 86.5t-16 103.5q0 159 107 263t290 104q70 0 141 -22t128 -44t92 -22q87 0 74 98h22l96 -491l-22 -4q-17 67 -71.5 147.5t-127.5 150
t-163.5 116.5t-170.5 47q-123 0 -189.5 -63.5t-66.5 -170.5q0 -43 12.5 -80.5t32.5 -67t53 -56.5t65 -46.5t78.5 -41t84.5 -36.5t91 -35q7 -3 11 -4q58 -22 96 -38t89.5 -42t85.5 -49.5t71 -57.5t58 -70t35 -83.5t14 -101.5q0 -179 -113.5 -293t-318.5 -114
q-89 0 -168.5 23.5t-138 47t-97.5 23.5q-46 0 -76 -24t-26 -81h-23l-92 598l23 4q29 -117 95.5 -224t149 -181t174.5 -118t173 -44z" />
    <glyph glyph-name="afii10055" unicode="&#x406;" horiz-adv-x="665" 
d="M72 0v25q47 0 73 4.5t47 20t29 46t8 80.5v1081q0 96 -33 124t-124 28v25h522v-25q-47 0 -73.5 -5t-48 -20.5t-30 -46t-8.5 -80.5v-1081q0 -96 34 -123.5t126 -27.5v-25h-522z" />
    <glyph glyph-name="afii10056" unicode="&#x407;" horiz-adv-x="665" 
d="M143 1708q-52 0 -83 32t-31 83t31 82.5t83 31.5t83.5 -31.5t31.5 -82.5t-31.5 -83t-83.5 -32zM532 1708q-52 0 -83 32t-31 83t31 82.5t83 31.5t83.5 -31.5t31.5 -82.5t-31.5 -83t-83.5 -32zM72 0v25q47 0 73 4.5t47 20t29 46t8 80.5v1081q0 96 -33 124t-124 28v25h522
v-25q-47 0 -73.5 -5t-48 -20.5t-30 -46t-8.5 -80.5v-1081q0 -96 34 -123.5t126 -27.5v-25h-522z" />
    <glyph glyph-name="afii10057" unicode="&#x408;" horiz-adv-x="903" 
d="M322 1434h524v-25q-47 0 -73.5 -5t-48 -20.5t-30 -46t-8.5 -80.5v-856q0 -93 -18.5 -167t-49 -121t-73 -77.5t-88 -43t-97.5 -12.5q-139 0 -236 83.5t-97 194.5q0 70 37.5 111t99.5 41q58 0 93.5 -35t35.5 -92q0 -35 -13 -65t-29 -47t-29 -38.5t-13 -42.5q0 -86 137 -86
q108 0 172 58t64 171q0 50 -16 102t-34.5 88t-34.5 80.5t-16 82.5v671q0 51 -8 81t-29 45.5t-48 20.5t-74 5v25z" />
    <glyph glyph-name="afii10058" unicode="&#x409;" horiz-adv-x="2072" 
d="M862 0v25q47 0 73 4.5t47.5 20t29.5 46t8 80.5v1106q0 80 -31 103.5t-112 23.5h-236q-75 0 -108.5 -31t-36.5 -116l-7 -144q-17 -415 -63 -690q-39 -229 -110.5 -338.5t-176.5 -109.5q-61 0 -100 37t-39 96t33.5 96t87.5 37q37 0 66.5 -16t52 -32t41.5 -16q35 0 61 62.5
t51 189.5q43 225 62 684q5 121 -14.5 184.5t-59.5 84.5t-117 22v25h1120v-25q-47 0 -73.5 -5t-47.5 -20.5t-29.5 -46t-8.5 -80.5v-430q147 9 268 9q272 0 405.5 -108t133.5 -302q0 -203 -136.5 -314.5t-357.5 -111.5h-676zM1815 408q0 401 -347 401q-125 0 -243 -8v-645
q0 -82 35.5 -106.5t123.5 -24.5h121q151 0 230.5 97.5t79.5 285.5z" />
    <glyph glyph-name="afii10059" unicode="&#x40a;" horiz-adv-x="2248" 
d="M72 0v25q47 0 73 4.5t47 20t29 46t8 80.5v1081q0 96 -33 124t-124 28v25h522v-25q-47 0 -73.5 -5t-48 -20.5t-30 -46t-8.5 -80.5v-503h750v503q0 50 -8.5 80.5t-30 46t-48 20.5t-73.5 5v25h524v-25q-47 0 -73.5 -5t-47.5 -20.5t-29.5 -46t-8.5 -80.5v-491q125 8 256 8
q283 0 423 -99.5t140 -277.5q0 -188 -140.5 -292.5t-365.5 -104.5h-678v25q92 0 126 27.5t34 123.5v549h-750v-549q0 -96 34 -123.5t126 -27.5v-25h-522zM1991 385q0 360 -371 360q-146 0 -231 -6v-563q0 -88 29.5 -119.5t111.5 -31.5h139q157 0 239.5 91.5t82.5 268.5z" />
    <glyph glyph-name="afii10060" unicode="&#x40b;" horiz-adv-x="1824" 
d="M362 0v25q33 0 55.5 1.5t50.5 6t46 14.5t35 26t25 42t8 61v1182q0 51 -50 51q-95 0 -170 -31t-122 -79t-80.5 -116.5t-49.5 -133t-24 -138.5h-23l31 523h1180l31 -463h-23q-47 438 -446 438q-50 0 -50 -51v-780q21 86 64.5 149t101 97.5t119 50.5t129.5 16
q74 0 139.5 -21t119 -63t85 -113.5t31.5 -163.5v-354q0 -41 13 -70.5t31.5 -45t50.5 -23.5t58 -10t66 -2v-25h-643v25q40 0 66 2t58 10t50.5 23.5t31.5 45t13 70.5v365q0 81 -20 139.5t-56.5 90.5t-80 46t-97.5 14q-154 0 -242 -119t-88 -311v-225q0 -35 8 -61t25 -42
t35 -26t46 -14.5t50.5 -6t55.5 -1.5v-25h-644z" />
    <glyph glyph-name="afii10061" unicode="&#x40c;" horiz-adv-x="1472" 
d="M856 1733q43 57 70 77.5t61 20.5q32 0 55 -23t23 -55q0 -36 -24.5 -60t-98.5 -61l-246 -123l-6 9zM1483 25v-25h-379l-572 733l359 379q54 57 73 78t38.5 55t19.5 64q0 46 -34.5 73t-129.5 27v25h576v-25q-221 -5 -506 -301l-303 -317h133l332 -431q93 -120 139 -176
t93 -97.5t79.5 -51.5t81.5 -10zM72 0v25q47 0 73 4.5t47 20t29 46t8 80.5v1081q0 96 -33 124t-124 28v25h522v-25q-47 0 -73.5 -5t-48 -20.5t-30 -46t-8.5 -80.5v-1081q0 -96 34 -123.5t126 -27.5v-25h-522z" />
    <glyph glyph-name="uni040D" unicode="&#x40d;" horiz-adv-x="1609" 
d="M707 1733l165 -215l-6 -9l-245 123q-74 37 -98.5 61t-24.5 60q0 32 22.5 55t54.5 23q34 0 61.5 -20.5t70.5 -77.5zM72 0v25q47 0 73 4.5t47 20t29 46t8 80.5v1081q0 96 -33 124t-124 28v25h522v-25q-47 0 -73.5 -5t-48 -20.5t-30 -46t-8.5 -80.5v-1056l737 1091
q-6 72 -40.5 94.5t-116.5 22.5v25h524v-25q-47 0 -73.5 -5t-48 -20.5t-30 -46t-8.5 -80.5v-1081q0 -96 34 -123.5t126 -27.5v-25h-524v25q92 0 126 27.5t34 123.5v1063l-740 -1092q6 -77 40.5 -99.5t119.5 -22.5v-25h-522z" />
    <glyph glyph-name="afii10062" unicode="&#x40e;" horiz-adv-x="1372" 
d="M735 1563q-163 0 -265.5 84t-102.5 194q0 64 36.5 102.5t96.5 38.5q51 0 81.5 -29.5t30.5 -76.5q0 -50 -29 -80.5t-75 -30.5q-32 0 -80 23q-17 8 -24 1.5t-3 -26.5q6 -25 21.5 -42.5t51 -33t100.5 -23t161 -7.5t161 7.5t100.5 23t51 33t21.5 42.5q4 20 -3 26.5t-24 -1.5
q-48 -23 -79 -23q-46 0 -75.5 30.5t-29.5 80.5q0 47 31 76.5t82 29.5q60 0 96.5 -38.5t36.5 -102.5q0 -110 -103 -194t-266 -84zM201 1241q-57 104 -96.5 134.5t-104.5 33.5v25h549v-25q-71 0 -109 -24t-39 -64.5t25 -93.5l403 -760l258 633q65 149 27.5 227.5t-188.5 81.5
v25h446v-25q-71 -4 -130.5 -83.5t-119.5 -225.5l-358 -867q-24 -58 -48 -99.5t-58 -78.5t-80 -56t-103 -19q-125 0 -209 76.5t-84 172.5q0 61 37.5 102.5t99.5 41.5q58 0 95 -37t37 -96q0 -32 -19 -63t-38 -57t-19 -46q0 -32 26.5 -51t81.5 -19q98 0 153.5 66.5t55.5 160.5
q0 56 -24 122.5t-80 170.5z" />
    <glyph glyph-name="afii10145" unicode="&#x40f;" horiz-adv-x="1593" 
d="M565 0h-493v25q47 0 73 4.5t47 20t29 46t8 80.5v1081q0 96 -33 124t-124 28v25h522v-25q-47 0 -73.5 -5t-48 -20.5t-30 -46t-8.5 -80.5v-1105q0 -80 31.5 -103.5t112.5 -23.5h438q81 0 112 23.5t31 103.5v1105q0 50 -8.5 80.5t-30 46t-48 20.5t-73.5 5v25h523v-25
q-46 0 -73 -5t-48 -20.5t-29 -46t-8 -80.5v-1081q0 -50 8 -80.5t29.5 -46t47.5 -20t73 -4.5v-25h-488q-207 0 -223 -430h-23q-16 430 -223 430z" />
    <glyph glyph-name="afii10017" unicode="&#x410;" 
d="M793 0v25q99 0 135 43t2 151l-103 311h-481l-55 -172q-25 -77 -30.5 -135.5t5.5 -96t38 -60.5t62.5 -32t84.5 -9v-25h-451v25q58 1 99 30t79 100t80 203l309 963q-21 52 -47 70t-84 18v25h303l406 -1235q33 -99 74.5 -136.5t113.5 -37.5v-25h-540zM354 559h465l-235 717z
" />
    <glyph glyph-name="afii10018" unicode="&#x411;" horiz-adv-x="1329" 
d="M725 807q270 0 403.5 -102.5t133.5 -282.5q0 -199 -137 -310.5t-357 -111.5h-696v25q47 0 73 4.5t47 20t29 46t8 80.5v1081q0 96 -33 124t-124 28v25h1073l6 -471h-23q-35 446 -395 446h-155q-83 0 -113.5 -32t-30.5 -120v-458q141 8 291 8zM1044 395q0 385 -350 385
q-134 0 -260 -8v-596q0 -88 29.5 -119.5t111.5 -31.5h160q151 0 230 95t79 275z" />
    <glyph glyph-name="afii10019" unicode="&#x412;" horiz-adv-x="1331" 
d="M72 0v25q47 0 73 4.5t47 20t29 46t8 80.5v1081q0 96 -33 124t-124 28v25h678q212 0 327 -92.5t115 -251.5q0 -147 -99 -233.5t-284 -108.5q210 -14 323 -103.5t113 -259.5q0 -181 -131.5 -283t-345.5 -102h-696zM434 1257v-497h281q145 0 208.5 80.5t63.5 242.5
q0 326 -244 326h-168q-82 0 -111.5 -32t-29.5 -120zM1028 367q0 364 -313 364h-281v-555q0 -88 29.5 -119.5t111.5 -31.5h160q154 0 223.5 87t69.5 255z" />
    <glyph glyph-name="afii10020" unicode="&#x413;" horiz-adv-x="1181" 
d="M72 0v25q90 0 123.5 27.5t33.5 123.5v1081q0 96 -33 124t-124 28v25h1052l11 -523h-23q-19 230 -130.5 364t-283.5 134h-120q-83 0 -113.5 -32t-30.5 -120v-1081q0 -41 13 -70.5t31.5 -45t50.5 -23.5t58.5 -10t67.5 -2v-25h-583z" />
    <glyph glyph-name="afii10021" unicode="&#x414;" horiz-adv-x="1421" 
d="M395 0q-86 0 -149.5 -35.5t-100 -97.5t-54.5 -135.5t-21 -161.5h-23v455h135q85 170 130.5 424t62.5 669q4 92 -4.5 148.5t-34 87.5t-60 42t-92.5 13v25h1168v-25q-47 0 -73.5 -5t-48 -20.5t-30 -46t-8.5 -80.5v-1183q0 -31 12 -40t45 -9h107v-455h-23q-3 88 -21 161.5
t-54.5 135.5t-100 97.5t-149.5 35.5h-613zM987 1282q0 80 -31 103.5t-112 23.5h-279q-77 0 -112.5 -32.5t-38.5 -108.5l-6 -150q-17 -407 -61 -656.5t-130 -436.5h627q81 0 112 23.5t31 103.5v1130z" />
    <glyph glyph-name="afii10022" unicode="&#x415;" horiz-adv-x="1320" 
d="M72 0v25q90 0 123.5 27.5t33.5 123.5v1081q0 96 -33 124t-124 28v25h1073l6 -492h-23q-36 467 -395 467h-155q-83 0 -113.5 -32t-30.5 -120v-505h125q150 0 214 69t67 234h22v-637h-22q-6 165 -70 236t-211 71h-125v-549q0 -88 30.5 -119.5t113.5 -31.5h167
q188 0 313.5 131t178.5 376h23l-78 -532h-1110z" />
    <glyph glyph-name="afii10024" unicode="&#x416;" horiz-adv-x="2201" 
d="M838 0v25q47 0 73 4.5t47 20t29 46t8 80.5v1081q0 96 -33 124t-124 28v25h516v-25q-47 0 -73.5 -5t-48 -20.5t-30 -46t-8.5 -80.5v-1081q0 -96 34 -123.5t126 -27.5v-25h-516zM0 25q64 0 108.5 20.5t110 93t164.5 221.5l289 431h112l-249 317q-108 137 -234 217.5
t-252 83.5v25h563v-25q-95 0 -127 -27t-32 -73q0 -18 4.5 -34.5t17.5 -37t22.5 -33t35 -44t38.5 -48.5l297 -379l-501 -733h-367v25zM2202 25v-25h-379l-502 733l303 379q7 8 22.5 28t21 26.5t17.5 22t16 22l12 19.5t11 20.5t7 18t5 20.5t1 20q0 46 -32.5 73t-127.5 27v25
h575v-25q-125 -3 -254 -84.5t-237 -216.5l-256 -317h123l289 -431q100 -150 166 -222.5t110 -92.5t109 -20z" />
    <glyph glyph-name="afii10025" unicode="&#x417;" horiz-adv-x="1284" 
d="M674 1454q202 0 318 -90t116 -252q0 -311 -436 -352q223 3 351 -89t128 -272q0 -104 -43 -185.5t-119 -131.5t-174 -76t-213 -26t-215 34.5t-164.5 89t-101.5 118.5t-37 126q0 63 37 105.5t100 42.5q58 0 93.5 -36t35.5 -93q0 -44 -21.5 -78.5t-43 -63.5t-21.5 -59
q0 -61 83 -108.5t222 -47.5q181 0 271 94.5t90 274.5q0 186 -77.5 276t-248.5 90h-207v31h207q141 0 216 87t75 245q0 147 -76.5 231t-210.5 84q-175 0 -282 -137t-119 -356h-23v514h23q2 -41 19 -60.5t63 -19.5q27 0 66.5 14t78 31t103.5 31t137 14z" />
    <glyph glyph-name="afii10026" unicode="&#x418;" horiz-adv-x="1609" 
d="M72 0v25q47 0 73 4.5t47 20t29 46t8 80.5v1081q0 96 -33 124t-124 28v25h522v-25q-47 0 -73.5 -5t-48 -20.5t-30 -46t-8.5 -80.5v-1056l737 1091q-6 72 -40.5 94.5t-116.5 22.5v25h524v-25q-47 0 -73.5 -5t-48 -20.5t-30 -46t-8.5 -80.5v-1081q0 -96 34 -123.5t126 -27.5
v-25h-524v25q92 0 126 27.5t34 123.5v1063l-740 -1092q6 -77 40.5 -99.5t119.5 -22.5v-25h-522z" />
    <glyph glyph-name="afii10027" unicode="&#x419;" horiz-adv-x="1609" 
d="M805 1563q-163 0 -266 84t-103 194q0 64 36.5 102.5t96.5 38.5q51 0 82 -29.5t31 -76.5q0 -50 -29 -80.5t-75 -30.5q-32 0 -80 23q-17 8 -24 1.5t-3 -26.5q6 -25 21.5 -42.5t51 -33t100.5 -23t161 -7.5t161 7.5t100.5 23t51 33t21.5 42.5q4 20 -3 26.5t-24 -1.5
q-48 -23 -80 -23q-46 0 -75 30.5t-29 80.5q0 47 30.5 76.5t81.5 29.5q60 0 97 -38.5t37 -102.5q0 -110 -103 -194t-266 -84zM72 0v25q47 0 73 4.5t47 20t29 46t8 80.5v1081q0 96 -33 124t-124 28v25h522v-25q-47 0 -73.5 -5t-48 -20.5t-30 -46t-8.5 -80.5v-1056l737 1091
q-6 72 -40.5 94.5t-116.5 22.5v25h524v-25q-47 0 -73.5 -5t-48 -20.5t-30 -46t-8.5 -80.5v-1081q0 -96 34 -123.5t126 -27.5v-25h-524v25q92 0 126 27.5t34 123.5v1063l-740 -1092q6 -77 40.5 -99.5t119.5 -22.5v-25h-522z" />
    <glyph glyph-name="afii10028" unicode="&#x41a;" horiz-adv-x="1472" 
d="M1483 25v-25h-379l-572 733l359 379q54 57 73 78t38.5 55t19.5 64q0 46 -34.5 73t-129.5 27v25h576v-25q-221 -5 -506 -301l-303 -317h133l332 -431q93 -120 139 -176t93 -97.5t79.5 -51.5t81.5 -10zM72 0v25q47 0 73 4.5t47 20t29 46t8 80.5v1081q0 96 -33 124t-124 28
v25h522v-25q-47 0 -73.5 -5t-48 -20.5t-30 -46t-8.5 -80.5v-1081q0 -96 34 -123.5t126 -27.5v-25h-522z" />
    <glyph glyph-name="afii10029" unicode="&#x41b;" horiz-adv-x="1456" 
d="M862 0v25q47 0 73 4.5t47.5 20t29.5 46t8 80.5v1106q0 80 -31 103.5t-112 23.5h-236q-75 0 -108.5 -31t-36.5 -116l-7 -144q-17 -415 -63 -690q-39 -229 -110.5 -338.5t-176.5 -109.5q-61 0 -100 37t-39 96t33.5 96t87.5 37q37 0 66.5 -16t52 -32t41.5 -16q35 0 61 62.5
t51 189.5q43 225 62 684q5 121 -14.5 184.5t-59.5 84.5t-117 22v25h1120v-25q-47 0 -73.5 -5t-47.5 -20.5t-29.5 -46t-8.5 -80.5v-1081q0 -50 8 -80.5t29.5 -46t48 -20t73.5 -4.5v-25h-522z" />
    <glyph glyph-name="afii10030" unicode="&#x41c;" horiz-adv-x="1859" 
d="M63 0v25q41 0 69.5 14.5t52 52t35 109t11.5 178.5v887q0 64 -38.5 103.5t-116.5 39.5v25h317l568 -1237l493 1237h334v-25q-47 0 -73.5 -5t-48 -20.5t-30 -46t-8.5 -80.5v-1081q0 -96 34 -123.5t126 -27.5v-25h-522v25q47 0 73.5 4.5t48 20t29.5 46t8 80.5v1104
l-512 -1284h-77l-574 1247v-864q0 -107 15 -178t47 -108.5t71.5 -52t98.5 -15.5v-25h-431z" />
    <glyph glyph-name="afii10031" unicode="&#x41d;" horiz-adv-x="1619" 
d="M72 0v25q47 0 73 4.5t47 20t29 46t8 80.5v1081q0 96 -33 124t-124 28v25h522v-25q-47 0 -73.5 -5t-48 -20.5t-30 -46t-8.5 -80.5v-503h750v503q0 50 -8.5 80.5t-30 46t-48 20.5t-73.5 5v25h524v-25q-47 0 -73.5 -5t-47.5 -20.5t-29.5 -46t-8.5 -80.5v-1081q0 -50 8 -80.5
t29.5 -46t48 -20t73.5 -4.5v-25h-524v25q92 0 126 27.5t34 123.5v549h-750v-549q0 -96 34 -123.5t126 -27.5v-25h-522z" />
    <glyph glyph-name="afii10032" unicode="&#x41e;" horiz-adv-x="1679" 
d="M840 1454q158 0 290 -53t224 -148.5t143 -233t51 -302.5q0 -333 -193.5 -535t-512.5 -202q-321 0 -516 202t-195 535q0 220 88 387.5t249 258.5t372 91zM840 1430q-236 0 -360 -182t-124 -531t124 -531t362 -182q235 0 358 182t123 531t-123.5 531t-359.5 182z" />
    <glyph glyph-name="afii10033" unicode="&#x41f;" horiz-adv-x="1595" 
d="M72 0v25q47 0 73 4.5t47 20t29 46t8 80.5v1081q0 96 -33 124t-124 28v25h1452v-25q-47 0 -73.5 -5t-48 -20.5t-30 -46t-8.5 -80.5v-1081q0 -96 34 -123.5t126 -27.5v-25h-525v25q92 0 126 27.5t34 123.5v1106q0 80 -31 103.5t-112 23.5h-438q-81 0 -112.5 -23.5
t-31.5 -103.5v-1106q0 -96 34 -123.5t126 -27.5v-25h-522z" />
    <glyph glyph-name="afii10034" unicode="&#x420;" horiz-adv-x="1304" 
d="M72 0v25q47 0 73 4.5t47 20t29 46t8 80.5v1081q0 96 -33 124t-124 28v25h649q230 0 370 -119t140 -314q0 -198 -146.5 -317t-388.5 -119q-149 0 -262 41v-430q0 -96 47 -123.5t172 -27.5v-25h-581zM434 750q0 -81 68 -120.5t184 -39.5q330 0 330 407q0 412 -314 412h-106
q-93 0 -127.5 -31.5t-34.5 -115.5v-512z" />
    <glyph glyph-name="afii10035" unicode="&#x421;" horiz-adv-x="1476" 
d="M819 1427q-227 0 -345 -180.5t-118 -529.5q0 -348 122 -529.5t356 -181.5q88 0 172 37.5t153 106t113.5 175.5t50.5 234h23v-569h-23q-10 100 -88 100q-32 0 -75.5 -17t-85 -38t-119 -38t-169.5 -17q-187 0 -337 95t-234 263.5t-84 378.5t82.5 378.5t229 263.5t329.5 95
q85 0 160.5 -15.5t119 -33.5t88.5 -33.5t77 -15.5q46 0 62.5 23t18.5 65h23v-537h-23q-9 150 -75.5 269.5t-172.5 185t-231 65.5z" />
    <glyph glyph-name="afii10036" unicode="&#x422;" horiz-adv-x="1368" 
d="M362 0v25q33 0 55.5 1.5t50.5 6t46 14.5t35 26t25 42t8 61v1182q0 51 -50 51q-95 0 -170 -31t-122 -79t-80.5 -116.5t-49.5 -133t-24 -138.5h-23l31 523h1180l31 -523h-23q-8 74 -23.5 139t-49 133t-81 116t-122.5 79t-170 31q-50 0 -50 -51v-1182q0 -35 8 -61t25 -42
t35 -26t46 -14.5t50.5 -6t55.5 -1.5v-25h-644z" />
    <glyph glyph-name="afii10037" unicode="&#x423;" horiz-adv-x="1372" 
d="M201 1241q-57 104 -96.5 134.5t-104.5 33.5v25h549v-25q-71 0 -109 -24t-39 -64.5t25 -93.5l403 -760l258 633q65 149 27.5 227.5t-188.5 81.5v25h446v-25q-71 -4 -130.5 -83.5t-119.5 -225.5l-358 -867q-24 -58 -48 -99.5t-58 -78.5t-80 -56t-103 -19q-125 0 -209 76.5
t-84 172.5q0 61 37.5 102.5t99.5 41.5q58 0 95 -37t37 -96q0 -32 -19 -63t-38 -57t-19 -46q0 -32 26.5 -51t81.5 -19q98 0 153.5 66.5t55.5 160.5q0 56 -24 122.5t-80 170.5z" />
    <glyph glyph-name="afii10038" unicode="&#x424;" horiz-adv-x="1779" 
d="M786 1298q0 96 -33 124t-124 28v25h522v-25q-47 0 -73.5 -5t-48 -20.5t-30 -46t-8.5 -80.5v-34q321 -3 501.5 -137t180.5 -369q0 -241 -182.5 -377.5t-499.5 -136.5v-68q0 -96 34 -123.5t126 -27.5v-25h-522v25q47 0 73 4.5t47 20t29 46t8 80.5v68q-320 3 -500 133.5
t-180 359.5q0 244 179.5 383t500.5 144v34zM1462 737q0 257 -113.5 378t-357.5 124v-971q241 3 356 121.5t115 347.5zM317 758q0 -238 115 -362t354 -128v971q-244 -4 -356.5 -119.5t-112.5 -361.5z" />
    <glyph glyph-name="afii10039" unicode="&#x425;" horiz-adv-x="1435" 
d="M805 0v25q84 0 122 20.5t38 71.5q0 29 -20.5 66.5t-106.5 170.5l-195 299l-194 -295q-92 -138 -78.5 -235.5t127.5 -97.5v-25h-498v25q111 4 211 90.5t203 244.5l211 322l-263 405q-52 80 -86.5 130.5t-66 89t-51 57t-45 30t-45 13.5t-52.5 2v25h602v-25q-77 0 -112 -16
t-35 -56q0 -11 2.5 -23t10 -28t13.5 -28t20 -34.5t23 -37t29 -44.5t31 -48l193 -297l188 301q84 132 64 221.5t-136 89.5v25h490v-25q-108 -4 -197.5 -81t-187.5 -232l-205 -326l268 -416q131 -204 196.5 -265t162.5 -64v-25h-631z" />
    <glyph glyph-name="afii10040" unicode="&#x426;" horiz-adv-x="1572" 
d="M1159 0h-1087v25q47 0 73 4.5t47 20t29 46t8 80.5v1081q0 96 -33 124t-124 28v25h522v-25q-47 0 -73.5 -5t-48 -20.5t-30 -46t-8.5 -80.5v-1105q0 -80 31.5 -103.5t112.5 -23.5h417q81 0 112.5 23.5t31.5 103.5v1105q0 50 -8.5 80.5t-30 46t-48 20.5t-73.5 5v25h524v-25
q-47 0 -73.5 -5t-48 -20.5t-30 -46t-8.5 -80.5v-1183q0 -31 12.5 -40t45.5 -9h106v-455h-22q-3 88 -21.5 161.5t-55 135.5t-100 97.5t-149.5 35.5z" />
    <glyph glyph-name="afii10041" unicode="&#x427;" horiz-adv-x="1503" 
d="M868 0v25q58 0 91.5 5t60 22t37 50t10.5 88v494q-83 -65 -201.5 -100t-244.5 -35q-90 0 -165.5 17t-135.5 51.5t-93.5 93t-33.5 135.5v409q0 98 -33.5 126t-124.5 28v25h522v-25q-47 0 -73.5 -5t-48 -20.5t-30 -46.5t-8.5 -82v-405q0 -136 81.5 -194t236.5 -58
q214 0 352 121v538q0 50 -8 80.5t-29 46t-48 20.5t-73 5v25h523v-25q-47 0 -73.5 -5t-48 -20.5t-30 -46t-8.5 -80.5v-1081q0 -96 34 -123.5t126 -27.5v-25h-564z" />
    <glyph glyph-name="afii10042" unicode="&#x428;" horiz-adv-x="2293" 
d="M72 1434h522v-25q-47 0 -73.5 -5t-48 -20.5t-30 -46t-8.5 -80.5v-1105q0 -80 31.5 -103.5t112.5 -23.5h329q79 0 108 23.5t29 103.5v1105q0 96 -33 124t-124 28v25h522v-25q-47 0 -73.5 -5t-48 -20.5t-30 -46t-8.5 -80.5v-1105q0 -80 30.5 -103.5t109.5 -23.5h327
q81 0 112.5 23.5t31.5 103.5v1105q0 50 -8.5 80.5t-30 46t-48 20.5t-73.5 5v25h522v-25q-46 0 -73 -5t-48 -20.5t-29 -46t-8 -80.5v-1081q0 -50 8 -80.5t29.5 -46t47.5 -20t73 -4.5v-25h-2150v25q47 0 73 4.5t47 20t29 46t8 80.5v1081q0 96 -33 124t-124 28v25z" />
    <glyph glyph-name="afii10043" unicode="&#x429;" horiz-adv-x="2293" 
d="M72 1434h522v-25q-47 0 -73.5 -5t-48 -20.5t-30 -46t-8.5 -80.5v-1105q0 -80 31.5 -103.5t112.5 -23.5h329q79 0 108 23.5t29 103.5v1105q0 96 -33 124t-124 28v25h522v-25q-47 0 -73.5 -5t-48 -20.5t-30 -46t-8.5 -80.5v-1105q0 -80 30.5 -103.5t109.5 -23.5h327
q81 0 112.5 23.5t31.5 103.5v1105q0 50 -8.5 80.5t-30 46t-48 20.5t-73.5 5v25h524v-25q-47 0 -73.5 -5t-48 -20.5t-30 -46t-8.5 -80.5v-1183q0 -31 12.5 -40t45.5 -9h106v-455h-22q-3 88 -21.5 161.5t-55 135.5t-100 97.5t-149.5 35.5h-1808v25q47 0 73 4.5t47 20t29 46
t8 80.5v1081q0 96 -33 124t-124 28v25z" />
    <glyph glyph-name="afii10044" unicode="&#x42a;" horiz-adv-x="1546" 
d="M969 836q270 0 403 -109t133 -303q0 -202 -136.5 -313t-356.5 -111h-676v25q47 0 73 4.5t47.5 20t29.5 46t8 80.5v1182q0 51 -50 51q-90 0 -165 -43.5t-123.5 -114.5t-77.5 -152t-39 -167h-23l31 502h811v-25q-47 0 -73.5 -5t-48 -20.5t-30 -46t-8.5 -80.5v-430
q147 9 271 9zM1288 406q0 403 -350 403q-122 0 -240 -8v-625q0 -88 30 -119.5t112 -31.5h139q151 0 230 97t79 284z" />
    <glyph glyph-name="afii10045" unicode="&#x42b;" horiz-adv-x="1875" 
d="M1282 0v25q47 0 73 4.5t47.5 20t29.5 46t8 80.5v1081q0 50 -8 80.5t-29 46t-48 20.5t-73 5v25h522v-25q-47 0 -73.5 -5t-47.5 -20.5t-29.5 -46t-8.5 -80.5v-1081q0 -50 8 -80.5t29.5 -46t48 -20t73.5 -4.5v-25h-522zM702 836q272 0 405.5 -108t133.5 -302
q0 -203 -136 -314.5t-357 -111.5h-676v25q47 0 73 4.5t47 20t29 46t8 80.5v1081q0 96 -33 124t-124 28v25h522v-25q-47 0 -73.5 -5t-48 -20.5t-30 -46t-8.5 -80.5v-430q147 9 268 9zM1024 408q0 401 -346 401q-126 0 -244 -8v-625q0 -88 29.5 -119.5t111.5 -31.5h140
q151 0 230 97.5t79 285.5z" />
    <glyph glyph-name="afii10046" unicode="&#x42c;" horiz-adv-x="1282" 
d="M702 836q272 0 405.5 -108t133.5 -302q0 -203 -136 -314.5t-357 -111.5h-676v25q47 0 73 4.5t47 20t29 46t8 80.5v1081q0 96 -33 124t-124 28v25h522v-25q-47 0 -73.5 -5t-48 -20.5t-30 -46t-8.5 -80.5v-430q147 9 268 9zM1024 408q0 401 -346 401q-126 0 -244 -8v-625
q0 -88 29.5 -119.5t111.5 -31.5h140q151 0 230 97.5t79 285.5z" />
    <glyph glyph-name="afii10047" unicode="&#x42d;" horiz-adv-x="1484" 
d="M672 -20q-114 0 -216 34.5t-170 88.5t-107.5 119t-39.5 126q0 63 37 105.5t100 42.5q58 0 94 -36t36 -93q0 -35 -13.5 -65t-30 -47t-30 -41t-13.5 -48q0 -60 99 -109t227 -49q230 0 356.5 181.5t126.5 527.5v8h-636v29h636q-7 328 -132 498.5t-345 170.5
q-188 0 -300 -135t-126 -364h-22v534h22q2 -42 19 -64t63 -22q36 0 96.5 20.5t140 41t161.5 20.5q186 0 334.5 -95t231.5 -263.5t83 -378.5q0 -157 -52 -294.5t-142.5 -234.5t-217 -152.5t-270.5 -55.5z" />
    <glyph glyph-name="afii10048" unicode="&#x42e;" horiz-adv-x="2250" 
d="M72 0v25q47 0 73 4.5t47 20t29 46t8 80.5v1081q0 96 -33 124t-124 28v25h522v-25q-47 0 -73.5 -5t-48 -20.5t-30 -46t-8.5 -80.5v-503h268q12 318 205.5 509t503.5 191q211 0 372 -91t249 -258.5t88 -387.5q0 -333 -194 -535t-513 -202q-321 0 -516 202t-195 535v8h-268
v-549q0 -96 34 -123.5t126 -27.5v-25h-522zM1411 1430q-236 0 -359.5 -182t-123.5 -531t123.5 -531t361.5 -182q235 0 358 182t123 531t-123.5 531t-359.5 182z" />
    <glyph glyph-name="afii10049" unicode="&#x42f;" horiz-adv-x="1495" 
d="M1059 174v551q-71 -9 -205 -18q-63 -4 -127 -75t-117 -175l-145 -283q-57 -113 -118.5 -153.5t-137.5 -40.5q-157 0 -229 147l18 12q45 -63 113 -63q46 0 81 31t82 116l148 264q62 112 146 169t237 61q-100 5 -177 15.5t-153.5 35t-126 62.5t-80 100t-30.5 145
q0 168 121.5 263.5t316.5 95.5h747v-25q-47 0 -73.5 -5t-47.5 -20.5t-29.5 -46t-8.5 -80.5v-1083q0 -50 8 -79.5t29.5 -45t48 -20t73.5 -4.5v-25h-524v25q47 0 73.5 4.5t48 20t30 45t8.5 79.5zM453 1085q0 -163 106.5 -256.5t302.5 -93.5q27 0 54.5 1.5t45 3.5t49 6t48.5 6
v505q0 50 -8.5 80.5t-30 46t-48 20.5t-73.5 5h-131q-153 0 -234 -91.5t-81 -232.5z" />
    <glyph glyph-name="afii10065" unicode="&#x430;" horiz-adv-x="1054" 
d="M719 750q-8 192 -232 192q-110 0 -193 -39t-83 -94q0 -21 18.5 -43t37 -49t18.5 -62q0 -45 -28 -70.5t-75 -25.5q-48 0 -74 29t-26 78q0 110 117 203.5t299 93.5q54 0 106 -8.5t105.5 -31t93 -56t65 -88.5t25.5 -124v-512q0 -43 15.5 -60t47.5 -17q37 0 70 30l12 -12
q-50 -57 -92.5 -80.5t-97.5 -23.5q-131 0 -131 133v176q-26 -85 -69 -147t-96.5 -96.5t-109.5 -50t-118 -15.5q-117 0 -184.5 54t-67.5 154q0 85 65 144t244 135q115 51 168 76q99 46 136 93t34 114zM717 463v139l-72 -35q-117 -57 -182.5 -94t-117 -78t-70.5 -81t-19 -91
q0 -80 44.5 -127t127.5 -47q123 0 206 114t83 300z" />
    <glyph glyph-name="afii10066" unicode="&#x431;" horiz-adv-x="1167" 
d="M588 -20q-243 0 -374.5 156t-131.5 454q0 139 14.5 250.5t51 211t95 169.5t149 116t210.5 60l197 22q109 12 157 44t45 96l17 2q27 -154 -34 -230t-206 -88l-252 -22q-113 -11 -191.5 -42.5t-122.5 -84t-63 -116t-20 -147.5q0 -81 14 -161q125 293 445 293
q228 0 362.5 -134t134.5 -356q0 -224 -134.5 -358.5t-362.5 -134.5zM588 0q156 0 234.5 119.5t78.5 351.5t-78.5 351.5t-234.5 119.5t-235 -120t-79 -351t79 -351t235 -120z" />
    <glyph glyph-name="afii10067" unicode="&#x432;" horiz-adv-x="1030" 
d="M47 0v20q68 0 98.5 17t30.5 69v730q0 52 -30.5 69t-98.5 17v20h569q142 0 225 -59.5t83 -163.5q0 -102 -80.5 -161.5t-214.5 -70.5q159 -6 250.5 -65t91.5 -170q0 -81 -48.5 -139.5t-123 -85.5t-164.5 -27h-588zM352 840v-342h211q99 0 143 59t44 154q0 109 -46 160
t-141 51h-119q-52 0 -72 -18t-20 -64zM786 244q0 113 -54 172t-187 59h-193v-373q0 -52 23 -68t82 -16h125q105 0 154.5 60t49.5 166z" />
    <glyph glyph-name="afii10068" unicode="&#x433;" horiz-adv-x="866" 
d="M47 0v20q68 0 98.5 17t30.5 69v730q0 52 -30.5 69t-98.5 17v20h780v-369h-18q-9 179 -77.5 264t-174.5 85h-170q-35 0 -35 -31v-764q0 -65 36.5 -86t133.5 -21v-20h-475z" />
    <glyph glyph-name="afii10069" unicode="&#x434;" horiz-adv-x="1021" 
d="M287 0q-70 0 -121.5 -30.5t-81 -84t-44.5 -116.5t-17 -138h-23v389h119q55 108 82.5 244.5t36.5 362.5q5 125 -6.5 188t-39.5 84.5t-86 22.5v20h875v-20q-68 0 -98.5 -17t-30.5 -69v-773q0 -26 12 -34.5t41 -8.5h76v-389h-23q-2 75 -17 138t-44.5 116.5t-81 84
t-121.5 30.5h-407zM262 627q-9 -221 -36 -357t-81 -250h424q59 0 83 19.5t24 66.5v730q0 86 -92 86h-203q-58 0 -84 -34t-29 -112q-1 -25 -3 -74.5t-3 -74.5z" />
    <glyph glyph-name="afii10070" unicode="&#x435;" horiz-adv-x="1073" 
d="M82 467q0 224 128 360t339 136q210 0 326.5 -118.5t111.5 -320.5h-741q0 -192 99.5 -299.5t277.5 -107.5q170 0 274 103t121 292l14 -2q-9 -240 -140.5 -385t-344.5 -145q-210 0 -337.5 133t-127.5 354zM551 942q-140 0 -220 -106.5t-85 -288.5q93 0 197.5 -0.5
t147.5 -0.5t92.5 0.5t76 2t53.5 4.5q6 186 -62 287.5t-200 101.5z" />
    <glyph glyph-name="afii10072" unicode="&#x436;" horiz-adv-x="1597" 
d="M1130 530l287 -411q40 -56 76 -77t104 -22v-20h-301l-342 481l228 260q25 28 36 49.5t11 51.5q0 80 -117 80v20h442v-20q-100 -3 -174 -39.5t-174 -149.5l-178 -203h102zM582 0v20q68 0 98.5 17t30.5 69v730q0 52 -30.5 69t-98.5 17v20h428v-20q-68 0 -98.5 -17
t-30.5 -69v-730q0 -52 30.5 -69t98.5 -17v-20h-428zM467 530h96l-178 203q-100 113 -173 149.5t-171 39.5v20h438v-20q-117 0 -117 -80q0 -30 11.5 -51t36.5 -50l227 -260l-340 -481h-297v20q68 1 104 22t76 77z" />
    <glyph glyph-name="afii10073" unicode="&#x437;" horiz-adv-x="911" 
d="M418 -20q-166 0 -268.5 68t-102.5 173q0 52 28.5 82.5t74.5 30.5q43 0 69.5 -27t26.5 -71q0 -35 -28 -73.5t-28 -66.5q0 -33 33.5 -55.5t76.5 -31.5t89 -9q119 0 191.5 59t72.5 187q0 49 -11.5 90t-38 76t-75 55t-116.5 20h-123v23h141q211 0 211 215q0 103 -57 160
t-160 57q-131 0 -206.5 -96t-84.5 -254h-18v364h16q3 -53 51 -53q23 0 63 15t98.5 30t127.5 15q161 0 252.5 -65t91.5 -169q0 -101 -87.5 -159.5t-231.5 -69.5q161 -6 251.5 -68.5t90.5 -179.5q0 -123 -110 -197.5t-310 -74.5z" />
    <glyph glyph-name="afii10074" unicode="&#x438;" horiz-adv-x="1183" 
d="M47 0v20q68 0 98.5 17t30.5 69v730q0 52 -30.5 69t-98.5 17v20h434v-20q-68 0 -98.5 -17t-30.5 -69v-705l477 727q-6 37 -37 50.5t-90 13.5v20h435v-20q-68 0 -98.5 -17t-30.5 -69v-730q0 -52 30.5 -69t98.5 -17v-20h-435v20q68 0 98.5 17t30.5 69v711l-477 -729
q4 -40 35 -54t92 -14v-20h-434z" />
    <glyph glyph-name="afii10075" unicode="&#x439;" horiz-adv-x="1183" 
d="M592 1081q-137 0 -218 73.5t-81 170.5q0 57 34 92t89 35q45 0 73.5 -27.5t28.5 -70.5q0 -45 -27 -73t-69 -28q-30 0 -70 19q-35 15 -26 -25q8 -42 63.5 -63t202.5 -21t202.5 21t63.5 63q4 20 -3 26.5t-24 -1.5q-40 -19 -67 -19q-43 0 -70.5 28t-27.5 73q0 43 28.5 70.5
t73.5 27.5q55 0 89 -35t34 -92q0 -96 -81 -170t-218 -74zM47 0v20q68 0 98.5 17t30.5 69v730q0 52 -30.5 69t-98.5 17v20h434v-20q-68 0 -98.5 -17t-30.5 -69v-705l477 727q-6 37 -37 50.5t-90 13.5v20h435v-20q-68 0 -98.5 -17t-30.5 -69v-730q0 -52 30.5 -69t98.5 -17v-20
h-435v20q68 0 98.5 17t30.5 69v711l-477 -729q4 -40 35 -54t92 -14v-20h-434z" />
    <glyph glyph-name="afii10076" unicode="&#x43a;" horiz-adv-x="1085" 
d="M604 530l322 -411q42 -56 77.5 -77t102.5 -22v-20h-305l-377 481l281 260q28 26 40.5 46.5t12.5 48.5q0 86 -125 86v20h448v-20q-89 -3 -159.5 -41t-190.5 -148l-221 -203h94zM47 0v20q68 0 98.5 17t30.5 69v730q0 52 -30.5 69t-98.5 17v20h434v-20q-68 0 -98.5 -17
t-30.5 -69v-730q0 -52 30.5 -69t98.5 -17v-20h-434z" />
    <glyph glyph-name="afii10077" unicode="&#x43b;" horiz-adv-x="1060" 
d="M262 221q16 57 28.5 190.5t14.5 215.5q3 127 -8 188.5t-38 83.5t-85 23v20h840v-20q-68 0 -98.5 -17t-30.5 -69v-730q0 -52 30.5 -69t98.5 -17v-20h-434v20q68 0 98.5 17t30.5 69v730q0 86 -93 86h-159q-68 0 -92 -32t-29 -118l-8 -154q-19 -345 -67.5 -491.5
t-154.5 -146.5q-50 0 -78 28t-28 78q0 46 25 76.5t67 30.5q34 0 68 -24t47 -24q35 0 55 76z" />
    <glyph glyph-name="afii10078" unicode="&#x43c;" horiz-adv-x="1390" 
d="M35 0v20q67 0 98 45t31 148v606q-5 103 -129 103v20h287l383 -795l350 795h288v-20q-72 0 -100.5 -19.5t-28.5 -66.5v-730q0 -47 28.5 -66.5t100.5 -19.5v-20h-434v20q72 0 100.5 19.5t28.5 66.5v740l-379 -850h-65l-408 850v-633q0 -103 41 -148t127 -45v-20h-319z" />
    <glyph glyph-name="afii10079" unicode="&#x43d;" horiz-adv-x="1179" 
d="M47 0v20q68 0 98.5 17t30.5 69v730q0 52 -30.5 69t-98.5 17v20h434v-20q-68 0 -98.5 -17t-30.5 -69v-338h475v338q0 52 -30.5 69t-98.5 17v20h435v-20q-68 0 -98.5 -17t-30.5 -69v-730q0 -52 30.5 -69t98.5 -17v-20h-435v20q68 0 98.5 17t30.5 69v369h-475v-369
q0 -52 30.5 -69t98.5 -17v-20h-434z" />
    <glyph glyph-name="afii10080" unicode="&#x43e;" horiz-adv-x="1171" 
d="M586 -20q-227 0 -365.5 135t-138.5 358q0 221 138.5 355.5t365.5 134.5t365.5 -134.5t138.5 -355.5q0 -223 -138.5 -358t-365.5 -135zM586 0q157 0 238 120t81 351t-81 351t-238 120t-238.5 -120.5t-81.5 -350.5t81.5 -350.5t238.5 -120.5z" />
    <glyph glyph-name="afii10081" unicode="&#x43f;" horiz-adv-x="1165" 
d="M47 0v20q68 0 98.5 17t30.5 69v730q0 52 -30.5 69t-98.5 17v20h1071v-20q-68 0 -98.5 -17t-30.5 -69v-730q0 -52 30.5 -69t98.5 -17v-20h-434v20q68 0 98.5 17t30.5 69v730q0 47 -24 66.5t-82 19.5h-248q-52 0 -79.5 -22.5t-27.5 -63.5v-730q0 -52 30.5 -69t98.5 -17v-20
h-434z" />
    <glyph glyph-name="afii10082" unicode="&#x440;" horiz-adv-x="1241" 
d="M47 -430v20q68 0 98.5 17t30.5 69v1141q0 67 -25.5 86t-103.5 19v20h305v-274q39 144 137.5 219.5t239.5 75.5q194 0 312 -133.5t118 -354.5q0 -223 -118.5 -359t-311.5 -136q-141 0 -239.5 74.5t-137.5 217.5v-587q0 -57 41 -76t127 -19v-20h-473zM668 915
q-146 0 -231 -116.5t-85 -323.5q0 -211 85 -329.5t231 -118.5q149 0 228 115.5t79 332.5q0 213 -77 326.5t-230 113.5z" />
    <glyph glyph-name="afii10083" unicode="&#x441;" horiz-adv-x="1069" 
d="M846 543q-49 0 -80 29.5t-31 76.5q0 35 18 64.5t36 53.5t18 44q0 53 -62 90t-151 37q-162 0 -257 -113.5t-95 -300.5q0 -189 104.5 -298t278.5 -109q166 0 272 108.5t121 300.5l16 -2q-11 -249 -142 -396.5t-345 -147.5q-210 0 -337.5 135.5t-127.5 351.5
q0 221 136 358.5t345 137.5q88 0 164 -28.5t125 -73.5t76.5 -98.5t27.5 -105.5t-29 -83t-81 -31z" />
    <glyph glyph-name="afii10084" unicode="&#x442;" horiz-adv-x="946" 
d="M256 0v20q68 0 98.5 17t30.5 69v791q0 31 -35 31q-14 0 -30.5 -2t-45 -10t-54 -21.5t-54.5 -40.5t-50.5 -63t-37.5 -92.5t-19 -125.5h-18v369h864v-369h-18q-3 69 -19 125.5t-37.5 92.5t-50.5 63t-54.5 40.5t-54 21.5t-45 10t-30.5 2q-35 0 -35 -31v-791q0 -52 30.5 -69
t98.5 -17v-20h-434z" />
    <glyph glyph-name="afii10085" unicode="&#x443;" horiz-adv-x="1064" 
d="M162 758q-43 103 -77.5 132t-94.5 32v20h459v-20q-85 0 -109 -37t10 -123l289 -715l207 647q69 222 -150 228v20h369v-20q-73 -4 -112.5 -51.5t-80.5 -178.5l-288 -897q-38 -118 -95.5 -182t-156.5 -64q-97 0 -166.5 58t-69.5 143q0 55 31 88t82 33q49 0 77.5 -31
t28.5 -82q0 -32 -15.5 -56t-31.5 -43t-16 -38q0 -53 80 -53q92 0 144 61t52 152q0 93 -82 291z" />
    <glyph glyph-name="afii10086" unicode="&#x444;" horiz-adv-x="1427" 
d="M500 -430v20q68 0 98.5 17t30.5 69v304q-247 1 -397 136.5t-150 356.5t150.5 355.5t396.5 134.5v467q0 52 -30.5 69t-98.5 17v20h299v-573q247 -1 397 -135.5t150 -354.5q0 -223 -150.5 -358t-396.5 -135v-304q0 -52 30.5 -69t98.5 -17v-20h-428zM262 471
q0 -229 94.5 -350t272.5 -121v942q-179 -2 -273 -122.5t-94 -348.5zM1165 471q0 230 -94.5 350.5t-271.5 120.5v-942q179 2 272.5 122t93.5 349z" />
    <glyph glyph-name="afii10087" unicode="&#x445;" horiz-adv-x="1009" 
d="M250 213l166 238l-183 266q-50 74 -83 116t-59.5 61.5t-43.5 23.5t-47 4v20h432v-20q-45 0 -66.5 -11t-21.5 -39q0 -10 3.5 -21t12.5 -26t17 -27t25 -36t28 -41l115 -168l139 199q51 75 32 122.5t-93 47.5v20h340v-20q-130 0 -248 -168l-156 -222l205 -303
q88 -129 134 -168.5t112 -40.5v-20h-459v20q52 0 74 11.5t22 44.5q0 21 -15 50.5t-65 102.5l-137 201l-149 -217q-43 -63 -36.5 -105.5t42 -65t88.5 -22.5v-20h-375v20q66 0 122 45.5t128 147.5z" />
    <glyph glyph-name="afii10088" unicode="&#x446;" horiz-adv-x="1155" 
d="M827 0h-780v20q68 0 98.5 17t30.5 69v730q0 52 -30.5 69t-98.5 17v20h434v-20q-68 0 -98.5 -17t-30.5 -69v-730q0 -41 27.5 -63.5t79.5 -22.5h243q59 0 83 19.5t24 66.5v730q0 52 -30.5 69t-98.5 17v20h434v-20q-68 0 -98.5 -17t-30.5 -69v-773q0 -26 12 -34.5t41 -8.5
h76v-389h-22q-2 75 -17 138t-45 116.5t-81.5 84t-121.5 30.5z" />
    <glyph glyph-name="afii10089" unicode="&#x447;" horiz-adv-x="1077" 
d="M596 0v20q68 0 98.5 17t30.5 69v332q-135 -69 -317 -69q-52 0 -96.5 8.5t-88 29.5t-69 65.5t-25.5 107.5v256q0 52 -30.5 69t-98.5 17v20h430v-20q-68 0 -98.5 -17t-30.5 -69v-250q0 -85 52.5 -132.5t142.5 -47.5q125 0 229 55v375q0 52 -30.5 69t-98.5 17v20h434v-20
q-68 0 -98.5 -17t-30.5 -69v-730q0 -52 30.5 -69t98.5 -17v-20h-434z" />
    <glyph glyph-name="afii10090" unicode="&#x448;" horiz-adv-x="1679" 
d="M47 942h434v-20q-68 0 -98.5 -17t-30.5 -69v-730q0 -41 27.5 -63.5t79.5 -22.5h164q68 0 98.5 17t30.5 69v730q0 52 -30.5 69t-98.5 17v20h434v-20q-68 0 -98.5 -17t-30.5 -69v-730q0 -86 106 -86h164q68 0 98.5 17t30.5 69v730q0 52 -30.5 69t-98.5 17v20h434v-20
q-68 0 -98.5 -17t-30.5 -69v-730q0 -41 27.5 -63.5t79.5 -22.5v-20h-1563v20q68 0 98.5 17t30.5 69v730q0 52 -30.5 69t-98.5 17v20z" />
    <glyph glyph-name="afii10091" unicode="&#x449;" horiz-adv-x="1673" 
d="M47 942h434v-20q-68 0 -98.5 -17t-30.5 -69v-730q0 -41 27.5 -63.5t79.5 -22.5h164q68 0 98.5 17t30.5 69v730q0 52 -30.5 69t-98.5 17v20h434v-20q-68 0 -98.5 -17t-30.5 -69v-730q0 -86 106 -86h187q58 0 82 19.5t24 66.5v730q0 52 -30.5 69t-98.5 17v20h434v-20
q-68 0 -98.5 -17t-30.5 -69v-773q0 -26 12 -34.5t41 -8.5h76v-389h-22q-2 75 -17 138t-44.5 116.5t-81 84t-121.5 30.5h-1299v20q68 0 98.5 17t30.5 69v730q0 52 -30.5 69t-98.5 17v20z" />
    <glyph glyph-name="afii10092" unicode="&#x44a;" horiz-adv-x="1161" 
d="M793 545q163 0 250 -69t87 -200q0 -67 -26.5 -121t-71.5 -87t-101.5 -50.5t-119.5 -17.5h-561v20q68 0 98.5 17t30.5 69v791q0 31 -35 31q-14 0 -30 -2t-45 -10t-55.5 -21.5t-56 -40.5t-51.5 -63t-38 -92.5t-19 -125.5h-18v369h653v-20q-68 0 -98.5 -17t-30.5 -69v-297
q123 6 238 6zM967 264q0 52 -11 95t-37 81.5t-76 60t-120 21.5q-109 0 -168 -4v-416q0 -52 23 -68t81 -16h91q217 0 217 246z" />
    <glyph glyph-name="afii10093" unicode="&#x44b;" horiz-adv-x="1425" 
d="M944 0v20q68 0 98.5 17t30.5 69v730q0 52 -30.5 69t-98.5 17v20h434v-20q-68 0 -98.5 -17t-30.5 -69v-730q0 -52 30.5 -69t98.5 -17v-20h-434zM588 545q165 0 252.5 -69t87.5 -200q0 -132 -93 -204t-225 -72h-563v20q68 0 98.5 17t30.5 69v730q0 52 -30.5 69t-98.5 17v20
h434v-20q-68 0 -98.5 -17t-30.5 -69v-297q123 6 236 6zM764 262q0 53 -11.5 96.5t-37.5 82t-76 60t-119 21.5q-111 0 -168 -4v-416q0 -52 23 -68t82 -16h90q217 0 217 244z" />
    <glyph glyph-name="afii10094" unicode="&#x44c;" horiz-adv-x="958" 
d="M588 545q165 0 252.5 -69t87.5 -200q0 -132 -93 -204t-225 -72h-563v20q68 0 98.5 17t30.5 69v730q0 52 -30.5 69t-98.5 17v20h434v-20q-68 0 -98.5 -17t-30.5 -69v-297q123 6 236 6zM764 262q0 53 -11.5 96.5t-37.5 82t-76 60t-119 21.5q-111 0 -168 -4v-416
q0 -52 23 -68t82 -16h90q217 0 217 244z" />
    <glyph glyph-name="afii10095" unicode="&#x44d;" horiz-adv-x="987" 
d="M287 487v23h434q-16 432 -301 432q-138 0 -216 -96t-87 -254h-19v364h17q2 -27 14.5 -38t50.5 -11q24 0 60.5 14t89 28t116.5 14q202 0 330.5 -135t128.5 -355q0 -222 -133.5 -357.5t-349.5 -135.5q-149 0 -255 68t-106 173q0 52 28.5 82.5t74.5 30.5q43 0 69.5 -27
t26.5 -71q0 -32 -27.5 -71.5t-27.5 -68.5q0 -49 57 -72.5t144 -23.5q159 0 237 114t78 345v28h-434z" />
    <glyph glyph-name="afii10096" unicode="&#x44e;" horiz-adv-x="1599" 
d="M47 0v20q68 0 98.5 17t30.5 69v730q0 52 -30.5 69t-98.5 17v20h434v-20q-68 0 -98.5 -17t-30.5 -69v-326h176q11 206 145 329.5t349 123.5q224 0 360 -134.5t136 -355.5q0 -223 -136 -358t-360 -135t-360 135t-136 358v12h-174v-379q0 -52 30.5 -69t98.5 -17v-20h-434z
M1022 0q152 0 231.5 120.5t79.5 350.5t-79.5 350.5t-231.5 120.5t-231.5 -120.5t-79.5 -350.5t79.5 -350.5t231.5 -120.5z" />
    <glyph glyph-name="afii10097" unicode="&#x44f;" horiz-adv-x="1103" 
d="M1057 0h-434v20q68 0 98.5 17t30.5 69v361q-47 -7 -119 -12q-60 -4 -99.5 -27t-53.5 -44.5t-38 -72.5l-8 -16l-86 -186q-24 -54 -56.5 -83.5t-65 -37.5t-81.5 -8q-114 0 -155 86l12 8q22 -33 70 -33q31 0 53.5 21.5t50.5 78.5l84 168q37 72 101.5 105t189.5 47
q-69 3 -124 11t-108 26t-88.5 44.5t-57 69t-21.5 97.5q0 113 90.5 173t238.5 60h576v-20q-68 0 -98.5 -17t-30.5 -69v-730q0 -52 30.5 -69t98.5 -17v-20zM334 713q0 -128 64.5 -182t215.5 -54q70 0 138 10v340q0 50 -26.5 72.5t-84.5 22.5h-102q-101 0 -153 -58.5
t-52 -150.5z" />
    <glyph glyph-name="uni0450" unicode="&#x450;" horiz-adv-x="1073" 
d="M473 1343l166 -215l-6 -8l-246 123q-74 37 -98.5 61t-24.5 60q0 32 23 55t55 23q33 0 60.5 -20.5t70.5 -78.5zM82 467q0 224 128 360t339 136q210 0 326.5 -118.5t111.5 -320.5h-741q0 -192 99.5 -299.5t277.5 -107.5q170 0 274 103t121 292l14 -2q-9 -240 -140.5 -385
t-344.5 -145q-210 0 -337.5 133t-127.5 354zM551 942q-140 0 -220 -106.5t-85 -288.5q93 0 197.5 -0.5t147.5 -0.5t92.5 0.5t76 2t53.5 4.5q6 186 -62 287.5t-200 101.5z" />
    <glyph glyph-name="afii10071" unicode="&#x451;" horiz-adv-x="1073" 
d="M383 1217q-52 0 -83.5 31.5t-31.5 82.5t31.5 83t83.5 32t83.5 -32t31.5 -83t-31.5 -82.5t-83.5 -31.5zM772 1217q-52 0 -83.5 31.5t-31.5 82.5t31.5 83t83.5 32t83.5 -32t31.5 -83t-31.5 -82.5t-83.5 -31.5zM82 467q0 224 128 360t339 136q210 0 326.5 -118.5
t111.5 -320.5h-741q0 -192 99.5 -299.5t277.5 -107.5q170 0 274 103t121 292l14 -2q-9 -240 -140.5 -385t-344.5 -145q-210 0 -337.5 133t-127.5 354zM551 942q-140 0 -220 -106.5t-85 -288.5q93 0 197.5 -0.5t147.5 -0.5t92.5 0.5t76 2t53.5 4.5q6 186 -62 287.5
t-200 101.5z" />
    <glyph glyph-name="afii10099" unicode="&#x452;" horiz-adv-x="1157" 
d="M47 0v20q68 0 98.5 17t30.5 69v1084h-170v22h170v199q0 66 -26 85.5t-103 19.5v20h305v-324h385v-22h-385v-551q37 163 137 243.5t236 80.5t220.5 -82t84.5 -248v-733q0 -150 -79 -230t-236 -125l-6 19q84 29 114.5 77t30.5 148v854q0 137 -58 196.5t-151 59.5
q-77 0 -135 -37.5t-91.5 -103.5t-50 -147.5t-16.5 -178.5v-326q0 -52 30.5 -69t98.5 -17v-20h-434z" />
    <glyph glyph-name="afii10100" unicode="&#x453;" horiz-adv-x="866" 
d="M559 1343q43 58 70.5 78.5t60.5 20.5q32 0 55 -23t23 -55q0 -36 -24.5 -60t-98.5 -61l-246 -123l-6 8zM47 0v20q68 0 98.5 17t30.5 69v730q0 52 -30.5 69t-98.5 17v20h780v-369h-18q-9 179 -77.5 264t-174.5 85h-170q-35 0 -35 -31v-764q0 -65 36.5 -86t133.5 -21v-20
h-475z" />
    <glyph glyph-name="afii10101" unicode="&#x454;" horiz-adv-x="1036" 
d="M82 467q0 222 131.5 359t339.5 137q64 0 121 -15t96 -30t59 -15q23 0 36.5 14t15.5 39h16v-372h-18q-6 96 -43.5 175.5t-108.5 131t-164 51.5q-146 0 -235.5 -106t-89.5 -293v-11h477v-22h-477q9 -189 106 -291t260 -102q175 0 270.5 106.5t110.5 302.5l16 -2
q-11 -252 -134 -398t-339 -146q-207 0 -326.5 132.5t-119.5 354.5z" />
    <glyph glyph-name="afii10102" unicode="&#x455;" horiz-adv-x="890" 
d="M522 0q88 0 145.5 43.5t57.5 134.5q0 34 -9 62t-30 49t-41 35.5t-56.5 28.5t-61.5 22t-70 20q-163 45 -230 80q-147 79 -147 227q0 122 86.5 191.5t214.5 69.5q57 0 111 -16t92.5 -32t58.5 -16q28 0 38.5 15.5t8.5 48.5h17l88 -332l-19 -4q-79 151 -181 233t-210 82
q-88 0 -136 -43t-48 -115q0 -31 8.5 -55.5t27.5 -43.5t38.5 -32.5t53.5 -26.5t59 -21t68 -21q21 -6 31 -9q152 -45 208 -73q136 -69 149 -198q2 -16 2 -32q0 -131 -92 -211.5t-230 -80.5q-66 0 -127 17.5t-107 35.5t-75 18q-33 0 -47.5 -14t-13.5 -57h-17l-84 417l19 4
q75 -194 202 -297.5t248 -103.5z" />
    <glyph glyph-name="afii10103" unicode="&#x456;" horiz-adv-x="524" 
d="M264 1217q-52 0 -83 31.5t-31 82.5t31 83t83 32t83.5 -32t31.5 -83t-31.5 -82.5t-83.5 -31.5zM47 0v20q68 0 98.5 17t30.5 69v711q0 67 -25.5 86t-103.5 19v20h305v-836q0 -52 30.5 -69t98.5 -17v-20h-434z" />
    <glyph glyph-name="afii10104" unicode="&#x457;" horiz-adv-x="528" 
d="M109 1217q-49 0 -78 31.5t-29 82.5q0 52 29 83.5t78 31.5t77.5 -31.5t28.5 -83.5t-28.5 -83t-77.5 -31zM420 1217q-49 0 -78 31.5t-29 82.5q0 52 29 83.5t78 31.5t77.5 -31.5t28.5 -83.5t-28.5 -83t-77.5 -31zM47 0v20q68 0 98.5 17t30.5 69v711q0 67 -25.5 86t-103.5 19
v20h305v-836q0 -52 30.5 -69t98.5 -17v-20h-434z" />
    <glyph glyph-name="afii10105" unicode="&#x458;" horiz-adv-x="524" 
d="M262 1217q-51 0 -83 31.5t-32 82.5t32 83t83 32t83 -32t32 -83t-32 -82.5t-83 -31.5zM352 942v-1042q0 -150 -79 -230t-236 -125l-6 19q84 29 114.5 77t30.5 148v1028q0 67 -26 86t-103 19v20h305z" />
    <glyph glyph-name="afii10106" unicode="&#x459;" horiz-adv-x="1480" 
d="M174 942h830v-20q-68 0 -99 -17t-31 -69v-297q117 6 236 6q165 0 252.5 -69t87.5 -200q0 -132 -92.5 -204t-224.5 -72h-564v20q68 0 98.5 17t30.5 69v730q0 52 -30.5 69t-98.5 17h-129q-59 0 -79 -31.5t-25 -114.5l-8 -149q-20 -357 -66 -502t-156 -145q-50 0 -78 27
t-28 69q0 40 24.5 68t65.5 28q30 0 68 -20.5t53 -20.5q37 0 51 78q14 63 27.5 202.5t15.5 215.5q2 128 -9 189t-38 83t-84 23v20zM1286 262q0 53 -11.5 96.5t-37.5 82t-76 60t-119 21.5q-115 0 -168 -4v-416q0 -52 23 -68t82 -16h90q217 0 217 244z" />
    <glyph glyph-name="afii10107" unicode="&#x45a;" horiz-adv-x="1599" 
d="M47 0v20q68 0 98.5 17t30.5 69v730q0 52 -30.5 69t-98.5 17v20h434v-20q-68 0 -98.5 -17t-30.5 -69v-330h465v330q0 52 -30.5 69t-98.5 17v20h434v-20q-68 0 -98.5 -17t-30.5 -69v-322q111 6 219 6q357 0 357 -252q0 -130 -101.5 -199t-261.5 -69h-518v20q68 0 98.5 17
t30.5 69v377h-465v-377q0 -52 30.5 -69t98.5 -17v-20h-434zM1405 254q0 50 -12.5 91t-40.5 77t-82 56t-129 20q-54 0 -148 -4v-392q0 -52 23 -68t82 -16h57q127 0 188.5 62t61.5 174z" />
    <glyph glyph-name="afii10108" unicode="&#x45b;" horiz-adv-x="1189" 
d="M47 0v20q68 0 98.5 17t30.5 69v1084h-170v22h170v197q0 67 -26 87t-103 20v20h305v-324h385v-22h-385v-555q37 164 140 246t243 82q131 0 213 -79.5t82 -240.5v-537q0 -52 30.5 -69t98.5 -17v-20h-434v20q68 0 98.5 17t30.5 69v547q0 131 -55 188.5t-144 57.5
q-79 0 -139 -37.5t-95 -103.5t-52 -148t-17 -178v-326q0 -52 30.5 -69t98.5 -17v-20h-434z" />
    <glyph glyph-name="afii10109" unicode="&#x45c;" horiz-adv-x="1085" 
d="M631 1343q43 58 70.5 78.5t60.5 20.5q32 0 55 -23t23 -55q0 -36 -24.5 -60t-98.5 -61l-246 -123l-6 8zM604 530l322 -411q42 -56 77.5 -77t102.5 -22v-20h-305l-377 481l281 260q28 26 40.5 46.5t12.5 48.5q0 86 -125 86v20h448v-20q-89 -3 -159.5 -41t-190.5 -148
l-221 -203h94zM47 0v20q68 0 98.5 17t30.5 69v730q0 52 -30.5 69t-98.5 17v20h434v-20q-68 0 -98.5 -17t-30.5 -69v-730q0 -52 30.5 -69t98.5 -17v-20h-434z" />
    <glyph glyph-name="uni045D" unicode="&#x45d;" horiz-adv-x="1183" 
d="M512 1343l166 -215l-6 -8l-246 123q-74 37 -98.5 61t-24.5 60q0 32 23 55t55 23q33 0 60.5 -20.5t70.5 -78.5zM47 0v20q68 0 98.5 17t30.5 69v730q0 52 -30.5 69t-98.5 17v20h434v-20q-68 0 -98.5 -17t-30.5 -69v-705l477 727q-6 37 -37 50.5t-90 13.5v20h435v-20
q-68 0 -98.5 -17t-30.5 -69v-730q0 -52 30.5 -69t98.5 -17v-20h-435v20q68 0 98.5 17t30.5 69v711l-477 -729q4 -40 35 -54t92 -14v-20h-434z" />
    <glyph glyph-name="afii10110" unicode="&#x45e;" horiz-adv-x="1064" 
d="M567 1077q-137 0 -218 73.5t-81 170.5q0 57 34 92t89 35q46 0 74.5 -27.5t28.5 -70.5q0 -45 -27.5 -73t-69.5 -28q-29 0 -69 19q-17 8 -24 1.5t-3 -26.5q8 -42 63.5 -63t202.5 -21q101 0 160.5 11.5t80 28.5t26.5 44q4 20 -3 26.5t-24 -1.5q-40 -19 -68 -19
q-43 0 -70.5 28t-27.5 73q0 43 28.5 70.5t73.5 27.5q55 0 89 -35t34 -92q0 -96 -81 -170t-218 -74zM162 758q-43 103 -77.5 132t-94.5 32v20h459v-20q-85 0 -109 -37t10 -123l289 -715l207 647q69 222 -150 228v20h369v-20q-73 -4 -112.5 -51.5t-80.5 -178.5l-288 -897
q-38 -118 -95.5 -182t-156.5 -64q-97 0 -166.5 58t-69.5 143q0 55 31 88t82 33q49 0 77.5 -31t28.5 -82q0 -32 -15.5 -56t-31.5 -43t-16 -38q0 -53 80 -53q92 0 144 61t52 152q0 93 -82 291z" />
    </font>
</defs>
</svg>
